<?xml version="1.0" standalone="no"?>
<!DOCTYPE svg PUBLIC "-//W3C//DTD SVG 1.1//EN" "http://www.w3.org/Graphics/SVG/1.1/DTD/svg11.dtd" >
<svg xmlns="http://www.w3.org/2000/svg" xmlns:xlink="http://www.w3.org/1999/xlink" version="1.1">
<metadata>
Created by FontForge 20170731 at Tue Aug 11 17:08:06 2015
 By ,,,
Copyright 2014 by (URW)++ Design &#38; Development GmbH
</metadata>
<defs>
<font id="NimbusRomNo9L-Reg" horiz-adv-x="722" >
  <font-face 
    font-family="NimbusRomNo9L"
    font-weight="400"
    font-stretch="normal"
    units-per-em="1000"
    panose-1="0 0 5 0 0 0 0 0 0 0"
    ascent="683"
    descent="-317"
    x-height="450"
    cap-height="662"
    bbox="-165 -309 1000 1053"
    underline-thickness="50"
    underline-position="-200"
    unicode-range="U+0020-FB04"
  />
<missing-glyph horiz-adv-x="250" 
 />
    <glyph glyph-name="ff" unicode="ff" horiz-adv-x="605" 
d="M386 448v22q0 96 47.5 152.5t127.5 56.5q46 0 76.5 -18.5t30.5 -46.5q0 -17 -12 -28t-30 -11q-29 0 -48 36q-20 38 -49 38q-38 0 -49 -34q-7 -17 -7 -80v-87h121v-34h-121v-319q-1 -43 15.5 -60.5t59.5 -19.5h10v-15h-256v15h10q43 2 59 19.5t15 60.5v319h-175v-319
q-2 -42 14.5 -60t59.5 -20h10v-15h-255v15h10q42 2 58.5 20t15.5 60v319h-84v34h84v22q0 96 47 152.5t127 56.5q45 0 75.5 -18.5t30.5 -46.5q0 -16 -12 -27.5t-29 -11.5t-27 8t-21 28q-20 38 -49 38q-37 0 -48 -34q-7 -17 -7 -80v-87h175z" />
    <glyph glyph-name="fi" unicode="fi" horiz-adv-x="556" 
d="M30 448h68v7q0 100 59 162t154 62q60 0 96.5 -20t36.5 -52q0 -18 -10.5 -29.5t-27.5 -11.5q-14 0 -24 8t-29 34q-16 24 -31 33t-38 9q-47 0 -73 -34t-26 -97v-71h115q88 1 161 12v-365q-1 -43 13 -60.5t51 -19.5h4v-15h-223v15h4q37 2 51 19.5t13 60.5v236q0 50 -10.5 66
t-43.5 17h-135v-319q-1 -43 13 -60.5t51 -19.5h4v-15h-223v15h4q37 2 51 19.5t13 60.5v319h-68v34z" />
    <glyph glyph-name="fl" unicode="fl" horiz-adv-x="556" 
d="M28 448h67v13q0 84 40 146q48 72 133 72q64 0 106 -32l82 33v-585q-1 -42 13 -60t51 -20h4v-15h-222v15h3q37 2 51 19.5t13 60.5v319h-187v-319q-1 -43 13 -60.5t51 -19.5h3v-15h-221v15h3q37 2 51 20t13 60v319h-67v34zM182 448h187v137q-8 -7 -23 -7q-16 0 -27 9.5
t-26 35.5q-17 27 -46 27q-35 0 -50 -33t-15 -110v-59z" />
    <glyph glyph-name="ffi" unicode="ffi" horiz-adv-x="844" 
d="M211 448h181q2 65 10 96.5t32 61.5q60 75 174 75q60 0 96.5 -21t36.5 -55q0 -17 -12 -29t-31 -12q-31 0 -50 37q-15 30 -25 38q-15 12 -41 12q-38 0 -65.5 -25.5t-33.5 -66.5q-5 -33 -5 -111h105q88 1 161 12v-365q0 -45 12 -61.5t48 -18.5h6v-15h-219v15h8q35 2 47 18.5
t12 61.5v319h-180v-319q0 -45 12 -61.5t47 -18.5h24v-15h-236v15h7q36 2 48 18.5t12 61.5v319h-181v-319q0 -45 12 -61.5t48 -18.5h23v-15h-254v15h25q36 2 48.5 18.5t11.5 61.5v319h-85v34h85q1 64 3 83.5t11 45.5q36 104 146 104q39 0 63 -17.5t24 -45.5q0 -17 -10.5 -28
t-26.5 -11q-20 0 -31 17q-3 4 -15 33q-10 25 -34 25q-12 0 -22.5 -10t-14.5 -24q-7 -30 -7 -172z" />
    <glyph glyph-name=".notdef" horiz-adv-x="250" 
 />
    <glyph glyph-name=".null" horiz-adv-x="0" 
 />
    <glyph glyph-name="nonmarkingreturn" horiz-adv-x="333" 
 />
    <glyph glyph-name="space" unicode=" " horiz-adv-x="250" 
 />
    <glyph glyph-name="exclam" unicode="!" horiz-adv-x="333" 
d="M170 176h-13l-9 108q-3 47 -17 138q-20 125 -20 177q0 36 14 56.5t39 20.5q53 0 53 -80q0 -13 -2 -37zM164 96q23 0 39 -16t16 -38q0 -23 -15.5 -37t-40.5 -14q-22 0 -37 14.5t-15 36.5q0 23 15.5 38.5t37.5 15.5z" />
    <glyph glyph-name="quotedbl" unicode="&#x22;" horiz-adv-x="408" 
d="M299 431h-21q-32 172 -32 204q0 17 12.5 29t30.5 12q17 0 29.5 -12t12.5 -28q0 -46 -25 -165q-1 -4 -2 -10l-2.5 -15zM130 431h-21q-32 172 -32 204q0 17 12.5 29t30.5 12q17 0 29.5 -12t12.5 -28q0 -46 -25 -165q-1 -4 -2 -10l-2.5 -15z" />
    <glyph glyph-name="numbersign" unicode="#" horiz-adv-x="500" 
d="M471 271v-55h-109l-31 -216h-58l31 216h-134l-33 -216h-58l33 216h-107v55h116l21 134h-110v55h118l31 202h58l-31 -202h133l30 202h58l-30 -202h97v-55h-105l-20 -134h100zM333 405h-133l-21 -134h134z" />
    <glyph glyph-name="dollar" unicode="$" horiz-adv-x="500" 
d="M425 500h-15q-13 64 -48 96.5t-98 40.5v-246q89 -51 121 -75.5t52 -55.5q20 -32 20 -90q0 -73 -52 -117q-27 -22 -56.5 -33t-84.5 -20v-87h-34v87q-63 2 -102 12.5t-84 38.5v130h15q18 -79 59 -115.5t112 -37.5v282q-87 49 -122 83q-56 52 -56 119t54 110q25 19 50.5 28
t73.5 14v63h34v-63q113 -13 161 -53v-111zM229 407v230q-103 -21 -103 -103q0 -35 20 -60t83 -67zM264 293v-265q114 22 114 118q0 46 -22 74.5t-92 72.5z" />
    <glyph glyph-name="percent" unicode="%" horiz-adv-x="833" 
d="M593 676h43l-387 -689h-48zM646 332q61 0 101 -51.5t40 -128.5q0 -78 -38.5 -127t-100.5 -49q-61 0 -101.5 50.5t-40.5 126.5q0 77 40 128t100 51zM647 306q-63 0 -63 -151q0 -152 62 -152q30 0 47 39t17 109q0 155 -63 155zM188 675q61 0 99 -51.5t38 -132.5
q0 -77 -39 -125.5t-101 -48.5q-61 0 -101 50.5t-40 127.5q0 78 40.5 129t103.5 51zM186 648q-64 0 -64 -147q0 -160 61 -160q65 0 65 152q0 74 -16.5 114.5t-45.5 40.5z" />
    <glyph glyph-name="ampersand" unicode="&#x26;" horiz-adv-x="778" 
d="M711 426v-21q-38 -5 -57 -16.5t-37 -42.5l-26 -46q-40 -69 -100 -150q71 -92 154 -92q27 0 46.5 11.5t43.5 41.5l15 -11q-22 -53 -62.5 -83t-88.5 -30q-82 0 -170 91q-56 -49 -105.5 -70t-110.5 -21q-80 0 -125.5 40.5t-45.5 111.5q0 126 157 216l38 22q-35 97 -35 145
q0 64 45 109t109 45q59 0 97 -34t38 -87q0 -54 -34.5 -92t-120.5 -79q60 -117 132 -206q91 120 91 182q0 23 -13.5 32t-50.5 13v21h216zM321 416q117 61 117 143q0 37 -22.5 61t-57.5 24t-56 -22.5t-21 -59.5q0 -62 40 -146zM252 343q-65 -42 -91.5 -78.5t-26.5 -84.5
q0 -58 38 -99.5t91 -41.5q58 0 141 65q-74 91 -152 239z" />
    <glyph glyph-name="quotesingle" unicode="'" horiz-adv-x="180" 
d="M101 431h-21q-32 172 -32 204q0 17 12.5 29t30.5 12q17 0 29.5 -12t12.5 -28q0 -46 -25 -165q-1 -4 -2 -10l-2.5 -15z" />
    <glyph glyph-name="parenleft" unicode="(" horiz-adv-x="333" 
d="M295 676l9 -16q-54 -43 -81.5 -76.5t-48.5 -79.5q-40 -92 -40 -249q0 -145 35 -243q20 -56 47.5 -91t87.5 -82l-12 -16q-67 41 -119 102q-66 76 -95.5 153.5t-29.5 173.5q0 174 106 304q27 34 56 58.5t85 61.5z" />
    <glyph glyph-name="parenright" unicode=")" horiz-adv-x="333" 
d="M38 -177l-9 16q55 44 82.5 77t47.5 80q40 89 40 248q0 145 -35 243q-21 56 -48 91t-87 82l12 16q67 -41 119 -102q66 -76 95.5 -153.5t29.5 -173.5q0 -174 -106 -304q-27 -34 -56 -58.5t-85 -61.5z" />
    <glyph glyph-name="asterisk" unicode="*" horiz-adv-x="500" 
d="M241 449l-1 7q-36 -24 -51 -36q-13 -13 -42 -45q-21 -24 -42 -24q-36 0 -36 34q0 19 14 29.5t48 16.5q35 7 53.5 14t49.5 26l-11 7q-28 19 -86 30q-37 7 -52.5 17.5t-15.5 29.5q0 16 9.5 26t24.5 10q21 0 48 -32q41 -46 90 -73v13q0 39 -15 91q-10 35 -10 51q0 15 10 25
t25 10t25.5 -10.5t10.5 -25.5l-27 -130v-26l7 4q36 20 72 64q35 41 56 41q16 0 26 -11t10 -28q0 -20 -11 -29t-40 -13q-54 -9 -112 -42l8 -5q41 -25 97 -34q33 -5 46 -15t13 -29q0 -17 -9.5 -27t-25.5 -10q-25 0 -60 43q-36 46 -70 60l-7 3v-7q0 -58 20 -112q8 -22 8 -32
q0 -16 -11.5 -28t-27.5 -12q-14 0 -24.5 11t-10.5 25q0 17 11 47q18 48 18 84q0 1 -0.5 3t-1 6t-0.5 8z" />
    <glyph glyph-name="plus" unicode="+" horiz-adv-x="564" 
d="M256 333v220h53v-220h219v-53h-219v-220h-53v220h-219v53h219z" />
    <glyph glyph-name="comma" unicode="," horiz-adv-x="250" 
d="M83 -141l-9 19q82 56 82 106q0 14 -14 14q-2 0 -7 -2q-12 -2 -20 -2q-28 0 -43.5 13.5t-15.5 37.5q0 25 16.5 41t42.5 16q34 0 57 -25.5t23 -63.5q0 -45 -31 -87t-81 -67z" />
    <glyph glyph-name="hyphen" unicode="-" horiz-adv-x="333" 
d="M39 257h246v-63h-246v63z" />
    <glyph glyph-name="period" unicode="." horiz-adv-x="250" 
d="M125 100q23 0 39.5 -17t16.5 -40q0 -22 -17 -38t-40 -16q-22 0 -38 16t-16 38q0 24 16 40.5t39 16.5z" />
    <glyph glyph-name="slash" unicode="/" horiz-adv-x="278" 
d="M278 676l-228 -690h-46l229 690h45z" />
    <glyph glyph-name="zero" unicode="0" horiz-adv-x="500" 
d="M254 676q98 0 160 -96t62 -250q0 -91 -26.5 -171t-69.5 -121q-53 -52 -130 -52q-89 0 -146 68q-35 42 -57.5 121t-22.5 161q0 88 26.5 167t69.5 121q53 52 134 52zM251 650q-131 0 -131 -323q0 -315 130 -315t130 316q0 157 -33 239.5t-96 82.5z" />
    <glyph glyph-name="one" unicode="1" horiz-adv-x="500" 
d="M118 0v15q57 1 75 16t20 62v453q0 47 -30 47q-15 0 -72 -22v14l180 91l8 -2v-600q1 -36 19 -47.5t76 -11.5v-15h-276z" />
    <glyph glyph-name="two" unicode="2" horiz-adv-x="500" 
d="M475 137l-55 -137h-390v12l178 189q130 138 130 260q0 63 -38.5 102t-102.5 39q-52 0 -83.5 -28t-61.5 -102l-21 5q22 93 64 137q57 62 144 62q78 0 131.5 -51t53.5 -125q0 -114 -128 -248l-168 -176h239q35 1 51 12t44 54z" />
    <glyph glyph-name="three" unicode="3" horiz-adv-x="500" 
d="M153 330l-1 13q88 31 126 69q40 42 40 97q0 48 -30.5 77.5t-79.5 29.5q-91 0 -148 -106l-15 4q27 78 66 113q55 49 130 49q70 0 113 -38t43 -99q0 -40 -21 -71.5t-72 -66.5q56 -25 83 -53q44 -49 44 -129q0 -103 -72 -166q-36 -31 -91 -49t-112 -18q-52 0 -82.5 15.5
t-30.5 41.5q0 16 10.5 25.5t27.5 9.5q23 0 63 -25q48 -31 85 -31q56 0 93 42.5t37 106.5q0 52 -27 91.5t-74 56.5q-28 11 -105 11z" />
    <glyph glyph-name="four" unicode="4" horiz-adv-x="500" 
d="M472 231v-64h-102v-167h-77v167h-281v64l314 445h44v-445h102zM292 231v343l-240 -343h240z" />
    <glyph glyph-name="five" unicode="5" horiz-adv-x="500" 
d="M181 583l-42 -85q88 -16 137 -35.5t82 -52.5q37 -38 52.5 -76t15.5 -92q0 -112 -66 -178q-78 -78 -206 -78q-57 0 -89.5 16.5t-32.5 45.5q0 37 42 37q33 0 77 -33q40 -29 66 -29q59 0 99 49.5t40 121.5q0 75 -40.5 122.5t-126.5 75.5q-65 20 -113 20q-12 0 -12 8q0 3 1 5
l109 237h209q27 0 46 26l9 -7l-38 -89q-3 -9 -23 -9h-196z" />
    <glyph glyph-name="six" unicode="6" horiz-adv-x="500" 
d="M446 684l2 -16q-118 -19 -197 -95.5t-99 -189.5q47 28 70.5 36.5t56.5 8.5q88 0 138.5 -56t50.5 -153q0 -103 -58.5 -168t-151.5 -65q-95 0 -154 68q-32 37 -51 98.5t-19 126.5q0 206 167 325q55 38 107.5 55.5t137.5 24.5zM242 382q-54 0 -87 -25q-28 -21 -28 -94
q0 -116 38 -182.5t104 -66.5q53 0 81 44.5t28 126.5q0 94 -35.5 145.5t-100.5 51.5z" />
    <glyph glyph-name="seven" unicode="7" horiz-adv-x="500" 
d="M455 662v-16l-212 -654h-65l198 596h-217q-42 -1 -63.5 -16t-52.5 -65l-17 8l59 147h370z" />
    <glyph glyph-name="eight" unicode="8" horiz-adv-x="500" 
d="M290 371q91 -68 123 -113t32 -103q0 -77 -53.5 -123t-143.5 -46q-86 0 -139 46t-53 119q0 52 24 85.5t106 95.5q-79 69 -101.5 103t-22.5 83q0 68 54 113t136 45q76 0 124 -40t48 -102q0 -51 -30 -87t-104 -76zM272 268l-60 44q-44 -36 -62 -70.5t-18 -83.5
q0 -65 35 -104.5t92 -39.5q49 0 79.5 30.5t30.5 79.5q0 42 -21 73.5t-76 70.5zM261 389q51 33 72.5 66.5t21.5 79.5q0 52 -30 82.5t-81 30.5q-47 0 -77.5 -28t-30.5 -71q0 -42 29 -79t96 -81z" />
    <glyph glyph-name="nine" unicode="9" horiz-adv-x="500" 
d="M59 -22l-3 20q114 20 193.5 97t110.5 199q-74 -57 -150 -57q-81 0 -130.5 56t-49.5 147q0 101 59.5 168.5t148.5 67.5q97 0 159 -79t62 -203q0 -101 -43.5 -189.5t-121.5 -145.5q-51 -37 -101 -54t-134 -27zM362 355v39q0 254 -132 254q-45 0 -71 -31
q-16 -20 -26.5 -60.5t-10.5 -82.5q0 -89 33.5 -141.5t90.5 -52.5q56 0 101 37q15 12 15 38z" />
    <glyph glyph-name="colon" unicode=":" horiz-adv-x="278" 
d="M136 459q23 0 39.5 -17t16.5 -40q0 -22 -17 -38t-40 -16q-22 0 -38 16t-16 38q0 24 16 40.5t39 16.5zM136 100q23 0 39.5 -17t16.5 -40q0 -22 -17 -38t-40 -16q-22 0 -38 16t-16 38q0 24 16 40.5t39 16.5z" />
    <glyph glyph-name="semicolon" unicode=";" horiz-adv-x="278" 
d="M107 -141l-9 19q82 56 82 106q0 14 -14 14q-2 0 -7 -2q-12 -2 -20 -2q-28 0 -43.5 13.5t-15.5 38.5q0 26 16 41t43 15q34 0 57 -25.5t23 -63.5q0 -45 -30 -87t-82 -67zM136 459q23 0 39.5 -17t16.5 -40q0 -22 -17 -38t-40 -16q-22 0 -38 16t-16 38q0 24 16 40.5t39 16.5z
" />
    <glyph glyph-name="less" unicode="&#x3c;" horiz-adv-x="564" 
d="M530 54l-495 223v58l495 224v-58l-430 -195l430 -195v-57z" />
    <glyph glyph-name="equal" unicode="=" horiz-adv-x="564" 
d="M528 433v-53h-491v53h491zM528 233v-53h-491v53h491z" />
    <glyph glyph-name="greater" unicode="&#x3e;" horiz-adv-x="564" 
d="M35 54v57l430 195l-430 195v58l495 -224v-58z" />
    <glyph glyph-name="question" unicode="?" horiz-adv-x="444" 
d="M225 164h-17q2 69 30 142l28 64q37 85 37 156q0 50 -31.5 85t-77.5 35q-36 0 -65 -19t-29 -43q0 -13 17 -31q21 -24 21 -43t-11 -30t-30 -11q-48 0 -48 62t46.5 103.5t115.5 41.5q41 0 82 -16t66 -42q36 -36 36 -97q0 -57 -45 -126q-14 -21 -60 -77q-50 -62 -65 -154z
M218 97q23 0 39 -16t16 -38t-15.5 -36.5t-39.5 -14.5q-23 0 -38 14t-15 36q0 23 15.5 39t37.5 16z" />
    <glyph glyph-name="at" unicode="@" horiz-adv-x="921" 
d="M718 -87l14 -38q-82 -43 -132.5 -58t-108.5 -15q-175 0 -293.5 124t-118.5 306q0 185 119 314.5t289 129.5q155 0 261 -107t106 -264q0 -123 -61.5 -213.5t-145.5 -90.5q-40 0 -68 25.5t-33 67.5q-28 -43 -65 -67.5t-74 -24.5q-42 0 -70.5 41t-28.5 100q0 70 25 138.5
t68 117.5q55 64 127 64q29 0 45 -13t35 -52l11 48h77l-73 -322q-2 -14 -2 -23q0 -58 43 -58q45 0 86 55q59 81 59 195q0 142 -95.5 243t-229.5 101q-146 0 -243.5 -117.5t-97.5 -293.5q0 -165 99.5 -270t256.5 -105q57 0 106 14t113 48zM544 408q-46 3 -99 -64
q-57 -74 -57 -180q0 -49 18 -78t49 -29q22 0 45 20t39 53q22 45 36 101.5t14 95.5q0 77 -45 81z" />
    <glyph glyph-name="A" unicode="A" 
d="M706 19v-19h-255v19q40 1 55 8t15 26q0 24 -19 67l-41 96h-262l-46 -117q-8 -21 -8 -39q0 -41 68 -41v-19h-198v19q36 1 56 27.5t68 136.5l208 491h20l249 -568q26 -56 41 -70.5t49 -16.5zM216 257h231l-116 275z" />
    <glyph glyph-name="B" unicode="B" horiz-adv-x="667" 
d="M17 643v19h280q262 0 262 -170q0 -65 -40 -100q-32 -28 -97 -44q49 -12 74.5 -23.5t47.5 -31.5q49 -44 49 -113q0 -75 -56 -125q-60 -55 -186 -55h-334v19q62 2 78.5 18t17.5 72v444q-1 56 -17 71t-79 19zM215 326v-248q0 -24 13 -32.5t50 -8.5q93 0 139 26q61 35 61 116
q0 92 -84 126q-50 21 -179 21zM215 365l95 1q147 2 147 122q0 67 -46.5 103t-129.5 34l-44 -1q-13 -1 -17 -6.5t-5 -22.5v-230z" />
    <glyph glyph-name="C" unicode="C" horiz-adv-x="667" 
d="M620 451h-23q-14 49 -28 75t-38 50q-62 60 -149 60q-109 0 -173.5 -81t-64.5 -217q0 -173 86 -250q66 -58 162 -58q118 0 223 101l18 -18q-45 -61 -116.5 -94t-156.5 -33q-149 0 -240.5 93.5t-91.5 246.5q0 168 108 264q99 86 227 86q74 0 146 -25q24 -8 39 -8
q33 0 42 33h21z" />
    <glyph glyph-name="D" unicode="D" 
d="M16 0v19q56 4 71.5 19.5t16.5 70.5v444q-1 56 -15 70.5t-73 19.5v19h270q211 0 314 -105q85 -83 85 -223q0 -152 -102 -245q-46 -42 -121 -65.5t-162 -23.5h-284zM206 586v-508q0 -24 11 -32.5t41 -8.5q124 0 196 41q122 71 122 249q0 166 -119 248q-71 50 -199 50
q-31 0 -41.5 -8t-10.5 -31z" />
    <glyph glyph-name="E" unicode="E" horiz-adv-x="611" 
d="M597 169l-45 -169h-540v19q54 3 69.5 19.5t17.5 70.5v444q-2 54 -17 70t-70 20v19h531l3 -143h-25q-12 67 -38.5 85.5t-113.5 19.5h-135q-21 0 -26.5 -6t-6.5 -28v-222h154q63 2 82 18t28 77h23v-232h-23q-10 62 -28.5 78.5t-81.5 17.5h-154v-247q0 -29 13.5 -35t91.5 -8
h27q107 1 153.5 27t82.5 105h28z" />
    <glyph glyph-name="F" unicode="F" horiz-adv-x="556" 
d="M479 231h-23q-9 61 -29 78t-81 18h-145v-218q1 -55 17.5 -71.5t73.5 -18.5v-19h-280v19q57 4 71.5 20.5t15.5 80.5v433q-2 54 -17 70t-70 20v19h531l3 -143h-25q-12 67 -38.5 85.5t-113.5 19.5h-136q-21 -1 -26 -6.5t-6 -27.5v-222h145q62 2 82 19t28 76h23v-232z" />
    <glyph glyph-name="G" unicode="G" 
d="M709 354v-18q-43 -3 -56 -17t-14 -60v-203q-30 -26 -108 -48t-143 -22q-171 0 -273 107q-83 87 -83 232q0 153 96.5 252t246.5 99q67 0 136 -23q30 -10 44 -10q35 0 45 33h22l8 -211h-23q-32 78 -71 116q-58 55 -144 55q-106 0 -174 -76q-33 -37 -52.5 -100.5
t-19.5 -133.5q0 -139 70.5 -219.5t192.5 -80.5q55 0 94 17.5t39 41.5v162q-1 57 -15 71t-73 18v18h255z" />
    <glyph glyph-name="H" unicode="H" 
d="M19 0v19q58 4 72.5 20.5t15.5 80.5v433q-1 55 -15.5 70t-72.5 20v19h278v-19q-58 -5 -72.5 -20t-15.5 -70v-194h303v194q-1 55 -15.5 70t-72.5 20v19h278v-19q-58 -5 -72.5 -20t-15.5 -70v-444q1 -54 16.5 -69.5t71.5 -20.5v-19h-278v19q58 4 72.5 20.5t15.5 80.5v195
h-303v-206q1 -54 16.5 -69.5t71.5 -20.5v-19h-278z" />
    <glyph glyph-name="I" unicode="I" horiz-adv-x="333" 
d="M18 0v19q63 2 79.5 17.5t17.5 72.5v444q-1 56 -17 71t-80 19v19h297v-19q-62 -2 -79 -18t-19 -72v-444q2 -56 19.5 -72.5t78.5 -17.5v-19h-297z" />
    <glyph glyph-name="J" unicode="J" horiz-adv-x="389" 
d="M376 662v-19q-61 -4 -75.5 -19t-16.5 -71v-370q0 -94 -44 -145.5t-125 -51.5q-43 0 -71 20t-28 52q0 20 14.5 35t34.5 15q37 0 52 -51q5 -19 11 -26t16 -7q38 0 38 66v463q-1 55 -16.5 70t-76.5 20v19h287z" />
    <glyph glyph-name="K" unicode="K" 
d="M406 643v19h262v-19q-51 -4 -76 -16.5t-76 -61.5l-190 -188l233 -250q68 -73 93 -90t64 -18v-19h-305v19q12 1 28 1q42 1 42 22q0 18 -36.5 65.5t-93.5 104.5l-106 105l-26 -21v-187q1 -55 16.5 -70.5t73.5 -19.5v-19h-282v19q59 4 74 21t16 80v433q-2 55 -17 70.5
t-73 19.5v19h284v-19q-61 -5 -76 -19.5t-16 -70.5v-205l177 161q78 72 78 103q0 18 -11.5 23.5t-56.5 7.5z" />
    <glyph glyph-name="L" unicode="L" horiz-adv-x="611" 
d="M294 662v-19q-58 -3 -74.5 -19t-18.5 -71v-473q1 -27 14.5 -33t71.5 -8h67q97 3 140.5 29.5t78.5 105.5h25l-48 -174h-538v19q54 3 69.5 19.5t17.5 70.5v444q-2 54 -17 70t-70 20v19h282z" />
    <glyph glyph-name="M" unicode="M" horiz-adv-x="889" 
d="M863 662v-19q-55 -4 -70 -20t-17 -70v-444q2 -54 17.5 -70.5t69.5 -19.5v-19h-280v19q60 4 75 21t16 80v453l-256 -573h-14l-251 550v-403q2 -77 19 -101t75 -27v-19h-235v19q62 4 79 26.5t18 101.5v406q-2 56 -18 71.5t-77 18.5v19h198l231 -505l221 505h199z" />
    <glyph glyph-name="N" unicode="N" 
d="M707 662v-19q-59 -5 -76 -27.5t-19 -100.5v-526h-17l-442 550v-392q2 -77 19 -101t75 -27v-19h-235v19q62 4 79 26.5t18 101.5v441q-30 35 -47.5 45t-49.5 10v19h171l385 -484v337q-2 79 -19 101.5t-77 26.5v19h235z" />
    <glyph glyph-name="O" unicode="O" 
d="M361 676q147 0 243 -105q84 -90 84 -244q0 -151 -92.5 -246t-240.5 -95q-66 0 -128.5 27.5t-106.5 74.5q-40 43 -63 107.5t-23 135.5q0 151 92 248t235 97zM361 640q-84 0 -143 -65q-32 -35 -51 -102.5t-19 -143.5q0 -83 23 -153t61 -105q57 -49 127 -49q80 0 133 53
q36 35 49 73q33 86 33 180q0 185 -85 262q-56 50 -128 50z" />
    <glyph glyph-name="P" unicode="P" horiz-adv-x="556" 
d="M16 643v19h264q71 0 131 -19.5t90 -52.5q41 -44 41 -109q0 -50 -25.5 -92.5t-70.5 -66.5q-61 -34 -175 -34q-30 0 -69 3v-182q1 -56 18 -72.5t76 -17.5v-19h-280v19q57 5 70 21t14 80v433q-1 55 -14.5 69.5t-69.5 20.5zM202 591v-260q35 -3 57 -3q174 0 174 147
q0 77 -48 113.5t-149 36.5q-20 0 -27 -7t-7 -27z" />
    <glyph glyph-name="Q" unicode="Q" 
d="M701 -159v-18h-6q-10 -1 -34 -1q-245 0 -349 122l-47 55q-53 18 -82.5 36t-59.5 50q-89 97 -89 244q0 152 92 249.5t235 97.5t235 -97t92 -248q0 -168 -112 -268q-35 -30 -67 -45t-83 -25q61 -79 125 -114.5t150 -37.5zM364 640q-87 0 -146 -65q-31 -35 -50.5 -101.5
t-19.5 -138.5q0 -88 22.5 -158.5t61.5 -105.5q57 -49 129 -49q86 0 144 64q30 35 49.5 104t19.5 143q0 85 -23 153t-63 104q-56 50 -124 50z" />
    <glyph glyph-name="R" unicode="R" horiz-adv-x="667" 
d="M659 19v-19h-161l-238 308l-56 -2v-197q1 -55 16.5 -70.5t73.5 -19.5v-19h-277v19q56 5 70 21t15 80v433q-1 54 -15 69t-70 21v19h276q70 0 128 -18t87 -49q39 -44 39 -109q0 -69 -43 -108.5t-138 -58.5l206 -253q21 -25 39.5 -35t47.5 -12zM204 589v-246q73 2 108 8.5
t69 25.5q57 30 57 111q0 70 -44.5 103.5t-138.5 33.5q-30 0 -40.5 -7.5t-10.5 -28.5z" />
    <glyph glyph-name="S" unicode="S" horiz-adv-x="556" 
d="M447 676l22 -213h-25q-20 75 -61 117q-53 55 -122 55q-47 0 -75.5 -25.5t-28.5 -66.5t34 -77t113 -79q99 -54 143 -105.5t44 -113.5q0 -77 -58.5 -129.5t-145.5 -52.5q-60 0 -118 23q-30 11 -47 11q-11 0 -19 -9.5t-9 -23.5h-22l-30 212h23q38 -92 86.5 -134.5
t115.5 -42.5q55 0 89 31t34 81q0 39 -14 59q-37 56 -149 117q-84 44 -120 89.5t-36 105.5q0 78 53 125q52 46 119 46q49 0 107 -22q26 -12 44 -12q26 0 32 34h21z" />
    <glyph glyph-name="T" unicode="T" horiz-adv-x="611" 
d="M452 19v-19h-292v19q63 4 78 20t16 81v500h-54q-86 -1 -114 -23.5t-45 -104.5h-24l6 170h564l6 -170h-24q-17 82 -44.5 104.5t-114.5 23.5h-54v-511q1 -55 18 -71t78 -19z" />
    <glyph glyph-name="U" unicode="U" 
d="M705 662v-19q-61 -7 -77 -28t-17 -100v-261q0 -107 -33 -165q-59 -103 -223 -103q-128 0 -189.5 62.5t-61.5 192.5v312q-1 55 -16 70t-74 20v19h283v-19q-60 -5 -75 -20t-16 -70v-320q0 -88 25 -132q41 -71 147 -71q56 0 101 21.5t65 57.5q23 43 23 136v270
q-1 77 -18.5 100.5t-75.5 27.5v19h232z" />
    <glyph glyph-name="V" unicode="V" 
d="M697 662v-19q-36 -2 -51.5 -18t-40.5 -75l-222 -561h-15l-246 549q-32 67 -50.5 85.5t-55.5 19.5v19h266v-19q-26 -2 -29 -2q-46 -3 -46 -31q0 -19 41 -111l151 -338l147 367q19 48 19 73q0 21 -16 30.5t-57 11.5v19h205z" />
    <glyph glyph-name="W" unicode="W" horiz-adv-x="944" 
d="M932 662v-19q-40 -8 -54.5 -20t-28.5 -51q-83 -223 -112 -306t-92 -277h-15l-160 423l-154 -423h-15l-193 537q-28 71 -46.5 92t-56.5 25v19h245v-19q-38 -2 -51.5 -8.5t-13.5 -23.5q0 -18 11 -46l144 -376l107 282l-33 82q-26 60 -42 74.5t-59 15.5v19h267v-19
q-77 -1 -77 -35q0 -16 15 -51q0 -1 2.5 -7.5t6 -14t3.5 -8.5l132 -341l125 339q16 45 16 75q0 20 -15.5 29.5t-53.5 13.5v19h198z" />
    <glyph glyph-name="X" unicode="X" 
d="M696 662v-19q-48 -3 -74 -19.5t-75 -74.5l-146 -182l192 -274q32 -43 51.5 -56t59.5 -18v-19h-297v19q24 2 27 2q50 1 50 29q0 23 -51 98l-95 140l-119 -148q-52 -65 -52 -86q0 -17 16 -24.5t60 -10.5v-19h-233v19q38 3 58 18.5t87 95.5l157 193l-109 160
q-73 104 -102.5 129.5t-78.5 27.5v19h302v-19l-28 -1q-48 -1 -48 -29q0 -30 85 -150l42 -59l113 138q40 48 40 69q0 17 -14.5 23.5t-55.5 8.5v19h238z" />
    <glyph glyph-name="Y" unicode="Y" 
d="M703 662v-19q-38 -3 -65 -25.5t-73 -88.5l-148 -226v-194q1 -58 18.5 -73t84.5 -17v-19h-306v19q68 3 84 19t17 82v174l-131 192q-75 106 -100.5 131t-61.5 26v19h280v-19q-11 -1 -25 -1q-46 -3 -46 -29q0 -19 17 -44l148 -222l143 226q14 21 14 37q0 18 -15 25t-54 8v19
h219z" />
    <glyph glyph-name="Z" unicode="Z" horiz-adv-x="611" 
d="M574 176h23l-24 -176h-564v15l437 609h-221q-86 -2 -120.5 -29.5t-47.5 -103.5h-26l20 171h526v-15l-432 -609h257q81 3 115.5 30.5t56.5 107.5z" />
    <glyph glyph-name="bracketleft" unicode="[" horiz-adv-x="333" 
d="M299 637h-90q-25 -1 -34.5 -10.5t-10.5 -33.5v-672q1 -51 49 -52h86v-25h-211v818h211v-25z" />
    <glyph glyph-name="backslash" unicode="\" horiz-adv-x="278" 
d="M8 676h50l229 -690h-45z" />
    <glyph glyph-name="bracketright" unicode="]" horiz-adv-x="333" 
d="M34 -131h90q25 1 34.5 10.5t10.5 33.5v672q-1 51 -49 52h-86v25h211v-818h-211v25z" />
    <glyph glyph-name="asciicircum" unicode="^" horiz-adv-x="469" 
d="M92 297h-68l181 365h60l181 -365h-68l-143 289z" />
    <glyph glyph-name="underscore" unicode="_" horiz-adv-x="500" 
d="M500 -125h-500v50h500v-50z" />
    <glyph glyph-name="grave" unicode="`" horiz-adv-x="333" 
d="M257 507h-40l-154 97q-29 18 -29 43q0 31 34 31q19 0 42 -23z" />
    <glyph glyph-name="a" unicode="a" horiz-adv-x="444" 
d="M442 66v-26q-26 -29 -45.5 -39.5t-44.5 -10.5q-31 0 -45.5 16.5t-18.5 56.5q-86 -73 -146 -73q-46 0 -75.5 30t-29.5 77q0 54 36 87q32 28 64.5 44.5t149.5 63.5v61q0 83 -76 83q-30 0 -51 -14.5t-21 -34.5q0 -11 3 -24q2 -14 2 -16q0 -17 -13.5 -29.5t-31.5 -12.5
t-30.5 13t-12.5 30q0 47 48.5 79.5t119.5 32.5q90 0 124 -55q20 -32 20 -105v-195q0 -33 6.5 -45.5t23.5 -12.5q21 0 44 19zM287 123v145q-88 -31 -124.5 -62.5t-37.5 -76.5v-4q0 -32 18.5 -54.5t44.5 -22.5q34 0 73 22q16 9 21 19.5t5 33.5z" />
    <glyph glyph-name="b" unicode="b" horiz-adv-x="500" 
d="M153 681v-306q15 37 54 61t85 24q75 0 125.5 -62t50.5 -155q0 -107 -67.5 -180t-166.5 -73q-61 0 -113 20.5t-52 43.5v519q0 32 -9 41.5t-40 9.5q-11 0 -17 -1v16l29 8q67 19 116 36zM153 322v-252q0 -19 29 -33.5t68 -14.5q62 0 96 46t34 129q0 54 -15 101t-39 70
q-32 29 -74 29q-39 0 -69 -23t-30 -52z" />
    <glyph glyph-name="c" unicode="c" horiz-adv-x="444" 
d="M398 156l14 -9q-41 -80 -76 -110q-55 -47 -121 -47q-83 0 -136.5 62.5t-53.5 159.5q0 123 78 192q64 56 141 56q63 0 108.5 -30.5t45.5 -72.5q0 -17 -14 -29.5t-33 -12.5q-35 0 -48 46l-6 22q-8 28 -20 38t-39 10q-61 0 -98.5 -48t-37.5 -126q0 -86 43 -140.5t112 -54.5
q43 0 74 20.5t67 73.5z" />
    <glyph glyph-name="d" unicode="d" horiz-adv-x="500" 
d="M491 58v-16l-147 -52l-4 3v64q-48 -67 -128 -67q-83 0 -134 59.5t-51 155.5q0 106 61 180.5t147 74.5q54 0 105 -43v156q0 31 -9 41t-37 10q-14 0 -22 -1v16q91 24 147 44l5 -2v-567q0 -35 8.5 -46t35.5 -11q10 0 23 1zM340 102v230q0 40 -30.5 70t-71.5 30
q-57 0 -91 -51t-34 -136q0 -92 38 -147.5t100 -55.5q47 0 72 30q17 19 17 30z" />
    <glyph glyph-name="e" unicode="e" horiz-adv-x="444" 
d="M414 164l16 -7q-65 -167 -212 -167q-86 0 -136.5 60.5t-50.5 163.5q0 129 74 194q58 52 135 52q80 0 128 -57q33 -42 43 -126h-308q3 -80 27 -132q44 -86 129 -86q48 0 83.5 24t71.5 81zM105 309h204q-10 65 -31 90t-67 25q-90 0 -106 -115z" />
    <glyph glyph-name="f" unicode="f" horiz-adv-x="333" 
d="M322 450v-32h-122v-314q0 -56 16 -71.5t77 -17.5v-15h-260v15q53 2 67 17.5t16 71.5v314h-82v32h82q1 60 8 93.5t27 67.5q42 72 141 72q45 0 74.5 -17.5t29.5 -44.5q0 -17 -12 -29t-30 -12q-23 0 -45 36q-24 39 -53 39q-57 0 -57 -89v-116h123z" />
    <glyph glyph-name="g" unicode="g" horiz-adv-x="500" 
d="M470 388h-83q19 -43 19 -84q0 -72 -48 -113q-48 -42 -108 -42q-1 0 -7 0.5t-20.5 2t-29.5 2.5q-20 -6 -40 -27t-20 -36q0 -24 78 -27l129 -6q55 -2 88 -31t33 -76q0 -56 -55 -101q-84 -68 -205 -68q-72 0 -122.5 28.5t-50.5 68.5q0 28 22 55.5t76 66.5q-32 15 -42.5 26
t-10.5 27q0 22 27 50q2 3 36 35l26 24q-50 25 -71.5 56t-21.5 78q0 69 48.5 116t118.5 47q40 0 80 -15l22 -8q29 -10 55 -10h77v-39zM147 -2q-30 -36 -39.5 -52.5t-9.5 -33.5q0 -33 39.5 -53t106.5 -20q85 0 137 27t52 70q0 27 -28 38t-96 11q-99 0 -162 13zM152 338v-3
q0 -72 28.5 -116.5t74.5 -44.5q34 0 54 24.5t20 66.5q0 65 -30 120q-25 47 -73 47q-35 0 -54.5 -25t-19.5 -69z" />
    <glyph glyph-name="h" unicode="h" horiz-adv-x="500" 
d="M487 15v-15h-212v15q43 4 55 19t13 68v198q0 106 -75 106q-29 0 -54.5 -14.5t-56.5 -48.5v-241q2 -53 13.5 -68t54.5 -19v-15h-216v15q43 5 52.5 19t11.5 68v471q0 32 -9.5 41.5t-41.5 9.5q-8 0 -12 -1v16l27 8q68 19 115 36l5 -3v-304q35 45 69 64.5t78 19.5
q123 0 123 -159v-199q1 -53 10 -66.5t50 -20.5z" />
    <glyph glyph-name="i" unicode="i" horiz-adv-x="278" 
d="M23 0v15q51 2 64 16.5t15 70.5v232q0 33 -7.5 46.5t-25.5 13.5q-16 0 -34 -3l-8 -1v15l155 55l4 -3v-355q1 -55 13 -69t61 -18v-15h-237zM135 683q22 0 37 -14.5t15 -36.5t-15 -36.5t-37 -14.5q-21 0 -35.5 14.5t-14.5 36.5q0 21 15 36t35 15z" />
    <glyph glyph-name="j" unicode="j" horiz-adv-x="278" 
d="M193 457v-457q0 -127 -58 -179q-42 -39 -111 -39q-41 0 -67.5 15.5t-26.5 39.5q0 16 12 27.5t29 11.5q23 0 48 -32q23 -28 42 -28q23 0 34 18q14 25 14 121v379q0 60 -32 60q-17 0 -40 -3l-5 -1v16q80 25 156 54zM142 683q22 0 37 -14.5t15 -36.5t-15 -36.5t-37 -14.5
q-21 0 -35.5 14.5t-14.5 36.5q0 21 15 36t35 15z" />
    <glyph glyph-name="k" unicode="k" horiz-adv-x="500" 
d="M7 0v15q53 8 63.5 17.5t11.5 49.5v482q0 36 -9 48.5t-34 12.5q-6 0 -32 -2v16l30 8q87 24 125 36l4 -2v-420l137 122q23 21 23 35q0 10 -10.5 13.5t-39.5 4.5v14h204v-15q-48 1 -85 -20.5t-131 -105.5l-29 -27l153 -194q31 -38 57.5 -54.5t59.5 -18.5v-15h-218v15h19
q21 0 21 15q0 7 -11 21q-2 2 -5.5 6.5t-4.5 6.5l-140 187v-184q1 -28 12 -38.5t43 -12.5l20 -1v-15h-234z" />
    <glyph glyph-name="l" unicode="l" horiz-adv-x="278" 
d="M21 0v15q46 3 61 17t16 55v477q0 35 -9 48t-33 13q-9 0 -31 -2h-6v16q99 24 159 44l4 -2v-597q1 -42 14.5 -54.5t60.5 -14.5v-15h-236z" />
    <glyph glyph-name="m" unicode="m" horiz-adv-x="778" 
d="M16 0v15q41 0 54.5 14t15.5 56v253q0 36 -7.5 50t-27.5 14q-15 0 -32 -4v17q72 20 140 45l7 -2v-75q63 48 92 62.5t63 14.5q79 0 106 -84q78 84 163 84q116 0 116 -178v-206q0 -29 9.5 -42t33.5 -17l26 -2v-15h-219v15q43 4 53.5 16t12.5 56v211q0 62 -16 86t-59 24
q-66 0 -109 -61v-252q2 -48 16 -64t56 -16v-15h-224v15q42 2 54 15t14 56v217q0 105 -66 105q-26 0 -55 -11.5t-48 -28.5q-15 -15 -15 -19v-282q1 -30 15 -40.5t53 -11.5v-15h-222z" />
    <glyph glyph-name="n" unicode="n" horiz-adv-x="500" 
d="M18 0v15q38 2 49.5 16.5t12.5 58.5v248q0 37 -8 50.5t-29 13.5q-19 0 -27 -4v17q74 22 138 45l7 -2v-79q51 48 80.5 64.5t64.5 16.5q55 0 86.5 -39.5t31.5 -110.5v-229q1 -37 12.5 -49.5t48.5 -16.5v-15h-208v15q37 2 49 18.5t14 65.5v209q0 97 -73 97q-25 0 -46.5 -12
t-56.5 -45v-281q0 -27 14.5 -38.5t51.5 -13.5v-15h-212z" />
    <glyph glyph-name="o" unicode="o" horiz-adv-x="500" 
d="M250 460q96 0 158 -63.5t62 -162.5q0 -104 -63.5 -174t-158.5 -70t-157 67t-62 169q0 104 61.5 169t159.5 65zM237 432q-54 0 -86 -43t-32 -114q0 -111 44 -193q34 -64 97 -64q56 0 88 48t32 133q0 103 -40 168t-103 65z" />
    <glyph glyph-name="p" unicode="p" horiz-adv-x="500" 
d="M5 -217v17q44 5 57 17t13 52v468q0 35 -8 46t-33 11q-16 0 -25 -1v16q63 19 144 51l6 -2v-77q63 79 144 79q73 0 120 -60t47 -153q0 -109 -60.5 -183t-149.5 -74q-31 0 -52.5 9t-48.5 34v-157q1 -48 16.5 -61t71.5 -14v-18h-242zM159 334v-246q0 -22 34.5 -44t69.5 -22
q54 0 87.5 51t33.5 134q0 88 -33.5 140.5t-89.5 52.5q-35 0 -68.5 -22t-33.5 -44z" />
    <glyph glyph-name="q" unicode="q" horiz-adv-x="500" 
d="M360 425l54 32l11 -1v-597q2 -32 12.5 -42.5t50.5 -19.5v-14h-236v17q52 3 70 18.5t19 57.5v188q-68 -74 -157 -74q-70 0 -115 60t-45 154q0 109 63.5 182.5t157.5 73.5q54 0 115 -35zM341 127v206q0 99 -93 99q-64 0 -101 -51.5t-37 -139.5q0 -50 14.5 -94.5t38.5 -66.5
q31 -29 78 -29q49 0 86 30q14 13 14 46z" />
    <glyph glyph-name="r" unicode="r" horiz-adv-x="333" 
d="M5 0v15q47 8 58 19t13 50v250q0 33 -7.5 46.5t-26.5 13.5q-16 0 -35 -4v16q80 26 148 54l5 -2v-92q37 54 62.5 74t57.5 20q26 0 40.5 -14t14.5 -39q0 -21 -10.5 -33t-28.5 -12q-19 0 -40 20q-16 15 -26 15q-21 0 -45.5 -29t-24.5 -53v-225q1 -44 18 -58.5t67 -16.5v-15
h-240z" />
    <glyph glyph-name="s" unicode="s" horiz-adv-x="389" 
d="M315 314h-15q-17 67 -42 95t-68 28q-35 0 -56 -18.5t-21 -49.5q0 -43 43 -68l108 -64q46 -27 65 -54t19 -65q0 -53 -41.5 -90.5t-99.5 -37.5q-28 0 -73 10q-31 8 -46 8t-23 -12h-13v156h16q17 -76 46 -108t81 -32q38 0 60.5 19.5t22.5 52.5q0 45 -52 75l-58 33
q-64 36 -90.5 69t-26.5 75q0 54 38.5 89t97.5 35q33 0 70 -13q15 -7 27 -7q8 0 16 11h11z" />
    <glyph glyph-name="t" unicode="t" horiz-adv-x="278" 
d="M259 450v-32h-101v-286q0 -47 12 -68.5t40 -21.5q30 0 60 35l13 -11q-48 -76 -120 -76q-89 0 -89 127v301h-53q-4 3 -4 7q0 8 17 19q40 23 117 135q7 0 7 -13v-116h101z" />
    <glyph glyph-name="u" unicode="u" horiz-adv-x="500" 
d="M488 50v-14q-78 -21 -137 -45l-4 2v83l-43 -43q-43 -43 -103 -43q-55 0 -88 35.5t-33 94.5v252q-1 36 -14 49t-48 15v14h146v-326q0 -31 21 -53.5t50 -22.5q46 0 88 34q19 15 19 53v235q0 37 -13.5 49t-60.5 14v17h158v-343q1 -35 10.5 -45.5t46.5 -11.5h5z" />
    <glyph glyph-name="v" unicode="v" horiz-adv-x="500" 
d="M477 450v-15q-23 -2 -33 -14.5t-32 -63.5l-128 -321q-20 -50 -28 -50q-6 0 -9 6q-4 7 -9 20q-1 2 -4 10t-4 11l-120 287q-35 78 -49 96t-42 19v15h196v-15q-26 -2 -36 -8t-10 -20q0 -16 9 -37l102 -256l99 259q6 15 6 30q0 28 -47 32v15h139z" />
    <glyph glyph-name="w" unicode="w" 
d="M571 450h123v-15q-15 -5 -21 -13.5t-20 -40.5l-138 -346q-20 -49 -28 -49q-5 0 -8.5 6.5t-15.5 36.5l-91 236l-112 -240q-17 -39 -25 -39q-9 0 -26 44l-135 342q-17 38 -26.5 50t-26.5 13v15h180v-15q-26 -3 -36 -10t-10 -23q0 -15 6 -30l99 -261l91 199q-6 18 -20 56
q-15 40 -28 53t-41 16v15h203v-15q-35 -5 -46.5 -12t-11.5 -24q0 -13 17 -59l84 -224l90 222q17 40 17 66q0 13 -9 19.5t-35 11.5v15z" />
    <glyph glyph-name="x" unicode="x" horiz-adv-x="500" 
d="M278 0v15q25 2 32.5 6.5t7.5 17.5q0 9 -6 18l-91 140l-79 -123q-20 -30 -20 -41q0 -18 40 -18v-15h-145v15q25 2 37.5 11t35.5 40l114 165l-94 144q-23 35 -39 47.5t-38 12.5h-9v15h207v-15q-43 -1 -43 -22q0 -15 26 -57q0 -1 26 -40l8 -12q24 36 30 44q37 46 37 65
t-40 22v15h158v-15q-51 -2 -81 -44l-83 -120l128 -196q24 -34 41.5 -47t40.5 -13v-15h-201z" />
    <glyph glyph-name="y" unicode="y" horiz-adv-x="500" 
d="M475 450v-15q-18 -2 -28 -11.5t-20 -33.5l-154 -408q-41 -109 -79.5 -154.5t-89.5 -45.5q-32 0 -53 16.5t-21 41.5q0 19 12.5 31.5t30.5 12.5q24 0 52 -11q15 -7 26 -7q10 0 24.5 12.5t25.5 31.5q13 24 26.5 60t13.5 48q0 23 -44 102q-10 20 -18 38l-114 246
q-12 26 -51 32v14h206v-15q-32 -1 -45 -7t-13 -20q0 -15 10 -38l115 -253l97 276q4 9 4 17q0 25 -48 25v15h135z" />
    <glyph glyph-name="z" unicode="z" horiz-adv-x="444" 
d="M418 135l-14 -135h-377v15l266 405h-138q-46 -1 -62 -18t-22 -70h-18l3 118h347v-15l-269 -405h138q72 2 93 20t35 89z" />
    <glyph glyph-name="braceleft" unicode="{" horiz-adv-x="480" 
d="M350 -170v-11q-93 0 -128 29.5t-37 110.5v177q-1 53 -18.5 76.5t-66.5 37.5q49 13 66.5 36.5t18.5 76.5v178q2 80 37 109.5t128 29.5v-11q-51 -12 -70.5 -39t-20.5 -84v-168q-1 -63 -19.5 -89t-74.5 -40q55 -13 74 -39t20 -89v-168q1 -57 20.5 -84t70.5 -39z" />
    <glyph glyph-name="bar" unicode="|" horiz-adv-x="200" 
d="M67 -155v831h66v-831h-66z" />
    <glyph glyph-name="braceright" unicode="}" horiz-adv-x="480" 
d="M130 669v11q93 0 128 -29.5t37 -110.5v-177q1 -53 18.5 -76.5t66.5 -36.5q-49 -14 -66.5 -37.5t-18.5 -76.5v-178q-2 -80 -37 -109.5t-128 -29.5v11q50 12 70 39t21 84v168q1 63 19.5 89t74.5 40q-56 14 -74.5 39t-19.5 89v168q-1 57 -21 84t-70 39z" />
    <glyph glyph-name="asciitilde" unicode="~" horiz-adv-x="541" 
d="M448 303l54 -32q-34 -48 -61 -66.5t-62 -18.5q-33 0 -58.5 9t-93.5 45q-26 14 -59 14q-23 0 -38.5 -11t-35.5 -40l-54 32q34 48 61 66.5t62 18.5q33 0 58.5 -9t93.5 -45q26 -14 59 -14q23 0 38.5 11t35.5 40z" />
    <glyph glyph-name="uni00A0" unicode="&#xa0;" horiz-adv-x="250" 
 />
    <glyph glyph-name="exclamdown" unicode="&#xa1;" horiz-adv-x="333" 
d="M157 282h13l9 -108q5 -63 17 -138q20 -118 20 -176q0 -37 -14 -57.5t-39 -20.5q-53 0 -53 80q0 13 2 37zM164 467q23 0 38.5 -14.5t15.5 -36.5q0 -23 -16 -38.5t-39 -15.5q-22 0 -37.5 16t-15.5 39q0 22 15.5 36t38.5 14z" />
    <glyph glyph-name="cent" unicode="&#xa2;" horiz-adv-x="500" 
d="M403 579l-47 -135q75 -30 75 -84q0 -20 -12 -32.5t-31 -12.5t-32 11.5t-26 40.5l-101 -291q31 -12 59 -12q44 0 76 22t71 78l13 -8q-25 -52 -43.5 -78t-44.5 -49q-44 -38 -103 -38q-25 0 -56 9l-49 -138h-34l51 150q-47 26 -70 59q-46 62 -46 148q0 101 63.5 171
t156.5 70q21 0 51 -5l44 124h35zM198 98l115 323q-23 9 -47 9q-61 0 -98.5 -46.5t-37.5 -123.5q0 -54 15.5 -91t52.5 -71z" />
    <glyph glyph-name="sterling" unicode="&#xa3;" horiz-adv-x="500" 
d="M344 373v-45h-122l1 -27l1 -28q0 -38 -25 -162q84 -35 149 -35q68 0 113 49q15 16 23 16q6 0 6 -4q0 -13 -13.5 -40.5t-29.5 -45.5q-50 -58 -125 -58q-32 0 -62.5 13t-81.5 48q-30 -36 -51 -49t-47 -13q-31 0 -49.5 16.5t-18.5 45.5q0 34 25 55t66 21q22 0 46 -5
q3 12 3 21q0 32 -17 149l-2 16l-2 17h-108v45h107q-7 36 -7 69q0 108 52.5 171t142.5 63q56 0 93 -26.5t37 -66.5q0 -23 -14 -38t-36 -15t-30 13.5t-9 53.5q0 52 -56 52q-45 0 -70 -36.5t-25 -102.5q0 -45 11 -137h125zM89 94q-51 0 -51 -37q0 -16 11.5 -26.5t29.5 -10.5
q28 0 46 23q17 19 17 33q0 6 -17 12t-36 6z" />
    <glyph glyph-name="currency" unicode="&#xa4;" horiz-adv-x="500" 
d="M-22 108l98 96q-41 59 -41 126q0 69 41 126l-98 98l50 48l96 -96q61 39 127 39q69 0 125 -39l98 96l48 -48l-96 -98q39 -58 39 -125q0 -66 -39 -127l96 -96l-48 -50l-98 98q-59 -41 -125 -41q-68 0 -127 41l-96 -98zM253 481q-63 0 -106.5 -43.5t-43.5 -107.5
q0 -62 43.5 -106.5t104.5 -44.5t103.5 44t42.5 108q0 62 -42.5 106t-101.5 44z" />
    <glyph glyph-name="yen" unicode="&#xa5;" horiz-adv-x="500" 
d="M367 19v-19h-244v19q50 2 64 20t15 81v62h-174v40h174v76l-7 14h-167v40h144l-95 173q-41 74 -62 95t-56 23v19h243v-19q-36 -1 -50.5 -7t-14.5 -22q0 -21 13 -45l118 -221l112 220q14 26 14 45q0 13 -14 21.5t-37 8.5h-14v19h195v-19q-38 -8 -64 -31.5t-54 -75.5
l-92 -184h146v-40h-166l-7 -14v-76h173v-40h-173v-73q1 -53 17 -71t63 -19z" />
    <glyph glyph-name="brokenbar" unicode="&#xa6;" horiz-adv-x="200" 
d="M67 -153v330h66v-330h-66zM67 315v329h66v-329h-66z" />
    <glyph glyph-name="section" unicode="&#xa7;" horiz-adv-x="500" 
d="M310 125h-18q56 -49 75 -78t19 -68q0 -57 -39.5 -92t-104.5 -35q-58 0 -98 29t-40 71q0 23 15.5 38.5t38.5 15.5q20 0 34 -12t14 -30q0 -21 -23 -41q-11 -9 -11 -15q0 -14 21.5 -24.5t49.5 -10.5q40 0 63.5 21t23.5 56q0 29 -20.5 55.5t-68.5 59.5q-92 63 -131.5 114.5
t-39.5 106.5q0 51 33 85t82 34q15 0 25 -1q-60 50 -80 80t-20 70q0 55 38.5 88.5t100.5 33.5q55 0 91.5 -28t36.5 -70q0 -25 -13.5 -39t-37.5 -14q-21 0 -34 12t-13 31q0 26 26 44q8 7 8 11q0 14 -18 23t-44 9q-38 0 -61.5 -19.5t-23.5 -51.5q0 -42 34 -71l137 -113
q89 -74 89 -155q0 -53 -32.5 -86.5t-83.5 -33.5zM191 383q-30 0 -49 -19t-19 -48q0 -41 46 -87q84 -83 136 -83q28 0 48.5 20t20.5 46q0 40 -53 93q-80 78 -130 78z" />
    <glyph glyph-name="dieresis" unicode="&#xa8;" horiz-adv-x="333" 
d="M66 623q20 0 35 -15t15 -35q0 -21 -15 -35.5t-35 -14.5t-34 14.5t-14 36.5q0 20 14.5 34.5t33.5 14.5zM265 623q20 0 35 -15t15 -35q0 -21 -15 -35.5t-35 -14.5t-34 14.5t-14 36.5q0 20 14.5 34.5t33.5 14.5z" />
    <glyph glyph-name="copyright" unicode="&#xa9;" horiz-adv-x="760" 
d="M386 676q139 0 237.5 -101.5t98.5 -244.5q0 -145 -99 -244.5t-242 -99.5q-144 0 -243.5 100t-99.5 244q0 146 100.5 246t247.5 100zM385 634q-121 0 -206.5 -89t-85.5 -215q0 -124 85 -213t203 -89q117 0 201.5 89.5t84.5 213.5q0 123 -84 213t-198 90zM537 526l10 -128
h-19q-35 107 -143 107q-70 0 -110.5 -48.5t-40.5 -132.5q0 -89 41 -137.5t115 -48.5q89 0 147 75l18 -9q-37 -49 -80 -71t-102 -22q-92 0 -154.5 58.5t-62.5 144.5q0 91 67 151.5t167 60.5q40 0 91 -18q6 -3 15 -3q14 0 22 21h19z" />
    <glyph glyph-name="ordfeminine" unicode="&#xaa;" horiz-adv-x="276" 
d="M270 442v-18q-31 -30 -59 -30q-20 0 -30 10t-15 34q-47 -44 -91 -44q-31 0 -51 19t-20 49q0 34 22 51q20 17 41 27t90 36v30q0 42 -36 42q-17 0 -31 -7t-14 -16q0 -4 2 -14q1 -3 1 -8q0 -10 -9 -17.5t-22 -7.5q-14 0 -23 9t-9 22q0 29 30.5 48t77.5 19q105 0 105 -96
v-115q0 -22 2.5 -28.5t10.5 -6.5q15 0 28 12zM158 474v77q-53 -19 -72 -33t-19 -33q0 -18 11 -31t27 -13q19 0 42 11q11 11 11 22z" />
    <glyph glyph-name="guillemotleft" unicode="&#xab;" horiz-adv-x="500" 
d="M42 222l65 59q6 4 16 14l3 2q10 9 24 21q54 48 61 59q32 39 43 39q10 0 10 -10q0 -22 -54 -89q-43 -51 -75 -93q4 -5 7 -9l3 -4q118 -150 118 -169q0 -9 -9 -9q-6 0 -11 6q-78 77 -170 156zM234 222l65 59q6 4 16 14l3 2q10 9 24 21q54 48 61 59q32 39 43 39q10 0 10 -10
q0 -22 -54 -89q-43 -51 -75 -93q4 -5 7 -9l3 -4q118 -150 118 -169q0 -9 -9 -9q-6 0 -11 6q-78 77 -170 156z" />
    <glyph glyph-name="logicalnot" unicode="&#xac;" horiz-adv-x="564" 
d="M31 383h504v-270h-66v206h-438v64z" />
    <glyph glyph-name="uni00AD" unicode="&#xad;" horiz-adv-x="333" 
d="M39 257h246v-63h-246v63z" />
    <glyph glyph-name="registered" unicode="&#xae;" horiz-adv-x="760" 
d="M219 505v15h177q52 0 83.5 -25t31.5 -67q0 -72 -79 -104l57 -79q39 -54 76 -85v-8h-64q-22 -5 -69 79q-14 26 -52 83h-48v-99q0 -36 7 -40q10 -5 42 -8v-15h-162v15q32 3 42 8q7 4 7 40v241q0 37 -7 41q-8 4 -42 8zM332 501v-168h43q33 0 51 23t18 66q0 79 -71 79h-41z
M381 676q145 0 243 -101t98 -250q0 -140 -99.5 -239.5t-241.5 -99.5q-144 0 -243.5 100t-99.5 244q0 145 100 245.5t243 100.5zM381 634q-118 0 -203 -90t-85 -214t85 -213t203 -89q115 0 200.5 89t85.5 209q0 128 -83.5 218t-202.5 90z" />
    <glyph glyph-name="macron" unicode="&#xaf;" horiz-adv-x="333" 
d="M16 594h300v-49h-300v49z" />
    <glyph glyph-name="degree" unicode="&#xb0;" horiz-adv-x="400" 
d="M200 676q61 0 102 -41.5t41 -102.5q0 -60 -42 -101t-103 -41q-58 0 -99.5 42t-41.5 101q0 60 41.5 101.5t101.5 41.5zM200 642q-43 0 -73.5 -32t-30.5 -77q0 -44 30.5 -76.5t72.5 -32.5q43 0 74 32t31 77q0 44 -30.5 76.5t-73.5 32.5z" />
    <glyph glyph-name="plusminus" unicode="&#xb1;" horiz-adv-x="564" 
d="M37 60v53h491v-53h-491zM256 395v220h53v-220h219v-53h-219v-160h-53v160h-219v53h219z" />
    <glyph glyph-name="twosuperior" unicode="&#xb2;" horiz-adv-x="300" 
d="M296 355l-37 -85h-253v23l98 107q81 89 81 137q0 31 -21.5 53.5t-51.5 22.5q-54 0 -86 -70l-25 14q21 61 47 84q35 35 98 35q58 0 94.5 -29.5t36.5 -76.5q0 -37 -19 -70.5t-65 -79.5l-86 -85h121q21 1 31 6t20 21z" />
    <glyph glyph-name="threesuperior" unicode="&#xb3;" horiz-adv-x="300" 
d="M94 460l-1 29q53 17 74.5 35.5t21.5 46.5q0 23 -15 36t-41 13q-27 0 -45.5 -12t-41.5 -45l-25 18q26 51 57.5 73t78.5 22q46 0 77 -24t31 -59q0 -39 -60 -82q86 -35 86 -113q0 -59 -55 -97.5t-138 -38.5t-83 50q0 16 10 26.5t25 10.5t41 -19q27 -20 51 -20
q31 0 49.5 18.5t18.5 49.5q0 48 -41 71q-30 18 -52 14z" />
    <glyph glyph-name="acute" unicode="&#xb4;" horiz-adv-x="333" 
d="M116 507h-40l147 148q23 23 42 23q35 0 35 -32q0 -23 -30 -42z" />
    <glyph glyph-name="mu" unicode="&#xb5;" horiz-adv-x="500" 
d="M429 450v-358q0 -65 32 -65q19 0 50 28v-8q-25 -32 -45.5 -44.5t-48.5 -12.5q-36 0 -54 21.5t-19 68.5q-57 -90 -137 -90q-72 0 -117 74q4 -41 19 -97q18 -71 18 -108q0 -77 -46 -77t-46 70q0 36 12 105q12 70 12 97v396h88v-306q0 -43 22.5 -67.5t61.5 -24.5
q73 0 110 63v335h88z" />
    <glyph glyph-name="paragraph" unicode="&#xb6;" horiz-adv-x="453" 
d="M251 640v-820h-66v453q-47 1 -73 8.5t-51 24.5q-70 49 -70 171q0 98 49.5 141.5t159.5 43.5h263v-19q-58 -5 -72.5 -20t-15.5 -70v-733h-66v820h-58zM185 295v345q-50 -4 -75 -22q-43 -31 -43 -138q0 -94 26.5 -136t91.5 -49z" />
    <glyph glyph-name="periodcentered" unicode="&#xb7;" horiz-adv-x="250" 
d="M125 310q23 0 39.5 -17t16.5 -40q0 -22 -17 -38t-40 -16q-22 0 -38 16t-16 38q0 24 16 40.5t39 16.5z" />
    <glyph glyph-name="cedilla" unicode="&#xb8;" horiz-adv-x="333" 
d="M98 -99l41 99h35l-25 -65q15 3 26 3q41 0 63.5 -18t22.5 -51q0 -39 -33.5 -61.5t-91.5 -22.5q-42 0 -84 16l14 31q36 -12 65 -12q25 0 40 12t15 32q0 19 -12 27.5t-41 8.5q-17 0 -28 -4z" />
    <glyph glyph-name="onesuperior" unicode="&#xb9;" horiz-adv-x="300" 
d="M248 294v-24h-191v24q31 1 41.5 8t11.5 24v257q0 28 -8 28q-7 0 -43 -13v23l118 55l14 -3v-343q1 -20 12.5 -27.5t44.5 -8.5z" />
    <glyph glyph-name="ordmasculine" unicode="&#xba;" horiz-adv-x="310" 
d="M159 676q64 0 104.5 -37.5t40.5 -96.5q0 -63 -43.5 -105.5t-109.5 -42.5q-63 0 -104 39t-41 100q0 64 42 103.5t111 39.5zM150 643q-32 0 -51.5 -20t-19.5 -54q0 -64 25 -108q19 -34 56 -34q71 0 71 87q0 57 -22.5 93t-58.5 36z" />
    <glyph glyph-name="guillemotright" unicode="&#xbb;" horiz-adv-x="500" 
d="M458 222l-31 -27q-90 -77 -170 -156q-5 -6 -11 -6q-9 0 -9 9q0 19 118 169l6 7l4 6q-32 42 -75 93q-54 67 -54 89q0 10 10 10q11 0 43 -39q7 -11 61 -59l24 -21q1 0 3 -2t6.5 -6t9.5 -8zM266 222l-31 -27q-90 -77 -170 -156q-5 -6 -11 -6q-9 0 -9 9q0 19 118 169l6 7l4 6
q-32 42 -75 93q-54 67 -54 89q0 10 10 10q11 0 43 -39q7 -11 61 -59l24 -21q1 0 3 -2t6.5 -6t9.5 -8z" />
    <glyph glyph-name="onequarter" unicode="&#xbc;" horiz-adv-x="750" 
d="M216 288v-11h-178v11q29 1 40.5 9.5t12.5 28.5v257q0 20 -3 27.5t-12 7.5q-6 0 -36 -10v9l112 52l7 -1v-338q1 -22 13 -31t44 -11zM712 145v-50h-51v-95h-66v95h-171v46l194 258h43v-254h51zM593 145v170l-126 -170h126zM631 676l-450 -690h-49l453 690h46z" />
    <glyph glyph-name="onehalf" unicode="&#xbd;" horiz-adv-x="750" 
d="M216 288v-11h-178v11q29 1 40.5 9.5t12.5 28.5v257q0 20 -3 27.5t-12 7.5q-6 0 -36 -10v9l112 52l7 -1v-338q1 -22 13 -31t44 -11zM600 676l-450 -690h-49l453 690h46zM734 81l-33 -75h-242v14l97 105q83 92 83 150q0 33 -22 53.5t-57 20.5q-59 0 -90 -67l-14 8
q18 52 43 76q35 33 88 33q52 0 87 -30.5t35 -74.5q0 -66 -74 -140l-97 -96h137q37 1 53 25z" />
    <glyph glyph-name="threequarters" unicode="&#xbe;" horiz-adv-x="750" 
d="M98 469l-1 20q53 19 74.5 38t21.5 47q0 24 -16.5 38.5t-44.5 14.5t-46 -11.5t-41 -43.5l-18 13q14 24 17 29q39 59 112 59q43 0 73 -22.5t30 -54.5q0 -22 -13 -38.5t-52 -44.5q35 -14 49 -26q41 -33 41 -84q0 -56 -53 -93.5t-134 -37.5q-77 0 -77 45q0 14 8.5 23t21.5 9
t38 -18q29 -21 53 -21q32 0 52 20t20 52q0 36 -27 63t-63 27q-4 0 -7 -1zM712 145v-50h-51v-95h-66v95h-171v46l194 258h43v-254h51zM593 145v170l-126 -170h126zM645 676l-450 -690h-49l453 690h46z" />
    <glyph glyph-name="questiondown" unicode="&#xbf;" horiz-adv-x="444" 
d="M209 294h17q-2 -70 -30 -142l-28 -64q-37 -85 -37 -156q0 -50 31.5 -85t77.5 -35q36 0 65 19t29 43q0 11 -17 31q-21 24 -21 43t11 30t30 11q48 0 48 -62t-46.5 -103.5t-115.5 -41.5q-41 0 -82 16t-66 42q-36 36 -36 97q0 57 45 126q14 21 60 77q51 65 65 154zM217 466
q23 0 38.5 -14.5t15.5 -36.5q0 -23 -16 -38.5t-39 -15.5t-38 15.5t-15 39.5q0 22 15 36t39 14z" />
    <glyph glyph-name="Agrave" unicode="&#xc0;" 
d="M706 19v-19h-255v19q40 1 55 8t15 26q0 24 -19 67l-41 96h-262l-46 -117q-8 -21 -8 -39q0 -41 68 -41v-19h-198v19q36 1 56 27.5t68 136.5l208 491h20l249 -568q26 -56 41 -70.5t49 -16.5zM216 257h231l-116 275zM437 719h-40l-154 97q-29 18 -29 43q0 31 34 31
q19 0 42 -23z" />
    <glyph glyph-name="Aacute" unicode="&#xc1;" 
d="M706 19v-19h-255v19q40 1 55 8t15 26q0 24 -19 67l-41 96h-262l-46 -117q-8 -21 -8 -39q0 -41 68 -41v-19h-198v19q36 1 56 27.5t68 136.5l208 491h20l249 -568q26 -56 41 -70.5t49 -16.5zM216 257h231l-116 275zM323 719h-40l147 148q23 23 42 23q35 0 35 -32
q0 -23 -30 -42z" />
    <glyph glyph-name="Acircumflex" unicode="&#xc2;" 
d="M706 19v-19h-255v19q40 1 55 8t15 26q0 24 -19 67l-41 96h-262l-46 -117q-8 -21 -8 -39q0 -41 68 -41v-19h-198v19q36 1 56 27.5t68 136.5l208 491h20l249 -568q26 -56 41 -70.5t49 -16.5zM216 257h231l-116 275zM512 719h-34l-122 103l-121 -103h-34l124 167h62z" />
    <glyph glyph-name="Atilde" unicode="&#xc3;" 
d="M706 19v-19h-255v19q40 1 55 8t15 26q0 24 -19 67l-41 96h-262l-46 -117q-8 -21 -8 -39q0 -41 68 -41v-19h-198v19q36 1 56 27.5t68 136.5l208 491h20l249 -568q26 -56 41 -70.5t49 -16.5zM216 257h231l-116 275zM497 850h29q-16 -57 -40 -81.5t-65 -24.5q-32 0 -81 24
l-23 11q-24 11 -41 11q-35 0 -51 -46h-29q11 49 37.5 75t63.5 26q35 0 70 -18l24 -12q32 -15 53 -15q17 0 28.5 11t24.5 39z" />
    <glyph glyph-name="Adieresis" unicode="&#xc4;" 
d="M706 19v-19h-255v19q40 1 55 8t15 26q0 24 -19 67l-41 96h-262l-46 -117q-8 -21 -8 -39q0 -41 68 -41v-19h-198v19q36 1 56 27.5t68 136.5l208 491h20l249 -568q26 -56 41 -70.5t49 -16.5zM216 257h231l-116 275zM254 835q20 0 35 -15t15 -35q0 -21 -15 -35.5t-35 -14.5
t-34 14.5t-14 36.5q0 20 14.5 34.5t33.5 14.5zM453 835q20 0 35 -15t15 -35q0 -21 -15 -35.5t-35 -14.5t-34 14.5t-14 36.5q0 20 14.5 34.5t33.5 14.5z" />
    <glyph glyph-name="Aring" unicode="&#xc5;" 
d="M706 19v-19h-255v19q40 1 55 8t15 26q0 24 -19 67l-41 96h-262l-46 -117q-8 -21 -8 -39q0 -41 68 -41v-19h-198v19q36 1 56 27.5t68 136.5l208 491h20l249 -568q26 -56 41 -70.5t49 -16.5zM216 257h231l-116 275zM351 915q41 0 70.5 -29.5t29.5 -70.5t-29.5 -70
t-70.5 -29q-42 0 -70.5 29t-28.5 71q0 40 29 69.5t70 29.5zM352 881q-27 0 -46.5 -19t-19.5 -46q0 -28 19 -47t45 -19q28 0 47.5 19t19.5 46t-19.5 46.5t-45.5 19.5z" />
    <glyph glyph-name="AE" unicode="&#xc6;" horiz-adv-x="889" 
d="M816 521h-23q-9 68 -41 86.5t-141 18.5h-87q-15 0 -20.5 -6.5t-6.5 -23.5v-230h111q79 1 103 19t29 78h21v-234h-21q-5 58 -25 78.5t-73 21.5h-145v-238q0 -39 8 -44q7 -9 61 -9h76q84 1 118.5 24t78.5 106h24l-44 -168h-510v19l17 2q47 7 58.5 21t13.5 66v152h-176
l-28 -53q-64 -122 -64 -158q0 -24 68 -30h1v-19h-199v19q32 4 47.5 18t40.5 60l245 484q9 17 9 28q0 16 -20.5 23.5t-69.5 9.5v20h564v-141zM239 299h159v319z" />
    <glyph glyph-name="Ccedilla" unicode="&#xc7;" horiz-adv-x="667" 
d="M336 -13l-20 -52q15 3 26 3q41 0 63.5 -18t22.5 -51q0 -39 -33.5 -61.5t-91.5 -22.5q-42 0 -84 16l14 31q36 -12 65 -12q25 0 40 12t15 32q0 19 -12 27.5t-41 8.5q-17 0 -28 -4l-7 5l37 89q-125 18 -199.5 108.5t-74.5 226.5q0 169 108 265q99 86 227 86q74 0 146 -25
q24 -8 39 -8q33 0 42 33h21l9 -225h-23q-14 49 -28 75t-38 50q-62 60 -149 60q-109 0 -173.5 -81t-64.5 -217q0 -173 86 -250q66 -58 162 -58q118 0 223 101l18 -18q-45 -60 -116.5 -93.5t-156.5 -33.5q-15 0 -24 1z" />
    <glyph glyph-name="Egrave" unicode="&#xc8;" horiz-adv-x="611" 
d="M597 169l-45 -169h-540v19q54 3 69.5 19.5t17.5 70.5v444q-2 54 -17 70t-70 20v19h531l3 -143h-25q-12 67 -38.5 85.5t-113.5 19.5h-135q-21 0 -26.5 -6t-6.5 -28v-222h154q63 2 82 18t28 77h23v-232h-23q-10 62 -28.5 78.5t-81.5 17.5h-154v-247q0 -29 13.5 -35t91.5 -8
h27q107 1 153.5 27t82.5 105h28zM382 719h-40l-154 97q-29 17 -29 43q0 31 34 31q18 0 42 -23z" />
    <glyph glyph-name="Eacute" unicode="&#xc9;" horiz-adv-x="611" 
d="M597 169l-45 -169h-540v19q54 3 69.5 19.5t17.5 70.5v444q-2 54 -17 70t-70 20v19h531l3 -143h-25q-12 67 -38.5 85.5t-113.5 19.5h-135q-21 0 -26.5 -6t-6.5 -28v-222h154q63 2 82 18t28 77h23v-232h-23q-10 62 -28.5 78.5t-81.5 17.5h-154v-247q0 -29 13.5 -35t91.5 -8
h27q107 1 153.5 27t82.5 105h28zM273 719h-40l147 148q23 23 42 23q35 0 35 -32q0 -23 -30 -42z" />
    <glyph glyph-name="Ecircumflex" unicode="&#xca;" horiz-adv-x="611" 
d="M597 169l-45 -169h-540v19q54 3 69.5 19.5t17.5 70.5v444q-2 54 -17 70t-70 20v19h531l3 -143h-25q-12 67 -38.5 85.5t-113.5 19.5h-135q-21 0 -26.5 -6t-6.5 -28v-222h154q63 2 82 18t28 77h23v-232h-23q-10 62 -28.5 78.5t-81.5 17.5h-154v-247q0 -29 13.5 -35t91.5 -8
h27q107 1 153.5 27t82.5 105h28zM462 719h-34l-122 103l-121 -103h-34l124 167h62z" />
    <glyph glyph-name="Edieresis" unicode="&#xcb;" horiz-adv-x="611" 
d="M597 169l-45 -169h-540v19q54 3 69.5 19.5t17.5 70.5v444q-2 54 -17 70t-70 20v19h531l3 -143h-25q-12 67 -38.5 85.5t-113.5 19.5h-135q-21 0 -26.5 -6t-6.5 -28v-222h154q63 2 82 18t28 77h23v-232h-23q-10 62 -28.5 78.5t-81.5 17.5h-154v-247q0 -29 13.5 -35t91.5 -8
h27q107 1 153.5 27t82.5 105h28zM206 835q20 0 35 -15t15 -35q0 -21 -15 -35.5t-35 -14.5t-34 14.5t-14 36.5q0 20 14.5 34.5t33.5 14.5zM405 835q20 0 35 -15t15 -35q0 -21 -15 -35.5t-35 -14.5t-34 14.5t-14 36.5q0 20 14.5 34.5t33.5 14.5z" />
    <glyph glyph-name="Igrave" unicode="&#xcc;" horiz-adv-x="333" 
d="M18 0v19q63 2 79.5 17.5t17.5 72.5v444q-1 56 -17 71t-80 19v19h297v-19q-62 -2 -79 -18t-19 -72v-444q2 -56 19.5 -72.5t78.5 -17.5v-19h-297zM243 719h-40l-154 97q-29 17 -29 43q0 31 34 31q18 0 42 -23z" />
    <glyph glyph-name="Iacute" unicode="&#xcd;" horiz-adv-x="333" 
d="M18 0v19q63 2 79.5 17.5t17.5 72.5v444q-1 56 -17 71t-80 19v19h297v-19q-62 -2 -79 -18t-19 -72v-444q2 -56 19.5 -72.5t78.5 -17.5v-19h-297zM133 719h-40l147 148q23 23 42 23q35 0 35 -32q0 -23 -30 -42z" />
    <glyph glyph-name="Icircumflex" unicode="&#xce;" horiz-adv-x="333" 
d="M18 0v19q63 2 79.5 17.5t17.5 72.5v444q-1 56 -17 71t-80 19v19h297v-19q-62 -2 -79 -18t-19 -72v-444q2 -56 19.5 -72.5t78.5 -17.5v-19h-297zM322 719h-34l-122 103l-121 -103h-34l124 167h62z" />
    <glyph glyph-name="Idieresis" unicode="&#xcf;" horiz-adv-x="333" 
d="M18 0v19q63 2 79.5 17.5t17.5 72.5v444q-1 56 -17 71t-80 19v19h297v-19q-62 -2 -79 -18t-19 -72v-444q2 -56 19.5 -72.5t78.5 -17.5v-19h-297zM66 835q20 0 35 -15t15 -35q0 -21 -15 -35.5t-35 -14.5t-34 14.5t-14 36.5q0 20 14.5 34.5t33.5 14.5zM265 835q20 0 35 -15
t15 -35q0 -21 -15 -35.5t-35 -14.5t-34 14.5t-14 36.5q0 20 14.5 34.5t33.5 14.5z" />
    <glyph glyph-name="Eth" unicode="&#xd0;" 
d="M16 643v19h270q211 0 314 -105q85 -83 85 -223q0 -152 -102 -245q-46 -42 -121 -65.5t-162 -23.5h-284v19q56 4 71.5 19.5t16.5 70.5v206h-83v44h83v194q-1 56 -15 70.5t-73 19.5zM352 359v-44h-146v-237q0 -24 11 -32.5t41 -8.5q124 0 196 41q122 71 122 249
q0 166 -119 248q-71 50 -201 50q-30 0 -40 -8t-10 -31v-227h146z" />
    <glyph glyph-name="Ntilde" unicode="&#xd1;" 
d="M707 662v-19q-59 -5 -76 -27.5t-19 -100.5v-526h-17l-442 550v-392q2 -77 19 -101t75 -27v-19h-235v19q62 4 79 26.5t18 101.5v441q-30 35 -47.5 45t-49.5 10v19h171l385 -484v337q-2 79 -19 101.5t-77 26.5v19h235zM497 850h29q-16 -57 -40 -81.5t-65 -24.5
q-32 0 -81 24l-23 11q-24 11 -41 11q-35 0 -51 -46h-29q11 49 37.5 75t63.5 26q35 0 70 -18l24 -12q32 -15 53 -15q17 0 28.5 11t24.5 39z" />
    <glyph glyph-name="Ograve" unicode="&#xd2;" 
d="M361 676q147 0 243 -105q84 -90 84 -244q0 -151 -92.5 -246t-240.5 -95q-66 0 -128.5 27.5t-106.5 74.5q-40 43 -63 107.5t-23 135.5q0 151 92 248t235 97zM361 640q-84 0 -143 -65q-32 -35 -51 -102.5t-19 -143.5q0 -83 23 -153t61 -105q57 -49 127 -49q80 0 133 53
q36 35 49 73q33 86 33 180q0 185 -85 262q-56 50 -128 50zM437 719h-40l-154 97q-29 18 -29 43q0 31 34 31q19 0 42 -23z" />
    <glyph glyph-name="Oacute" unicode="&#xd3;" 
d="M361 676q147 0 243 -105q84 -90 84 -244q0 -151 -92.5 -246t-240.5 -95q-66 0 -128.5 27.5t-106.5 74.5q-40 43 -63 107.5t-23 135.5q0 151 92 248t235 97zM361 640q-84 0 -143 -65q-32 -35 -51 -102.5t-19 -143.5q0 -83 23 -153t61 -105q57 -49 127 -49q80 0 133 53
q36 35 49 73q33 86 33 180q0 185 -85 262q-56 50 -128 50zM328 719h-40l147 148q23 23 42 23q35 0 35 -32q0 -23 -30 -42z" />
    <glyph glyph-name="Ocircumflex" unicode="&#xd4;" 
d="M361 676q147 0 243 -105q84 -90 84 -244q0 -151 -92.5 -246t-240.5 -95q-66 0 -128.5 27.5t-106.5 74.5q-40 43 -63 107.5t-23 135.5q0 151 92 248t235 97zM361 640q-84 0 -143 -65q-32 -35 -51 -102.5t-19 -143.5q0 -83 23 -153t61 -105q57 -49 127 -49q80 0 133 53
q36 35 49 73q33 86 33 180q0 185 -85 262q-56 50 -128 50zM517 719h-34l-122 103l-121 -103h-34l124 167h62z" />
    <glyph glyph-name="Otilde" unicode="&#xd5;" 
d="M361 676q147 0 243 -105q84 -90 84 -244q0 -151 -92.5 -246t-240.5 -95q-66 0 -128.5 27.5t-106.5 74.5q-40 43 -63 107.5t-23 135.5q0 151 92 248t235 97zM361 640q-84 0 -143 -65q-32 -35 -51 -102.5t-19 -143.5q0 -83 23 -153t61 -105q57 -49 127 -49q80 0 133 53
q36 35 49 73q33 86 33 180q0 185 -85 262q-56 50 -128 50zM497 850h29q-16 -57 -40 -81.5t-65 -24.5q-32 0 -81 24l-23 11q-24 11 -41 11q-35 0 -51 -46h-29q11 49 37.5 75t63.5 26q35 0 70 -18l24 -12q32 -15 53 -15q17 0 28.5 11t24.5 39z" />
    <glyph glyph-name="Odieresis" unicode="&#xd6;" 
d="M361 676q147 0 243 -105q84 -90 84 -244q0 -151 -92.5 -246t-240.5 -95q-66 0 -128.5 27.5t-106.5 74.5q-40 43 -63 107.5t-23 135.5q0 151 92 248t235 97zM361 640q-84 0 -143 -65q-32 -35 -51 -102.5t-19 -143.5q0 -83 23 -153t61 -105q57 -49 127 -49q80 0 133 53
q36 35 49 73q33 86 33 180q0 185 -85 262q-56 50 -128 50zM261 835q20 0 35 -15t15 -35q0 -21 -15 -35.5t-35 -14.5t-34 14.5t-14 36.5q0 20 14.5 34.5t33.5 14.5zM460 835q20 0 35 -15t15 -35q0 -21 -15 -35.5t-35 -14.5t-34 14.5t-14 36.5q0 20 14.5 34.5t33.5 14.5z" />
    <glyph glyph-name="multiply" unicode="&#xd7;" horiz-adv-x="564" 
d="M243 306l-196 196l39 39l196 -197l197 197l38 -39l-197 -196l197 -197l-38 -38l-197 197l-196 -197l-39 38z" />
    <glyph glyph-name="Oslash" unicode="&#xd8;" 
d="M658 734l-88 -130q54 -50 76 -93q42 -78 42 -179q0 -154 -91.5 -250t-237.5 -96q-91 0 -175 50l-79 -116h-49l95 139q-53 48 -76 93q-41 79 -41 178q0 152 91.5 249t236.5 97q88 0 175 -49l72 107h49zM527 540l-308 -452q60 -66 142 -66q99 0 156 82.5t57 225.5
q0 120 -47 210zM194 123l308 452q-62 65 -141 65q-98 0 -155.5 -83.5t-57.5 -226.5q0 -120 46 -207z" />
    <glyph glyph-name="Ugrave" unicode="&#xd9;" 
d="M705 662v-19q-61 -7 -77 -28t-17 -100v-261q0 -107 -33 -165q-59 -103 -223 -103q-128 0 -189.5 62.5t-61.5 192.5v312q-1 55 -16 70t-74 20v19h283v-19q-60 -5 -75 -20t-16 -70v-320q0 -88 25 -132q41 -71 147 -71q56 0 101 21.5t65 57.5q23 43 23 136v270
q-1 77 -18.5 100.5t-75.5 27.5v19h232zM455 719h-40l-154 97q-29 17 -29 43q0 31 34 31q18 0 42 -23z" />
    <glyph glyph-name="Uacute" unicode="&#xda;" 
d="M705 662v-19q-61 -7 -77 -28t-17 -100v-261q0 -107 -33 -165q-59 -103 -223 -103q-128 0 -189.5 62.5t-61.5 192.5v312q-1 55 -16 70t-74 20v19h283v-19q-60 -5 -75 -20t-16 -70v-320q0 -88 25 -132q41 -71 147 -71q56 0 101 21.5t65 57.5q23 43 23 136v270
q-1 77 -18.5 100.5t-75.5 27.5v19h232zM353 719h-40l147 148q23 23 42 23q35 0 35 -32q0 -23 -30 -42z" />
    <glyph glyph-name="Ucircumflex" unicode="&#xdb;" 
d="M705 662v-19q-61 -7 -77 -28t-17 -100v-261q0 -107 -33 -165q-59 -103 -223 -103q-128 0 -189.5 62.5t-61.5 192.5v312q-1 55 -16 70t-74 20v19h283v-19q-60 -5 -75 -20t-16 -70v-320q0 -88 25 -132q41 -71 147 -71q56 0 101 21.5t65 57.5q23 43 23 136v270
q-1 77 -18.5 100.5t-75.5 27.5v19h232zM536 719h-34l-122 103l-121 -103h-34l124 167h62z" />
    <glyph glyph-name="Udieresis" unicode="&#xdc;" 
d="M705 662v-19q-61 -7 -77 -28t-17 -100v-261q0 -107 -33 -165q-59 -103 -223 -103q-128 0 -189.5 62.5t-61.5 192.5v312q-1 55 -16 70t-74 20v19h283v-19q-60 -5 -75 -20t-16 -70v-320q0 -88 25 -132q41 -71 147 -71q56 0 101 21.5t65 57.5q23 43 23 136v270
q-1 77 -18.5 100.5t-75.5 27.5v19h232zM279 835q20 0 35 -15t15 -35q0 -21 -15 -35.5t-35 -14.5t-34 14.5t-14 36.5q0 20 14.5 34.5t33.5 14.5zM478 835q20 0 35 -15t15 -35q0 -21 -15 -35.5t-35 -14.5t-34 14.5t-14 36.5q0 20 14.5 34.5t33.5 14.5z" />
    <glyph glyph-name="Yacute" unicode="&#xdd;" 
d="M703 662v-19q-38 -3 -65 -25.5t-73 -88.5l-148 -226v-194q1 -58 18.5 -73t84.5 -17v-19h-306v19q68 3 84 19t17 82v174l-131 192q-75 106 -100.5 131t-61.5 26v19h280v-19q-11 -1 -25 -1q-46 -3 -46 -29q0 -19 17 -44l148 -222l143 226q14 21 14 37q0 18 -15 25t-54 8v19
h219zM386 719h-40l147 148q23 23 42 23q35 0 35 -32q0 -23 -30 -42z" />
    <glyph glyph-name="Thorn" unicode="&#xde;" horiz-adv-x="556" 
d="M296 19v-19h-280v19q57 5 70 21t14 80v433q-1 55 -14.5 69.5t-69.5 20.5v19h277v-19q-61 -5 -76.5 -24t-14.5 -87h80q120 0 190 -49t70 -132q0 -49 -26 -92t-70 -67q-61 -34 -175 -34q-30 0 -69 3v-52q1 -56 18 -72.5t76 -17.5zM202 461v-260q33 -3 57 -3q174 0 174 147
q0 77 -48 113t-151 36q-19 0 -25.5 -6.5t-6.5 -26.5z" />
    <glyph glyph-name="germandbls" unicode="&#xdf;" horiz-adv-x="500" 
d="M12 0v15q37 2 48 15t13 54v370q0 99 30 152q44 77 148 77q78 0 124 -41t46 -111q0 -54 -28.5 -85.5t-108.5 -68.5q82 -16 122 -51q62 -53 62 -140q0 -83 -51.5 -139t-127.5 -56q-43 0 -70 20.5t-27 52.5q0 20 13 34t32 14q17 0 29 -11.5t13 -28.5l2 -22q1 -16 8 -23
t21 -7q64 0 64 130q0 202 -132 207q-32 1 -32 17q0 12 29 15q95 10 95 128q0 65 -24 102t-67 37q-40 0 -63 -29t-23 -78v-549h-145z" />
    <glyph glyph-name="agrave" unicode="&#xe0;" horiz-adv-x="444" 
d="M442 66v-26q-26 -29 -45.5 -39.5t-44.5 -10.5q-31 0 -45.5 16.5t-18.5 56.5q-86 -73 -146 -73q-46 0 -75.5 30t-29.5 77q0 54 36 87q32 28 64.5 44.5t149.5 63.5v61q0 83 -76 83q-30 0 -51 -14.5t-21 -34.5q0 -11 3 -24q2 -14 2 -16q0 -17 -13.5 -29.5t-31.5 -12.5
t-30.5 13t-12.5 30q0 47 48.5 79.5t119.5 32.5q90 0 124 -55q20 -32 20 -105v-195q0 -33 6.5 -45.5t23.5 -12.5q21 0 44 19zM287 123v145q-88 -31 -124.5 -62.5t-37.5 -76.5v-4q0 -32 18.5 -54.5t44.5 -22.5q34 0 73 22q16 9 21 19.5t5 33.5zM329 507h-40l-154 97
q-29 18 -29 43q0 31 34 31q19 0 42 -23z" />
    <glyph glyph-name="aacute" unicode="&#xe1;" horiz-adv-x="444" 
d="M442 66v-26q-26 -29 -45.5 -39.5t-44.5 -10.5q-31 0 -45.5 16.5t-18.5 56.5q-86 -73 -146 -73q-46 0 -75.5 30t-29.5 77q0 54 36 87q32 28 64.5 44.5t149.5 63.5v61q0 83 -76 83q-30 0 -51 -14.5t-21 -34.5q0 -11 3 -24q2 -14 2 -16q0 -17 -13.5 -29.5t-31.5 -12.5
t-30.5 13t-12.5 30q0 47 48.5 79.5t119.5 32.5q90 0 124 -55q20 -32 20 -105v-195q0 -33 6.5 -45.5t23.5 -12.5q21 0 44 19zM287 123v145q-88 -31 -124.5 -62.5t-37.5 -76.5v-4q0 -32 18.5 -54.5t44.5 -22.5q34 0 73 22q16 9 21 19.5t5 33.5zM163 507h-40l147 148
q23 23 42 23q35 0 35 -32q0 -23 -30 -42z" />
    <glyph glyph-name="acircumflex" unicode="&#xe2;" horiz-adv-x="444" 
d="M442 66v-26q-26 -29 -45.5 -39.5t-44.5 -10.5q-31 0 -45.5 16.5t-18.5 56.5q-86 -73 -146 -73q-46 0 -75.5 30t-29.5 77q0 54 36 87q32 28 64.5 44.5t149.5 63.5v61q0 83 -76 83q-30 0 -51 -14.5t-21 -34.5q0 -11 3 -24q2 -14 2 -16q0 -17 -13.5 -29.5t-31.5 -12.5
t-30.5 13t-12.5 30q0 47 48.5 79.5t119.5 32.5q90 0 124 -55q20 -32 20 -105v-195q0 -33 6.5 -45.5t23.5 -12.5q21 0 44 19zM287 123v145q-88 -31 -124.5 -62.5t-37.5 -76.5v-4q0 -32 18.5 -54.5t44.5 -22.5q34 0 73 22q16 9 21 19.5t5 33.5zM378 507h-34l-122 103
l-121 -103h-34l124 167h62z" />
    <glyph glyph-name="atilde" unicode="&#xe3;" horiz-adv-x="444" 
d="M442 66v-26q-26 -29 -45.5 -39.5t-44.5 -10.5q-31 0 -45.5 16.5t-18.5 56.5q-86 -73 -146 -73q-46 0 -75.5 30t-29.5 77q0 54 36 87q32 28 64.5 44.5t149.5 63.5v61q0 83 -76 83q-30 0 -51 -14.5t-21 -34.5q0 -11 3 -24q2 -14 2 -16q0 -17 -13.5 -29.5t-31.5 -12.5
t-30.5 13t-12.5 30q0 47 48.5 79.5t119.5 32.5q90 0 124 -55q20 -32 20 -105v-195q0 -33 6.5 -45.5t23.5 -12.5q21 0 44 19zM287 123v145q-88 -31 -124.5 -62.5t-37.5 -76.5v-4q0 -32 18.5 -54.5t44.5 -22.5q34 0 73 22q16 9 21 19.5t5 33.5zM358 638h29q-16 -57 -40 -81.5
t-66 -24.5q-31 0 -80 24l-23 11q-24 11 -41 11q-35 0 -51 -46h-29q11 49 37 75t64 26q34 0 70 -18l24 -12q30 -15 52 -15q17 0 29 11t25 39z" />
    <glyph glyph-name="adieresis" unicode="&#xe4;" horiz-adv-x="444" 
d="M442 66v-26q-26 -29 -45.5 -39.5t-44.5 -10.5q-31 0 -45.5 16.5t-18.5 56.5q-86 -73 -146 -73q-46 0 -75.5 30t-29.5 77q0 54 36 87q32 28 64.5 44.5t149.5 63.5v61q0 83 -76 83q-30 0 -51 -14.5t-21 -34.5q0 -11 3 -24q2 -14 2 -16q0 -17 -13.5 -29.5t-31.5 -12.5
t-30.5 13t-12.5 30q0 47 48.5 79.5t119.5 32.5q90 0 124 -55q20 -32 20 -105v-195q0 -33 6.5 -45.5t23.5 -12.5q21 0 44 19zM287 123v145q-88 -31 -124.5 -62.5t-37.5 -76.5v-4q0 -32 18.5 -54.5t44.5 -22.5q34 0 73 22q16 9 21 19.5t5 33.5zM122 623q20 0 35 -15t15 -35
q0 -21 -15 -35.5t-35 -14.5t-34 14.5t-14 36.5q0 20 14.5 34.5t33.5 14.5zM321 623q20 0 35 -15t15 -35q0 -21 -15 -35.5t-35 -14.5t-34 14.5t-14 36.5q0 20 14.5 34.5t33.5 14.5z" />
    <glyph glyph-name="aring" unicode="&#xe5;" horiz-adv-x="444" 
d="M442 66v-26q-26 -29 -45.5 -39.5t-44.5 -10.5q-31 0 -45.5 16.5t-18.5 56.5q-86 -73 -146 -73q-46 0 -75.5 30t-29.5 77q0 54 36 87q32 28 64.5 44.5t149.5 63.5v61q0 83 -76 83q-30 0 -51 -14.5t-21 -34.5q0 -11 3 -24q2 -14 2 -16q0 -17 -13.5 -29.5t-31.5 -12.5
t-30.5 13t-12.5 30q0 47 48.5 79.5t119.5 32.5q90 0 124 -55q20 -32 20 -105v-195q0 -33 6.5 -45.5t23.5 -12.5q21 0 44 19zM287 123v145q-88 -31 -124.5 -62.5t-37.5 -76.5v-4q0 -32 18.5 -54.5t44.5 -22.5q34 0 73 22q16 9 21 19.5t5 33.5zM222 722q41 0 70.5 -29.5
t29.5 -70.5t-29.5 -70t-70.5 -29q-42 0 -70.5 29t-28.5 71q0 41 29.5 70t69.5 29zM223 688q-27 0 -46.5 -19t-19.5 -46q0 -28 19 -47t45 -19q28 0 47.5 19t19.5 46t-19.5 46.5t-45.5 19.5z" />
    <glyph glyph-name="ae" unicode="&#xe6;" horiz-adv-x="667" 
d="M620 154l12 -5q-38 -80 -74 -111q-52 -48 -123 -48q-43 0 -73 17t-56 56q-51 -43 -82.5 -58t-69.5 -15q-51 0 -83.5 30.5t-32.5 79.5q0 45 34.5 78.5t114.5 66.5l86 36l2 63q0 43 -12 70q-11 22 -50 22q-65 0 -68 -50v-6l1 -11q1 -6 1 -17q0 -48 -43 -48q-20 0 -32 13
t-12 35q0 46 46 77t113 31q38 0 63.5 -10t54.5 -35q34 26 59 35.5t60 9.5q76 0 113.5 -43t46.5 -140h-262q0 -75 5 -108t22 -62q12 -23 38 -36.5t57 -13.5q43 0 75.5 22t68.5 75zM274 201l-1 52q-90 -33 -119 -58t-29 -70q0 -36 19.5 -61.5t47.5 -25.5q27 0 64 18.5t37 31.5
q0 2 -1 3q-16 54 -18 110zM355 307h166q-1 66 -19.5 95t-59.5 29q-43 0 -63 -29t-24 -95z" />
    <glyph glyph-name="ccedilla" unicode="&#xe7;" horiz-adv-x="444" 
d="M226 -9l-21 -46q20 2 27 2q40 0 62.5 -15t22.5 -42q0 -32 -33.5 -51t-91.5 -19q-43 0 -84 14l14 25q39 -10 65 -10t40.5 10t14.5 27q0 16 -12 23t-41 7q-17 0 -28 -4l-7 5l38 75q-76 10 -121.5 70.5t-45.5 149.5q0 123 78 192q64 56 141 56q63 0 108.5 -30.5t45.5 -72.5
q0 -17 -14 -29.5t-33 -12.5q-35 0 -48 46l-6 22q-8 28 -20 38t-39 10q-61 0 -98.5 -48t-37.5 -126q0 -86 43 -140.5t112 -54.5q43 0 74 20.5t67 73.5l14 -9q-74 -152 -186 -156z" />
    <glyph glyph-name="egrave" unicode="&#xe8;" horiz-adv-x="444" 
d="M415 164l16 -7q-65 -167 -212 -167q-86 0 -136.5 60.5t-50.5 163.5q0 129 74 194q58 52 135 52q81 0 128 -57q33 -42 43 -126h-308q3 -80 27 -132q44 -86 129 -86q48 0 83.5 24t71.5 81zM106 309h204q-10 65 -31 90t-67 25q-90 0 -106 -115zM347 507h-40l-154 97
q-29 18 -29 43q0 31 34 31q19 0 42 -23z" />
    <glyph glyph-name="eacute" unicode="&#xe9;" horiz-adv-x="444" 
d="M414 164l16 -7q-65 -167 -212 -167q-86 0 -136.5 60.5t-50.5 163.5q0 129 74 194q58 52 135 52q80 0 128 -57q33 -42 43 -126h-308q3 -80 27 -132q44 -86 129 -86q48 0 83.5 24t71.5 81zM105 309h204q-10 65 -31 90t-67 25q-90 0 -106 -115zM187 507h-40l147 148
q23 23 42 23q35 0 35 -32q0 -23 -30 -42z" />
    <glyph glyph-name="ecircumflex" unicode="&#xea;" horiz-adv-x="444" 
d="M417 164l16 -7q-65 -167 -212 -167q-86 0 -136.5 60.5t-50.5 163.5q0 129 74 194q58 52 135 52q81 0 128 -57q33 -42 43 -126h-308q3 -80 27 -132q44 -86 129 -86q48 0 83.5 24t71.5 81zM108 309h204q-10 65 -31 90t-67 25q-90 0 -106 -115zM394 507h-34l-122 103
l-121 -103h-34l124 167h62z" />
    <glyph glyph-name="edieresis" unicode="&#xeb;" horiz-adv-x="444" 
d="M417 164l16 -7q-65 -167 -212 -167q-86 0 -136.5 60.5t-50.5 163.5q0 129 74 194q58 52 135 52q81 0 128 -57q33 -42 43 -126h-308q3 -80 27 -132q44 -86 129 -86q48 0 83.5 24t71.5 81zM108 309h204q-10 65 -31 90t-67 25q-90 0 -106 -115zM142 623q20 0 35 -15t15 -35
q0 -21 -15 -35.5t-35 -14.5t-34 14.5t-14 36.5q0 20 14.5 34.5t33.5 14.5zM341 623q20 0 35 -15t15 -35q0 -21 -15 -35.5t-35 -14.5t-34 14.5t-14 36.5q0 20 14.5 34.5t33.5 14.5z" />
    <glyph glyph-name="igrave" unicode="&#xec;" horiz-adv-x="278" 
d="M16 0v15q51 2 64 16.5t15 70.5v232q0 33 -7.5 46.5t-25.5 13.5q-16 0 -34 -3l-8 -1v15l155 55l4 -3v-355q1 -55 13 -69t61 -18v-15h-237zM215 507h-40l-154 97q-29 18 -29 43q0 31 34 31q19 0 42 -23z" />
    <glyph glyph-name="iacute" unicode="&#xed;" horiz-adv-x="278" 
d="M16 0v15q51 2 64 16.5t15 70.5v232q0 33 -7.5 46.5t-25.5 13.5q-16 0 -34 -3l-8 -1v15l155 55l4 -3v-355q1 -55 13 -69t61 -18v-15h-237zM86 507h-40l147 148q23 23 42 23q35 0 35 -32q0 -23 -30 -42z" />
    <glyph glyph-name="icircumflex" unicode="&#xee;" horiz-adv-x="278" 
d="M16 0v15q51 2 64 16.5t15 70.5v232q0 33 -7.5 46.5t-25.5 13.5q-16 0 -34 -3l-8 -1v15l155 55l4 -3v-355q1 -55 13 -69t61 -18v-15h-237zM283 507h-34l-122 103l-121 -103h-34l124 167h62z" />
    <glyph glyph-name="idieresis" unicode="&#xef;" horiz-adv-x="278" 
d="M59 623q20 0 35 -15t15 -35q0 -21 -15 -35.5t-35 -14.5t-34 14.5t-14 36.5q0 20 14.5 34.5t33.5 14.5zM218 623q20 0 35 -15t15 -35q0 -21 -15 -35.5t-35 -14.5t-34 14.5t-14 36.5q0 20 14.5 34.5t33.5 14.5zM16 0v15q51 2 64 16.5t15 70.5v232q0 33 -7.5 46.5
t-25.5 13.5q-16 0 -34 -3l-8 -1v15l155 55l4 -3v-355q1 -55 13 -69t61 -18v-15h-237z" />
    <glyph glyph-name="eth" unicode="&#xf0;" horiz-adv-x="500" 
d="M270 575l-123 -65l-33 30l121 64q-62 44 -133 56l42 23q49 -4 81.5 -14t70.5 -33l95 50l33 -30l-91 -48q63 -60 91 -118q47 -96 47 -205q0 -72 -24 -137.5t-65 -104.5q-55 -53 -135 -53q-94 0 -156 66.5t-62 166.5q0 101 61 169t151 68q36 0 62 -12.5t64 -47.5
q-11 55 -32 92.5t-65 82.5zM237 432q-53 0 -85.5 -42.5t-32.5 -112.5q0 -112 44 -194q35 -65 98 -65q57 0 88.5 48t31.5 135q0 102 -40 166.5t-104 64.5z" />
    <glyph glyph-name="ntilde" unicode="&#xf1;" horiz-adv-x="500" 
d="M18 0v15q38 2 49.5 16.5t12.5 58.5v248q0 37 -8 50.5t-29 13.5q-19 0 -27 -4v17q74 22 138 45l7 -2v-79q51 48 80.5 64.5t64.5 16.5q55 0 86.5 -39.5t31.5 -110.5v-229q1 -37 12.5 -49.5t48.5 -16.5v-15h-208v15q37 2 49 18.5t14 65.5v209q0 97 -73 97q-25 0 -46.5 -12
t-56.5 -45v-281q0 -27 14.5 -38.5t51.5 -13.5v-15h-212zM386 638h29q-16 -57 -40 -81.5t-66 -24.5q-31 0 -80 24l-23 11q-24 11 -41 11q-35 0 -51 -46h-29q11 49 37 75t64 26q34 0 70 -18l24 -12q30 -15 52 -15q17 0 29 11t25 39z" />
    <glyph glyph-name="ograve" unicode="&#xf2;" horiz-adv-x="500" 
d="M250 460q96 0 158 -63.5t62 -162.5q0 -104 -63.5 -174t-158.5 -70t-157 67t-62 169q0 104 61.5 169t159.5 65zM237 432q-54 0 -86 -43t-32 -114q0 -111 44 -193q34 -64 97 -64q56 0 88 48t32 133q0 103 -40 168t-103 65zM351 507h-40l-154 97q-29 18 -29 43q0 31 34 31
q19 0 42 -23z" />
    <glyph glyph-name="oacute" unicode="&#xf3;" horiz-adv-x="500" 
d="M250 460q96 0 158 -63.5t62 -162.5q0 -104 -63.5 -174t-158.5 -70t-157 67t-62 169q0 104 61.5 169t159.5 65zM237 432q-54 0 -86 -43t-32 -114q0 -111 44 -193q34 -64 97 -64q56 0 88 48t32 133q0 103 -40 168t-103 65zM194 507h-40l147 148q23 23 43 23q34 0 34 -32
q0 -23 -30 -42z" />
    <glyph glyph-name="ocircumflex" unicode="&#xf4;" horiz-adv-x="500" 
d="M250 460q96 0 158 -63.5t62 -162.5q0 -104 -63.5 -174t-158.5 -70t-157 67t-62 169q0 104 61.5 169t159.5 65zM237 432q-54 0 -86 -43t-32 -114q0 -111 44 -193q34 -64 97 -64q56 0 88 48t32 133q0 103 -40 168t-103 65zM406 507h-34l-122 103l-121 -103h-34l124 167h62z
" />
    <glyph glyph-name="otilde" unicode="&#xf5;" horiz-adv-x="500" 
d="M250 460q96 0 158 -63.5t62 -162.5q0 -104 -63.5 -174t-158.5 -70t-157 67t-62 169q0 104 61.5 169t159.5 65zM237 432q-54 0 -86 -43t-32 -114q0 -111 44 -193q34 -64 97 -64q56 0 88 48t32 133q0 103 -40 168t-103 65zM386 638h29q-16 -57 -40 -81.5t-66 -24.5
q-31 0 -80 24l-23 11q-24 11 -41 11q-35 0 -51 -46h-29q11 49 37 75t64 26q34 0 70 -18l24 -12q30 -15 52 -15q17 0 29 11t25 39z" />
    <glyph glyph-name="odieresis" unicode="&#xf6;" horiz-adv-x="500" 
d="M250 460q96 0 158 -63.5t62 -162.5q0 -104 -63.5 -174t-158.5 -70t-157 67t-62 169q0 104 61.5 169t159.5 65zM237 432q-54 0 -86 -43t-32 -114q0 -111 44 -193q34 -64 97 -64q56 0 88 48t32 133q0 103 -40 168t-103 65zM150 623q20 0 35 -15t15 -35q0 -21 -15 -35.5
t-35 -14.5t-34 14.5t-14 36.5q0 20 14.5 34.5t33.5 14.5zM349 623q20 0 35 -15t15 -35q0 -21 -15 -35.5t-35 -14.5t-34 14.5t-14 36.5q0 20 14.5 34.5t33.5 14.5z" />
    <glyph glyph-name="divide" unicode="&#xf7;" horiz-adv-x="564" 
d="M528 280h-491v53h491v-53zM282 563q20 0 35 -15t15 -36q0 -19 -15 -33t-35 -14t-34 14.5t-14 33.5q0 20 14.5 35t33.5 15zM282 148q20 0 35 -15t15 -36q0 -19 -15 -33t-35 -14t-34 14t-14 34t14.5 35t33.5 15z" />
    <glyph glyph-name="oslash" unicode="&#xf8;" horiz-adv-x="500" 
d="M437 551l-65 -125q40 -29 60 -58q38 -59 38 -134q0 -104 -64 -174t-159 -70q-47 0 -93 21l-65 -123h-37l73 140q-42 33 -63 69q-33 60 -33 130q0 102 61.5 167.5t158.5 65.5q44 0 92 -18l57 109h39zM340 366l-161 -306q35 -42 82 -42q56 0 87.5 48.5t31.5 136.5
q0 89 -40 163zM158 92l159 304q-37 36 -80 36q-53 0 -85.5 -43t-32.5 -113q0 -100 39 -184z" />
    <glyph glyph-name="ugrave" unicode="&#xf9;" horiz-adv-x="500" 
d="M479 50v-14q-78 -21 -137 -45l-4 2v83l-43 -43q-43 -43 -103 -43q-55 0 -88 35.5t-33 94.5v252q-1 36 -14 49t-48 15v14h146v-326q0 -31 21 -53.5t50 -22.5q46 0 88 34q19 15 19 53v235q0 37 -13.5 49t-60.5 14v17h158v-343q1 -35 10.5 -45.5t46.5 -11.5h5zM327 507h-40
l-154 97q-29 18 -29 43q0 31 34 31q19 0 42 -23z" />
    <glyph glyph-name="uacute" unicode="&#xfa;" horiz-adv-x="500" 
d="M479 50v-14q-78 -21 -137 -45l-4 2v83l-43 -43q-43 -43 -103 -43q-55 0 -88 35.5t-33 94.5v252q-1 36 -14 49t-48 15v14h146v-326q0 -31 21 -53.5t50 -22.5q46 0 88 34q19 15 19 53v235q0 37 -13.5 49t-60.5 14v17h158v-343q1 -35 10.5 -45.5t46.5 -11.5h5zM226 507h-40
l147 148q23 23 42 23q35 0 35 -32q0 -23 -30 -42z" />
    <glyph glyph-name="ucircumflex" unicode="&#xfb;" horiz-adv-x="500" 
d="M479 50v-14q-78 -21 -137 -45l-4 2v83l-43 -43q-43 -43 -103 -43q-55 0 -88 35.5t-33 94.5v252q-1 36 -14 49t-48 15v14h146v-326q0 -31 21 -53.5t50 -22.5q46 0 88 34q19 15 19 53v235q0 37 -13.5 49t-60.5 14v17h158v-343q1 -35 10.5 -45.5t46.5 -11.5h5zM384 507h-34
l-122 103l-121 -103h-34l124 167h62z" />
    <glyph glyph-name="udieresis" unicode="&#xfc;" horiz-adv-x="500" 
d="M479 50v-14q-78 -21 -137 -45l-4 2v83l-43 -43q-43 -43 -103 -43q-55 0 -88 35.5t-33 94.5v252q-1 36 -14 49t-48 15v14h146v-326q0 -31 21 -53.5t50 -22.5q46 0 88 34q19 15 19 53v235q0 37 -13.5 49t-60.5 14v17h158v-343q1 -35 10.5 -45.5t46.5 -11.5h5zM130 623
q20 0 35 -15t15 -35q0 -21 -15 -35.5t-35 -14.5t-34 14.5t-14 36.5q0 20 14.5 34.5t33.5 14.5zM329 623q20 0 35 -15t15 -35q0 -21 -15 -35.5t-35 -14.5t-34 14.5t-14 36.5q0 20 14.5 34.5t33.5 14.5z" />
    <glyph glyph-name="yacute" unicode="&#xfd;" horiz-adv-x="500" 
d="M475 450v-15q-18 -2 -28 -11.5t-20 -33.5l-154 -408q-41 -109 -79.5 -154.5t-89.5 -45.5q-32 0 -53 16.5t-21 41.5q0 19 12.5 31.5t30.5 12.5q24 0 52 -11q15 -7 26 -7q10 0 24.5 12.5t25.5 31.5q13 24 26.5 60t13.5 48q0 23 -44 102q-10 20 -18 38l-114 246
q-12 26 -51 32v14h206v-15q-32 -1 -45 -7t-13 -20q0 -15 10 -38l115 -253l97 276q4 9 4 17q0 25 -48 25v15h135zM243 507h-40l147 148q23 23 42 23q35 0 35 -32q0 -23 -30 -42z" />
    <glyph glyph-name="thorn" unicode="&#xfe;" horiz-adv-x="500" 
d="M5 -217v18q44 4 57 16t13 52v704q0 32 -9 41.5t-40 9.5q-11 0 -17 -1v16q93 26 145 44l5 -3v-298q65 78 144 78q73 0 120 -60t47 -153q0 -109 -60.5 -183t-149.5 -74q-31 0 -52.5 9t-48.5 34v-157q1 -48 16.5 -61t71.5 -14v-18h-242zM159 334v-246q0 -22 34.5 -44
t69.5 -22q54 0 87.5 51t33.5 134q0 88 -33.5 140.5t-89.5 52.5q-35 0 -68.5 -22t-33.5 -44z" />
    <glyph glyph-name="ydieresis" unicode="&#xff;" horiz-adv-x="500" 
d="M475 450v-15q-18 -2 -28 -11.5t-20 -33.5l-154 -408q-41 -109 -79.5 -154.5t-89.5 -45.5q-32 0 -53 16.5t-21 41.5q0 19 12.5 31.5t30.5 12.5q24 0 52 -11q15 -7 26 -7q10 0 24.5 12.5t25.5 31.5q13 24 26.5 60t13.5 48q0 23 -44 102q-10 20 -18 38l-114 246
q-12 26 -51 32v14h206v-15q-32 -1 -45 -7t-13 -20q0 -15 10 -38l115 -253l97 276q4 9 4 17q0 25 -48 25v15h135zM165 623q20 0 35 -15t15 -35q0 -21 -15 -35.5t-35 -14.5t-34 14.5t-14 36.5q0 20 14.5 34.5t33.5 14.5zM364 623q20 0 35 -15t15 -35q0 -21 -15 -35.5
t-35 -14.5t-34 14.5t-14 36.5q0 20 14.5 34.5t33.5 14.5z" />
    <glyph glyph-name="Amacron" unicode="&#x100;" 
d="M706 19v-19h-255v19q40 1 55 8t15 26q0 24 -19 67l-41 96h-262l-46 -117q-8 -21 -8 -39q0 -41 68 -41v-19h-198v19q36 1 56 27.5t68 136.5l208 491h20l249 -568q26 -56 41 -70.5t49 -16.5zM216 257h231l-116 275zM206 813h311v-54h-311v54z" />
    <glyph glyph-name="amacron" unicode="&#x101;" horiz-adv-x="444" 
d="M442 66v-26q-26 -29 -45.5 -39.5t-44.5 -10.5q-31 0 -45.5 16.5t-18.5 56.5q-86 -73 -146 -73q-46 0 -75.5 30t-29.5 77q0 54 36 87q32 28 64.5 44.5t149.5 63.5v61q0 83 -76 83q-30 0 -51 -14.5t-21 -34.5q0 -11 3 -24q2 -14 2 -16q0 -17 -13.5 -29.5t-31.5 -12.5
t-30.5 13t-12.5 30q0 47 48.5 79.5t119.5 32.5q90 0 124 -55q20 -32 20 -105v-195q0 -33 6.5 -45.5t23.5 -12.5q21 0 44 19zM287 123v145q-88 -31 -124.5 -62.5t-37.5 -76.5v-4q0 -32 18.5 -54.5t44.5 -22.5q34 0 73 22q16 9 21 19.5t5 33.5zM67 601h311v-54h-311v54z" />
    <glyph glyph-name="Abreve" unicode="&#x102;" 
d="M706 19v-19h-255v19q40 1 55 8t15 26q0 24 -19 67l-41 96h-262l-46 -117q-8 -21 -8 -39q0 -41 68 -41v-19h-198v19q36 1 56 27.5t68 136.5l208 491h20l249 -568q26 -56 41 -70.5t49 -16.5zM216 257h231l-116 275zM473 876h29q-19 -157 -142 -157q-73 0 -112 54
q-26 36 -27 103h29q10 -50 36.5 -73.5t75.5 -23.5q43 0 66 20t45 77z" />
    <glyph glyph-name="abreve" unicode="&#x103;" horiz-adv-x="444" 
d="M442 66v-26q-26 -29 -45.5 -39.5t-44.5 -10.5q-31 0 -45.5 16.5t-18.5 56.5q-86 -73 -146 -73q-46 0 -75.5 30t-29.5 77q0 54 36 87q32 28 64.5 44.5t149.5 63.5v61q0 83 -76 83q-30 0 -51 -14.5t-21 -34.5q0 -11 3 -24q2 -14 2 -16q0 -17 -13.5 -29.5t-31.5 -12.5
t-30.5 13t-12.5 30q0 47 48.5 79.5t119.5 32.5q90 0 124 -55q20 -32 20 -105v-195q0 -33 6.5 -45.5t23.5 -12.5q21 0 44 19zM287 123v145q-88 -31 -124.5 -62.5t-37.5 -76.5v-4q0 -32 18.5 -54.5t44.5 -22.5q34 0 73 22q16 9 21 19.5t5 33.5zM334 664h29q-19 -157 -142 -157
q-73 0 -112 54q-26 36 -27 103h29q10 -50 36.5 -73.5t75.5 -23.5q43 0 66 20t45 77z" />
    <glyph glyph-name="Aogonek" unicode="&#x104;" 
d="M706 19v-19q-17 -4 -33 -27t-16 -42q0 -18 10.5 -29t27.5 -11q30 0 71 36l20 -16q-53 -76 -112 -76q-31 0 -52 21.5t-21 53.5q0 47 54 90h-204v19q40 1 55 8t15 26q0 24 -19 67l-41 96h-262l-46 -117q-8 -21 -8 -39q0 -41 68 -41v-19h-198v19q36 1 56 27.5t68 136.5
l208 491h20l249 -568q26 -56 41 -70.5t49 -16.5zM216 257h231l-116 275z" />
    <glyph glyph-name="aogonek" unicode="&#x105;" horiz-adv-x="444" 
d="M442 66v-26q-26 -28 -41 -37t-46 -14q-18 -4 -29 -19t-11 -36q0 -20 10.5 -31.5t27.5 -11.5q30 0 71 36l20 -16q-53 -76 -112 -76q-31 0 -52 21.5t-21 53.5q0 47 54 90q-21 20 -25 63q-86 -73 -146 -73q-46 0 -75.5 30t-29.5 77q0 54 36 87q32 28 64.5 44.5t149.5 63.5
v61q0 83 -76 83q-30 0 -51 -14.5t-21 -34.5q0 -11 3 -24q2 -14 2 -16q0 -17 -13.5 -29.5t-31.5 -12.5t-30.5 13t-12.5 30q0 47 48.5 79.5t119.5 32.5q90 0 124 -55q20 -32 20 -105v-195q0 -33 6.5 -45.5t23.5 -12.5q21 0 44 19zM287 123v145q-88 -31 -124.5 -62.5
t-37.5 -76.5v-4q0 -32 18.5 -54.5t44.5 -22.5q34 0 73 22q16 9 21 19.5t5 33.5z" />
    <glyph glyph-name="Cacute" unicode="&#x106;" horiz-adv-x="667" 
d="M620 451h-23q-14 49 -28 75t-38 50q-62 60 -149 60q-109 0 -173.5 -81t-64.5 -217q0 -173 86 -250q66 -58 162 -58q118 0 223 101l18 -18q-45 -61 -116.5 -94t-156.5 -33q-149 0 -240.5 93.5t-91.5 246.5q0 168 108 264q99 86 227 86q74 0 146 -25q24 -8 39 -8
q33 0 42 33h21zM360 719h-40l147 148q23 23 42 23q35 0 35 -32q0 -23 -30 -42z" />
    <glyph glyph-name="cacute" unicode="&#x107;" horiz-adv-x="444" 
d="M398 156l14 -9q-41 -80 -76 -110q-55 -47 -121 -47q-83 0 -136.5 62.5t-53.5 159.5q0 123 78 192q64 56 141 56q63 0 108.5 -30.5t45.5 -72.5q0 -17 -14 -29.5t-33 -12.5q-35 0 -48 46l-6 22q-8 28 -20 38t-39 10q-61 0 -98.5 -48t-37.5 -126q0 -86 43 -140.5t112 -54.5
q43 0 74 20.5t67 73.5zM179 507h-40l147 148q23 23 42 23q35 0 35 -32q0 -23 -30 -42z" />
    <glyph glyph-name="Ccircumflex" unicode="&#x108;" horiz-adv-x="667" 
d="M617 155l17 -11q-48 -71 -118 -111t-149 -40q-138 0 -235.5 99t-97.5 239q0 142 100 240t245 98q79 0 140 -28q40 -19 51 -19q24 0 30 40h21l6 -223l-18 -2q-10 79 -60 129q-66 66 -159 66q-107 0 -171 -83t-64 -221q0 -133 64.5 -212t173.5 -79q134 0 224 118zM542 719
h-34l-122 103l-121 -103h-34l124 167h62z" />
    <glyph glyph-name="ccircumflex" unicode="&#x109;" horiz-adv-x="444" 
d="M398 156l14 -9q-41 -80 -76 -110q-55 -47 -121 -47q-83 0 -136.5 62.5t-53.5 159.5q0 123 78 192q64 56 141 56q63 0 108.5 -30.5t45.5 -72.5q0 -17 -14 -29.5t-33 -12.5q-35 0 -48 46l-6 22q-8 28 -20 38t-39 10q-61 0 -98.5 -48t-37.5 -126q0 -86 43 -140.5t112 -54.5
q43 0 74 20.5t67 73.5zM389 507h-34l-122 103l-121 -103h-34l124 167h62z" />
    <glyph glyph-name="Cdotaccent" unicode="&#x10a;" horiz-adv-x="667" 
d="M617 155l17 -11q-48 -71 -118 -111t-149 -40q-138 0 -235.5 99t-97.5 239q0 142 100 240t245 98q79 0 140 -28q40 -19 51 -19q24 0 30 40h21l6 -223l-18 -2q-10 79 -60 129q-66 66 -159 66q-107 0 -171 -83t-64 -221q0 -133 64.5 -212t173.5 -79q134 0 224 118zM384 823
q22 0 37.5 -15.5t15.5 -37.5t-15.5 -38t-37.5 -16t-38 16t-16 38t16 37.5t38 15.5z" />
    <glyph glyph-name="cdotaccent" unicode="&#x10b;" horiz-adv-x="444" 
d="M398 156l14 -9q-41 -80 -76 -110q-55 -47 -121 -47q-83 0 -136.5 62.5t-53.5 159.5q0 123 78 192q64 56 141 56q63 0 108.5 -30.5t45.5 -72.5q0 -17 -14 -29.5t-33 -12.5q-35 0 -48 46l-6 22q-8 28 -20 38t-39 10q-61 0 -98.5 -48t-37.5 -126q0 -86 43 -140.5t112 -54.5
q43 0 74 20.5t67 73.5zM230 623q20 0 35 -15t15 -35q0 -21 -15 -35.5t-35 -14.5t-34 14.5t-14 36.5q0 20 14.5 34.5t33.5 14.5z" />
    <glyph glyph-name="Ccaron" unicode="&#x10c;" horiz-adv-x="667" 
d="M620 451h-23q-14 49 -28 75t-38 50q-62 60 -149 60q-109 0 -173.5 -81t-64.5 -217q0 -173 86 -250q66 -58 162 -58q118 0 223 101l18 -18q-45 -61 -116.5 -94t-156.5 -33q-149 0 -240.5 93.5t-91.5 246.5q0 168 108 264q99 86 227 86q74 0 146 -25q24 -8 39 -8
q33 0 42 33h21zM528 886l-125 -167h-62l-124 167h34l121 -103l122 103h34z" />
    <glyph glyph-name="ccaron" unicode="&#x10d;" horiz-adv-x="444" 
d="M398 156l14 -9q-41 -80 -76 -110q-55 -47 -121 -47q-83 0 -136.5 62.5t-53.5 159.5q0 123 78 192q64 56 141 56q63 0 108.5 -30.5t45.5 -72.5q0 -17 -14 -29.5t-33 -12.5q-35 0 -48 46l-6 22q-8 28 -20 38t-39 10q-61 0 -98.5 -48t-37.5 -126q0 -86 43 -140.5t112 -54.5
q43 0 74 20.5t67 73.5zM398 674l-125 -167h-62l-124 167h34l121 -103l122 103h34z" />
    <glyph glyph-name="Dcaron" unicode="&#x10e;" 
d="M16 0v19q56 4 71.5 19.5t16.5 70.5v444q-1 56 -15 70.5t-73 19.5v19h270q211 0 314 -105q85 -83 85 -223q0 -152 -102 -245q-46 -42 -121 -65.5t-162 -23.5h-284zM206 586v-508q0 -24 11 -32.5t41 -8.5q124 0 196 41q122 71 122 249q0 166 -119 248q-71 50 -199 50
q-31 0 -41.5 -8t-10.5 -31zM478 886l-125 -167h-62l-124 167h34l121 -103l122 103h34z" />
    <glyph glyph-name="dcaron" unicode="&#x10f;" horiz-adv-x="588" 
d="M510 433l-9 19q82 56 82 106q0 14 -14 14q-2 0 -7 -2q-12 -2 -20 -2q-28 0 -43.5 13.5t-15.5 37.5q0 25 16.5 41t42.5 16q34 0 57 -25.5t23 -63.5q0 -45 -31 -87t-81 -67zM490 58v-16l-147 -52l-4 3v64q-48 -67 -128 -67q-83 0 -134 59.5t-51 155.5q0 106 61 180.5
t147 74.5q54 0 105 -43v156q0 31 -9 41t-37 10q-14 0 -22 -1v16q91 24 147 44l5 -2v-567q0 -35 8.5 -46t35.5 -11q10 0 23 1zM339 102v230q0 40 -30.5 70t-71.5 30q-57 0 -91 -51t-34 -136q0 -92 38 -147.5t100 -55.5q46 0 72 30q17 19 17 30z" />
    <glyph glyph-name="Dcroat" unicode="&#x110;" 
d="M16 643v19h270q211 0 314 -105q85 -83 85 -223q0 -152 -102 -245q-46 -42 -121 -65.5t-162 -23.5h-284v19q56 4 71.5 19.5t16.5 70.5v206h-83v44h83v194q-1 56 -15 70.5t-73 19.5zM352 359v-44h-146v-237q0 -24 11 -32.5t41 -8.5q124 0 196 41q122 71 122 249
q0 166 -119 248q-71 50 -201 50q-30 0 -40 -8t-10 -31v-227h146z" />
    <glyph glyph-name="dcroat" unicode="&#x111;" horiz-adv-x="500" 
d="M340 527h-121v34h121v12q0 31 -9 41t-37 10q-14 0 -22 -1v16q91 24 147 44l5 -2v-120h76v-34h-76v-413q0 -35 8.5 -46t35.5 -11q10 0 23 1v-16l-147 -52l-4 3v64q-48 -67 -128 -67q-83 0 -134 59.5t-51 155.5q0 106 61 180.5t147 74.5q54 0 105 -43v110zM340 102v230
q0 40 -30.5 70t-71.5 30q-57 0 -91 -51t-34 -136q0 -92 38 -147.5t100 -55.5q47 0 72 30q17 19 17 30z" />
    <glyph glyph-name="Emacron" unicode="&#x112;" horiz-adv-x="611" 
d="M597 169l-45 -169h-540v19q54 3 69.5 19.5t17.5 70.5v444q-2 54 -17 70t-70 20v19h531l3 -143h-25q-12 67 -38.5 85.5t-113.5 19.5h-135q-21 0 -26.5 -6t-6.5 -28v-222h154q63 2 82 18t28 77h23v-232h-23q-10 62 -28.5 78.5t-81.5 17.5h-154v-247q0 -29 13.5 -35t91.5 -8
h27q107 1 153.5 27t82.5 105h28zM150 813h311v-54h-311v54z" />
    <glyph glyph-name="emacron" unicode="&#x113;" horiz-adv-x="444" 
d="M408 164l16 -7q-65 -167 -212 -167q-86 0 -136.5 60.5t-50.5 163.5q0 129 74 194q58 52 135 52q80 0 128 -57q33 -42 43 -126h-308q3 -80 27 -132q44 -86 129 -86q48 0 83.5 24t71.5 81zM99 309h204q-10 65 -31 90t-67 25q-90 0 -106 -115zM67 601h311v-54h-311v54z" />
    <glyph glyph-name="Ebreve" unicode="&#x114;" horiz-adv-x="611" 
d="M597 169l-45 -169h-540v19q54 3 69.5 19.5t17.5 70.5v444q-2 54 -17 70t-70 20v19h531l3 -143h-25q-12 67 -38.5 85.5t-113.5 19.5h-135q-21 0 -26.5 -6t-6.5 -28v-222h154q63 2 82 18t28 77h23v-232h-23q-10 62 -28.5 78.5t-81.5 17.5h-154v-247q0 -29 13.5 -35t91.5 -8
h27q107 1 153.5 27t82.5 105h28zM417 876h29q-18 -157 -142 -157q-73 0 -112 54q-26 38 -27 103h29q11 -50 37.5 -73.5t74.5 -23.5q43 0 66 20t45 77z" />
    <glyph glyph-name="ebreve" unicode="&#x115;" horiz-adv-x="444" 
d="M414 164l16 -7q-65 -167 -212 -167q-86 0 -136.5 60.5t-50.5 163.5q0 129 74 194q58 52 135 52q80 0 128 -57q33 -42 43 -126h-308q3 -80 27 -132q44 -86 129 -86q48 0 83.5 24t71.5 81zM105 309h204q-10 65 -31 90t-67 25q-90 0 -106 -115zM351 664h29
q-18 -157 -141 -157q-73 0 -112 54q-25 35 -28 103h29q11 -50 37.5 -73.5t74.5 -23.5q44 0 67 20t44 77z" />
    <glyph glyph-name="Edotaccent" unicode="&#x116;" horiz-adv-x="611" 
d="M597 169l-45 -169h-540v19q54 3 69.5 19.5t17.5 70.5v444q-2 54 -17 70t-70 20v19h531l3 -143h-25q-12 67 -38.5 85.5t-113.5 19.5h-135q-21 0 -26.5 -6t-6.5 -28v-222h154q63 2 82 18t28 77h23v-232h-23q-10 62 -28.5 78.5t-81.5 17.5h-154v-247q0 -29 13.5 -35t91.5 -8
h27q107 1 153.5 27t82.5 105h28zM305 835q20 0 35 -15t15 -35q0 -21 -15 -35.5t-35 -14.5t-34 14.5t-14 36.5q0 20 14.5 34.5t33.5 14.5z" />
    <glyph glyph-name="edotaccent" unicode="&#x117;" horiz-adv-x="444" 
d="M414 164l16 -7q-65 -167 -212 -167q-86 0 -136.5 60.5t-50.5 163.5q0 129 74 194q58 52 135 52q80 0 128 -57q33 -42 43 -126h-308q3 -80 27 -132q44 -86 129 -86q48 0 83.5 24t71.5 81zM105 309h204q-10 65 -31 90t-67 25q-90 0 -106 -115zM228 623q20 0 35 -15t15 -35
q0 -21 -15 -35.5t-35 -14.5t-34 14.5t-14 36.5q0 20 14.5 34.5t33.5 14.5z" />
    <glyph glyph-name="Eogonek" unicode="&#x118;" horiz-adv-x="611" 
d="M552 0h-6q-23 0 -43.5 -22t-20.5 -47q0 -18 10.5 -29t27.5 -11q30 0 71 36l20 -16q-53 -76 -112 -76q-31 0 -52 21.5t-21 53.5q0 47 54 90h-468v19q54 3 69.5 19.5t17.5 70.5v444q-2 54 -17 70t-70 20v19h531l3 -143h-25q-12 67 -38.5 85.5t-113.5 19.5h-135
q-21 0 -26.5 -6t-6.5 -28v-222h154q63 2 82 18t28 77h23v-232h-23q-10 62 -28.5 78.5t-81.5 17.5h-154v-247q0 -29 13.5 -35t91.5 -8h27q107 1 153.5 27t82.5 105h28z" />
    <glyph glyph-name="eogonek" unicode="&#x119;" horiz-adv-x="444" 
d="M415 164l16 -7q-21 -58 -93 -135q-31 -33 -43 -53t-12 -40q0 -17 10.5 -27.5t27.5 -10.5q28 0 71 36l20 -16q-53 -76 -112 -76q-31 0 -52 21.5t-21 53.5q0 45 52 89q-28 -9 -59 -9q-87 0 -137.5 60t-50.5 164q0 129 74 194q58 52 135 52q81 0 128 -57q33 -42 43 -126
h-308q3 -80 27 -132q44 -86 129 -86q48 0 83.5 24t71.5 81zM106 309h204q-10 65 -31 90t-67 25q-90 0 -106 -115z" />
    <glyph glyph-name="Ecaron" unicode="&#x11a;" horiz-adv-x="611" 
d="M597 169l-45 -169h-540v19q54 3 69.5 19.5t17.5 70.5v444q-2 54 -17 70t-70 20v19h531l3 -143h-25q-12 67 -38.5 85.5t-113.5 19.5h-135q-21 0 -26.5 -6t-6.5 -28v-222h154q63 2 82 18t28 77h23v-232h-23q-10 62 -28.5 78.5t-81.5 17.5h-154v-247q0 -29 13.5 -35t91.5 -8
h27q107 1 153.5 27t82.5 105h28zM461 886l-125 -167h-62l-124 167h34l121 -103l122 103h34z" />
    <glyph glyph-name="ecaron" unicode="&#x11b;" horiz-adv-x="444" 
d="M417 164l16 -7q-65 -167 -212 -167q-86 0 -136.5 60.5t-50.5 163.5q0 129 74 194q58 52 135 52q81 0 128 -57q33 -42 43 -126h-308q3 -80 27 -132q44 -86 129 -86q48 0 83.5 24t71.5 81zM108 309h204q-10 65 -31 90t-67 25q-90 0 -106 -115zM394 674l-125 -167h-62
l-124 167h34l121 -103l122 103h34z" />
    <glyph glyph-name="Gcircumflex" unicode="&#x11c;" 
d="M640 254v-194q-121 -67 -252 -67q-168 0 -268 97q-92 91 -92 224q0 147 92 244q49 52 119.5 81.5t144.5 29.5q73 0 150 -35q24 -11 38 -11q27 0 33 39h20l13 -205l-20 -2q-13 42 -26 65t-37 44q-69 63 -160 63q-64 0 -118 -30t-88 -85q-44 -70 -44 -174q0 -138 68 -218
q74 -86 190 -86q78 0 132 44v176q0 47 -14.5 65t-54.5 20h-15v18h275v-18h-17q-40 -2 -54.5 -20t-14.5 -65zM541 719h-34l-122 103l-121 -103h-34l124 167h62z" />
    <glyph glyph-name="gcircumflex" unicode="&#x11d;" horiz-adv-x="500" 
d="M470 388h-83q19 -43 19 -84q0 -72 -48 -113q-48 -42 -108 -42q-1 0 -7 0.5t-20.5 2t-29.5 2.5q-20 -6 -40 -27t-20 -36q0 -24 78 -27l129 -6q55 -2 88 -31t33 -76q0 -56 -55 -101q-84 -68 -205 -68q-72 0 -122.5 28.5t-50.5 68.5q0 28 22 55.5t76 66.5q-32 15 -42.5 26
t-10.5 27q0 22 27 50q2 3 36 35l26 24q-50 25 -71.5 56t-21.5 78q0 69 48.5 116t118.5 47q40 0 80 -15l22 -8q29 -10 55 -10h77v-39zM152 338v-3q0 -72 28.5 -116.5t74.5 -44.5q34 0 54 24.5t20 66.5q0 65 -30 120q-25 47 -73 47q-35 0 -54.5 -25t-19.5 -69zM147 -2
q-30 -36 -39.5 -52.5t-9.5 -33.5q0 -33 39.5 -53t106.5 -20q85 0 137 27t52 70q0 27 -28 38t-96 11q-99 0 -162 13zM405 507h-34l-122 103l-121 -103h-34l124 167h62z" />
    <glyph glyph-name="Gbreve" unicode="&#x11e;" 
d="M709 354v-18q-43 -3 -56 -17t-14 -60v-203q-30 -26 -108 -48t-143 -22q-171 0 -273 107q-83 87 -83 232q0 153 96.5 252t246.5 99q67 0 136 -23q30 -10 44 -10q35 0 45 33h22l8 -211h-23q-32 78 -71 116q-58 55 -144 55q-106 0 -174 -76q-33 -37 -52.5 -100.5
t-19.5 -133.5q0 -139 70.5 -219.5t192.5 -80.5q55 0 94 17.5t39 41.5v162q-1 57 -15 71t-73 18v18h255zM493 876h29q-18 -157 -142 -157q-73 0 -112 54q-26 38 -27 103h29q11 -50 37.5 -73.5t74.5 -23.5q43 0 66 20t45 77z" />
    <glyph glyph-name="gbreve" unicode="&#x11f;" horiz-adv-x="500" 
d="M470 388h-83q19 -43 19 -84q0 -72 -48 -113q-48 -42 -108 -42q-1 0 -7 0.5t-20.5 2t-29.5 2.5q-20 -6 -40 -27t-20 -36q0 -24 78 -27l129 -6q55 -2 88 -31t33 -76q0 -56 -55 -101q-84 -68 -205 -68q-72 0 -122.5 28.5t-50.5 68.5q0 28 22 55.5t76 66.5q-32 15 -42.5 26
t-10.5 27q0 22 27 50q2 3 36 35l26 24q-50 25 -71.5 56t-21.5 78q0 69 48.5 116t118.5 47q40 0 80 -15l22 -8q29 -10 55 -10h77v-39zM147 -2q-30 -36 -39.5 -52.5t-9.5 -33.5q0 -33 39.5 -53t106.5 -20q85 0 137 27t52 70q0 27 -28 38t-96 11q-99 0 -162 13zM152 338v-3
q0 -72 28.5 -116.5t74.5 -44.5q34 0 54 24.5t20 66.5q0 65 -30 120q-25 47 -73 47q-35 0 -54.5 -25t-19.5 -69zM362 664h29q-19 -157 -142 -157q-73 0 -112 54q-26 36 -27 103h29q10 -50 36.5 -73.5t75.5 -23.5q43 0 66 20t45 77z" />
    <glyph glyph-name="Gdotaccent" unicode="&#x120;" 
d="M640 254v-194q-121 -67 -252 -67q-168 0 -268 97q-92 91 -92 224q0 147 92 244q49 52 119.5 81.5t144.5 29.5q73 0 150 -35q24 -11 38 -11q27 0 33 39h20l13 -205l-20 -2q-13 42 -26 65t-37 44q-69 63 -160 63q-64 0 -118 -30t-88 -85q-44 -70 -44 -174q0 -138 68 -218
q74 -86 190 -86q78 0 132 44v176q0 47 -14.5 65t-54.5 20h-15v18h275v-18h-17q-40 -2 -54.5 -20t-14.5 -65zM390 823q22 0 37.5 -15.5t15.5 -37.5t-15.5 -38t-37.5 -16t-38 16t-16 38t16 37.5t38 15.5z" />
    <glyph glyph-name="gdotaccent" unicode="&#x121;" horiz-adv-x="500" 
d="M247 636q21 0 36 -15t15 -36q0 -22 -15 -37t-37 -15q-21 0 -36 15t-15 37q0 21 15 36t37 15zM470 388h-83q19 -43 19 -84q0 -72 -48 -113q-48 -42 -108 -42q-1 0 -7 0.5t-20.5 2t-29.5 2.5q-20 -6 -40 -27t-20 -36q0 -24 78 -27l129 -6q55 -2 88 -31t33 -76
q0 -56 -55 -101q-84 -68 -205 -68q-72 0 -122.5 28.5t-50.5 68.5q0 28 22 55.5t76 66.5q-32 15 -42.5 26t-10.5 27q0 22 27 50q2 3 36 35l26 24q-50 25 -71.5 56t-21.5 78q0 69 48.5 116t118.5 47q40 0 80 -15l22 -8q29 -10 55 -10h77v-39zM152 338v-3q0 -72 28.5 -116.5
t74.5 -44.5q34 0 54 24.5t20 66.5q0 65 -30 120q-25 47 -73 47q-35 0 -54.5 -25t-19.5 -69zM147 -2q-30 -36 -39.5 -52.5t-9.5 -33.5q0 -33 39.5 -53t106.5 -20q85 0 137 27t52 70q0 27 -28 38t-96 11q-99 0 -162 13z" />
    <glyph glyph-name="Gcommaaccent" unicode="&#x122;" 
d="M709 354v-18q-43 -3 -56 -17t-14 -60v-203q-30 -26 -108 -48t-143 -22q-171 0 -273 107q-83 87 -83 232q0 153 96.5 252t246.5 99q67 0 136 -23q30 -10 44 -10q35 0 45 33h22l8 -211h-23q-32 78 -71 116q-58 55 -144 55q-106 0 -174 -76q-33 -37 -52.5 -100.5
t-19.5 -133.5q0 -139 70.5 -219.5t192.5 -80.5q55 0 94 17.5t39 41.5v162q-1 57 -15 71t-73 18v18h255zM319 -281l-9 19q82 56 82 106q0 14 -14 14q-2 0 -7 -2q-12 -2 -20 -2q-28 0 -43.5 13.5t-15.5 37.5q0 25 16.5 41t42.5 16q34 0 57 -25.5t23 -63.5q0 -45 -31 -87
t-81 -67z" />
    <glyph glyph-name="gcommaaccent" unicode="&#x123;" horiz-adv-x="500" 
d="M470 388h-83q19 -43 19 -84q0 -72 -48 -113q-48 -42 -108 -42q-1 0 -7 0.5t-20.5 2t-29.5 2.5q-20 -6 -40 -27t-20 -36q0 -24 78 -27l129 -6q55 -2 88 -31t33 -76q0 -56 -55 -101q-84 -68 -205 -68q-72 0 -122.5 28.5t-50.5 68.5q0 28 22 55.5t76 66.5q-32 15 -42.5 26
t-10.5 27q0 22 27 50q2 3 36 35l26 24q-50 25 -71.5 56t-21.5 78q0 69 48.5 116t118.5 47q40 0 80 -15l22 -8q29 -10 55 -10h77v-39zM147 -2q-30 -36 -39.5 -52.5t-9.5 -33.5q0 -33 39.5 -53t106.5 -20q85 0 137 27t52 70q0 27 -28 38t-96 11q-99 0 -162 13zM152 338v-3
q0 -72 28.5 -116.5t74.5 -44.5q34 0 54 24.5t20 66.5q0 65 -30 120q-25 47 -73 47q-35 0 -54.5 -25t-19.5 -69zM293 736l9 -19q-82 -56 -82 -106q0 -14 14 -14q2 0 7 2q12 2 20 2q28 0 43.5 -13.5t15.5 -37.5q0 -25 -16.5 -41t-42.5 -16q-34 0 -57 25.5t-23 63.5q0 45 31 87
t81 67z" />
    <glyph glyph-name="Hcircumflex" unicode="&#x124;" 
d="M214 315v-211q0 -48 14 -66t54 -19l22 -1v-18h-286v18l23 1q39 2 53.5 19.5t14.5 65.5v455q0 47 -14.5 64.5t-53.5 19.5l-23 1v18h286v-18l-22 -1q-40 -1 -54 -19t-14 -65v-199h295v199q0 47 -14.5 64.5t-53.5 19.5l-23 1v18h286v-18l-22 -1q-40 -1 -54 -19t-14 -65v-455
q0 -48 14 -66t54 -19l22 -1v-18h-286v18l23 1q39 2 53.5 19.5t14.5 65.5v211h-295zM517 719h-34l-122 103l-121 -103h-34l124 167h62z" />
    <glyph glyph-name="hcircumflex" unicode="&#x125;" horiz-adv-x="500" 
d="M487 15v-15h-212v15q43 4 55 19t13 68v198q0 106 -75 106q-29 0 -54.5 -14.5t-56.5 -48.5v-241q2 -53 13.5 -68t54.5 -19v-15h-216v15q43 5 52.5 19t11.5 68v471q0 32 -9.5 41.5t-41.5 9.5q-8 0 -12 -1v16l27 8q68 19 115 36l5 -3v-304q35 45 69 64.5t78 19.5
q123 0 123 -159v-199q1 -53 10 -66.5t50 -20.5zM310 726h-34l-122 103l-121 -103h-34l124 167h62z" />
    <glyph glyph-name="Hbar" unicode="&#x126;" 
d="M109 465h-91v40h91v53q0 48 -14.5 65.5t-54.5 19.5l-22 1v18h286v-18l-21 -1q-40 -2 -54.5 -19.5t-14.5 -65.5v-53h295v53q0 48 -14.5 65.5t-53.5 19.5l-22 1v18h286v-18l-22 -1q-40 -2 -54.5 -19.5t-14.5 -65.5v-53h91v-40h-91v-361q0 -48 14.5 -65.5t54.5 -19.5l22 -1
v-18h-286v18l22 1q39 2 53.5 19.5t14.5 65.5v211h-295v-211q0 -48 14.5 -65.5t54.5 -19.5l21 -1v-18h-286v18l22 1q40 2 54.5 19.5t14.5 65.5v361zM214 465v-105h295v105h-295z" />
    <glyph glyph-name="hbar" unicode="&#x127;" horiz-adv-x="500" 
d="M161 678v-132h117v-36h-117v-132q48 49 80.5 67.5t71.5 18.5q29 0 54.5 -15.5t37.5 -41.5q20 -41 20 -121v-164q0 -67 9.5 -85.5t46.5 -19.5h10v-17h-212v17h11q37 1 46.5 19.5t9.5 85.5v164q0 50 -9 74q-6 20 -24 33t-38 13q-26 0 -51 -14t-63 -50v-220q0 -67 10 -85.5
t47 -19.5h13v-17h-223v17h17q37 2 47 20t10 85v388h-64v36h64q0 30 -8.5 42.5t-28.5 12.5q-11 0 -20 -3l-10 -4l-7 14q73 31 153 70z" />
    <glyph glyph-name="Itilde" unicode="&#x128;" horiz-adv-x="333" 
d="M18 0v19q63 2 79.5 17.5t17.5 72.5v444q-1 56 -17 71t-80 19v19h297v-19q-62 -2 -79 -18t-19 -72v-444q2 -56 19.5 -72.5t78.5 -17.5v-19h-297zM302 844h29q-16 -57 -40 -81.5t-65 -24.5q-32 0 -81 24l-23 11q-24 11 -41 11q-35 0 -51 -46h-29q11 49 37 75t64 26
q36 0 70 -18l24 -12q28 -15 53 -15q17 0 28.5 11t24.5 39z" />
    <glyph glyph-name="itilde" unicode="&#x129;" horiz-adv-x="278" 
d="M23 0v15q51 2 64 16.5t15 70.5v232q0 33 -7.5 46.5t-25.5 13.5q-16 0 -34 -3l-8 -1v15l155 55l4 -3v-355q1 -55 13 -69t61 -18v-15h-237zM277 638h29q-16 -57 -40 -81.5t-65 -24.5q-32 0 -81 24l-23 11q-24 11 -41 11q-35 0 -51 -46h-29q11 49 37.5 75t63.5 26
q36 0 70 -18l24 -12q32 -15 53 -15q17 0 28.5 11t24.5 39z" />
    <glyph glyph-name="Imacron" unicode="&#x12a;" horiz-adv-x="333" 
d="M18 0v19q63 2 79.5 17.5t17.5 72.5v444q-1 56 -17 71t-80 19v19h297v-19q-62 -2 -79 -18t-19 -72v-444q2 -56 19.5 -72.5t78.5 -17.5v-19h-297zM11 813h311v-54h-311v54z" />
    <glyph glyph-name="imacron" unicode="&#x12b;" horiz-adv-x="278" 
d="M16 0v15q51 2 64 16.5t15 70.5v232q0 33 -7.5 46.5t-25.5 13.5q-16 0 -34 -3l-8 -1v15l155 55l4 -3v-355q1 -55 13 -69t61 -18v-15h-237zM-25 601h308v-54h-308v54z" />
    <glyph glyph-name="Ibreve" unicode="&#x12c;" horiz-adv-x="333" 
d="M18 0v19q63 2 79.5 17.5t17.5 72.5v444q-1 56 -17 71t-80 19v19h297v-19q-62 -2 -79 -18t-19 -72v-444q2 -56 19.5 -72.5t78.5 -17.5v-19h-297zM278 870h29q-18 -157 -142 -157q-73 0 -112 54q-26 38 -27 103h29q11 -50 37.5 -73.5t74.5 -23.5q43 0 66 20t45 77z" />
    <glyph glyph-name="ibreve" unicode="&#x12d;" horiz-adv-x="278" 
d="M182 470v-348q0 -67 10 -85t47 -20h16v-17h-226v17h17q38 2 47 18.5t10 86.5v202q0 42 -7 55.5t-29 13.5q-9 0 -20 -3l-11 -4l-7 15q79 32 153 69zM226 640h23q-16 -61 -42.5 -89t-70.5 -28q-43 0 -70 28t-43 89h24q28 -57 89 -57q62 0 90 57z" />
    <glyph glyph-name="Iogonek" unicode="&#x12e;" horiz-adv-x="333" 
d="M18 662h297v-19q-62 -2 -79 -18t-19 -72v-444q2 -56 19.5 -72.5t78.5 -17.5v-19q-4 -1 -19 -13q-28 -28 -28 -57q0 -17 10.5 -28t27.5 -11q30 0 71 36l20 -16q-53 -76 -112 -76q-31 0 -52 21.5t-21 53.5q0 47 54 90h-248v19q63 2 79.5 17.5t17.5 72.5v444q-1 56 -17 71
t-80 19v19z" />
    <glyph glyph-name="iogonek" unicode="&#x12f;" horiz-adv-x="278" 
d="M185 457v-355q1 -55 13 -69t61 -18v-15h-33q-28 0 -49.5 -21t-21.5 -49q0 -17 10.5 -28t27.5 -11q30 0 71 36l20 -16q-53 -76 -112 -76q-31 0 -52 21.5t-21 53.5q0 47 54 90h-131v15q51 2 64 16.5t15 70.5v232q0 33 -7.5 46.5t-25.5 13.5q-16 0 -34 -3l-8 -1v15l155 55z
M134 683q22 0 37 -14.5t15 -36.5t-15 -36.5t-37 -14.5q-21 0 -35.5 14.5t-14.5 36.5q0 21 15 36t35 15z" />
    <glyph glyph-name="Idotaccent" unicode="&#x130;" horiz-adv-x="333" 
d="M18 0v19q63 2 79.5 17.5t17.5 72.5v444q-1 56 -17 71t-80 19v19h297v-19q-62 -2 -79 -18t-19 -72v-444q2 -56 19.5 -72.5t78.5 -17.5v-19h-297zM166 835q20 0 35 -15t15 -35q0 -21 -15 -35.5t-35 -14.5t-34 14.5t-14 36.5q0 20 14.5 34.5t33.5 14.5z" />
    <glyph glyph-name="dotlessi" unicode="&#x131;" horiz-adv-x="278" 
d="M16 0v15q51 2 64 16.5t15 70.5v232q0 33 -7.5 46.5t-25.5 13.5q-16 0 -34 -3l-8 -1v15l155 55l4 -3v-355q1 -55 13 -69t61 -18v-15h-237z" />
    <glyph glyph-name="IJ" unicode="&#x132;" horiz-adv-x="708" 
d="M304 18v-18h-286v18l22 1q40 2 54.5 19.5t14.5 64.5v456q0 47 -14.5 64.5t-54.5 19.5l-22 1v18h286v-18l-22 -1q-40 -1 -54 -19t-14 -65v-456q0 -47 14 -65t54 -19zM415 644v18h287v-18l-20 -1q-40 -2 -54.5 -19.5t-13.5 -64.5v-366q0 -92 -46 -146t-124 -54
q-46 0 -75 20.5t-29 53.5q0 20 14 33t36 13t35 -11t29 -44q11 -24 28 -24t23 23.5t6 86.5v415q-2 44 -19.5 64t-54.5 20z" />
    <glyph glyph-name="ij" unicode="&#x133;" horiz-adv-x="552" 
d="M196 470v-348q0 -67 10 -85t47 -20h16v-17h-226v17h17q38 2 47 18.5t10 86.5v202q0 42 -7 55.5t-29 13.5q-9 0 -20 -3l-11 -4l-7 15q79 32 153 69zM151 662q21 0 36 -15t15 -36q0 -22 -15 -37t-36 -15q-22 0 -37 15t-15 37q0 21 15 36t37 15zM453 470v-403
q0 -65 -4 -92.5t-17 -53.5q-20 -37 -57.5 -58.5t-83.5 -21.5q-34 0 -57 14.5t-23 36.5q0 16 12 27.5t29 11.5q22 0 53 -28q19 -19 34 -19q20 0 27.5 25t7.5 91v324q0 42 -7 55.5t-29 13.5q-11 0 -20 -3l-11 -4l-7 15q73 30 153 69zM407 662q21 0 36 -15t15 -36
q0 -22 -15 -37t-36 -15q-22 0 -37 15t-15 37q0 21 15 36t37 15z" />
    <glyph glyph-name="Jcircumflex" unicode="&#x134;" horiz-adv-x="389" 
d="M376 662v-19q-61 -4 -75.5 -19t-16.5 -71v-370q0 -94 -44 -145.5t-125 -51.5q-43 0 -71 20t-28 52q0 20 14.5 35t34.5 15q37 0 52 -51q5 -19 11 -26t16 -7q38 0 38 66v463q-1 55 -16.5 70t-76.5 20v19h287zM394 728h-34l-122 103l-121 -103h-34l124 167h62z" />
    <glyph glyph-name="jcircumflex" unicode="&#x135;" horiz-adv-x="278" 
d="M193 457v-457q0 -127 -58 -179q-42 -39 -111 -39q-41 0 -67.5 15.5t-26.5 39.5q0 16 12 27.5t29 11.5q23 0 48 -32q23 -28 42 -28q23 0 34 18q14 25 14 121v379q0 60 -32 60q-17 0 -40 -3l-5 -1v16q80 25 156 54zM292 507h-34l-122 103l-121 -103h-34l124 167h62z" />
    <glyph glyph-name="Kcommaaccent" unicode="&#x136;" 
d="M413 643v19h262v-19q-51 -4 -76 -16.5t-76 -61.5l-190 -188l233 -250q68 -73 93 -90t64 -18v-19h-305v19q12 1 28 1q42 1 42 22q0 18 -36.5 65.5t-93.5 104.5l-106 105l-26 -21v-187q1 -55 16.5 -70.5t73.5 -19.5v-19h-282v19q59 4 74 21t16 80v433q-2 55 -17 70.5
t-73 19.5v19h284v-19q-61 -5 -76 -19.5t-16 -70.5v-205l177 161q78 72 78 103q0 18 -11.5 23.5t-56.5 7.5zM319 -281l-9 19q82 56 82 106q0 14 -14 14q-2 0 -7 -2q-12 -2 -20 -2q-28 0 -43.5 13.5t-15.5 37.5q0 25 16.5 41t42.5 16q34 0 57 -25.5t23 -63.5q0 -45 -31 -87
t-81 -67z" />
    <glyph glyph-name="kcommaaccent" unicode="&#x137;" horiz-adv-x="500" 
d="M7 0v15q53 8 63.5 17.5t11.5 49.5v482q0 36 -9 48.5t-34 12.5q-6 0 -32 -2v16l30 8q87 24 125 36l4 -2v-420l137 122q23 21 23 35q0 10 -10.5 13.5t-39.5 4.5v14h204v-15q-48 1 -85 -20.5t-131 -105.5l-29 -27l153 -194q31 -38 57.5 -54.5t59.5 -18.5v-15h-218v15h19
q21 0 21 15q0 7 -11 21q-2 2 -5.5 6.5t-4.5 6.5l-140 187v-184q1 -28 12 -38.5t43 -12.5l20 -1v-15h-234zM208 -281l-9 19q82 56 82 106q0 14 -14 14q-2 0 -7 -2q-12 -2 -20 -2q-28 0 -43.5 13.5t-15.5 37.5q0 25 16.5 41t42.5 16q34 0 57 -25.5t23 -63.5q0 -45 -31 -87
t-81 -67z" />
    <glyph glyph-name="kgreenlandic" unicode="&#x138;" horiz-adv-x="500" 
d="M181 230v-108q-1 -67 9.5 -85.5t47.5 -19.5h13v-17h-220v17h14q37 2 47 20t10 85v202q0 47 -9 58q-8 12 -28 12q-6 0 -20 -4l-11 -3l-6 14q78 32 153 69v-208l117 130q16 18 16 30q0 16 -25 18h-5v17h177v-17l-13 -1q-36 -3 -57.5 -15.5t-55.5 -49.5l-90 -97l117 -161
q43 -61 68 -80t63 -19v-17h-209v17h10q20 0 20 15q0 11 -17 33z" />
    <glyph glyph-name="Lacute" unicode="&#x139;" horiz-adv-x="611" 
d="M294 662v-19q-58 -3 -74.5 -19t-18.5 -71v-473q1 -27 14.5 -33t71.5 -8h67q97 3 140.5 29.5t78.5 105.5h25l-48 -174h-538v19q54 3 69.5 19.5t17.5 70.5v444q-2 54 -17 70t-70 20v19h282zM151 719h-40l147 148q24 23 43 23q34 0 34 -32q0 -23 -30 -42z" />
    <glyph glyph-name="lacute" unicode="&#x13a;" horiz-adv-x="278" 
d="M21 0v15q46 3 61 17t16 55v477q0 35 -9 48t-33 13q-9 0 -31 -2h-6v16q99 24 159 44l4 -2v-597q1 -42 14.5 -54.5t60.5 -14.5v-15h-236zM99 719h-40l147 148q23 23 42 23q35 0 35 -32q0 -23 -30 -42z" />
    <glyph glyph-name="Lcommaaccent" unicode="&#x13b;" horiz-adv-x="611" 
d="M294 662v-19q-58 -3 -74.5 -19t-18.5 -71v-473q1 -27 14.5 -33t71.5 -8h67q97 3 140.5 29.5t78.5 105.5h25l-48 -174h-538v19q54 3 69.5 19.5t17.5 70.5v444q-2 54 -17 70t-70 20v19h282zM263 -281l-9 19q82 56 82 106q0 14 -14 14q-2 0 -7 -2q-12 -2 -20 -2
q-28 0 -43.5 13.5t-15.5 37.5q0 25 16.5 41t42.5 16q34 0 57 -25.5t23 -63.5q0 -45 -31 -87t-81 -67z" />
    <glyph glyph-name="lcommaaccent" unicode="&#x13c;" horiz-adv-x="278" 
d="M21 0v15q46 3 61 17t16 55v477q0 35 -9 48t-33 13q-9 0 -31 -2h-6v16q99 24 159 44l4 -2v-597q1 -42 14.5 -54.5t60.5 -14.5v-15h-236zM97 -281l-9 19q82 56 82 106q0 14 -14 14q-2 0 -7 -2q-12 -2 -20 -2q-28 0 -43.5 13.5t-15.5 37.5q0 25 16.5 41t42.5 16
q34 0 57 -25.5t23 -63.5q0 -45 -31 -87t-81 -67z" />
    <glyph glyph-name="Lcaron" unicode="&#x13d;" horiz-adv-x="611" 
d="M294 662v-19q-58 -3 -74.5 -19t-18.5 -71v-473q1 -27 14.5 -33t71.5 -8h67q97 3 140.5 29.5t78.5 105.5h25l-48 -174h-538v19q54 3 69.5 19.5t17.5 70.5v444q-2 54 -17 70t-70 20v19h282zM382 433l-9 19q82 56 82 106q0 14 -14 14q-2 0 -7 -2q-12 -2 -20 -2
q-28 0 -43.5 13.5t-15.5 37.5q0 25 16.5 41t42.5 16q34 0 57 -25.5t23 -63.5q0 -45 -31 -87t-81 -67z" />
    <glyph glyph-name="lcaron" unicode="&#x13e;" horiz-adv-x="344" 
d="M271 433l-9 19q82 56 82 106q0 14 -14 14q-2 0 -7 -2q-12 -2 -20 -2q-28 0 -43.5 13.5t-15.5 37.5q0 25 16.5 41t42.5 16q34 0 57 -25.5t23 -63.5q0 -45 -31 -87t-81 -67zM19 0v15q46 3 61 17t16 55v477q0 35 -9 48t-33 13q-9 0 -31 -2h-6v16q99 24 159 44l4 -2v-597
q1 -42 14.5 -54.5t60.5 -14.5v-15h-236z" />
    <glyph glyph-name="Ldot" unicode="&#x13f;" horiz-adv-x="611" 
d="M294 662v-19q-58 -3 -74.5 -19t-18.5 -71v-473q1 -27 14.5 -33t71.5 -8h67q97 3 140.5 29.5t78.5 105.5h25l-48 -174h-538v19q54 3 69.5 19.5t17.5 70.5v444q-2 54 -17 70t-70 20v19h282zM405 390q23 0 39.5 -17t16.5 -40q0 -22 -17 -38t-40 -16q-22 0 -38 16t-16 38
q0 24 16 40.5t39 16.5z" />
    <glyph glyph-name="ldot" unicode="&#x140;" horiz-adv-x="344" 
d="M309 390q23 0 39.5 -17t16.5 -40q0 -22 -17 -38t-40 -16q-22 0 -38 16t-16 38q0 24 16 40.5t39 16.5zM21 0v15q46 3 61 17t16 55v477q0 35 -9 48t-33 13q-9 0 -31 -2h-6v16q99 24 159 44l4 -2v-597q1 -42 14.5 -54.5t60.5 -14.5v-15h-236z" />
    <glyph glyph-name="Lslash" unicode="&#x141;" horiz-adv-x="611" 
d="M99 325v228q-2 54 -17 70t-70 20v19h282v-19q-58 -3 -74.5 -19t-18.5 -71v-169l155 89v-49l-155 -89v-255q1 -27 14.5 -33t71.5 -8h67q97 3 140.5 29.5t78.5 105.5h25l-48 -174h-538v19q54 3 69.5 19.5t17.5 70.5v167l-87 -50v49z" />
    <glyph glyph-name="lslash" unicode="&#x142;" horiz-adv-x="278" 
d="M98 362v202q0 35 -9 48t-33 13q-9 0 -31 -2h-6v16q99 24 159 44l4 -2v-262l77 53v-44l-77 -53v-291q1 -42 14.5 -54.5t60.5 -14.5v-15h-236v15q46 3 61 17t16 55v231l-78 -54v44z" />
    <glyph glyph-name="Nacute" unicode="&#x143;" 
d="M707 662v-19q-59 -5 -76 -27.5t-19 -100.5v-526h-17l-442 550v-392q2 -77 19 -101t75 -27v-19h-235v19q62 4 79 26.5t18 101.5v441q-30 35 -47.5 45t-49.5 10v19h171l385 -484v337q-2 79 -19 101.5t-77 26.5v19h235zM328 719h-40l147 148q23 23 42 23q35 0 35 -32
q0 -23 -30 -42z" />
    <glyph glyph-name="nacute" unicode="&#x144;" horiz-adv-x="500" 
d="M18 0v15q38 2 49.5 16.5t12.5 58.5v248q0 37 -8 50.5t-29 13.5q-19 0 -27 -4v17q74 22 138 45l7 -2v-79q51 48 80.5 64.5t64.5 16.5q55 0 86.5 -39.5t31.5 -110.5v-229q1 -37 12.5 -49.5t48.5 -16.5v-15h-208v15q37 2 49 18.5t14 65.5v209q0 97 -73 97q-25 0 -46.5 -12
t-56.5 -45v-281q0 -27 14.5 -38.5t51.5 -13.5v-15h-212zM202 507h-40l147 148q24 23 43 23q34 0 34 -32q0 -23 -30 -42z" />
    <glyph glyph-name="Ncommaaccent" unicode="&#x145;" 
d="M707 662v-19q-59 -5 -76 -27.5t-19 -100.5v-526h-17l-442 550v-392q2 -77 19 -101t75 -27v-19h-235v19q62 4 79 26.5t18 101.5v441q-30 35 -47.5 45t-49.5 10v19h171l385 -484v337q-2 79 -19 101.5t-77 26.5v19h235zM339 -281l-9 19q82 56 82 106q0 14 -14 14q-2 0 -7 -2
q-12 -2 -20 -2q-28 0 -43.5 13.5t-15.5 37.5q0 25 16.5 41t42.5 16q34 0 57 -25.5t23 -63.5q0 -45 -30.5 -87t-81.5 -67z" />
    <glyph glyph-name="ncommaaccent" unicode="&#x146;" horiz-adv-x="500" 
d="M18 0v15q38 2 49.5 16.5t12.5 58.5v248q0 37 -8 50.5t-29 13.5q-19 0 -27 -4v17q74 22 138 45l7 -2v-79q51 48 80.5 64.5t64.5 16.5q55 0 86.5 -39.5t31.5 -110.5v-229q1 -37 12.5 -49.5t48.5 -16.5v-15h-208v15q37 2 49 18.5t14 65.5v209q0 97 -73 97q-25 0 -46.5 -12
t-56.5 -45v-281q0 -27 14.5 -38.5t51.5 -13.5v-15h-212zM208 -281l-9 19q82 56 82 106q0 14 -14 14q-2 0 -7 -2q-12 -2 -20 -2q-28 0 -43.5 13.5t-15.5 37.5q0 25 16.5 41t42.5 16q34 0 57 -25.5t23 -63.5q0 -45 -31 -87t-81 -67z" />
    <glyph glyph-name="Ncaron" unicode="&#x147;" 
d="M707 662v-19q-59 -5 -76 -27.5t-19 -100.5v-526h-17l-442 550v-392q2 -77 19 -101t75 -27v-19h-235v19q62 4 79 26.5t18 101.5v441q-30 35 -47.5 45t-49.5 10v19h171l385 -484v337q-2 79 -19 101.5t-77 26.5v19h235zM517 886l-125 -167h-62l-124 167h34l121 -103l122 103
h34z" />
    <glyph glyph-name="ncaron" unicode="&#x148;" horiz-adv-x="500" 
d="M18 0v15q38 2 49.5 16.5t12.5 58.5v248q0 37 -8 50.5t-29 13.5q-19 0 -27 -4v17q74 22 138 45l7 -2v-79q51 48 80.5 64.5t64.5 16.5q55 0 86.5 -39.5t31.5 -110.5v-229q1 -37 12.5 -49.5t48.5 -16.5v-15h-208v15q37 2 49 18.5t14 65.5v209q0 97 -73 97q-25 0 -46.5 -12
t-56.5 -45v-281q0 -27 14.5 -38.5t51.5 -13.5v-15h-212zM406 674l-125 -167h-62l-124 167h34l121 -103l122 103h34z" />
    <glyph glyph-name="napostrophe" unicode="&#x149;" horiz-adv-x="604" 
d="M6 453v16q82 26 85 101q-19 -5 -30 -5q-21 0 -36.5 16t-15.5 38t16 37.5t39 15.5q30 0 49.5 -24.5t19.5 -62.5q0 -51 -34.5 -87t-92.5 -45zM122 0v15q38 2 49.5 16.5t12.5 58.5v248q0 37 -8 50.5t-29 13.5q-19 0 -27 -4v17q74 22 138 45l7 -2v-79q51 48 80.5 64.5
t64.5 16.5q55 0 86.5 -39.5t31.5 -110.5v-229q1 -37 12.5 -49.5t48.5 -16.5v-15h-208v15q37 2 49 18.5t14 65.5v209q0 97 -73 97q-25 0 -46.5 -12t-56.5 -45v-281q0 -27 14.5 -38.5t51.5 -13.5v-15h-212z" />
    <glyph glyph-name="Eng" unicode="&#x14a;" horiz-adv-x="702" 
d="M206 564v-497q0 -27 14.5 -38.5t51.5 -13.5v-15h-230v15q38 2 49.5 16.5t12.5 58.5v464q0 37 -8 50.5t-29 13.5q-19 0 -27 -4v17q83 21 156 45l7 -2v-79q58 46 107 63.5t119 17.5q89 0 130 -33q52 -41 52 -150v-493q0 -59 -15.5 -107t-42.5 -73q-41 -38 -122 -38
q-46 0 -73.5 15t-27.5 40q0 16 12 27.5t29 11.5q23 0 48 -32q23 -28 42 -28q23 0 34 18q14 25 14 121v536q0 131 -143 131q-88 0 -160 -58z" />
    <glyph glyph-name="eng" unicode="&#x14b;" horiz-adv-x="495" 
d="M162 348v-281q0 -27 14.5 -38.5t51.5 -13.5v-15h-212v15q38 2 49.5 16.5t12.5 58.5v248q0 37 -8 50.5t-29 13.5q-19 0 -27 -4v17q74 22 138 45l7 -2v-79q51 48 80.5 64.5t64.5 16.5q55 0 86.5 -39.5t31.5 -110.5v-310q0 -127 -58 -179q-42 -39 -111 -39q-41 0 -67.5 15.5
t-26.5 39.5q0 16 12 27.5t29 11.5q23 0 48 -32q23 -28 42 -28q23 0 34 18q14 25 14 121v353q0 97 -73 97q-25 0 -46.5 -12t-56.5 -45z" />
    <glyph glyph-name="Omacron" unicode="&#x14c;" 
d="M361 676q147 0 243 -105q84 -90 84 -244q0 -151 -92.5 -246t-240.5 -95q-66 0 -128.5 27.5t-106.5 74.5q-40 43 -63 107.5t-23 135.5q0 151 92 248t235 97zM361 640q-84 0 -143 -65q-32 -35 -51 -102.5t-19 -143.5q0 -83 23 -153t61 -105q57 -49 127 -49q80 0 133 53
q36 35 49 73q33 86 33 180q0 185 -85 262q-56 50 -128 50zM206 813h311v-54h-311v54z" />
    <glyph glyph-name="omacron" unicode="&#x14d;" horiz-adv-x="500" 
d="M250 460q96 0 158 -63.5t62 -162.5q0 -104 -63.5 -174t-158.5 -70t-157 67t-62 169q0 104 61.5 169t159.5 65zM237 432q-54 0 -86 -43t-32 -114q0 -111 44 -193q34 -64 97 -64q56 0 88 48t32 133q0 103 -40 168t-103 65zM95 601h311v-54h-311v54z" />
    <glyph glyph-name="Obreve" unicode="&#x14e;" 
d="M361 676q147 0 243 -105q84 -90 84 -244q0 -151 -92.5 -246t-240.5 -95q-66 0 -128.5 27.5t-106.5 74.5q-40 43 -63 107.5t-23 135.5q0 151 92 248t235 97zM361 640q-84 0 -143 -65q-32 -35 -51 -102.5t-19 -143.5q0 -83 23 -153t61 -105q57 -49 127 -49q80 0 133 53
q36 35 49 73q33 86 33 180q0 185 -85 262q-56 50 -128 50zM472 870h29q-18 -157 -141 -157q-73 0 -112 54q-25 35 -28 103h29q11 -50 37.5 -73.5t74.5 -23.5q44 0 67 20t44 77z" />
    <glyph glyph-name="obreve" unicode="&#x14f;" horiz-adv-x="500" 
d="M250 460q96 0 158 -63.5t62 -162.5q0 -104 -63.5 -174t-158.5 -70t-157 67t-62 169q0 104 61.5 169t159.5 65zM237 432q-54 0 -86 -43t-32 -114q0 -111 44 -193q34 -64 97 -64q56 0 88 48t32 133q0 103 -40 168t-103 65zM370 664h29q-18 -157 -141 -157q-73 0 -112 54
q-25 35 -28 103h29q11 -50 37.5 -73.5t74.5 -23.5q44 0 67 20t44 77z" />
    <glyph glyph-name="Ohungarumlaut" unicode="&#x150;" 
d="M361 676q147 0 243 -105q84 -90 84 -244q0 -151 -92.5 -246t-240.5 -95q-66 0 -128.5 27.5t-106.5 74.5q-40 43 -63 107.5t-23 135.5q0 151 92 248t235 97zM361 640q-84 0 -143 -65q-32 -35 -51 -102.5t-19 -143.5q0 -83 23 -153t61 -105q57 -49 127 -49q80 0 133 53
q36 35 49 73q33 86 33 180q0 185 -85 262q-56 50 -128 50zM428 719h-40l147 148q23 23 42 23q35 0 35 -32q0 -23 -30 -42zM272 719h-40l147 148q23 23 42 23q35 0 35 -32q0 -23 -30 -42z" />
    <glyph glyph-name="ohungarumlaut" unicode="&#x151;" horiz-adv-x="500" 
d="M250 460q96 0 158 -63.5t62 -162.5q0 -104 -63.5 -174t-158.5 -70t-157 67t-62 169q0 104 61.5 169t159.5 65zM237 432q-54 0 -86 -43t-32 -114q0 -111 44 -193q34 -64 97 -64q56 0 88 48t32 133q0 103 -40 168t-103 65zM300 507h-40l147 148q23 23 43 23q34 0 34 -32
q0 -23 -30 -42zM144 507h-40l147 148q23 23 43 23q34 0 34 -32q0 -23 -30 -42z" />
    <glyph glyph-name="OE" unicode="&#x152;" horiz-adv-x="889" 
d="M827 521h-23q-8 67 -39 86t-129 19h-51q-46 -2 -55.5 -5t-9.5 -19v-236l104 1q79 2 103 19.5t29 77.5h21v-234h-21q-5 58 -25 78t-73 22l-138 -1v-245q2 -29 11.5 -37t44.5 -9l124 2q47 1 79.5 29t70.5 99h24l-44 -168h-350q-49 0 -91 -3l-15 -1h-15q-48 -2 -59 -2
q-114 0 -191 77q-90 89 -90 251q0 86 26.5 157.5t73.5 113.5q84 75 212 75q17 0 65 -3q69 -3 105 -3h326v-141zM420 131v396q0 55 -23.5 80t-75.5 25q-91 0 -140.5 -80t-49.5 -226q0 -144 48.5 -219.5t140.5 -75.5q53 0 76.5 23.5t23.5 76.5z" />
    <glyph glyph-name="oe" unicode="&#x153;" 
d="M679 145l11 -6q-39 -81 -80 -115t-99 -34q-46 0 -75.5 22t-52.5 73q-28 -52 -62 -73.5t-85 -21.5q-91 0 -148.5 64t-57.5 164q0 57 20 109.5t55 84.5q51 48 127 48q46 0 80 -17t72 -59q31 42 60 59t70 17q81 0 126 -62q30 -40 34 -121h-254q3 -65 11 -100t28 -70
q30 -50 90 -50q36 0 65.5 20t64.5 68zM229 431q-42 0 -75 -33q-15 -16 -24.5 -52t-9.5 -75q0 -255 120 -255q103 0 103 183q0 112 -29.5 172t-84.5 60zM419 307h160v27q0 42 -22.5 69.5t-56.5 27.5q-80 0 -81 -124z" />
    <glyph glyph-name="Racute" unicode="&#x154;" horiz-adv-x="667" 
d="M659 19v-19h-161l-238 308l-56 -2v-197q1 -55 16.5 -70.5t73.5 -19.5v-19h-277v19q56 5 70 21t15 80v433q-1 54 -15 69t-70 21v19h276q70 0 128 -18t87 -49q39 -44 39 -109q0 -69 -43 -108.5t-138 -58.5l206 -253q21 -25 39.5 -35t47.5 -12zM204 589v-246q73 2 108 8.5
t69 25.5q57 30 57 111q0 70 -44.5 103.5t-138.5 33.5q-30 0 -40.5 -7.5t-10.5 -28.5zM268 719h-40l147 148q24 23 43 23q34 0 34 -32q0 -23 -30 -42z" />
    <glyph glyph-name="racute" unicode="&#x155;" horiz-adv-x="333" 
d="M5 0v15q47 8 58 19t13 50v250q0 33 -7.5 46.5t-26.5 13.5q-16 0 -35 -4v16q80 26 148 54l5 -2v-92q37 54 62.5 74t57.5 20q26 0 40.5 -14t14.5 -39q0 -21 -10.5 -33t-28.5 -12q-19 0 -40 20q-16 15 -26 15q-21 0 -45.5 -29t-24.5 -53v-225q1 -44 18 -58.5t67 -16.5v-15
h-240zM156 507h-40l147 148q24 23 43 23q34 0 34 -32q0 -23 -30 -42z" />
    <glyph glyph-name="Rcommaaccent" unicode="&#x156;" horiz-adv-x="667" 
d="M659 19v-19h-161l-238 308l-56 -2v-197q1 -55 16.5 -70.5t73.5 -19.5v-19h-277v19q56 5 70 21t15 80v433q-1 54 -15 69t-70 21v19h276q70 0 128 -18t87 -49q39 -44 39 -109q0 -69 -43 -108.5t-138 -58.5l206 -253q21 -25 39.5 -35t47.5 -12zM204 589v-246q73 2 108 8.5
t69 25.5q57 30 57 111q0 70 -44.5 103.5t-138.5 33.5q-30 0 -40.5 -7.5t-10.5 -28.5zM309 -281l-9 19q82 58 82 106q0 14 -14 14q-2 0 -7 -2q-12 -2 -20 -2q-28 0 -43.5 13.5t-15.5 37.5q0 25 16.5 41t42.5 16q34 0 57 -25.5t23 -63.5q0 -45 -31 -87t-81 -67z" />
    <glyph glyph-name="rcommaaccent" unicode="&#x157;" horiz-adv-x="333" 
d="M5 0v15q47 8 58 19t13 50v250q0 33 -7.5 46.5t-26.5 13.5q-16 0 -35 -4v16q80 26 148 54l5 -2v-92q37 54 62.5 74t57.5 20q26 0 40.5 -14t14.5 -39q0 -21 -10.5 -33t-28.5 -12q-19 0 -40 20q-16 15 -26 15q-21 0 -45.5 -29t-24.5 -53v-225q1 -44 18 -58.5t67 -16.5v-15
h-240zM84 -281l-9 19q82 56 82 106q0 14 -14 14q-2 0 -7 -2q-12 -2 -20 -2q-28 0 -43.5 13.5t-15.5 37.5q0 25 16.5 41t42.5 16q34 0 57 -25.5t23 -63.5q0 -45 -31 -87t-81 -67z" />
    <glyph glyph-name="Rcaron" unicode="&#x158;" horiz-adv-x="667" 
d="M659 19v-19h-161l-238 308l-56 -2v-197q1 -55 16.5 -70.5t73.5 -19.5v-19h-277v19q56 5 70 21t15 80v433q-1 54 -15 69t-70 21v19h276q70 0 128 -18t87 -49q39 -44 39 -109q0 -69 -43 -108.5t-138 -58.5l206 -253q21 -25 39.5 -35t47.5 -12zM204 589v-246q73 2 108 8.5
t69 25.5q57 30 57 111q0 70 -44.5 103.5t-138.5 33.5q-30 0 -40.5 -7.5t-10.5 -28.5zM440 886l-125 -167h-62l-124 167h34l121 -103l122 103h34z" />
    <glyph glyph-name="rcaron" unicode="&#x159;" horiz-adv-x="333" 
d="M5 0v15q47 8 58 19t13 50v250q0 33 -7.5 46.5t-26.5 13.5q-16 0 -35 -4v16q80 26 148 54l5 -2v-92q37 54 62.5 74t57.5 20q26 0 40.5 -14t14.5 -39q0 -21 -10.5 -33t-28.5 -12q-19 0 -40 20q-16 15 -26 15q-21 0 -45.5 -29t-24.5 -53v-225q1 -44 18 -58.5t67 -16.5v-15
h-240zM322 674l-125 -167h-62l-124 167h34l121 -103l122 103h34z" />
    <glyph glyph-name="Sacute" unicode="&#x15a;" horiz-adv-x="556" 
d="M447 676l22 -213h-25q-20 75 -61 117q-53 55 -122 55q-47 0 -75.5 -25.5t-28.5 -66.5t34 -77t113 -79q99 -54 143 -105.5t44 -113.5q0 -77 -58.5 -129.5t-145.5 -52.5q-60 0 -118 23q-30 11 -47 11q-11 0 -19 -9.5t-9 -23.5h-22l-30 212h23q38 -92 86.5 -134.5
t115.5 -42.5q55 0 89 31t34 81q0 39 -14 59q-37 56 -149 117q-84 44 -120 89.5t-36 105.5q0 78 53 125q52 46 119 46q49 0 107 -22q26 -12 44 -12q26 0 32 34h21zM245 719h-40l147 148q23 23 42 23q35 0 35 -32q0 -23 -30 -42z" />
    <glyph glyph-name="sacute" unicode="&#x15b;" horiz-adv-x="389" 
d="M315 314h-15q-17 67 -42 95t-68 28q-35 0 -56 -18.5t-21 -49.5q0 -43 43 -68l108 -64q46 -27 65 -54t19 -65q0 -53 -41.5 -90.5t-99.5 -37.5q-28 0 -73 10q-31 8 -46 8t-23 -12h-13v156h16q17 -76 46 -108t81 -32q38 0 60.5 19.5t22.5 52.5q0 45 -52 75l-58 33
q-64 36 -90.5 69t-26.5 75q0 54 38.5 89t97.5 35q33 0 70 -13q15 -7 27 -7q8 0 16 11h11zM154 507h-40l147 148q23 23 42 23q35 0 35 -32q0 -23 -30 -42z" />
    <glyph glyph-name="Scircumflex" unicode="&#x15c;" horiz-adv-x="556" 
d="M105 0h-19v224h20q9 -70 37 -111q23 -36 59.5 -56.5t75.5 -20.5q49 0 82 31t33 76q0 44 -39 84q-27 27 -64 50l-78 44q-69 41 -99.5 82t-30.5 94q0 77 48.5 124.5t127.5 47.5q40 0 91 -17q43 -14 52 -14q17 0 28 24h20v-210h-18q-30 99 -65 135q-36 38 -95 38
q-45 0 -74.5 -25.5t-29.5 -64.5q0 -62 97 -117l77 -45q149 -86 149 -197q0 -80 -55 -131.5t-141 -51.5q-29 0 -44.5 3.5t-76.5 22.5q-24 8 -37 8q-22 0 -31 -27zM442 719h-34l-122 103l-121 -103h-34l124 167h62z" />
    <glyph glyph-name="scircumflex" unicode="&#x15d;" horiz-adv-x="389" 
d="M315 314h-15q-17 67 -42 95t-68 28q-35 0 -56 -18.5t-21 -49.5q0 -43 43 -68l108 -64q46 -27 65 -54t19 -65q0 -53 -41.5 -90.5t-99.5 -37.5q-28 0 -73 10q-31 8 -46 8t-23 -12h-13v156h16q17 -76 46 -108t81 -32q38 0 60.5 19.5t22.5 52.5q0 45 -52 75l-58 33
q-64 36 -90.5 69t-26.5 75q0 54 38.5 89t97.5 35q33 0 70 -13q15 -7 27 -7q8 0 16 11h11zM353 507h-34l-122 103l-121 -103h-34l124 167h62z" />
    <glyph glyph-name="Scedilla" unicode="&#x15e;" horiz-adv-x="556" 
d="M280 -14l-19 -51q13 3 26 3q41 0 63.5 -18t22.5 -51q0 -39 -33.5 -61.5t-91.5 -22.5q-47 0 -84 16l14 31q36 -12 65 -12q25 0 40 12t15 32q0 19 -12 27.5t-41 8.5q-17 0 -28 -4l-7 5l36 88q-45 6 -77 20q-30 11 -47 11q-11 0 -19 -9.5t-9 -23.5h-22l-30 212h23
q38 -92 86.5 -134.5t115.5 -42.5q55 0 89 31t34 81q0 39 -14 59q-37 56 -149 117q-84 44 -120 89.5t-36 105.5q0 78 53 125q52 46 119 46q49 0 107 -22q26 -12 44 -12q26 0 32 34h21l22 -213h-25q-20 75 -61 117q-53 55 -122 55q-47 0 -75.5 -25.5t-28.5 -66.5t34 -77
t113 -79q99 -54 143 -105.5t44 -113.5q0 -77 -58.5 -129.5t-143.5 -52.5h-9z" />
    <glyph glyph-name="scedilla" unicode="&#x15f;" horiz-adv-x="389" 
d="M198 -10l-21 -55q15 3 26 3q41 0 63.5 -18t22.5 -51q0 -39 -33.5 -61.5t-91.5 -22.5q-42 0 -84 16l14 31q36 -12 65 -12q25 0 40 12t15 32q0 19 -12 27.5t-41 8.5q-17 0 -28 -4l-7 5l39 93q-7 1 -16.5 3t-14.5 3q-32 8 -46 8q-15 0 -23 -12h-13v156h16q17 -76 46 -108
t81 -32q38 0 60.5 19.5t22.5 52.5q0 45 -52 75l-58 33q-64 36 -90.5 69t-26.5 75q0 54 38.5 89t97.5 35q33 0 70 -13q15 -7 27 -7q8 0 16 11h11l4 -137h-15q-17 67 -42 95t-68 28q-35 0 -56 -18.5t-21 -49.5q0 -43 43 -68l108 -64q46 -27 65 -54t19 -65q0 -52 -41 -90
t-98 -38h-11z" />
    <glyph glyph-name="Scaron" unicode="&#x160;" horiz-adv-x="556" 
d="M447 676l22 -213h-25q-20 75 -61 117q-53 55 -122 55q-47 0 -75.5 -25.5t-28.5 -66.5t34 -77t113 -79q99 -54 143 -105.5t44 -113.5q0 -77 -58.5 -129.5t-145.5 -52.5q-60 0 -118 23q-30 11 -47 11q-11 0 -19 -9.5t-9 -23.5h-22l-30 212h23q38 -92 86.5 -134.5
t115.5 -42.5q55 0 89 31t34 81q0 39 -14 59q-37 56 -149 117q-84 44 -120 89.5t-36 105.5q0 78 53 125q52 46 119 46q49 0 107 -22q26 -12 44 -12q26 0 32 34h21zM434 886l-125 -167h-62l-124 167h34l121 -103l122 103h34z" />
    <glyph glyph-name="scaron" unicode="&#x161;" horiz-adv-x="389" 
d="M315 314h-15q-17 67 -42 95t-68 28q-35 0 -56 -18.5t-21 -49.5q0 -43 43 -68l108 -64q46 -27 65 -54t19 -65q0 -53 -41.5 -90.5t-99.5 -37.5q-28 0 -73 10q-31 8 -46 8t-23 -12h-13v156h16q17 -76 46 -108t81 -32q38 0 60.5 19.5t22.5 52.5q0 45 -52 75l-58 33
q-64 36 -90.5 69t-26.5 75q0 54 38.5 89t97.5 35q33 0 70 -13q15 -7 27 -7q8 0 16 11h11zM350 674l-125 -167h-62l-124 167h34l121 -103l122 103h34z" />
    <glyph glyph-name="Tcommaaccent" unicode="&#x162;" horiz-adv-x="611" 
d="M452 19v-19h-292v19q63 4 78 20t16 81v500h-54q-86 -1 -114 -23.5t-45 -104.5h-24l6 170h564l6 -170h-24q-17 82 -44.5 104.5t-114.5 23.5h-54v-511q1 -55 18 -71t78 -19zM263 -281l-9 19q82 56 82 106q0 14 -14 14q-2 0 -7 -2q-12 -2 -20 -2q-28 0 -43.5 13.5
t-15.5 37.5q0 25 16.5 41t42.5 16q34 0 57 -25.5t23 -63.5q0 -45 -31 -87t-81 -67z" />
    <glyph glyph-name="tcommaaccent" unicode="&#x163;" horiz-adv-x="278" 
d="M255 450v-32h-101v-286q0 -47 12 -68.5t40 -21.5q30 0 60 35l13 -11q-48 -76 -120 -76q-89 0 -89 127v301h-53q-4 3 -4 7q0 8 17 19q40 23 117 135q7 0 7 -13v-116h101zM106 -281l-9 19q82 56 82 106q0 14 -14 14q-2 0 -7 -2q-12 -2 -20 -2q-28 0 -43.5 13.5t-15.5 37.5
q0 25 16.5 41t42.5 16q34 0 57 -25.5t23 -63.5q0 -45 -31 -87t-81 -67z" />
    <glyph glyph-name="Tcaron" unicode="&#x164;" horiz-adv-x="611" 
d="M452 19v-19h-292v19q63 4 78 20t16 81v500h-54q-86 -1 -114 -23.5t-45 -104.5h-24l6 170h564l6 -170h-24q-17 82 -44.5 104.5t-114.5 23.5h-54v-511q1 -55 18 -71t78 -19zM461 886l-125 -167h-62l-124 167h34l121 -103l122 103h34z" />
    <glyph glyph-name="tcaron" unicode="&#x165;" horiz-adv-x="326" 
d="M305 429l-10 23q82 56 82 106q0 14 -14 14q-2 0 -7 -2q-12 -2 -20 -2q-28 0 -43.5 13.5t-15.5 37.5q0 25 16.5 41t42.5 16q34 0 57 -25.5t23 -63.5q0 -75 -82 -137zM257 450v-32h-101v-286q0 -47 12 -68.5t40 -21.5q30 0 60 35l13 -11q-48 -76 -120 -76q-89 0 -89 127
v301h-53q-4 3 -4 7q0 8 17 19q40 23 117 135q7 0 7 -13v-116h101z" />
    <glyph glyph-name="Tbar" unicode="&#x166;" horiz-adv-x="611" 
d="M254 316h-104v34h104v270h-54q-86 -1 -114 -23.5t-45 -104.5h-24l6 170h564l6 -170h-24q-17 82 -44.5 104.5t-114.5 23.5h-54v-270h105v-34h-105v-207q1 -55 17.5 -71t78.5 -19v-19h-292v19q63 4 78 20t16 81v196z" />
    <glyph glyph-name="tbar" unicode="&#x167;" horiz-adv-x="278" 
d="M154 317h124v-34h-124v-151q0 -47 12 -68.5t40 -21.5q30 0 60 35l13 -11q-48 -76 -120 -76q-89 0 -89 127v166h-70v34h70v101h-53q-4 3 -4 7q0 8 17 19q40 23 117 135q7 0 7 -13v-116h101v-32h-101v-101z" />
    <glyph glyph-name="Utilde" unicode="&#x168;" 
d="M705 662v-19q-61 -7 -77 -28t-17 -100v-261q0 -107 -33 -165q-59 -103 -223 -103q-128 0 -189.5 62.5t-61.5 192.5v312q-1 55 -16 70t-74 20v19h283v-19q-60 -5 -75 -20t-16 -70v-320q0 -88 25 -132q41 -71 147 -71q56 0 101 21.5t65 57.5q23 43 23 136v270
q-1 77 -18.5 100.5t-75.5 27.5v19h232zM527 848h29q-15 -57 -39.5 -81.5t-65.5 -24.5q-30 0 -81 24l-23 11q-22 11 -40 11q-34 0 -52 -46h-29q23 101 102 101q31 0 69 -18l24 -12q29 -15 53 -15q17 0 28.5 11t24.5 39z" />
    <glyph glyph-name="utilde" unicode="&#x169;" horiz-adv-x="500" 
d="M412 457v-282q0 -73 7.5 -94.5t32.5 -21.5q11 0 27 4l6 -17q-75 -24 -152 -56v94q-32 -35 -50 -52q-42 -39 -96 -39q-69 0 -95 61q-16 37 -16 111v169q0 67 -10 85.5t-47 20.5h-14v17h150v-289q0 -59 15.5 -84t53.5 -25q26 0 46.5 11t62.5 47v217q0 67 -10 85.5t-47 20.5
h-24v17h160zM372 638h29q-15 -57 -39.5 -81.5t-65.5 -24.5q-31 0 -81 24l-23 11q-22 11 -40 11q-34 0 -52 -46h-29q23 101 102 101q35 0 69 -18l24 -12q32 -15 53 -15q17 0 28.5 11t24.5 39z" />
    <glyph glyph-name="Umacron" unicode="&#x16a;" 
d="M705 662v-19q-61 -7 -77 -28t-17 -100v-261q0 -107 -33 -165q-59 -103 -223 -103q-128 0 -189.5 62.5t-61.5 192.5v312q-1 55 -16 70t-74 20v19h283v-19q-60 -5 -75 -20t-16 -70v-320q0 -88 25 -132q41 -71 147 -71q56 0 101 21.5t65 57.5q23 43 23 136v270
q-1 77 -18.5 100.5t-75.5 27.5v19h232zM226 813h311v-54h-311v54z" />
    <glyph glyph-name="umacron" unicode="&#x16b;" horiz-adv-x="500" 
d="M479 50v-14q-78 -21 -137 -45l-4 2v83l-43 -43q-43 -43 -103 -43q-55 0 -88 35.5t-33 94.5v252q-1 36 -14 49t-48 15v14h146v-326q0 -31 21 -53.5t50 -22.5q46 0 88 34q19 15 19 53v235q0 37 -13.5 49t-60.5 14v17h158v-343q1 -35 10.5 -45.5t46.5 -11.5h5zM74 601h311
v-54h-311v54z" />
    <glyph glyph-name="Ubreve" unicode="&#x16c;" 
d="M705 662v-19q-61 -7 -77 -28t-17 -100v-261q0 -107 -33 -165q-59 -103 -223 -103q-128 0 -189.5 62.5t-61.5 192.5v312q-1 55 -16 70t-74 20v19h283v-19q-60 -5 -75 -20t-16 -70v-320q0 -88 25 -132q41 -71 147 -71q56 0 101 21.5t65 57.5q23 43 23 136v270
q-1 77 -18.5 100.5t-75.5 27.5v19h232zM498 875h29q-19 -157 -142 -157q-73 0 -112 54q-26 36 -27 103h29q10 -50 36.5 -73.5t75.5 -23.5q43 0 66 20t45 77z" />
    <glyph glyph-name="ubreve" unicode="&#x16d;" horiz-adv-x="500" 
d="M412 457v-282q0 -73 7.5 -94.5t32.5 -21.5q11 0 27 4l6 -17q-75 -24 -152 -56v94q-32 -35 -50 -52q-42 -39 -96 -39q-69 0 -95 61q-16 37 -16 111v169q0 67 -10 85.5t-47 20.5h-14v17h150v-289q0 -59 15.5 -84t53.5 -25q26 0 46.5 11t62.5 47v217q0 67 -10 85.5t-47 20.5
h-24v17h160zM333 640h24q-11 -39 -25 -65q-15 -24 -41.5 -38t-56.5 -14t-56.5 14t-41.5 38q-15 25 -25 65h23q13 -26 40 -41.5t60 -15.5q32 0 59.5 16t39.5 41z" />
    <glyph glyph-name="Uring" unicode="&#x16e;" 
d="M705 662v-19q-61 -7 -77 -28t-17 -100v-261q0 -107 -33 -165q-59 -103 -223 -103q-128 0 -189.5 62.5t-61.5 192.5v312q-1 55 -16 70t-74 20v19h283v-19q-60 -5 -75 -20t-16 -70v-320q0 -88 25 -132q41 -71 147 -71q56 0 101 21.5t65 57.5q23 43 23 136v270
q-1 77 -18.5 100.5t-75.5 27.5v19h232zM381 923q41 0 70.5 -29.5t29.5 -70.5t-29.5 -70t-70.5 -29q-42 0 -70.5 29t-28.5 71q0 40 29 69.5t70 29.5zM382 889q-27 0 -46.5 -19t-19.5 -46q0 -28 19 -47t45 -19q28 0 47.5 19t19.5 46t-19.5 46.5t-45.5 19.5z" />
    <glyph glyph-name="uring" unicode="&#x16f;" horiz-adv-x="500" 
d="M479 50v-14q-78 -21 -137 -45l-4 2v83l-43 -43q-43 -43 -103 -43q-55 0 -88 35.5t-33 94.5v252q-1 36 -14 49t-48 15v14h146v-326q0 -31 21 -53.5t50 -22.5q46 0 88 34q19 15 19 53v235q0 37 -13.5 49t-60.5 14v17h158v-343q1 -35 10.5 -45.5t46.5 -11.5h5zM235 711
q41 0 70.5 -29.5t29.5 -70.5t-29.5 -70t-70.5 -29q-42 0 -70.5 29t-28.5 71q0 40 29 69.5t70 29.5zM236 677q-27 0 -46.5 -19t-19.5 -46q0 -28 19 -47t45 -19q28 0 47.5 19t19.5 46t-19.5 46.5t-45.5 19.5z" />
    <glyph glyph-name="Uhungarumlaut" unicode="&#x170;" 
d="M705 662v-19q-61 -7 -77 -28t-17 -100v-261q0 -107 -33 -165q-59 -103 -223 -103q-128 0 -189.5 62.5t-61.5 192.5v312q-1 55 -16 70t-74 20v19h283v-19q-60 -5 -75 -20t-16 -70v-320q0 -88 25 -132q41 -71 147 -71q56 0 101 21.5t65 57.5q23 43 23 136v270
q-1 77 -18.5 100.5t-75.5 27.5v19h232zM466 719h-40l147 148q23 23 42 23q35 0 35 -32q0 -23 -30 -42zM310 719h-40l147 148q23 23 42 23q35 0 35 -32q0 -23 -30 -42z" />
    <glyph glyph-name="uhungarumlaut" unicode="&#x171;" horiz-adv-x="500" 
d="M479 50v-14q-78 -21 -137 -45l-4 2v83l-43 -43q-43 -43 -103 -43q-55 0 -88 35.5t-33 94.5v252q-1 36 -14 49t-48 15v14h146v-326q0 -31 21 -53.5t50 -22.5q46 0 88 34q19 15 19 53v235q0 37 -13.5 49t-60.5 14v17h158v-343q1 -35 10.5 -45.5t46.5 -11.5h5zM281 507h-40
l147 148q23 23 42 23q35 0 35 -32q0 -23 -30 -42zM125 507h-40l147 148q23 23 42 23q35 0 35 -32q0 -23 -30 -42z" />
    <glyph glyph-name="Uogonek" unicode="&#x172;" 
d="M705 662v-19q-61 -7 -77 -28t-17 -100v-261q-2 -97 -19.5 -139.5t-77.5 -91.5q-59 -49 -59 -94q0 -17 10.5 -27.5t27.5 -10.5q28 0 71 36l20 -16q-53 -76 -112 -76q-31 0 -52 21.5t-21 53.5q0 46 50 87q-52 -11 -96 -11q-126 0 -187.5 63t-61.5 192v312q-1 55 -16 70
t-74 20v19h283v-19q-60 -5 -75 -20t-16 -70v-320q0 -88 25 -132q41 -71 147 -71q56 0 101 21.5t65 57.5q23 43 23 136v270q-1 77 -18.5 100.5t-75.5 27.5v19h232z" />
    <glyph glyph-name="uogonek" unicode="&#x173;" horiz-adv-x="500" 
d="M479 50v-14q-40 -9 -64 -30q-44 -37 -44 -76q0 -17 10.5 -28t27.5 -11q30 0 71 36l20 -16q-53 -76 -112 -76q-31 0 -52 22t-21 54q0 29 23 60v105l-43 -43q-43 -43 -103 -43q-55 0 -88 35.5t-33 94.5v252q-1 36 -14 49t-48 15v14h146v-326q0 -31 21 -53.5t50 -22.5
q46 0 88 34q19 15 19 53v235q0 37 -13.5 49t-60.5 14v17h158v-343q1 -35 10.5 -45.5t46.5 -11.5h5z" />
    <glyph glyph-name="Wcircumflex" unicode="&#x174;" horiz-adv-x="944" 
d="M323 -10l-208 562q-20 53 -34 70.5t-42 21.5h-7v18h239v-18l-13 -1q-43 -1 -43 -37q0 -16 10 -43l129 -363l100 274l-38 103q-15 37 -29.5 51t-39.5 16h-14v18h256v-18h-17q-51 -2 -51 -41q0 -23 14 -60l131 -343l123 355q10 27 10 41q0 22 -12 33t-41 14l-12 1v18h196
v-18q-38 1 -61.5 -31t-55.5 -129l-167 -494h-11l-154 413l-148 -413h-10zM637 719h-34l-122 103l-121 -103h-34l124 167h62z" />
    <glyph glyph-name="wcircumflex" unicode="&#x175;" 
d="M571 450h123v-15q-15 -5 -21 -13.5t-20 -40.5l-138 -346q-20 -49 -28 -49q-5 0 -8.5 6.5t-15.5 36.5l-91 236l-112 -240q-17 -39 -25 -39q-9 0 -26 44l-135 342q-17 38 -26.5 50t-26.5 13v15h180v-15q-26 -3 -36 -10t-10 -23q0 -15 6 -30l99 -261l91 199q-6 18 -20 56
q-15 40 -28 53t-41 16v15h203v-15q-35 -5 -46.5 -12t-11.5 -24q0 -13 17 -59l84 -224l90 222q17 40 17 66q0 13 -9 19.5t-35 11.5v15zM519 507h-34l-122 103l-121 -103h-34l124 167h62z" />
    <glyph glyph-name="Ycircumflex" unicode="&#x176;" 
d="M315 282l-163 260q-32 55 -54.5 75t-60.5 25l-23 2v18h301v-18h-14q-55 0 -55 -32q0 -22 27 -65l130 -205l129 218q22 36 22 55q0 28 -41 28l-21 1v18h223v-18l-11 -1q-40 -2 -69.5 -28t-67.5 -91l-144 -242v-179q0 -47 14.5 -64.5t54.5 -19.5l27 -1v-18h-298v18l25 1
q40 1 54.5 19t14.5 65v179zM553 719h-34l-122 103l-121 -103h-34l124 167h62z" />
    <glyph glyph-name="ycircumflex" unicode="&#x177;" horiz-adv-x="500" 
d="M236 16l-106 279q-46 117 -58 131q-9 10 -30 13l-15 1v17h196v-17h-8q-39 0 -39 -32q0 -14 19 -63l87 -218l78 214q19 52 19 70q0 29 -38 29h-5v17h143v-17l-10 -1q-23 -5 -34 -20.5t-31 -70.5l-122 -325q-42 -109 -74 -141q-40 -40 -90 -40q-28 0 -47 14.5t-19 35.5
q0 19 16 34.5t36 15.5q17 0 49 -14q8 -4 15 -4q34 0 68 92zM420 507h-34l-122 103l-121 -103h-34l124 167h62z" />
    <glyph glyph-name="Ydieresis" unicode="&#x178;" 
d="M703 662v-19q-38 -3 -65 -25.5t-73 -88.5l-148 -226v-194q1 -58 18.5 -73t84.5 -17v-19h-306v19q68 3 84 19t17 82v174l-131 192q-75 106 -100.5 131t-61.5 26v19h280v-19q-11 -1 -25 -1q-46 -3 -46 -29q0 -19 17 -44l148 -222l143 226q14 21 14 37q0 18 -15 25t-54 8v19
h219zM294 835q20 0 35 -15t15 -35q0 -21 -15 -35.5t-35 -14.5t-34 14.5t-14 36.5q0 20 14.5 34.5t33.5 14.5zM493 835q20 0 35 -15t15 -35q0 -21 -15 -35.5t-35 -14.5t-34 14.5t-14 36.5q0 20 14.5 34.5t33.5 14.5z" />
    <glyph glyph-name="Zacute" unicode="&#x179;" horiz-adv-x="611" 
d="M574 176h23l-24 -176h-564v15l437 609h-221q-86 -2 -120.5 -29.5t-47.5 -103.5h-26l20 171h526v-15l-432 -609h257q81 3 115.5 30.5t56.5 107.5zM290 719h-40l147 148q23 23 42 23q35 0 35 -32q0 -23 -30 -42z" />
    <glyph glyph-name="zacute" unicode="&#x17a;" horiz-adv-x="444" 
d="M418 135l-14 -135h-377v15l266 405h-138q-46 -1 -62 -18t-22 -70h-18l3 118h347v-15l-269 -405h138q72 2 93 20t35 89zM196 507h-40l147 148q23 23 42 23q35 0 35 -32q0 -23 -30 -42z" />
    <glyph glyph-name="Zdotaccent" unicode="&#x17b;" horiz-adv-x="611" 
d="M574 176h23l-24 -176h-564v15l437 609h-221q-86 -2 -120.5 -29.5t-47.5 -103.5h-26l20 171h526v-15l-432 -609h257q81 3 115.5 30.5t56.5 107.5zM323 835q20 0 35 -15t15 -35q0 -21 -15 -35.5t-35 -14.5t-34 14.5t-14 36.5q0 20 14.5 34.5t33.5 14.5z" />
    <glyph glyph-name="zdotaccent" unicode="&#x17c;" horiz-adv-x="444" 
d="M418 135l-14 -135h-377v15l266 405h-138q-46 -1 -62 -18t-22 -70h-18l3 118h347v-15l-269 -405h138q72 2 93 20t35 89zM233 623q20 0 35 -15t15 -35q0 -21 -15 -35.5t-35 -14.5t-34 14.5t-14 36.5q0 20 14.5 34.5t33.5 14.5z" />
    <glyph glyph-name="Zcaron" unicode="&#x17d;" horiz-adv-x="611" 
d="M574 176h23l-24 -176h-564v15l437 609h-221q-86 -2 -120.5 -29.5t-47.5 -103.5h-26l20 171h526v-15l-432 -609h257q81 3 115.5 30.5t56.5 107.5zM479 886l-125 -167h-62l-124 167h34l121 -103l122 103h34z" />
    <glyph glyph-name="zcaron" unicode="&#x17e;" horiz-adv-x="444" 
d="M418 135l-14 -135h-377v15l266 405h-138q-46 -1 -62 -18t-22 -70h-18l3 118h347v-15l-269 -405h138q72 2 93 20t35 89zM383 674l-125 -167h-62l-124 167h34l121 -103l122 103h34z" />
    <glyph glyph-name="longs" unicode="&#x17f;" horiz-adv-x="278" 
d="M252 15v-15h-260v15q53 2 67 17.5t16 71.5v314h-45v32h45q1 60 8 93.5t27 66.5q19 34 56.5 53.5t84.5 19.5q45 0 74.5 -17.5t29.5 -44.5q0 -17 -12 -29t-29 -12q-24 0 -46 36q-24 39 -53 39q-56 0 -56 -89v-462q0 -56 15.5 -71t77.5 -18z" />
    <glyph glyph-name="florin" unicode="&#x192;" horiz-adv-x="500" 
d="M195 410h-93l10 40h93q27 82 50 127t54 74q44 41 104 41q40 0 64 -18t24 -48q0 -21 -11.5 -33t-31.5 -12q-18 0 -30 11t-12 27q0 8 4 19q3 9 3 13q0 13 -18 13q-31 0 -57.5 -39t-41.5 -106l-15 -69h109l-9 -40h-112l-56 -259q-39 -180 -93 -274q-51 -88 -135 -88
q-37 0 -60 18t-23 47q0 20 12 31.5t31 11.5q17 0 29.5 -11t12.5 -26q0 -8 -6 -23q-3 -6 -3 -10q0 -10 15 -10q35 0 59 42q22 39 31 72t41 192q22 110 42 200z" />
    <glyph glyph-name="Aringacute" unicode="&#x1fa;" 
d="M706 19v-19h-255v19q40 1 55 8t15 26q0 24 -19 67l-41 96h-262l-46 -117q-8 -21 -8 -39q0 -41 68 -41v-19h-198v19q36 1 56 27.5t68 136.5l208 491h20l249 -568q26 -56 41 -70.5t49 -16.5zM216 257h231l-116 275zM351 881q41 0 70.5 -29.5t29.5 -70.5t-29.5 -70
t-70.5 -29q-42 0 -70.5 29t-28.5 71q0 40 29 69.5t70 29.5zM352 847q-27 0 -46.5 -19t-19.5 -46q0 -28 19 -47t45 -19q28 0 47.5 19t19.5 46t-19.5 46.5t-45.5 19.5zM297 882h-40l147 148q24 23 43 23q34 0 34 -32q0 -23 -30 -42z" />
    <glyph glyph-name="aringacute" unicode="&#x1fb;" horiz-adv-x="444" 
d="M442 66v-26q-26 -29 -45.5 -39.5t-44.5 -10.5q-31 0 -45.5 16.5t-18.5 56.5q-86 -73 -146 -73q-46 0 -75.5 30t-29.5 77q0 54 36 87q32 28 64.5 44.5t149.5 63.5v61q0 83 -76 83q-30 0 -51 -14.5t-21 -34.5q0 -11 3 -24q2 -14 2 -16q0 -17 -13.5 -29.5t-31.5 -12.5
t-30.5 13t-12.5 30q0 47 48.5 79.5t119.5 32.5q90 0 124 -55q20 -32 20 -105v-195q0 -33 6.5 -45.5t23.5 -12.5q21 0 44 19zM287 123v145q-88 -31 -124.5 -62.5t-37.5 -76.5v-4q0 -32 18.5 -54.5t44.5 -22.5q34 0 73 22q16 9 21 19.5t5 33.5zM222 722q41 0 70.5 -29.5
t29.5 -70.5t-29.5 -70t-70.5 -29q-42 0 -70.5 29t-28.5 71q0 41 29.5 70t69.5 29zM223 688q-27 0 -46.5 -19t-19.5 -46q0 -28 19 -47t45 -19q28 0 47.5 19t19.5 46t-19.5 46.5t-45.5 19.5zM171 756h-40l147 148q23 23 42 23q35 0 35 -32q0 -23 -30 -42z" />
    <glyph glyph-name="AEacute" unicode="&#x1fc;" horiz-adv-x="889" 
d="M816 521h-23q-9 68 -41 86.5t-141 18.5h-87q-15 0 -20.5 -6.5t-6.5 -23.5v-230h111q79 1 103 19t29 78h21v-234h-21q-5 58 -25 78.5t-73 21.5h-145v-238q0 -39 8 -44q7 -9 61 -9h76q84 1 118.5 24t78.5 106h24l-44 -168h-510v19l17 2q47 7 58.5 21t13.5 66v152h-176
l-28 -53q-64 -122 -64 -158q0 -24 68 -30h1v-19h-199v19q32 4 47.5 18t40.5 60l245 484q9 17 9 28q0 16 -20.5 23.5t-69.5 9.5v20h564v-141zM239 299h159v319zM441 731h-40l147 148q23 23 42 23q35 0 35 -32q0 -23 -30 -42z" />
    <glyph glyph-name="aeacute" unicode="&#x1fd;" horiz-adv-x="667" 
d="M620 154l12 -5q-38 -80 -74 -111q-52 -48 -123 -48q-43 0 -73 17t-56 56q-51 -43 -82.5 -58t-69.5 -15q-51 0 -83.5 30.5t-32.5 79.5q0 45 34.5 78.5t114.5 66.5l86 36l2 63q0 43 -12 70q-11 22 -50 22q-65 0 -68 -50v-6l1 -11q1 -6 1 -17q0 -48 -43 -48q-20 0 -32 13
t-12 35q0 46 46 77t113 31q38 0 63.5 -10t54.5 -35q34 26 59 35.5t60 9.5q76 0 113.5 -43t46.5 -140h-262q0 -75 5 -108t22 -62q12 -23 38 -36.5t57 -13.5q43 0 75.5 22t68.5 75zM274 201l-1 52q-90 -33 -119 -58t-29 -70q0 -36 19.5 -61.5t47.5 -25.5q27 0 64 18.5t37 31.5
q0 2 -1 3q-16 54 -18 110zM355 307h166q-1 66 -19.5 95t-59.5 29q-43 0 -63 -29t-24 -95zM302 507h-40l147 148q23 23 42 23q35 0 35 -32q0 -23 -30 -42z" />
    <glyph glyph-name="Oslashacute" unicode="&#x1fe;" 
d="M658 734l-88 -130q54 -50 76 -93q42 -78 42 -179q0 -154 -91.5 -250t-237.5 -96q-91 0 -175 50l-79 -116h-49l95 139q-53 48 -76 93q-41 79 -41 178q0 152 91.5 249t236.5 97q88 0 175 -49l72 107h49zM527 540l-308 -452q60 -66 142 -66q99 0 156 82.5t57 225.5
q0 120 -47 210zM194 123l308 452q-62 65 -141 65q-98 0 -155.5 -83.5t-57.5 -226.5q0 -120 46 -207zM328 728h-40l147 148q23 23 42 23q35 0 35 -32q0 -23 -30 -42z" />
    <glyph glyph-name="oslashacute" unicode="&#x1ff;" horiz-adv-x="500" 
d="M437 551l-65 -125q40 -29 60 -58q38 -59 38 -134q0 -104 -64 -174t-159 -70q-47 0 -93 21l-65 -123h-37l73 140q-42 33 -63 69q-33 60 -33 130q0 102 61.5 167.5t158.5 65.5q44 0 92 -18l57 109h39zM340 366l-161 -306q35 -42 82 -42q56 0 87.5 48.5t31.5 136.5
q0 89 -40 163zM158 92l159 304q-37 36 -80 36q-53 0 -85.5 -43t-32.5 -113q0 -100 39 -184zM198 507h-40l147 148q23 23 42 23q35 0 35 -32q0 -23 -30 -42z" />
    <glyph glyph-name="Scommaaccent" unicode="&#x218;" horiz-adv-x="556" 
d="M479 464h-27q-23 74 -57 110q-54 58 -125 58q-48 0 -76 -25t-28 -68q0 -35 21.5 -60t86.5 -64l55 -33q77 -46 106 -72q66 -56 66 -134q0 -82 -60 -135.5t-152 -53.5q-54 0 -128 28q-19 7 -29 7q-14 0 -20.5 -6.5t-8.5 -24.5h-24l-30 214h24q23 -62 55 -101
q61 -74 151 -74q51 0 84 31t33 79q0 83 -116 148l-52 29q-62 35 -94 66q-56 48 -56 126q0 73 53 119.5t136 46.5q49 0 96 -19q29 -12 38 -12q12 0 16.5 4.5t16.5 26.5h23zM227 -309l-12 18q35 21 58 50.5t23 53.5q0 17 -17 17q-5 0 -13 -2q-10 -2 -15 -2q-21 0 -36.5 16
t-15.5 38q0 24 18 40.5t44 16.5q33 0 55.5 -27.5t22.5 -69.5q0 -89 -112 -149z" />
    <glyph glyph-name="scommaaccent" unicode="&#x219;" horiz-adv-x="389" 
d="M321 449v-137h-19q-26 119 -109 119q-31 0 -52.5 -18t-21.5 -44q0 -27 22 -48.5t87 -57.5q73 -40 98.5 -70t25.5 -74q0 -56 -41 -93t-104 -37q-28 0 -74 16q-24 8 -39 8q-18 0 -24 -14h-15v155h19q15 -68 46 -99q36 -37 82 -37q34 0 56.5 19t22.5 48q0 28 -20.5 50
t-71.5 50q-79 43 -107.5 74.5t-28.5 76.5q0 53 40.5 88t101.5 35q28 0 62 -14q19 -9 32 -9q11 0 17 13h15zM145 -309l-11 18q35 21 58 50.5t23 53.5q0 17 -17 17q-5 0 -13 -2q-10 -2 -15 -2q-21 0 -36.5 16t-15.5 38q0 24 18 40.5t44 16.5q33 0 55.5 -27.5t22.5 -69.5
q0 -89 -113 -149z" />
    <glyph glyph-name="uni021A" unicode="&#x21a;" horiz-adv-x="611" 
d="M452 19v-19h-292v19q63 4 78 20t16 81v500h-54q-86 -1 -114 -23.5t-45 -104.5h-24l6 170h564l6 -170h-24q-17 82 -44.5 104.5t-114.5 23.5h-54v-511q1 -55 18 -71t78 -19zM263 -281l-9 19q82 56 82 106q0 14 -14 14q-2 0 -7 -2q-12 -2 -20 -2q-28 0 -43.5 13.5
t-15.5 37.5q0 25 16.5 41t42.5 16q34 0 57 -25.5t23 -63.5q0 -45 -31 -87t-81 -67z" />
    <glyph glyph-name="uni021B" unicode="&#x21b;" horiz-adv-x="278" 
d="M255 450v-32h-101v-286q0 -47 12 -68.5t40 -21.5q30 0 60 35l13 -11q-48 -76 -120 -76q-89 0 -89 127v301h-53q-4 3 -4 7q0 8 17 19q40 23 117 135q7 0 7 -13v-116h101zM106 -281l-9 19q82 56 82 106q0 14 -14 14q-2 0 -7 -2q-12 -2 -20 -2q-28 0 -43.5 13.5t-15.5 37.5
q0 25 16.5 41t42.5 16q34 0 57 -25.5t23 -63.5q0 -45 -31 -87t-81 -67z" />
    <glyph glyph-name="circumflex" unicode="&#x2c6;" horiz-adv-x="333" 
d="M322 507h-34l-122 103l-121 -103h-34l124 167h62z" />
    <glyph glyph-name="caron" unicode="&#x2c7;" horiz-adv-x="333" 
d="M322 674l-125 -167h-62l-124 167h34l121 -103l122 103h34z" />
    <glyph glyph-name="uni02C9" unicode="&#x2c9;" horiz-adv-x="333" 
d="M16 594h300v-49h-300v49z" />
    <glyph glyph-name="breve" unicode="&#x2d8;" horiz-adv-x="333" 
d="M278 664h29q-18 -157 -142 -157q-73 0 -112 54q-26 38 -27 103h29q11 -50 37.5 -73.5t74.5 -23.5q43 0 66 20t45 77z" />
    <glyph glyph-name="dotaccent" unicode="&#x2d9;" horiz-adv-x="333" 
d="M166 623q20 0 35 -15t15 -35q0 -21 -15 -35.5t-35 -14.5t-34 14.5t-14 36.5q0 20 14.5 34.5t33.5 14.5z" />
    <glyph glyph-name="ring" unicode="&#x2da;" horiz-adv-x="333" 
d="M166 711q41 0 70.5 -29.5t29.5 -70.5t-29.5 -70t-70.5 -29q-42 0 -70.5 29t-28.5 71q0 40 29.5 69.5t69.5 29.5zM167 677q-27 0 -46.5 -19t-19.5 -46q0 -28 19 -47t45 -19q28 0 47.5 19t19.5 46t-19.5 46.5t-45.5 19.5z" />
    <glyph glyph-name="ogonek" unicode="&#x2db;" horiz-adv-x="333" 
d="M229 -73l20 -16q-53 -76 -112 -76q-31 0 -52 21.5t-21 53.5q0 47 54 90h46q-44 -35 -44 -69q0 -18 10.5 -29t27.5 -11q30 0 71 36z" />
    <glyph glyph-name="tilde" unicode="&#x2dc;" horiz-adv-x="333" 
d="M302 638h29q-16 -57 -40 -81.5t-65 -24.5q-32 0 -81 24l-23 11q-24 11 -41 11q-35 0 -51 -46h-29q11 49 37 75t64 26q36 0 70 -18l24 -12q32 -15 53 -15q17 0 28.5 11t24.5 39z" />
    <glyph glyph-name="hungarumlaut" unicode="&#x2dd;" horiz-adv-x="333" 
d="M186 507h-40l147 148q23 23 42 23q35 0 35 -32q0 -23 -30 -42zM30 507h-40l147 148q23 23 42 23q35 0 35 -32q0 -23 -30 -42z" />
    <glyph glyph-name="tonos" unicode="&#x384;" horiz-adv-x="333" 
d="M154 503l-10 40q-14 55 -14 76q0 50 37 50t37 -50q0 -19 -14 -76l-10 -40h-26z" />
    <glyph glyph-name="dieresistonos" unicode="&#x385;" horiz-adv-x="333" 
d="M154 593l-12 38q-11 37 -11 58q0 20 9.5 32t25.5 12q35 0 35 -48q0 -20 -11 -54l-11 -38h-25zM91 582q17 0 30 -13t13 -31t-13 -31t-31 -13t-31 13t-13 31q0 19 13 31.5t32 12.5zM243 582q17 0 30 -13t13 -31t-13 -31t-31 -13t-31 13t-13 31q0 19 13 31.5t32 12.5z" />
    <glyph glyph-name="Alphatonos" unicode="&#x386;" 
d="M371 669l228 -534q27 -66 50 -91.5t57 -25.5h13v-18h-278v19h16q55 0 55 37q0 21 -17 64l-38 97h-242l-42 -105q-17 -42 -17 -56q0 -17 16 -27t43 -10h12v-19h-221v18q49 1 68 18t49 88l236 545h12zM234 258h207l-107 238zM153 487l-11 44q-15 61 -15 82q0 56 41 56
q40 0 40 -55q0 -24 -16 -83l-10 -44h-29z" />
    <glyph glyph-name="uni0387" unicode="&#x387;" horiz-adv-x="250" 
d="M125 310q23 0 39.5 -17t16.5 -40q0 -22 -17 -38t-40 -16q-22 0 -38 16t-16 38q0 24 16 40.5t39 16.5z" />
    <glyph glyph-name="Epsilontonos" unicode="&#x388;" horiz-adv-x="694" 
d="M25 487l-11 44q-15 59 -15 83q0 55 41 55q40 0 40 -55q0 -24 -16 -83l-10 -44h-29zM310 329v-213q0 -48 9 -60t45 -11h119q79 1 117 28t68 101l17 -7l-57 -167h-514v18l23 1q40 1 54 19t14 66v455q0 47 -14 65t-54 19l-23 1v18h504l10 -150l-17 -1q-9 67 -39.5 90.5
t-108.5 21.5h-153v-249h167q42 -1 59.5 22t16.5 77h18v-241h-18q2 53 -15.5 74.5t-60.5 22.5h-167z" />
    <glyph glyph-name="Etatonos" unicode="&#x389;" horiz-adv-x="808" 
d="M22 487l-11 44q-15 59 -15 83q0 55 41 55q40 0 40 -55q0 -24 -16 -83l-10 -44h-29zM309 315v-211q0 -48 14.5 -65.5t53.5 -19.5l23 -1v-18h-287v18l23 1q40 1 54 19t14 66v455q0 47 -14 65t-54 19l-23 1v18h287v-18l-23 -1q-40 -1 -54 -19t-14 -65v-199h296v199
q0 47 -14 65t-54 19l-23 1v18h287v-18l-23 -1q-40 -1 -54 -19t-14 -65v-455q0 -48 14.5 -65.5t53.5 -19.5l23 -1v-18h-287v18l23 1q40 1 54 19t14 66v211h-296z" />
    <glyph glyph-name="Iotatonos" unicode="&#x38a;" horiz-adv-x="411" 
d="M24 487l-11 44q-15 59 -15 83q0 55 41 55q40 0 40 -55q0 -24 -16 -83l-10 -44h-29zM113 644v18h287v-18l-23 -1q-40 -1 -54 -19t-14 -65v-456q0 -47 14 -65t54 -19l23 -1v-18h-287v18l23 1q40 1 54 19t14 65v456q0 47 -14 65t-54 19z" />
    <glyph glyph-name="Omicrontonos" unicode="&#x38c;" 
d="M22 487l-11 44q-15 59 -15 83q0 55 41 55q40 0 40 -55q0 -24 -16 -83l-10 -44h-29zM375 669q137 0 228 -96t91 -241q0 -148 -94 -247q-91 -92 -225 -92q-135 0 -225 96.5t-90 241.5t90 241.5t225 96.5zM374 630q-88 0 -142.5 -82.5t-54.5 -216.5q0 -133 54.5 -216
t142.5 -83q92 0 147.5 82t55.5 218q0 133 -56.5 215.5t-146.5 82.5z" />
    <glyph glyph-name="Upsilontonos" unicode="&#x38e;" horiz-adv-x="816" 
d="M49 487l-11 44q-15 59 -15 83q0 55 41 55q40 0 40 -55q0 -24 -16 -83l-10 -44h-29zM424 282l-163 260q-31 54 -54.5 74.5t-60.5 25.5l-23 2v18h301v-18h-14q-55 0 -55 -32q0 -22 27 -65l130 -205l129 218q22 36 22 55q0 28 -41 28l-21 1v18h223v-18l-11 -1
q-40 -2 -69.5 -28t-67.5 -91l-144 -242v-179q0 -47 14.5 -65t54.5 -19l27 -1v-18h-298v18l25 1q40 2 54.5 19.5t14.5 64.5v179z" />
    <glyph glyph-name="Omegatonos" unicode="&#x38f;" horiz-adv-x="743" 
d="M30 487l-11 44q-15 59 -15 83q0 55 41 55q40 0 40 -55q0 -24 -16 -83l-10 -44h-29zM744 168l-37 -168h-253v74q62 29 98.5 106t36.5 181q0 118 -55.5 193.5t-142.5 75.5t-142.5 -76t-55.5 -195q0 -125 53 -208q19 -30 36 -46.5t46 -30.5v-74h-253l-38 168l17 3
q22 -57 49 -77t83 -22h103q-60 24 -116 79q-93 90 -93 215q0 126 90.5 214.5t220.5 88.5t220.5 -88t90.5 -216q0 -94 -56 -172t-154 -121h104q56 2 82.5 22t48.5 77z" />
    <glyph glyph-name="iotadieresistonos" unicode="&#x390;" horiz-adv-x="269" 
d="M173 467v-333q0 -48 8 -64.5t31 -16.5q14 0 30 10l6 -14l-103 -54q-8 -5 -13 -5q-6 0 -19 15q-19 21 -19 65v252q0 41 -7 55t-27 14q-10 0 -22 -3l-6 -2l-6 15q69 28 147 66zM122 593l-12 38q-11 37 -11 58q0 20 9.5 32t25.5 12q35 0 35 -48q0 -20 -11 -54l-11 -38h-25z
M59 582q17 0 30 -13t13 -31t-13 -31t-31 -13t-31 13t-13 31q0 19 13 31.5t32 12.5zM211 582q17 0 30 -13t13 -31t-13 -31t-31 -13t-31 13t-13 31q0 19 13 31.5t32 12.5z" />
    <glyph glyph-name="Alpha" unicode="&#x391;" 
d="M371 669l228 -534q27 -66 50 -91.5t57 -25.5h13v-18h-278v19h16q55 0 55 37q0 21 -17 64l-38 97h-242l-42 -105q-17 -42 -17 -56q0 -17 16 -27t43 -10h12v-19h-221v18q49 1 68 18t49 88l236 545h12zM234 258h207l-107 238z" />
    <glyph glyph-name="Beta" unicode="&#x392;" horiz-adv-x="667" 
d="M55 662h242q72 0 106.5 -6t66.5 -23q44 -23 69.5 -60.5t25.5 -79.5q0 -62 -43 -108q-23 -23 -63 -41q133 -46 133 -161q0 -51 -28 -93t-76 -65q-36 -16 -75.5 -20.5t-156.5 -4.5h-201v18l23 1q39 2 53.5 19.5t14.5 64.5v456q0 47 -14.5 64.5t-53.5 19.5l-23 1v18z
M251 620v-251q30 -6 54 -6q67 0 105 34t38 95q0 60 -41.5 96t-111.5 36q-17 0 -44 -4zM251 318v-268q37 -9 66 -9q67 0 109.5 39.5t42.5 102.5q0 65 -44.5 103.5t-120.5 38.5q-25 0 -53 -7z" />
    <glyph glyph-name="Gamma" unicode="&#x393;" horiz-adv-x="578" 
d="M277 20v-20h-282v20q55 4 72 21t17 67v446q0 50 -17 67t-72 21v20h537l49 -175h-28q-28 70 -71.5 100t-120.5 32h-113q-36 -3 -48.5 -15t-11.5 -42v-454q0 -50 17 -67t72 -21z" />
    <glyph glyph-name="uni0394" unicode="&#x394;" horiz-adv-x="643" 
d="M325 669l295 -669h-596l292 669h9zM478 76l-183 426l-162 -374q-11 -24 -11 -37q0 -15 33 -15h323z" />
    <glyph glyph-name="Epsilon" unicode="&#x395;" horiz-adv-x="611" 
d="M218 329v-213q0 -47 9 -59.5t44 -11.5h119q79 1 117 28t68 101l16 -7l-57 -167h-512v18l23 1q39 2 53.5 19.5t14.5 65.5v455q0 47 -14.5 64.5t-53.5 19.5l-23 1v18h502l10 -150l-17 -1q-8 67 -38.5 90t-107.5 22h-153v-249h166q42 -1 59.5 21.5t16.5 77.5h18v-241h-18
q2 53 -15.5 74.5t-60.5 22.5h-166z" />
    <glyph glyph-name="Zeta" unicode="&#x396;" horiz-adv-x="611" 
d="M424 617h-187q-85 2 -113 -22t-39 -108l-19 2l19 173h495l-416 -617h231q80 -3 121 28.5t57 110.5l19 -2l-36 -182h-550z" />
    <glyph glyph-name="Eta" unicode="&#x397;" 
d="M214 315v-211q0 -48 14 -66t54 -19l22 -1v-18h-286v18l23 1q39 2 53.5 19.5t14.5 65.5v455q0 47 -14.5 64.5t-53.5 19.5l-23 1v18h286v-18l-22 -1q-40 -1 -54 -19t-14 -65v-199h295v199q0 47 -14.5 64.5t-53.5 19.5l-23 1v18h286v-18l-22 -1q-40 -1 -54 -19t-14 -65v-455
q0 -48 14 -66t54 -19l22 -1v-18h-286v18l23 1q39 2 53.5 19.5t14.5 65.5v211h-295z" />
    <glyph glyph-name="Theta" unicode="&#x398;" 
d="M255 434h31q4 -36 21 -52t54 -16q36 0 53 16t21 52h31v-198h-31q0 71 -74 71q-75 0 -75 -71h-31v198zM364 675q139 0 231.5 -98t92.5 -247t-92.5 -246t-235.5 -97q-142 0 -234.5 97t-92.5 246q0 152 93 248.5t238 96.5zM355 637q-97 0 -151.5 -79.5t-54.5 -222.5
q0 -140 59 -225t157 -85q76 0 124 45q83 78 83 253q0 186 -96 268q-52 46 -121 46z" />
    <glyph glyph-name="Iota" unicode="&#x399;" horiz-adv-x="333" 
d="M24 644v18h286v-18l-22 -1q-40 -1 -54 -19t-14 -65v-456q0 -47 14 -65t54 -19l22 -1v-18h-286v18l23 1q39 2 53.5 19.5t14.5 64.5v456q0 47 -14.5 64.5t-53.5 19.5z" />
    <glyph glyph-name="Kappa" unicode="&#x39a;" 
d="M233 320v-217q-1 -47 13.5 -64.5t55.5 -19.5l23 -1v-18h-288v18l23 1q39 2 53.5 19.5t14.5 64.5v456q0 47 -14.5 64.5t-53.5 19.5l-23 1v18h288v-18l-19 -1q-43 -1 -58 -18t-15 -67v-212q102 91 168 167.5t66 103.5q0 15 -11.5 20t-46.5 6v19h243v-19l-14 -1
q-43 -5 -70 -23t-77 -75q-73 -80 -100 -107q-30 -32 -45 -47q-3 -4 -10 -11t-10 -11l228 -236q64 -65 103.5 -89t85.5 -25v-18h-318v18l16 1q42 2 42 25q0 20 -69 90z" />
    <glyph glyph-name="Lambda" unicode="&#x39b;" horiz-adv-x="725" 
d="M373 669l228 -533q27 -67 50 -92t57 -26h13v-18h-278v19h16q55 0 55 38q0 23 -17 63l-161 373l-161 -381q-17 -42 -17 -56q0 -17 16 -27t43 -10h12v-19h-221v18q50 2 68.5 19t48.5 87l236 545h12z" />
    <glyph glyph-name="Mu" unicode="&#x39c;" horiz-adv-x="889" 
d="M410 0l-238 525v-422q0 -47 14 -65t54 -19l24 -1v-18h-232v18l23 1q39 2 53.5 19.5t14.5 64.5v456q0 47 -14.5 64.5t-53.5 19.5l-23 1v18h191l224 -491l215 491h195v-18l-22 -1q-40 -1 -54 -19t-14 -65v-456q0 -47 14 -65t54 -19l22 -1v-18h-283v18l19 1q40 2 54.5 19.5
t14.5 64.5v428l-236 -531h-16z" />
    <glyph glyph-name="Nu" unicode="&#x39d;" 
d="M606 0l-445 515v-412q0 -47 14 -65t54 -19l23 -1v-18h-231v18l23 1q40 1 54 19t14 65v471q-44 46 -65 57t-62 13v18h196l392 -457v354q0 47 -14 65t-54 19l-23 1v18h231v-18l-23 -1q-40 -1 -54 -19t-14 -65v-559h-16z" />
    <glyph glyph-name="Xi" unicode="&#x39e;" horiz-adv-x="643" 
d="M148 231v241h18q-1 -43 16 -60.5t60 -16.5h159q43 -1 60 16.5t16 60.5h18v-241h-18q2 47 -15 66t-61 20h-159q-44 -1 -61 -20t-15 -66h-18zM95 510l-17 2l10 150h466l10 -150l-17 -2q-7 46 -30.5 62t-83.5 15h-224q-60 1 -83.5 -15t-30.5 -62zM92 0l-41 169l17 4
q22 -53 49.5 -71.5t85.5 -20.5h238q57 1 84.5 20t50.5 72l17 -4l-41 -169h-460z" />
    <glyph glyph-name="Omicron" unicode="&#x39f;" 
d="M359 669q137 0 228 -96t91 -241q0 -148 -94 -247q-89 -92 -225 -92q-135 0 -225 96.5t-90 241.5t90 241.5t225 96.5zM358 630q-88 0 -142.5 -83t-54.5 -216t54.5 -216t142.5 -83q92 0 147.5 82t55.5 218q0 133 -56.5 215.5t-146.5 82.5z" />
    <glyph glyph-name="Pi" unicode="&#x3a0;" 
d="M704 662v-18l-22 -1q-40 -1 -54 -19t-14 -65v-456q0 -47 14 -65t54 -19l22 -1v-18h-286v18l23 1q39 2 53.5 19.5t14.5 64.5v442q0 47 -14.5 65t-53.5 20h-159q-39 -2 -53.5 -20t-14.5 -65v-442q0 -47 14 -65t54 -19l22 -1v-18h-286v18l23 1q39 2 53.5 19.5t14.5 64.5v456
q0 47 -14.5 64.5t-53.5 19.5l-23 1v18h686z" />
    <glyph glyph-name="Rho" unicode="&#x3a1;" horiz-adv-x="556" 
d="M217 316v-213q0 -47 14 -65t54 -19l24 -1v-18h-288v18l23 1q39 2 53.5 19.5t14.5 64.5v456q0 47 -14.5 64.5t-53.5 19.5l-23 1v18h214q95 -1 125.5 -4.5t61.5 -16.5q111 -51 111 -164q0 -83 -55 -127q-65 -52 -161 -52q-47 0 -100 18zM217 614v-260q35 -14 66 -14
q60 0 96.5 38t36.5 102q0 65 -38.5 104.5t-102.5 39.5q-31 0 -58 -10z" />
    <glyph glyph-name="Sigma" unicode="&#x3a3;" horiz-adv-x="582" 
d="M536 662v-205h-31q-7 88 -58 127.5t-154 36.5h-112l147 -287l-141 -281h115q97 -2 154.5 37.5t97.5 135.5h31l-49 -226h-491l170 310l-170 352h491z" />
    <glyph glyph-name="Tau" unicode="&#x3a4;" horiz-adv-x="611" 
d="M162 0v18l22 1q40 1 54.5 19t14.5 66v510h-89q-64 1 -91.5 -25t-30.5 -89l-19 2l10 160h545l10 -160l-19 -2q-3 63 -30.5 89t-91.5 25h-89v-510q0 -48 14.5 -66t54.5 -19l22 -1v-18h-287z" />
    <glyph glyph-name="Upsilon" unicode="&#x3a5;" 
d="M315 282l-163 260q-32 55 -54.5 75t-60.5 25l-23 2v18h301v-18h-14q-55 0 -55 -32q0 -22 27 -65l130 -205l129 218q22 36 22 55q0 28 -41 28l-21 1v18h223v-18l-11 -1q-40 -2 -69.5 -28t-67.5 -91l-144 -242v-179q0 -47 14.5 -64.5t54.5 -19.5l27 -1v-18h-298v18l25 1
q40 1 54.5 19t14.5 65v179z" />
    <glyph glyph-name="Phi" unicode="&#x3a6;" horiz-adv-x="731" 
d="M314 590v12q1 43 -12 56.5t-56 14.5l-23 1v18h285v-18l-23 -1q-43 -1 -56 -14.5t-12 -56.5v-12q130 -15 208.5 -86t78.5 -173t-80.5 -174.5t-206.5 -84.5v-12q-1 -43 12 -56.5t56 -14.5l23 -1v-18h-285v18l23 1q43 1 56 14.5t12 56.5v12q-126 12 -206.5 84.5t-80.5 174.5
t79.5 174t207.5 85zM314 100v463q-80 -16 -125 -77.5t-45 -154.5t44.5 -154t125.5 -77zM417 562v-463q80 17 125 78.5t45 153.5t-44.5 152.5t-125.5 78.5z" />
    <glyph glyph-name="Chi" unicode="&#x3a7;" 
d="M319 324l-139 208q-43 62 -67 83t-58 26l-22 3v18h296v-18q-27 -1 -39 -4q-22 -7 -22 -34q0 -18 16 -42l103 -154l121 159q22 28 22 42q0 33 -48 33h-16v18h223v-18l-12 -1q-40 -3 -59 -18t-74 -85l-130 -171l159 -233q45 -67 70.5 -90t55.5 -26l21 -2v-18h-291v18
q35 1 48 8t13 25q0 23 -24 57l-118 173l-142 -186q-23 -31 -23 -46q0 -26 41 -29l21 -2v-18h-244v18q60 1 90 21.5t92 103.5z" />
    <glyph glyph-name="Psi" unicode="&#x3a8;" horiz-adv-x="738" 
d="M226 662h287v-18l-23 -1q-40 -1 -54 -19t-14 -65v-306q33 7 50.5 16.5t39.5 30.5q30 33 40.5 69.5t12.5 114.5q1 96 15 127q24 58 88 58q33 0 72 -14l-8 -21q-12 6 -24 6q-27 0 -33 -27q-3 -9 -7 -106q-1 -87 -22.5 -137.5t-75.5 -95.5q-58 -44 -148 -52v-119
q0 -47 14 -65t54 -19l23 -1v-18h-287v18l23 1q40 1 54 19t14 65v119q-116 10 -184 86q-41 52 -51 92t-14 161q-2 51 -8.5 65t-28.5 14q-12 0 -25 -6l-7 21q39 14 72 14q69 0 91 -67q11 -31 12 -118q2 -78 12.5 -114.5t40.5 -69.5q22 -21 39.5 -30.5t50.5 -16.5v306
q0 47 -14 65t-54 19l-23 1v18z" />
    <glyph glyph-name="uni03A9" unicode="&#x3a9;" horiz-adv-x="743" 
d="M302 142l15 -142h-295v163h17q9 -38 22 -49t49 -11h148v14q-87 25 -135 70q-38 36 -60 90t-22 111q0 60 25.5 116.5t71.5 95.5q87 75 234 75q146 0 233 -75q46 -39 71.5 -95.5t25.5 -116.5q0 -62 -25.5 -119.5t-69.5 -93.5q-44 -35 -122 -58v-14h148q36 0 49.5 11.5
t21.5 48.5h17v-163h-295l15 142q57 21 87 59q54 73 54 188q0 127 -64 197q-50 55 -146 55q-97 0 -147 -55q-64 -70 -64 -196q0 -116 54 -189q30 -38 87 -59z" />
    <glyph glyph-name="Iotadieresis" unicode="&#x3aa;" horiz-adv-x="333" 
d="M23 644v18h287v-18l-23 -1q-40 -1 -54 -19t-14 -65v-456q0 -47 14 -65t54 -19l23 -1v-18h-287v18l23 1q40 1 54 19t14 65v456q0 47 -14 65t-54 19zM74 821q21 0 36 -15t15 -36q0 -22 -15 -37t-37 -15q-21 0 -36 15t-15 37q0 21 15 36t37 15zM259 821q21 0 36 -15t15 -36
q0 -22 -15 -37t-37 -15q-21 0 -36 15t-15 37q0 21 15 36t37 15z" />
    <glyph glyph-name="Upsilondieresis" unicode="&#x3ab;" 
d="M315 282l-163 260q-32 55 -54.5 75t-60.5 25l-23 2v18h301v-18h-14q-55 0 -55 -32q0 -22 27 -65l130 -205l129 218q22 36 22 55q0 28 -41 28l-21 1v18h223v-18l-11 -1q-40 -2 -69.5 -28t-67.5 -91l-144 -242v-179q0 -47 14.5 -64.5t54.5 -19.5l27 -1v-18h-298v18l25 1
q40 1 54.5 19t14.5 65v179zM308 821q21 0 36 -15.5t15 -35.5q0 -22 -15 -37t-37 -15q-21 0 -36 15t-15 37q0 21 15 36t37 15zM494 821q21 0 36 -15.5t15 -35.5q0 -22 -15 -37t-37 -15q-21 0 -36 15t-15 37q0 21 15 36t37 15z" />
    <glyph glyph-name="alphatonos" unicode="&#x3ac;" horiz-adv-x="524" 
d="M220 503l-9 40q-15 57 -15 76q0 50 37 50t37 -50q0 -22 -14 -76l-10 -40h-26zM519 452l-98 -283q25 -112 86 -112q13 0 35 9v-36l-91 -41q-12 -5 -15 -5q-12 0 -29 26q-21 30 -29 81q-62 -107 -174 -107q-77 0 -126 61t-49 157q0 112 61 191t147 79q74 0 112 -70
q11 -21 29 -80l39 131zM334 187l22 73q-27 99 -43 126q-29 49 -72 49q-50 0 -79 -59.5t-29 -163.5q0 -88 24 -142.5t62 -54.5q61 0 115 172z" />
    <glyph glyph-name="epsilontonos" unicode="&#x3ad;" horiz-adv-x="420" 
d="M368 445l-13 -75q-64 27 -126 27q-48 0 -74 -19.5t-26 -55.5q0 -33 24 -54q48 18 83 18q26 0 42 -9t16 -24t-13.5 -24t-35.5 -9q-44 0 -92 21q-31 -42 -31 -81q0 -51 34 -84.5t84 -33.5q102 0 140 119l19 -3q-15 -78 -65 -121.5t-125 -43.5q-73 0 -120 38.5t-47 98.5
q0 40 19 67.5t67 58.5q-71 41 -71 94q0 48 49.5 80.5t121.5 32.5q69 0 140 -18zM216 503l-9 40q-14 56 -14 75q0 51 36 51q37 0 37 -50q0 -22 -14 -76l-9 -40h-27z" />
    <glyph glyph-name="etatonos" unicode="&#x3ae;" horiz-adv-x="523" 
d="M177 467v-88q81 84 152 84q31 0 56.5 -15.5t36.5 -41.5q18 -39 18 -123v-462h-79v464q0 69 -14.5 93t-55.5 24q-27 0 -51.5 -12.5t-62.5 -46.5v-343h-79v320q0 43 -7 56.5t-29 13.5q-10 0 -21 -3l-10 -4l-7 14q79 34 153 70zM248 503l-9 40q-14 54 -14 76q0 50 37 50
t37 -50q0 -21 -15 -76l-9 -40h-27z" />
    <glyph glyph-name="iotatonos" unicode="&#x3af;" horiz-adv-x="269" 
d="M174 467v-333q0 -48 7.5 -64.5t30.5 -16.5q15 0 31 10l6 -14l-103 -54q-10 -5 -13 -5q-5 0 -20 15q-18 22 -18 65v252q0 41 -7 55t-27 14q-11 0 -22 -3l-7 -2l-5 15q74 30 147 66zM121 503l-9 40q-14 54 -14 75q0 51 37 51t37 -50q0 -21 -15 -76l-9 -40h-27z" />
    <glyph glyph-name="upsilondieresistonos" unicode="&#x3b0;" horiz-adv-x="495" 
d="M33 396l-6 14l103 54q6 3 11 3q11 0 27 -22q13 -18 13 -56v-209q0 -65 15 -90q19 -30 64 -30q60 0 99 47.5t39 120.5q0 52 -18 87q-9 20 -41 48q-32 29 -32 55q0 18 13 31.5t32 13.5q38 0 63 -57.5t25 -143.5q0 -121 -61 -194q-64 -75 -147 -75q-62 0 -96 38.5t-34 108.5
v184q0 49 -8 65.5t-31 16.5q-15 0 -30 -10zM235 593l-11 38q-12 37 -12 58q0 20 9.5 32t25.5 12q36 0 36 -48q0 -17 -11 -54l-12 -38h-25zM173 582q17 0 30 -13t13 -31t-13 -31t-31 -13q-19 0 -31.5 13t-12.5 31q0 19 13 31.5t32 12.5zM325 582q17 0 30 -13t13 -31t-13 -31
t-31 -13t-31 13t-13 31q0 19 13 31.5t32 12.5z" />
    <glyph glyph-name="alpha" unicode="&#x3b1;" horiz-adv-x="524" 
d="M519 452l-98 -283q25 -112 86 -112q13 0 35 9v-36l-91 -41q-12 -5 -15 -5q-12 0 -29 26q-21 30 -29 81q-62 -107 -174 -107q-77 0 -126 61t-49 157q0 112 61 191t147 79q74 0 112 -70q11 -21 29 -80l39 131zM334 187l22 73q-27 99 -43 126q-29 49 -72 49q-50 0 -79 -59.5
t-29 -163.5q0 -88 24 -142.5t62 -54.5q61 0 115 172z" />
    <glyph glyph-name="beta" unicode="&#x3b2;" horiz-adv-x="509" 
d="M157 50v-229h-79v565q0 79 8.5 119t32.5 75q61 89 176 89q61 0 98 -30.5t37 -79.5q0 -71 -83 -129q116 -59 116 -203q0 -98 -56.5 -166t-137.5 -68q-33 0 -57.5 12.5t-54.5 44.5zM157 404v-316q28 -34 49 -46.5t49 -12.5q56 0 91.5 53.5t35.5 136.5q0 113 -68 189
q-50 -28 -82 -28q-14 0 -23.5 7.5t-9.5 18.5q0 18 20.5 29t53.5 11q17 0 41 -7q28 33 37.5 54.5t9.5 50.5q0 39 -24.5 64.5t-61.5 25.5q-66 0 -99 -74q-19 -45 -19 -156z" />
    <glyph glyph-name="gamma" unicode="&#x3b3;" horiz-adv-x="442" 
d="M-14 389l-8 13l79 60q8 5 9 5q7 1 27 -22t36 -50q28 -50 62 -148.5t50 -174.5l68 142q28 57 34.5 76t6.5 42q0 16 -16 60q-6 13 -6 27q0 19 13.5 31.5t33.5 12.5q23 0 38 -16.5t15 -42.5q0 -37 -22 -86q-13 -28 -28 -55q-20 -35 -26 -48l-99 -198q13 -61 13 -100
q0 -46 -15 -74t-40 -28q-21 0 -36 23.5t-15 57.5q0 45 30 128q-23 108 -92 261q-50 112 -90 112q-9 0 -22 -8z" />
    <glyph glyph-name="delta" unicode="&#x3b4;" horiz-adv-x="471" 
d="M399 630v-60q-146 74 -236 74q-41 0 -41 -22q0 -19 45 -50l72 -51q80 -55 121 -91q52 -46 74 -90.5t22 -103.5q0 -104 -65 -175.5t-160 -71.5q-93 0 -154 64.5t-61 163.5q0 91 52.5 157.5t137.5 81.5l-88 67q-59 44 -59 82q0 31 29 50.5t76 19.5q85 0 235 -45zM222 426
q-53 0 -83 -45t-30 -125q0 -114 48 -184q34 -50 94 -50q53 0 82.5 45t29.5 127q0 103 -39.5 167.5t-101.5 64.5z" />
    <glyph glyph-name="epsilon" unicode="&#x3b5;" horiz-adv-x="420" 
d="M368 445l-13 -75q-64 27 -126 27q-48 0 -74 -19.5t-26 -55.5q0 -33 24 -54q48 18 83 18q26 0 42 -9t16 -24t-13.5 -24t-35.5 -9q-44 0 -92 21q-31 -42 -31 -81q0 -51 34 -84.5t84 -33.5q102 0 140 119l19 -3q-15 -78 -65 -121.5t-125 -43.5q-73 0 -120 38.5t-47 98.5
q0 40 19 67.5t67 58.5q-71 41 -71 94q0 48 49.5 80.5t121.5 32.5q69 0 140 -18z" />
    <glyph glyph-name="zeta" unicode="&#x3b6;" horiz-adv-x="414" 
d="M122 682l16 -8q-17 -20 -17 -34q0 -42 96 -78q91 79 151 79q16 0 28.5 -9t12.5 -21q0 -31 -47 -56.5t-103 -25.5q-20 0 -33 1q-113 -164 -113 -332q0 -61 27 -94t77 -33q15 0 67 4q24 3 38 3q37 0 57.5 -21.5t20.5 -60.5q0 -59 -41.5 -105.5t-95.5 -46.5q-24 0 -39.5 12
t-15.5 31q0 16 11 26.5t27 10.5q12 0 33 -7q15 -5 24 -5q24 0 41 16.5t17 39.5q0 36 -38 36q-7 0 -29 -2q-50 -5 -77 -5q-79 0 -128 45q-55 52 -55 145q0 186 160 350q-52 16 -90 41.5t-38 44.5q0 4 4 10z" />
    <glyph glyph-name="eta" unicode="&#x3b7;" horiz-adv-x="523" 
d="M181 467v-88q81 84 152 84q31 0 56.5 -15.5t36.5 -41.5q18 -39 18 -123v-462h-79v464q0 69 -14.5 93t-55.5 24q-27 0 -51.5 -12.5t-62.5 -46.5v-343h-79v320q0 43 -7 56.5t-29 13.5q-10 0 -21 -3l-10 -4l-7 14q79 34 153 70z" />
    <glyph glyph-name="theta" unicode="&#x3b8;" horiz-adv-x="479" 
d="M244 669q87 0 144.5 -94t57.5 -236q0 -146 -61 -246t-149 -100q-95 0 -149 102q-54 99 -54 229q0 149 67 253q58 92 144 92zM123 383h231q-10 121 -42 186t-81 65q-46 0 -74 -64.5t-34 -186.5zM356 346h-234q0 -147 33.5 -232.5t91.5 -85.5q50 0 80 76t30 203q0 23 -1 39
z" />
    <glyph glyph-name="iota" unicode="&#x3b9;" horiz-adv-x="269" 
d="M174 467v-333q0 -48 7.5 -64.5t30.5 -16.5q15 0 31 10l6 -14l-103 -54q-10 -5 -13 -5q-5 0 -20 15q-18 22 -18 65v252q0 41 -7 55t-27 14q-11 0 -22 -3l-7 -2l-5 15q74 30 147 66z" />
    <glyph glyph-name="kappa" unicode="&#x3ba;" horiz-adv-x="504" 
d="M181 467v-208l6 8q96 118 139 157t80 39q20 0 33.5 -12t13.5 -31q0 -20 -13.5 -35t-30.5 -15q-7 0 -22 3q-7 1 -19 1q-26 0 -48 -17.5t-76 -79.5l109 -149q10 -14 49 -56q21 -19 40 -19q10 0 28 7l6 -15l-97 -50q-10 -5 -14 -5q-7 0 -16 12l-168 234v-236h-79v322
q0 42 -7 55.5t-29 13.5q-10 0 -20 -3l-11 -4l-7 14q78 32 153 69z" />
    <glyph glyph-name="lambda" unicode="&#x3bb;" horiz-adv-x="485" 
d="M454 64l7 -14l-83 -59q-4 -2 -7 -2q-21 0 -53 109l-71 236l-139 -334h-85l190 437q-21 74 -36 98q-19 35 -52 35q-7 0 -19 -3q-14 -2 -20 -2q-20 0 -33.5 14.5t-13.5 35.5t13.5 34t35.5 13q48 0 91 -52q34 -39 70 -153l94 -287q20 -63 38.5 -89t42.5 -26q13 0 30 9z" />
    <glyph glyph-name="uni03BC" unicode="&#x3bc;" horiz-adv-x="536" 
d="M431 450v-318q0 -49 8 -65.5t31 -16.5q14 0 30 11l6 -14l-103 -52q-10 -5 -13 -5q-7 0 -19 15q-12 13 -15.5 24.5t-3.5 37.5v17q-32 -37 -50 -52q-42 -39 -95 -39q-68 0 -96 79q2 -75 23 -163q6 -24 6 -44q0 -23 -11 -36.5t-29 -13.5q-20 0 -32 15t-12 39q0 15 15 111
q14 100 18 153.5t5 173.5v143h79v-282q0 -58 16 -83.5t54 -25.5q26 0 46.5 11t62.5 47v333h79z" />
    <glyph glyph-name="nu" unicode="&#x3bd;" horiz-adv-x="452" 
d="M252 111l61 128q28 57 28 91q0 15 -10 55q-3 12 -3 25q0 23 13.5 38t33.5 15t33.5 -16.5t13.5 -41.5q0 -43 -32 -105l-157 -310h-25l-101 316q-18 55 -25 68q-10 20 -32 20q-11 0 -27 -8l-7 13l81 63q7 5 12 5q12 0 28.5 -22.5t25.5 -51.5z" />
    <glyph glyph-name="xi" unicode="&#x3be;" horiz-adv-x="446" 
d="M152 716l10 -8q-12 -18 -12 -33q0 -13 15 -23t62 -27q82 44 142 44q25 0 41.5 -9.5t16.5 -23.5q0 -23 -34 -39t-83 -16q-36 0 -88 12q-50 -46 -50 -102q0 -49 38 -84q81 57 132 57q22 0 36 -9t14 -22q0 -26 -38.5 -45t-90.5 -19q-24 0 -50 5q-80 -79 -80 -179
q0 -58 27.5 -91t76.5 -33q15 0 67 4q24 3 38 3q37 0 57.5 -21.5t20.5 -60.5q0 -59 -41.5 -105.5t-95.5 -46.5q-24 0 -39.5 12t-15.5 31q0 16 11 26.5t27 10.5q12 0 33 -7q15 -5 24 -5q24 0 41 16.5t17 39.5q0 36 -38 36q-7 0 -29 -2q-50 -5 -77 -5q-79 0 -128 45
q-55 52 -55 132q0 115 126 209q-75 29 -75 99q0 35 19.5 63.5t64.5 57.5q-99 31 -99 53q0 6 9 15z" />
    <glyph glyph-name="omicron" unicode="&#x3bf;" horiz-adv-x="500" 
d="M255 461q92 0 151.5 -64.5t59.5 -163.5q0 -102 -63.5 -172.5t-155.5 -70.5q-91 0 -152.5 66t-61.5 164q0 105 70 177q64 64 152 64zM242 426q-57 0 -88.5 -51t-31.5 -143t37.5 -149.5t98.5 -57.5q54 0 86.5 48.5t32.5 128.5q0 100 -37.5 162t-97.5 62z" />
    <glyph glyph-name="pi" unicode="&#x3c0;" horiz-adv-x="505" 
d="M528 448v-63h-121q-8 -23 -10 -43.5t-1 -88.5v-127q0 -40 1 -45q3 -11 14.5 -20t23.5 -9q4 0 46 14l4 -21l-108 -47q-14 -5 -15 -5q-7 0 -17.5 12t-16.5 26q-8 22 -8 70v151q1 44 14 72.5t46 60.5h-206l-6 -85q0 -17 -3 -66q-6 -141 -24.5 -191t-63.5 -50q-46 0 -46 46
q0 20 7.5 32t38.5 40q25 23 37 75.5t26 198.5q-53 1 -84.5 -10.5t-76.5 -46.5l-17 20l84 74q20 17 34.5 21.5t48.5 4.5h399z" />
    <glyph glyph-name="rho" unicode="&#x3c1;" horiz-adv-x="499" 
d="M152 -182h-79v394q0 128 38 180q52 69 150 69q89 0 143.5 -63.5t54.5 -168.5q0 -102 -58 -170.5t-144 -68.5q-57 0 -105 44v-216zM152 284v-206q52 -51 101 -51q54 0 86 51.5t32 139.5q0 97 -33 152.5t-89 55.5q-53 0 -78 -47q-19 -31 -19 -95z" />
    <glyph glyph-name="uni03C2" unicode="&#x3c2;" horiz-adv-x="396" 
d="M311 78q35 0 54 -21t19 -60q0 -59 -41 -106t-92 -47q-27 0 -43 11.5t-16 30.5q0 16 11 26t29 10q9 0 27 -6q17 -6 29 -6q23 0 40 19t17 44q0 31 -36 31q-10 0 -53 -5q-26 -2 -40 -2q-86 0 -129 43q-52 52 -52 142q0 116 79 198.5t191 82.5q38 0 60.5 -14t22.5 -38
q0 -18 -12.5 -30t-31.5 -12t-52 17q-29 15 -50 15q-24 0 -52 -14t-48 -37q-45 -48 -45 -136q0 -69 31 -106t89 -37q20 0 47 3q37 4 47 4z" />
    <glyph glyph-name="sigma" unicode="&#x3c3;" horiz-adv-x="539" 
d="M536 459v-59l-164 21q41 -26 61 -52q40 -54 40 -133q0 -104 -65 -175.5t-160 -71.5q-93 0 -154 64.5t-61 163.5q0 74 38.5 136t101.5 89q25 11 45.5 14t72.5 3h245zM237 426q-52 0 -81.5 -45t-29.5 -124q0 -113 48 -185q34 -50 94 -50q53 0 82.5 45t29.5 124
q0 106 -39 170.5t-104 64.5z" />
    <glyph glyph-name="tau" unicode="&#x3c4;" horiz-adv-x="402" 
d="M424 450v-63h-150q-13 -16 -17.5 -37.5t-6.5 -66.5v-134q0 -86 40 -86q16 0 50 15v-39l-122 -43q-19 -10 -22 -10q-14 0 -24.5 28.5t-10.5 68.5v144q2 50 10 82t33 78h-15q-65 1 -99 -14.5t-66 -61.5l-41 23l55 77q17 24 36.5 31t67.5 8h282z" />
    <glyph glyph-name="upsilon" unicode="&#x3c5;" horiz-adv-x="495" 
d="M33 396l-6 14l103 54q6 3 11 3q11 0 27 -22q13 -18 13 -56v-209q0 -65 15 -90q19 -30 64 -30q60 0 99 47.5t39 120.5q0 52 -18 87q-9 20 -41 48q-32 29 -32 55q0 18 13 31.5t32 13.5q38 0 63 -57.5t25 -143.5q0 -121 -61 -194q-64 -75 -147 -75q-62 0 -96 38.5t-34 108.5
v184q0 49 -8 65.5t-31 16.5q-15 0 -30 -10z" />
    <glyph glyph-name="phi" unicode="&#x3c6;" horiz-adv-x="577" 
d="M228 460v-17q-32 -9 -50 -24q-60 -49 -60 -174q0 -133 66 -190q22 -19 64 -32v278q0 85 21 113q32 46 92 46q74 0 130 -61q60 -61 60 -156q0 -128 -95 -199q-51 -39 -141 -48v-197h-67v197q-104 11 -162.5 75.5t-58.5 168.5q0 96 53.5 155t147.5 65zM315 307v-284
q57 11 86 31q70 49 70 166q0 75 -32.5 129.5t-78.5 54.5q-26 0 -37 -23q-8 -14 -8 -74z" />
    <glyph glyph-name="chi" unicode="&#x3c7;" horiz-adv-x="444" 
d="M259 148l40 -106q36 -95 61 -129q27 -39 65 -39q13 0 31 7l6 -15l-79 -48q-7 -4 -12 -4q-30 0 -94 165l-47 123l-157 -281h-91l216 363l-39 94q-25 57 -48 74.5t-69 15.5q-21 0 -36 13t-15 32q0 20 14.5 32.5t36.5 12.5q45 0 85.5 -41t69.5 -117l28 -72l127 223h90z" />
    <glyph glyph-name="psi" unicode="&#x3c8;" horiz-adv-x="626" 
d="M294 450h75v-388q71 9 105 38q56 46 56 136q0 47 -19 78q-10 16 -47 51q-27 26 -27 49q0 17 13.5 30t32.5 13q37 0 62 -55.5t25 -136.5q0 -108 -53 -180t-148 -94v-170h-75v172q-97 8 -146.5 56.5t-47.5 133.5v135q0 47 -8.5 63.5t-31.5 16.5q-15 0 -31 -10l-6 13l101 51
q10 5 13 5q11 0 25 -22q11 -17 11 -54v-178q-3 -67 25.5 -99t95.5 -38v384z" />
    <glyph glyph-name="omega" unicode="&#x3c9;" horiz-adv-x="658" 
d="M181 462l19 -13q-63 -90 -63 -214q0 -84 24 -130.5t68 -46.5q53 0 91 76q-25 64 -25 124q0 85 44 85q38 0 38 -78q0 -57 -25 -129q36 -77 97 -77q50 0 83 46t33 115q0 70 -28 110q-11 17 -21.5 24t-48.5 21q-28 11 -28 44q0 19 12.5 31t31.5 12q53 0 86 -63t33 -163
q0 -103 -43 -173t-106 -70q-71 0 -119 105q-49 -105 -132 -105q-63 0 -104.5 62t-41.5 156q0 158 125 251z" />
    <glyph glyph-name="iotadieresis" unicode="&#x3ca;" horiz-adv-x="269" 
d="M173 467v-333q0 -48 8 -64.5t31 -16.5q14 0 30 10l6 -14l-103 -54q-8 -5 -13 -5q-6 0 -19 15q-19 21 -19 65v252q0 41 -7 55t-27 14q-10 0 -22 -3l-6 -2l-6 15q69 28 147 66zM59 636q21 0 36 -15t15 -36q0 -22 -15 -37t-37 -15q-21 0 -36 15t-15 37q0 21 15 36t37 15z
M211 636q21 0 36 -15t15 -36q0 -22 -15 -37t-37 -15q-21 0 -36 15t-15 37q0 21 15 36t37 15z" />
    <glyph glyph-name="upsilondieresis" unicode="&#x3cb;" horiz-adv-x="495" 
d="M33 396l-6 14l103 54q6 3 11 3q11 0 27 -22q13 -18 13 -56v-209q0 -65 15 -90q19 -30 64 -30q60 0 99 47.5t39 120.5q0 52 -18 87q-9 20 -41 48q-32 29 -32 55q0 18 13 31.5t32 13.5q38 0 63 -57.5t25 -143.5q0 -121 -61 -194q-64 -75 -147 -75q-62 0 -96 38.5t-34 108.5
v184q0 49 -8 65.5t-31 16.5q-15 0 -30 -10zM172 636q21 0 36 -15t15 -36q0 -22 -15 -37t-37 -15q-21 0 -36 15t-15 37q0 21 15 36t37 15zM324 636q21 0 36 -15t15 -36q0 -22 -15 -37t-37 -15q-21 0 -36 15t-15 37q0 21 15 36t37 15z" />
    <glyph glyph-name="omicrontonos" unicode="&#x3cc;" horiz-adv-x="500" 
d="M255 461q92 0 151.5 -64.5t59.5 -163.5q0 -102 -63.5 -172.5t-155.5 -70.5q-91 0 -152.5 66t-61.5 164q0 105 70 177q64 64 152 64zM242 426q-57 0 -88.5 -51t-31.5 -143t37.5 -149.5t98.5 -57.5q54 0 86.5 48.5t32.5 128.5q0 100 -37.5 162t-97.5 62zM236 503l-9 40
q-14 57 -14 75q0 51 36 51q37 0 37 -50q0 -22 -14 -76l-9 -40h-27z" />
    <glyph glyph-name="upsilontonos" unicode="&#x3cd;" horiz-adv-x="495" 
d="M33 396l-6 14l103 54q6 3 11 3q11 0 27 -22q13 -18 13 -56v-209q0 -65 15 -90q19 -30 64 -30q60 0 99 47.5t39 120.5q0 52 -18 87q-9 20 -41 48q-32 29 -32 55q0 18 13 31.5t32 13.5q38 0 63 -57.5t25 -143.5q0 -121 -61 -194q-64 -75 -147 -75q-62 0 -96 38.5t-34 108.5
v184q0 49 -8 65.5t-31 16.5q-15 0 -30 -10zM234 503l-9 40q-14 54 -14 76q0 50 37 50t37 -50q0 -19 -15 -76l-9 -40h-27z" />
    <glyph glyph-name="omegatonos" unicode="&#x3ce;" horiz-adv-x="658" 
d="M181 463l19 -13q-63 -88 -63 -214q0 -84 24 -131t67 -47q54 0 92 76q-25 65 -25 125q0 85 44 85q38 0 38 -78q0 -57 -25 -129q35 -78 97 -78q50 0 83 46t33 116q0 69 -28 111q-11 17 -21.5 24t-48.5 21q-28 11 -28 44q0 19 12 31t31 12q53 0 86.5 -63t33.5 -164
q0 -103 -43 -173.5t-106 -70.5q-71 0 -119 106q-48 -106 -132 -106q-63 0 -104.5 62.5t-41.5 156.5q0 160 125 251zM319 503l-9 40q-14 57 -14 76q0 50 37 50q36 0 36 -50q0 -22 -14 -76l-9 -40h-27z" />
    <glyph glyph-name="theta1" unicode="&#x3d1;" horiz-adv-x="495" 
d="M507 390v-70h-14l-39 -1h-12q-3 -148 -65.5 -237t-163.5 -89q-62 0 -100.5 36t-38.5 95v76q0 43 -9 59.5t-32 16.5q-15 0 -30 -10l-7 14l104 54q6 3 10 3q10 0 23 -23q11 -16 11 -55v-113q0 -48 26 -77t69 -29q63 0 93.5 68.5t32.5 214.5q-130 18 -195 48
q-116 55 -116 147q0 63 51.5 109t122.5 46q57 0 104.5 -33t75.5 -92q29 -63 33 -159h14l39 1h13zM364 393q-7 107 -35 158q-40 79 -116 79q-42 0 -71 -26.5t-29 -64.5q0 -72 101 -112q54 -21 150 -34z" />
    <glyph glyph-name="phi1" unicode="&#x3d5;" horiz-adv-x="526" 
d="M305 -15l1 -170h-89l2 169q-92 4 -147 69t-55 169q0 103 57.5 173t149.5 78q-3 51 -12 97q-7 40 -7 52q0 29 16 46.5t42 17.5t41.5 -17.5t15.5 -46.5q0 -15 -11 -78q-6 -31 -9 -71q94 -4 151 -68.5t57 -167.5q0 -101 -57.5 -172.5t-145.5 -79.5zM219 10l4 438
q-53 -12 -86.5 -73.5t-33.5 -145.5q0 -90 32 -151t84 -68zM301 449l4 -439q54 15 85.5 73t31.5 143q0 91 -33 152t-88 71z" />
    <glyph glyph-name="omega1" unicode="&#x3d6;" horiz-adv-x="658" 
d="M114 450h110q138 0 205 -20q76 -23 116.5 -79.5t40.5 -139.5q0 -87 -38 -152q-39 -66 -109 -66q-77 0 -119 95q-38 -95 -110 -95q-61 0 -99.5 58.5t-38.5 150.5q0 80 28 131t91 85q-68 -2 -117 -12zM312 129q-10 47 -10 72q0 73 32 73q11 0 19.5 -11t8.5 -25
q0 -12 -10 -43q-6 -16 -6 -53t24 -61.5t59 -24.5t55 34t20 95q0 118 -67 177q-35 30 -80.5 42.5t-126.5 13.5q-75 -60 -75 -203q0 -75 22 -116t63 -41q44 0 72 71z" />
    <glyph glyph-name="uni0400" unicode="&#x400;" horiz-adv-x="611" 
d="M597 169l-45 -169h-540v19q54 3 69.5 19.5t17.5 70.5v444q-2 54 -17 70t-70 20v19h531l3 -143h-25q-12 67 -38.5 85.5t-113.5 19.5h-135q-21 0 -26.5 -6t-6.5 -28v-222h154q63 2 82 18t28 77h23v-232h-23q-10 62 -28.5 78.5t-81.5 17.5h-154v-247q0 -29 13.5 -35t91.5 -8
h27q107 1 153.5 27t82.5 105h28zM382 719h-40l-154 97q-29 17 -29 43q0 31 34 31q18 0 42 -23z" />
    <glyph glyph-name="afii10023" unicode="&#x401;" horiz-adv-x="611" 
d="M217 329v-213q0 -47 9 -59.5t44 -11.5h119q79 1 117 28t68 101l16 -7l-57 -167h-512v18l23 1q39 2 53.5 19.5t14.5 65.5v455q0 47 -14.5 64.5t-53.5 19.5l-23 1v18h502l10 -150l-17 -1q-8 67 -38.5 90t-107.5 22h-153v-249h166q42 -1 59.5 21.5t16.5 77.5h18v-241h-18
q2 53 -15.5 74.5t-60.5 22.5h-166zM206 835q20 0 35 -15t15 -35q0 -21 -15 -35.5t-36 -14.5q-20 0 -33.5 14.5t-13.5 36.5q0 20 14.5 34.5t33.5 14.5zM405 835q20 0 35 -15t15 -35q0 -21 -15 -35.5t-36 -14.5q-20 0 -33.5 14.5t-13.5 36.5q0 20 14.5 34.5t33.5 14.5z" />
    <glyph glyph-name="afii10051" unicode="&#x402;" horiz-adv-x="752" 
d="M322 614v-266q78 34 149 34q101 0 162.5 -53.5t61.5 -141.5q0 -93 -63 -158q-50 -51 -134 -51q-54 0 -85 19t-31 53q0 23 13.5 37t35.5 14q19 0 31 -11.5t12 -28.5q0 -6 -1 -10q-1 -6 -1 -13q0 -30 33 -30q34 0 53.5 40.5t19.5 112.5q0 92 -32.5 135t-101.5 43
q-47 0 -122 -30v-309h-196v18q56 0 73.5 16.5t17.5 69.5v510h-36q-64 1 -91.5 -25t-30.5 -89l-19 2l10 160h541l9 -160l-19 -2q-2 63 -30 89t-92 25h-137z" />
    <glyph glyph-name="afii10052" unicode="&#x403;" horiz-adv-x="578" 
d="M225 617v-515q1 -52 21.5 -68t88.5 -16v-18h-306v18q55 0 72.5 16t18.5 69v456q-1 53 -18.5 69t-72.5 16v18h503l10 -161l-19 -1q-3 65 -30.5 91.5t-91.5 25.5h-176zM260 719h-40l147 148q23 23 43 23q35 0 35 -32q0 -24 -31 -42z" />
    <glyph glyph-name="afii10053" unicode="&#x404;" horiz-adv-x="660" 
d="M465 218h-18q2 53 -15 74.5t-61 22.5h-220q4 -101 40 -163q64 -115 198 -115q135 0 224 118l17 -11q-100 -151 -268 -151q-137 0 -234.5 99t-97.5 239q0 142 100.5 240t245.5 98q78 0 139 -28q40 -19 51 -19q24 0 30 40h21l6 -223l-18 -2q-10 80 -60 129q-68 66 -159 66
q-101 0 -164 -73t-70 -199h219q43 -1 60 21.5t16 77.5h18v-241z" />
    <glyph glyph-name="afii10054" unicode="&#x405;" horiz-adv-x="556" 
d="M105 0h-19v224h20q9 -70 37 -111q23 -36 59.5 -56.5t75.5 -20.5q49 0 82 31t33 76q0 44 -39 84q-27 27 -64 50l-78 44q-69 41 -99.5 82t-30.5 94q0 77 48.5 124.5t127.5 47.5q40 0 91 -17q43 -14 52 -14q17 0 28 24h20v-210h-18q-30 99 -65 135q-36 38 -95 38
q-45 0 -74.5 -25.5t-29.5 -64.5q0 -62 97 -117l77 -45q149 -86 149 -197q0 -80 -55 -131.5t-141 -51.5q-29 0 -44.5 3.5t-76.5 22.5q-24 8 -37 8q-22 0 -31 -27z" />
    <glyph glyph-name="afii10055" unicode="&#x406;" horiz-adv-x="333" 
d="M24 644v18h286v-18l-22 -1q-40 -1 -54 -19t-14 -65v-456q0 -47 14 -65t54 -19l22 -1v-18h-286v18l23 1q39 2 53.5 19.5t14.5 64.5v456q0 47 -14.5 64.5t-53.5 19.5z" />
    <glyph glyph-name="afii10056" unicode="&#x407;" horiz-adv-x="333" 
d="M23 644v18h287v-18q-56 0 -73 -16t-18 -69v-456q1 -53 18 -69t73 -16v-18h-287v18q56 0 73 16t18 69v456q-1 53 -18 69t-73 16zM66 835q20 0 35 -15t15 -35q0 -21 -15 -35.5t-35 -14.5t-34 14.5t-14 36.5q0 20 14.5 34.5t33.5 14.5zM265 835q20 0 35 -15t15 -35
q0 -21 -15 -35.5t-35 -14.5t-34 14.5t-14 36.5q0 20 14.5 34.5t33.5 14.5z" />
    <glyph glyph-name="afii10057" unicode="&#x408;" horiz-adv-x="389" 
d="M80 644v18h287v-18l-20 -1q-40 -1 -54 -19t-14 -65v-366q0 -91 -46 -145.5t-123 -54.5q-47 0 -76 20.5t-29 53.5q0 20 14 33t36 13t35 -11t29 -44q11 -24 28 -24t23 23.5t6 86.5v415q-2 44 -19.5 64t-54.5 20z" />
    <glyph glyph-name="afii10058" unicode="&#x409;" horiz-adv-x="872" 
d="M92 662h520v-18q-56 0 -73 -16t-18 -69v-180q45 6 82 6q124 0 192 -51t68 -143q0 -93 -64.5 -142t-186.5 -49h-287v18q56 0 73.5 16t17.5 69v514h-191v-293q0 -161 -29 -231q-44 -102 -138 -102q-35 0 -56.5 16t-21.5 42q0 22 13 36t33 14q21 0 53 -24q15 -10 27 -10
q31 0 52 49q25 58 25 212v233q-1 53 -18 69t-73 16v18zM521 339v-290q40 -12 74 -12q67 0 109 42t42 108q0 71 -44 115t-115 44q-31 0 -66 -7z" />
    <glyph glyph-name="afii10059" unicode="&#x40a;" horiz-adv-x="872" 
d="M440 315h-253v-212q0 -53 15.5 -69t67.5 -16v-18h-264v18q52 0 67.5 16t16.5 69v456q-1 53 -16.5 69t-67.5 16v18h264v-18q-51 0 -67 -16.5t-16 -68.5v-199h253v199q0 52 -16.5 68.5t-67.5 16.5v18h264v-18q-51 0 -67 -16.5t-16 -68.5v-199q91 0 124.5 -3t65.5 -13
q126 -40 126 -160q0 -89 -60 -136.5t-173 -47.5h-264v18h1q26 0 46 4q11 5 17 9q19 16 20 72v212zM537 315v-266q35 -12 68 -12q61 0 100.5 40t39.5 101q0 43 -22 77t-58 47q-25 9 -44.5 11t-83.5 2z" />
    <glyph glyph-name="afii10060" unicode="&#x40b;" horiz-adv-x="741" 
d="M179 614h-36q-64 1 -91.5 -25t-30.5 -89l-19 2l10 160h567l10 -160l-19 -2q-3 63 -31 89t-91 25h-164v-267q89 35 178 35q130 0 171 -65q14 -22 19 -44.5t5 -66.5v-103q1 -53 18 -69t73 -16v-18h-286v18q55 0 72 16t18 69v103q0 80 -24.5 108t-94.5 28q-41 0 -65.5 -7.5
t-83.5 -38.5v-192q0 -53 17 -69.5t73 -16.5v-18h-286v18q56 0 73.5 16.5t17.5 69.5v510z" />
    <glyph glyph-name="afii10061" unicode="&#x40c;" horiz-adv-x="667" 
d="M205 320v-217q0 -53 17.5 -69t74.5 -16v-18h-288v18q55 0 72.5 16t18.5 69v456q-1 53 -18.5 69t-72.5 16v18h288v-18q-8 -1 -19 -1q-43 -1 -58 -18.5t-15 -66.5v-212q102 91 168 167.5t66 103.5q0 15 -11.5 20t-46.5 6v19h243v-19q-50 -3 -79.5 -21t-81.5 -78
q-70 -77 -100 -107q-30 -32 -45 -47q-4 -6 -20 -22l228 -236q64 -65 103.5 -89t85.5 -25v-18h-318v18q32 2 45 7t13 17q0 22 -69 92zM338 719h-40l147 148q23 23 42 23q35 0 35 -32q0 -22 -30 -42z" />
    <glyph glyph-name="uni040D" unicode="&#x40d;" 
d="M214 181l295 379q-1 52 -18 68t-73 16v18h286v-18q-56 0 -73 -16.5t-17 -68.5v-456q0 -52 17 -68.5t73 -16.5v-18h-286v18q55 0 72.5 16t18.5 69v384l-295 -378v-6q0 -52 17 -68.5t73 -16.5v-18h-286v18q55 0 72.5 16t18.5 69v456q-1 53 -18.5 69t-72.5 16v18h286v-18
q-56 0 -73 -16.5t-17 -68.5v-378zM424 719h-40l-154 97q-29 18 -29 43q0 14 9 22.5t24 8.5q20 0 43 -23z" />
    <glyph glyph-name="afii10062" unicode="&#x40e;" horiz-adv-x="708" 
d="M3 662h301v-18h-13q-56 0 -56 -31q0 -23 23 -66l138 -270l130 283l8 22q9 25 9 32q0 17 -12.5 23t-49.5 7v18h223v-18q-47 -1 -79.5 -28t-64.5 -92l-182 -385q-23 -49 -34.5 -67.5t-28.5 -35.5q-45 -45 -112 -45q-38 0 -60.5 16t-22.5 43q0 20 15 32.5t39 12.5
q22 0 48 -18q24 -18 40 -18q19 0 33.5 19t45.5 82l-199 382q-35 60 -63 80.5t-76 21.5v18zM487 856q21 0 34 -13t13 -33q0 -41 -42 -68t-105 -27t-105 27t-42 68q0 20 13 33t34 13q19 0 30.5 -11t11.5 -28q0 -8 -5 -27q-2 -10 -2 -12q0 -14 20.5 -24.5t45.5 -10.5
q24 0 44 10.5t20 23.5q0 7 -4 22q-3 9 -3 18q0 17 11.5 28t30.5 11z" />
    <glyph glyph-name="afii10145" unicode="&#x40f;" 
d="M709 0h-207q-62 5 -95.5 -42t-38.5 -145h-16q-5 99 -38.5 145.5t-94.5 41.5h-207v18q55 0 72.5 16t18.5 69v456q-1 53 -18.5 69t-72.5 16v18h286v-18q-56 0 -73 -16.5t-17 -68.5v-514h306v514q-1 53 -18.5 69t-72.5 16v18h286v-18q-56 0 -73 -16.5t-17 -68.5v-456
q0 -52 17 -68.5t73 -16.5v-18z" />
    <glyph glyph-name="afii10017" unicode="&#x410;" 
d="M371 669l228 -534q27 -66 50 -91.5t57 -25.5h13v-18h-278v19h16q55 0 55 38q0 21 -17 63l-38 97h-242l-42 -105q-17 -42 -17 -57q-1 -16 15.5 -26t43.5 -10h12v-19h-221v18q49 1 68 18t49 88l236 545h12zM234 258h207l-105 241z" />
    <glyph glyph-name="afii10018" unicode="&#x411;" horiz-adv-x="574" 
d="M11 662h469l10 -150l-17 -2q-8 64 -38.5 86.5t-108.5 20.5h-119v-238q44 6 82 6q124 0 192 -51t68 -143q0 -93 -64.5 -142t-186.5 -49h-287v18q56 0 73 16t18 69v455q-1 53 -18 69.5t-73 16.5v18zM207 339v-290q47 -12 72 -12q68 0 110.5 41.5t42.5 108.5q0 71 -44 115
t-115 44q-28 0 -66 -7z" />
    <glyph glyph-name="afii10019" unicode="&#x412;" horiz-adv-x="667" 
d="M55 662h242q72 0 106.5 -6t66.5 -23q44 -23 69.5 -60.5t25.5 -79.5q0 -62 -43 -108q-23 -23 -63 -41q133 -46 133 -161q0 -51 -28 -93t-76 -65q-36 -16 -75.5 -20.5t-156.5 -4.5h-201v18q55 0 72.5 16t18.5 69v456q-1 53 -18 69t-73 16v18zM251 620v-251q30 -6 54 -6
q67 0 105 34t38 95q0 60 -41.5 96t-111.5 36q-17 0 -44 -4zM251 318v-268q37 -9 66 -9q67 0 109.5 39.5t42.5 102.5q0 65 -44.5 103.5t-120.5 38.5q-25 0 -53 -7z" />
    <glyph glyph-name="afii10020" unicode="&#x413;" horiz-adv-x="578" 
d="M228 617v-515q1 -52 21.5 -68t88.5 -16v-18h-306v18q55 0 72.5 16t18.5 69v456q-1 53 -18.5 69t-72.5 16v18h503l10 -161l-19 -1q-3 65 -30.5 91.5t-91.5 25.5h-176z" />
    <glyph glyph-name="afii10021" unicode="&#x414;" horiz-adv-x="682" 
d="M113 662h532v-18l-23 -1q-40 -1 -54 -19t-14 -65v-442q1 -54 18 -70.5t73 -16.5l7 -192h-18q-17 93 -58 128t-132 34h-233q-86 1 -128 -36t-57 -126h-18l7 192h33q54 0 94 69q29 50 45.5 170.5t16.5 276.5q0 58 -13.5 77t-55.5 20l-22 1v18zM449 617h-196v-62
q0 -169 -12 -280q-10 -93 -28 -142.5t-54 -87.5h290v572z" />
    <glyph glyph-name="afii10022" unicode="&#x415;" horiz-adv-x="611" 
d="M218 329v-213q0 -48 8.5 -59.5t44.5 -11.5h119q79 1 117 28t68 101l16 -7l-57 -167h-512v18q56 0 73 16.5t18 69.5v455q-1 53 -18.5 69t-72.5 16v18h502l10 -150l-17 -1q-8 67 -38.5 90t-107.5 22h-153v-249h166q42 -1 59.5 21.5t16.5 77.5h18v-241h-18q2 53 -15.5 74.5
t-60.5 22.5h-166z" />
    <glyph glyph-name="afii10024" unicode="&#x416;" horiz-adv-x="896" 
d="M404 320h-26l-130 -186q-35 -47 -44.5 -63t-9.5 -27q0 -13 9.5 -18.5t35.5 -7.5v-18h-253v18q36 1 67.5 25t83.5 89l182 236q-1 1 -7 9t-9 13q-12 15 -36 47q-22 27 -80 107q-42 60 -65.5 78t-63.5 21v19h194v-19q-26 -1 -36 -6t-10 -17q0 -28 50 -102t127 -161h21v202
q0 52 -14 68.5t-58 16.5v18h229v-18q-45 0 -59 -16.5t-14 -68.5v-202h21q77 87 127 161t50 102q0 12 -10 17t-36 6v19h194v-19q-40 -3 -63.5 -21t-65.5 -78q-25 -34 -132 -176l182 -236q51 -65 83 -89t68 -25v-18h-253v18q26 2 35.5 7.5t9.5 18.5q0 11 -9.5 27t-44.5 63
l-130 186h-26v-217q0 -47 11.5 -65t42.5 -19l19 -1v-18h-229v18l18 1q31 1 42.5 19t11.5 65v217z" />
    <glyph glyph-name="afii10025" unicode="&#x417;" horiz-adv-x="501" 
d="M45 487l5 179h16q4 -28 34 -28q12 0 44 11q56 22 106 22q84 0 136 -41.5t52 -108.5q0 -75 -59 -123q-29 -23 -92 -40q75 -9 114 -42q62 -48 62 -135q0 -83 -65 -136.5t-166 -53.5q-100 0 -167 63q-32 28 -60 84l22 13q65 -115 173 -115q65 0 105 41t40 108q0 86 -64 125
q-35 22 -121 22h-15v45q12 -1 28 -1q155 0 155 132q0 55 -32.5 86t-88.5 31q-126 0 -143 -138h-19z" />
    <glyph glyph-name="afii10026" unicode="&#x418;" 
d="M214 181l295 379q-1 52 -18 68t-73 16v18h286v-18q-56 0 -73 -16.5t-17 -68.5v-456q0 -52 17 -68.5t73 -16.5v-18h-286v18q55 0 72.5 16t18.5 69v384l-295 -378v-6q0 -52 17 -68.5t73 -16.5v-18h-286v18q55 0 72.5 16t18.5 69v456q-1 53 -18.5 69t-72.5 16v18h286v-18
q-56 0 -73 -16.5t-17 -68.5v-378z" />
    <glyph glyph-name="afii10027" unicode="&#x419;" 
d="M461 856q21 0 34.5 -13t13.5 -33q0 -41 -42 -68t-106 -27q-63 0 -105 27t-42 68q0 20 13 33t34 13q19 0 31 -11t12 -28q0 -8 -6 -27q-2 -5 -2 -12q0 -14 20 -24.5t46 -10.5q25 0 45 10.5t20 23.5q0 3 -5 22q-3 7 -3 18q0 17 11.5 28t30.5 11zM214 181l295 379
q-1 52 -18 68t-73 16v18h286v-18q-56 0 -73 -16.5t-17 -68.5v-456q0 -52 17 -68.5t73 -16.5v-18h-286v18q55 0 72.5 16t18.5 69v384l-295 -378v-6q0 -52 17 -68.5t73 -16.5v-18h-286v18q55 0 72.5 16t18.5 69v456q-1 53 -18.5 69t-72.5 16v18h286v-18q-56 0 -73 -16.5
t-17 -68.5v-378z" />
    <glyph glyph-name="afii10028" unicode="&#x41a;" horiz-adv-x="667" 
d="M205 320v-217q0 -53 17.5 -69t74.5 -16v-18h-288v18q55 0 72.5 16t18.5 69v456q-1 53 -18.5 69t-72.5 16v18h288v-18q-8 -1 -19 -1q-43 -1 -58 -18.5t-15 -66.5v-212q102 91 168 167.5t66 103.5q0 15 -11.5 20t-46.5 6v19h243v-19q-50 -3 -79.5 -21t-81.5 -78
q-70 -77 -100 -107q-30 -32 -45 -47q-4 -6 -20 -22l228 -236q64 -65 103.5 -89t85.5 -25v-18h-318v18q32 2 45 7t13 17q0 22 -69 92z" />
    <glyph glyph-name="afii10029" unicode="&#x41b;" horiz-adv-x="678" 
d="M123 662h520v-18q-56 0 -73 -16.5t-18 -69.5v-455q1 -53 18 -69t73 -16v-18h-287v18q56 0 73.5 16t17.5 69v514h-191v-293q0 -94 -6.5 -143t-24.5 -92q-41 -98 -134 -98q-37 0 -58.5 16t-21.5 43q0 21 13.5 35.5t32.5 14.5q20 0 44 -18q22 -16 35 -16q38 0 58 67.5
t20 192.5v233q-1 53 -18 69t-73 16v18z" />
    <glyph glyph-name="afii10030" unicode="&#x41c;" horiz-adv-x="889" 
d="M410 0l-238 525v-422q0 -53 17.5 -69t74.5 -16v-18h-232v18q55 0 72.5 16t18.5 69v456q-1 53 -18.5 69t-72.5 16v18h191l224 -491l215 491h195v-18q-56 0 -73 -16.5t-17 -68.5v-456q0 -52 17 -68.5t73 -16.5v-18h-283v18q54 0 70.5 16.5t17.5 68.5v428l-236 -531h-16z
" />
    <glyph glyph-name="afii10031" unicode="&#x41d;" 
d="M214 315v-211q0 -53 17 -69.5t73 -16.5v-18h-286v18q56 0 73 16.5t18 69.5v455q-1 53 -18.5 69t-72.5 16v18h286v-18q-56 0 -73 -16.5t-17 -68.5v-199h295v199q-1 53 -18.5 69t-72.5 16v18h286v-18q-56 0 -73 -16.5t-17 -68.5v-455q0 -53 17 -69.5t73 -16.5v-18h-286v18
q56 0 73 16.5t18 69.5v211h-295z" />
    <glyph glyph-name="afii10032" unicode="&#x41e;" 
d="M359 669q137 0 228 -96t91 -241q0 -148 -94 -247q-89 -92 -225 -92q-135 0 -225 96.5t-90 241.5t90 241.5t225 96.5zM358 630q-88 0 -142.5 -83t-54.5 -216t54.5 -216t142.5 -83q92 0 147.5 82t55.5 218q0 133 -56.5 215.5t-146.5 82.5z" />
    <glyph glyph-name="afii10033" unicode="&#x41f;" 
d="M12 662h697v-18q-56 0 -73 -16.5t-17 -68.5v-456q0 -52 17 -68.5t73 -16.5v-18h-286v18q55 0 72.5 16t18.5 69v514h-306v-514q0 -52 17 -68.5t73 -16.5v-18h-286v18q55 0 72.5 16t18.5 69v456q-1 53 -18.5 69t-72.5 16v18z" />
    <glyph glyph-name="afii10034" unicode="&#x420;" horiz-adv-x="556" 
d="M217 316v-213q0 -53 17.5 -69t74.5 -16v-18h-288v18q55 0 72.5 16t18.5 69v456q-1 53 -18.5 69t-72.5 16v18h214q95 -1 125.5 -4.5t61.5 -16.5q111 -51 111 -164q0 -83 -55 -127q-65 -52 -161 -52q-47 0 -100 18zM217 614v-260q36 -14 66 -14q60 0 96.5 38t36.5 102
q0 65 -38.5 104.5t-102.5 39.5q-31 0 -58 -10z" />
    <glyph glyph-name="afii10035" unicode="&#x421;" horiz-adv-x="667" 
d="M617 155l17 -11q-48 -71 -118 -111t-149 -40q-138 0 -235.5 99t-97.5 239q0 142 100 240t245 98q79 0 140 -28q40 -19 51 -19q24 0 30 40h21l6 -223l-18 -2q-10 79 -60 129q-66 66 -159 66q-107 0 -171 -83t-64 -221q0 -133 64.5 -212t173.5 -79q134 0 224 118z" />
    <glyph glyph-name="afii10036" unicode="&#x422;" horiz-adv-x="611" 
d="M162 0v18q56 0 73.5 16.5t17.5 69.5v510h-89q-64 1 -91.5 -25t-30.5 -89l-19 2l10 160h545l10 -160l-19 -2q-3 63 -30.5 89t-91.5 25h-89v-510q0 -53 17.5 -69.5t73.5 -16.5v-18h-287z" />
    <glyph glyph-name="afii10037" unicode="&#x423;" horiz-adv-x="708" 
d="M3 662h301v-18h-13q-56 0 -56 -31q0 -23 23 -66l138 -270l130 283l8 22q9 25 9 32q0 17 -12.5 23t-49.5 7v18h223v-18q-47 -1 -79.5 -28t-64.5 -92l-182 -385q-23 -49 -34.5 -67.5t-28.5 -35.5q-45 -45 -112 -45q-38 0 -60.5 16t-22.5 43q0 20 15 32.5t39 12.5
q22 0 48 -18q24 -18 40 -18q19 0 33.5 19t45.5 82l-199 382q-35 60 -63 80.5t-76 21.5v18z" />
    <glyph glyph-name="afii10038" unicode="&#x424;" horiz-adv-x="790" 
d="M342 590v12q1 43 -12 56.5t-56 14.5l-23 1v18h287v-18l-23 -1q-43 -1 -56 -14.5t-12 -56.5v-12q143 -15 230 -86t87 -173t-88.5 -174.5t-228.5 -84.5v-12q-1 -43 12 -56.5t56 -14.5l23 -1v-18h-287v18l23 1q43 1 56 14.5t12 56.5v12q-139 12 -228 84.5t-89 174.5
t87.5 174t229.5 85zM342 100v463q-94 -16 -147 -77.5t-53 -154.5q0 -64 27.5 -116t77.5 -82q39 -24 95 -33zM447 562v-463q94 17 147 78.5t53 153.5t-52.5 152.5t-147.5 78.5z" />
    <glyph glyph-name="afii10039" unicode="&#x425;" 
d="M319 324l-139 208q-48 70 -73.5 89t-73.5 23v18h296v-18q-27 -1 -39 -4q-22 -7 -22 -34q0 -18 16 -42l103 -154l121 159q22 28 22 42q0 24 -26 31q-14 2 -38 2v18h223v-18q-48 -2 -68 -16.5t-77 -87.5l-130 -171l159 -233q52 -75 77.5 -96t69.5 -22v-18h-291v18
q35 1 48 8t13 25q0 23 -24 57l-118 173l-142 -186q-23 -31 -23 -46t13.5 -22t48.5 -9v-18h-244v18q60 1 90 21.5t92 103.5z" />
    <glyph glyph-name="afii10040" unicode="&#x426;" 
d="M714 -162h-19q-16 92 -56 127t-129 35h-501v18q55 0 72.5 16t18.5 69v456q-1 53 -18.5 69t-72.5 16v18h286v-18q-56 0 -73 -16.5t-17 -68.5v-514h306v514q-1 53 -18.5 69t-72.5 16v18h286v-18q-56 0 -73 -16.5t-17 -68.5v-442q0 -54 17 -70.5t73 -16.5z" />
    <glyph glyph-name="afii10041" unicode="&#x427;" horiz-adv-x="650" 
d="M456 328v231q-1 53 -18 69t-73 16v18h286v-18q-56 0 -73 -16.5t-17 -68.5v-456q0 -52 17 -68.5t73 -16.5v-18h-286v18q56 0 73 16t18 69v186q-137 -26 -184 -26q-97 0 -143 44t-46 136v116q-1 53 -18.5 69t-72.5 16v18h286v-18q-56 0 -73 -16.5t-17 -68.5v-116
q0 -74 29 -105t99 -31q46 0 140 21z" />
    <glyph glyph-name="afii10042" unicode="&#x428;" horiz-adv-x="1009" 
d="M803 45v514q-1 53 -18.5 69t-72.5 16v18h286v-18q-56 0 -73 -16.5t-17 -68.5v-456q0 -52 17 -68.5t73 -16.5v-18h-988v18q55 0 72.5 16t18.5 69v456q-1 53 -18.5 69t-72.5 16v18h286v-18q-56 0 -73 -16.5t-17 -68.5v-514h246v514q-1 53 -18.5 69t-72.5 16v18h286v-18
q-56 0 -73 -16.5t-17 -68.5v-514h246z" />
    <glyph glyph-name="afii10043" unicode="&#x429;" horiz-adv-x="1009" 
d="M1000 -162h-18q-16 92 -56 127t-129 35h-788v18q55 0 72.5 16t18.5 69v456q-1 53 -18.5 69t-72.5 16v18h286v-18q-56 0 -73 -16.5t-17 -68.5v-514h246v514q-1 53 -18.5 69t-72.5 16v18h286v-18q-56 0 -73 -16.5t-17 -68.5v-514h246v514q-1 53 -18.5 69t-72.5 16v18h286
v-18q-56 0 -73 -16.5t-17 -68.5v-460q2 -44 17.5 -57t68.5 -12z" />
    <glyph glyph-name="afii10044" unicode="&#x42a;" horiz-adv-x="706" 
d="M220 617h-63q-64 1 -91.5 -25.5t-30.5 -91.5l-19 1l10 161h390v-18q-55 0 -72.5 -16t-18.5 -69v-180q44 6 82 6q124 0 192 -51t68 -143q0 -93 -64.5 -142t-186.5 -49h-287v18q56 0 73 16t18 69v514zM325 339v-290q47 -12 72 -12q68 0 110.5 41.5t42.5 108.5q0 71 -44 115
t-115 44q-28 0 -66 -7z" />
    <glyph glyph-name="afii10045" unicode="&#x42b;" horiz-adv-x="872" 
d="M314 662v-18q-56 0 -73 -16.5t-17 -68.5v-180q43 6 82 6q124 0 192 -51t68 -143q0 -93 -64.5 -142t-186.5 -49h-287v18q56 0 73 16t18 69v455q-1 53 -18 69.5t-73 16.5v18h286zM224 339v-290q47 -12 72 -12q68 0 110.5 41.5t42.5 108.5q0 71 -44 115t-115 44
q-30 0 -66 -7zM557 644v18h286v-18q-56 0 -73 -16.5t-17 -68.5v-456q0 -52 17 -68.5t73 -16.5v-18h-286v18q55 0 72.5 16t18.5 69v456q-1 53 -18.5 69t-72.5 16z" />
    <glyph glyph-name="afii10046" unicode="&#x42c;" horiz-adv-x="574" 
d="M301 662v-18q-56 0 -73 -16.5t-17 -68.5v-180q44 6 82 6q124 0 192 -51t68 -143q0 -93 -64.5 -142t-186.5 -49h-287v18q56 0 73 16t18 69v455q-1 53 -18 69.5t-73 16.5v18h286zM211 339v-290q47 -12 72 -12q68 0 110.5 41.5t42.5 108.5q0 71 -44 115t-115 44
q-30 0 -66 -7z" />
    <glyph glyph-name="afii10047" unicode="&#x42d;" horiz-adv-x="660" 
d="M509 315h-220q-44 -1 -61 -22.5t-15 -74.5h-18v241h18q-1 -55 16 -77.5t59 -21.5h220q-9 127 -71.5 199.5t-163.5 72.5q-100 0 -168 -76q-42 -49 -50 -119l-19 2l7 223h20q7 -40 31 -40q11 0 50 19q62 28 140 28q145 0 245.5 -98t100.5 -240q0 -140 -97.5 -239
t-235.5 -99q-79 0 -149.5 40t-117.5 111l17 11q89 -118 224 -118q106 0 169.5 73.5t68.5 204.5z" />
    <glyph glyph-name="afii10048" unicode="&#x42e;" horiz-adv-x="1028" 
d="M228 360h119q12 137 99.5 223t214.5 86q137 0 228 -96.5t91 -241.5t-90 -241.5t-224 -96.5t-223 90t-96 232h-119v-211q0 -53 17 -69.5t73 -16.5v-18h-286v18q56 0 73 16.5t18 69.5v455q-1 53 -18.5 69t-72.5 16v18h286v-18q-56 0 -73 -16.5t-17 -68.5v-199zM660 630
q-88 0 -142.5 -82.5t-54.5 -216.5q0 -133 54.5 -216t142.5 -83q92 0 147.5 82t55.5 218q0 133 -56.5 215.5t-146.5 82.5z" />
    <glyph glyph-name="afii10049" unicode="&#x42f;" horiz-adv-x="667" 
d="M441 311h-52l-236 -311h-173v19q45 -1 67 14.5t77 85.5l153 201q-64 18 -98 48q-56 51 -56 125q0 56 33 99t89 59q36 11 116 11h276v-18q-56 0 -73.5 -16.5t-17.5 -69.5v-454q0 -53 17.5 -69.5t73.5 -16.5v-18h-284v18q54 1 70.5 17t17.5 69v207zM441 346v264
q-33 11 -60 11q-63 0 -102 -37.5t-39 -97.5q0 -65 49 -102.5t134 -37.5h18z" />
    <glyph glyph-name="afii10065" unicode="&#x430;" horiz-adv-x="444" 
d="M425 73l12 -11q-46 -69 -104 -69q-48 0 -57 70q-78 -70 -140 -70q-42 0 -71 32t-29 78q0 78 83 122q49 27 157 67v21q0 61 -11 84q-17 32 -61 32q-52 0 -66 -38q-5 -13 -5 -52q0 -17 -12 -29.5t-28 -12.5q-17 0 -30 14.5t-13 33.5q0 45 50 78.5t118 33.5q78 0 114 -39
q27 -32 27 -101v-218q0 -29 4 -39t16 -10q20 0 46 23zM276 98v162q-95 -38 -125.5 -64t-30.5 -67q0 -33 20 -54t51 -21q44 0 85 44z" />
    <glyph glyph-name="afii10066" unicode="&#x431;" horiz-adv-x="509" 
d="M280 561h-16q-89 0 -130 -92q-15 -31 -28 -122q62 110 158 110q84 0 138 -63.5t54 -161.5q0 -100 -58 -169.5t-141 -69.5q-49 0 -91 24t-66 66q-40 71 -40 196q0 82 16 156t42 115q55 82 155 82h23q13 -1 30 -1q43 0 60.5 5.5t22.5 21.5h13q-10 -53 -38 -75.5t-86 -22.5
q-10 0 -18 1zM251 422q-53 0 -83 -55q-22 -43 -22 -122q0 -100 33 -158.5t89 -58.5q45 0 72 47.5t27 126.5q0 99 -32 159.5t-84 60.5z" />
    <glyph glyph-name="afii10067" unicode="&#x432;" horiz-adv-x="472" 
d="M30 450h185q84 0 122 -19q67 -35 67 -96q0 -42 -31 -73q-15 -15 -47 -29q97 -30 97 -109q0 -34 -19.5 -63t-53.5 -44q-26 -11 -53.5 -14t-109.5 -3h-157v17h17q38 2 47 18.5t10 85.5v208q-2 70 -10.5 86t-46.5 18h-17v17zM183 421v-170q23 -4 37 -4q47 0 72.5 23t25.5 65
q0 40 -28.5 64.5t-75.5 24.5q-10 0 -31 -3zM183 216v-182q24 -6 46 -6q47 0 76 26.5t29 69.5q0 45 -30.5 71t-83.5 26q-16 0 -37 -5z" />
    <glyph glyph-name="afii10068" unicode="&#x433;" horiz-adv-x="410" 
d="M181 411v-291q0 -65 10 -83.5t47 -19.5h16v-17h-226v17h17q38 2 47 18.5t10 84.5v210q-1 69 -10 85t-47 18h-17v17h348l16 -139h-17q-8 53 -34 76.5t-77 23.5h-83z" />
    <glyph glyph-name="afii10069" unicode="&#x434;" horiz-adv-x="509" 
d="M482 450v-17h-16q-37 -1 -47 -19t-10 -84v-265q0 -24 5.5 -30t27.5 -5h36l9 -141h-17q-6 58 -32 84.5t-76 26.5h-224q-50 1 -75.5 -25.5t-32.5 -85.5h-17l9 141h27q63 0 84 68q11 34 19.5 107.5t8.5 135.5q0 52 -12.5 72t-43.5 20h-14v17h391zM330 39v372h-133
q0 -177 -13 -262.5t-43 -109.5h189z" />
    <glyph glyph-name="afii10070" unicode="&#x435;" horiz-adv-x="444" 
d="M396 185l18 -8q-25 -76 -49 -109q-53 -75 -139 -75q-79 0 -131.5 66.5t-52.5 165.5q0 100 54 166t136 66q74 0 118 -50t46 -136h-280q2 -88 41 -142.5t98 -54.5q86 0 141 111zM117 310h176q-2 50 -24 77t-60 27t-62 -27.5t-30 -76.5z" />
    <glyph glyph-name="afii10072" unicode="&#x436;" horiz-adv-x="691" 
d="M307 210h-28l-124 -157q-10 -13 -10 -23q0 -13 18 -13h18v-17h-199v17h8q48 0 102 68l133 166l-110 123q-53 60 -117 59v17h183v-17h-9q-30 0 -30 -22q0 -13 13 -29l125 -141h27v89q-1 68 -10 84.5t-47 18.5h-18v17h227v-17h-18q-38 -2 -46.5 -18.5t-9.5 -84.5v-89h26
l125 141q14 15 14 29q0 22 -31 22h-9v17h183v-17q-34 1 -61 -13t-56 -46l-109 -123l133 -166q29 -37 52.5 -52.5t50.5 -15.5h6v-17h-199v17h18q19 0 19 13q0 11 -11 23l-123 157h-28v-89q1 -69 9.5 -85.5t46.5 -18.5h18v-17h-227v17h18q38 2 47 18.5t10 85.5v89z" />
    <glyph glyph-name="afii10073" unicode="&#x437;" horiz-adv-x="395" 
d="M53 313h-17l8 142h14q2 -16 21 -16q11 0 38 8q40 10 73 10q70 0 109 -26.5t39 -74.5q0 -52 -41 -84q-17 -13 -51 -24q53 -11 76 -33q38 -35 38 -88q0 -58 -50.5 -96t-125.5 -38q-60 0 -101.5 25t-79.5 84l18 12q65 -78 142 -78q48 0 78 27t30 70t-30 71q-25 24 -84 24
q-10 0 -17 -2v38h32q38 0 62.5 22.5t24.5 58.5q0 38 -24.5 61t-66.5 23q-97 0 -115 -116z" />
    <glyph glyph-name="afii10074" unicode="&#x438;" horiz-adv-x="535" 
d="M296 450h226v-17h-16q-37 -1 -47 -19.5t-10 -84.5v-208q0 -66 10 -84.5t47 -19.5h16v-17h-226v17h17q38 2 47 18.5t10 85.5v211l-201 -265q2 -28 14.5 -39t40.5 -11h16v-17h-226v17h17q38 2 47 18.5t10 85.5v208q-1 69 -10 85.5t-47 18.5h-17v17h226v-17h-16
q-37 -1 -47 -19.5t-10 -84.5v-214l201 268q-3 51 -55 50h-17v17z" />
    <glyph glyph-name="afii10075" unicode="&#x439;" horiz-adv-x="535" 
d="M369 625q16 0 26 -10.5t10 -27.5q0 -40 -38.5 -66t-96.5 -26q-60 0 -99.5 26t-39.5 66q0 17 10 27.5t26 10.5q14 0 23.5 -10t9.5 -25q0 -10 -4 -18q-3 -9 -3 -14q0 -17 22 -28.5t54 -11.5q29 0 51.5 10.5t22.5 23.5q0 5 -3 17q-4 16 -4 21q0 15 9.5 25t23.5 10zM296 450
h226v-17h-16q-37 -1 -47 -19.5t-10 -84.5v-208q0 -66 10 -84.5t47 -19.5h16v-17h-226v17h17q38 2 47 18.5t10 85.5v211l-201 -265q2 -28 14.5 -39t40.5 -11h16v-17h-226v17h17q38 2 47 18.5t10 85.5v208q-1 69 -10 85.5t-47 18.5h-17v17h226v-17h-16q-37 -1 -47 -19.5
t-10 -84.5v-214l201 268q-3 51 -55 50h-17v17z" />
    <glyph glyph-name="afii10076" unicode="&#x43a;" horiz-adv-x="486" 
d="M159 216v-95q0 -66 10 -84t47 -20h16v-17h-226v17h17q38 2 46.5 18.5t10.5 85.5v209q-2 69 -10.5 85t-46.5 18h-17v17h226v-17h-16q-37 -1 -47 -19.5t-10 -83.5v-98l171 153q16 15 16 24q0 24 -31 24h-12v17h191v-17q-58 -4 -99 -41l-165 -142l202 -195q40 -38 70 -38h7
v-17h-206v17h9q18 0 23.5 2.5t5.5 9.5q0 9 -16 25l-162 162h-4z" />
    <glyph glyph-name="afii10077" unicode="&#x43b;" horiz-adv-x="499" 
d="M68 450h398v-17h-16q-37 -1 -47 -19t-10 -84v-209q0 -66 10 -84.5t47 -19.5h16v-17h-226v17h17q38 2 47 18.5t10 85.5v290h-134q1 -62 1 -95q0 -176 -30.5 -251.5t-100.5 -75.5q-29 0 -45.5 12.5t-16.5 34.5q0 17 12.5 29t30.5 12q12 0 31 -10q16 -9 25 -9q61 0 61 268
q0 65 -13.5 86t-54.5 21h-12v17z" />
    <glyph glyph-name="afii10078" unicode="&#x43c;" horiz-adv-x="633" 
d="M462 359l-159 -362h-16l-157 360v-271q-2 -38 10.5 -53t46.5 -16h9v-17h-176v17h10q39 1 54.5 16t14.5 53v274q1 40 -14.5 56t-54.5 17h-10v17h160l141 -338l147 338h145v-17h-15q-37 -1 -47.5 -19.5t-9.5 -84.5v-208q-1 -66 9.5 -84.5t47.5 -19.5h15v-17h-226v17h18
q38 2 47 18.5t10 85.5v238z" />
    <glyph glyph-name="afii10079" unicode="&#x43d;" horiz-adv-x="535" 
d="M160 254h215v76q-1 68 -10 84.5t-47 18.5h-17v17h226v-17h-16q-37 -1 -47 -19.5t-10 -83.5v-209q0 -66 10 -84.5t47 -19.5h16v-17h-226v17h17q38 2 47 18.5t10 85.5v97h-215v-97q0 -66 10 -84.5t47 -19.5h16v-17h-226v17h17q38 2 47 18.5t10 85.5v209q-1 68 -10 84.5
t-47 18.5h-17v17h226v-17h-16q-37 -1 -47 -19.5t-10 -83.5v-76z" />
    <glyph glyph-name="afii10080" unicode="&#x43e;" horiz-adv-x="500" 
d="M255 457q91 0 151 -63.5t60 -161.5q0 -100 -64 -169.5t-156 -69.5q-91 0 -152 64.5t-61 161.5q0 106 70 174q63 64 152 64zM242 422q-57 0 -88.5 -50t-31.5 -141q0 -90 37.5 -146.5t98.5 -56.5q54 0 86.5 47.5t32.5 126.5q0 98 -37.5 159t-97.5 61z" />
    <glyph glyph-name="afii10081" unicode="&#x43f;" horiz-adv-x="535" 
d="M14 450h508v-17h-16q-37 -1 -47 -19t-10 -84v-209q0 -66 10 -84.5t47 -19.5h16v-17h-226v17h17q38 2 47 18.5t10 85.5v290h-203v-290q0 -66 10 -84.5t47 -19.5h16v-17h-226v17h17q38 2 47 18.5t10 85.5v209q-1 69 -10 85t-47 18h-17v17z" />
    <glyph glyph-name="afii10082" unicode="&#x440;" horiz-adv-x="500" 
d="M166 25v-64q1 -66 11.5 -84.5t47.5 -19.5h12v-17h-227v17h18q23 0 34.5 7t17.5 24q2 7 4 35l3 38v358q0 39 -8.5 54t-29.5 15q-11 0 -20 -4l-10 -3l-6 14q90 37 153 68v-94q42 50 72 69t67 19q68 0 116.5 -66t48.5 -157q0 -97 -62.5 -169t-146.5 -72q-43 0 -95 32z
M166 322v-165q0 -67 17 -91q26 -38 77 -38q53 0 86.5 49.5t33.5 127.5q0 82 -32.5 131t-85.5 49q-28 0 -46 -12t-50 -51z" />
    <glyph glyph-name="afii10083" unicode="&#x441;" horiz-adv-x="444" 
d="M397 181l17 -8q-55 -180 -185 -180q-40 0 -78.5 19.5t-64.5 53.5q-48 62 -48 155q0 104 59 170t151 66q62 0 106 -30t44 -73q0 -19 -13.5 -31t-35.5 -12q-45 0 -53 51q-4 31 -18 44.5t-43 13.5q-52 0 -83 -46t-31 -122q0 -82 37 -130t100 -48q100 0 139 107z" />
    <glyph glyph-name="afii10084" unicode="&#x442;" horiz-adv-x="437" 
d="M259 411v-290q0 -66 10 -84.5t47 -19.5h16v-17h-226v17h17q38 2 47 18.5t10 85.5v290h-26q-60 -1 -86 -22.5t-36 -77.5h-16l13 139h380l12 -139h-15q-10 55 -35.5 78t-74.5 22h-37z" />
    <glyph glyph-name="afii10085" unicode="&#x443;" horiz-adv-x="500" 
d="M236 16l-106 274q-41 103 -52 120.5t-36 21.5l-15 1v17h196v-17h-8q-39 1 -39 -31q0 -12 19 -62l84 -221l81 217q19 52 19 69q0 30 -38 28h-5v17h143v-17l-10 -1q-23 -5 -34 -20t-31 -69l-122 -320q-41 -108 -74 -139q-39 -40 -91 -40q-28 0 -46.5 15t-18.5 37
q0 19 15 33t36 14q14 0 39 -10q16 -8 23 -8q35 0 71 91z" />
    <glyph glyph-name="afii10086" unicode="&#x444;" horiz-adv-x="648" 
d="M435 -160h-227v17h18q23 0 34.5 7t17.5 24q3 6 5 35l2 38v44q-47 -12 -77 -12q-76 0 -128 66t-52 161q0 92 53 163t121 71q25 0 83 -14v84q0 45 -9 57q-9 11 -27 11q-14 0 -32 -7l-6 14q79 32 152 69v-223q57 10 81 10q76 0 125.5 -63t49.5 -160t-55 -168t-129 -71
q-24 0 -72 14v-46q1 -66 11.5 -84.5t47.5 -19.5h13v-17zM363 403v-345q40 -30 72 -30q44 0 69.5 46t25.5 128q0 102 -30.5 161t-82.5 59q-26 0 -54 -19zM285 46v342q-39 34 -72 34q-52 0 -74 -55t-22 -135q0 -93 30.5 -148.5t81.5 -55.5q26 0 56 18z" />
    <glyph glyph-name="afii10087" unicode="&#x445;" horiz-adv-x="500" 
d="M316 321l-39 -58q104 -168 135 -206.5t64 -39.5h7v-17h-206v17h8q33 0 33 20q0 15 -18 42l-68 110l-67 -109q-22 -35 -22 -45q0 -18 31 -18h11v-17h-166v16l19 1q28 4 46 21.5t59 82.5l68 106l-45 73q-60 97 -76 114t-50 20h-8v16h200v-16h-7q-30 0 -30 -17q0 -19 23 -53
l40 -64l57 82q13 19 13 32q1 9 -9 14.5t-26 5.5h-8v16h161v-16h-5q-36 -4 -55 -21t-70 -92z" />
    <glyph glyph-name="afii10088" unicode="&#x446;" horiz-adv-x="535" 
d="M522 -111h-17q-8 59 -32 84t-76 27h-384v17h17q38 2 47 18t10 85v209q-1 69 -10 85.5t-47 18.5h-17v17h226v-17h-16q-37 -1 -47 -19.5t-10 -84.5v-290h202v290q-1 69 -10 85.5t-47 18.5h-17v17h226v-17h-16q-37 -1 -47 -19.5t-10 -84.5v-197q0 -66 9 -84.5t42 -18.5
q8 0 14 1z" />
    <glyph glyph-name="afii10089" unicode="&#x447;" horiz-adv-x="503" 
d="M332 121v75q-72 -18 -126 -18q-86 0 -115 46q-14 23 -14 78v27q-1 69 -10 85.5t-47 18.5h-17v17h219v-17h-9q-37 -1 -47 -19.5t-10 -84.5v-27q0 -50 20.5 -72.5t65.5 -22.5q39 0 90 14v108q-1 69 -10 85.5t-47 18.5h-11v17h220v-17h-16q-37 -1 -47 -19.5t-10 -84.5v-208
q0 -66 10 -84.5t47 -19.5h16v-17h-240v17h31q38 2 47 18.5t10 85.5z" />
    <glyph glyph-name="afii10090" unicode="&#x448;" horiz-adv-x="770" 
d="M754 0h-738v17h17q38 2 47 18t10 85v209q-1 69 -10 85.5t-47 18.5h-17v17h213v-17h-9q-33 -2 -42 -21t-9 -83v-289h178v289q-1 69 -10 85.5t-47 18.5h-11v17h213v-17h-9q-37 -1 -47 -19.5t-10 -84.5v-289h176v289q-2 68 -9.5 84t-40.5 20h-11v17h213v-17h-16
q-37 -1 -47 -20t-10 -87v-206q0 -66 10 -84t47 -19h16v-17z" />
    <glyph glyph-name="afii10091" unicode="&#x449;" horiz-adv-x="770" 
d="M756 -111h-17q-8 64 -36 88.5t-91 22.5h-598v17h17q38 2 47 18t10 85v209q-1 69 -10 85.5t-47 18.5h-17v17h213v-17h-9q-33 -2 -42 -21t-9 -83v-289h178v289q-1 69 -10 85.5t-47 18.5h-11v17h213v-17h-9q-37 -1 -47 -19.5t-10 -84.5v-289h176v289q-2 68 -9.5 84t-40.5 20
h-11v17h213v-17h-16q-37 -1 -47 -20t-10 -87v-225q0 -46 10 -58.5t47 -13.5h12z" />
    <glyph glyph-name="afii10092" unicode="&#x44a;" horiz-adv-x="517" 
d="M313 450v-17h-16q-37 -1 -47 -19t-10 -84v-74q47 4 70 4q85 0 136.5 -35t51.5 -93q0 -61 -50.5 -96.5t-137.5 -35.5h-224v17h18q38 2 47 18.5t10 85.5v290h-27q-50 1 -74 -21t-38 -79h-16l13 139h294zM240 228v-188q36 -7 54 -7q53 0 84 25t31 68q0 49 -34.5 76.5
t-96.5 27.5q-21 0 -38 -2z" />
    <glyph glyph-name="afii10093" unicode="&#x44b;" horiz-adv-x="672" 
d="M21 450h226v-17h-16q-37 -1 -47 -19t-10 -84v-74q47 4 69 4q85 0 137 -35t52 -93q0 -61 -50 -96.5t-137 -35.5h-224v17h17q38 2 47 18.5t10 85.5v209q-1 68 -10 84.5t-47 18.5h-17v17zM174 228v-188q36 -7 54 -7q53 0 84 25t31 68q0 49 -34 76.5t-96 27.5q-21 0 -39 -2z
M652 17v-17h-226v17h17q38 2 47 18.5t10 85.5v208q-1 69 -10 85.5t-47 18.5h-17v17h226v-17h-16q-37 -1 -47 -19.5t-10 -84.5v-208q0 -66 10 -84.5t47 -19.5h16z" />
    <glyph glyph-name="afii10094" unicode="&#x44c;" horiz-adv-x="456" 
d="M20 450h226v-17h-16q-37 -1 -47 -19t-10 -84v-74q47 4 69 4q85 0 137 -35t52 -93q0 -61 -50 -96.5t-137 -35.5h-224v17h17q38 2 47 18.5t10 85.5v209q-1 68 -10 84.5t-47 18.5h-17v17zM173 228v-188q36 -7 54 -7q53 0 84 25t31 68q0 49 -34 76.5t-96 27.5q-21 0 -39 -2z
" />
    <glyph glyph-name="afii10095" unicode="&#x44d;" horiz-adv-x="429" 
d="M29 299l7 151h12q7 -16 21 -16q10 0 50 12q36 11 71 11q98 0 159 -64t61 -167q0 -99 -63.5 -166t-157.5 -67q-58 0 -100 25t-84 85l17 13q36 -42 70.5 -60.5t78.5 -18.5q80 0 121 70q25 42 26 112h-188v36h188q-6 175 -133 175q-114 0 -140 -131h-16z" />
    <glyph glyph-name="afii10096" unicode="&#x44e;" horiz-adv-x="747" 
d="M274 218h-98v-97q0 -66 10 -84.5t47 -19.5h16v-17h-226v17h17q38 2 47 18.5t10 85.5v209q-1 68 -10 84.5t-47 18.5h-17v17h226v-17h-16q-37 -1 -47 -19.5t-10 -83.5v-76h100q14 91 74 147t143 56q94 0 154 -63t60 -161q0 -101 -64 -170.5t-156 -69.5q-91 0 -151 63.5
t-62 161.5zM483 422q-57 0 -88.5 -50t-31.5 -141q0 -90 37.5 -146.5t98.5 -56.5q54 0 86.5 48t32.5 127q0 97 -37.5 158t-97.5 61z" />
    <glyph glyph-name="afii10097" unicode="&#x44f;" horiz-adv-x="460" 
d="M301 121v83q-12 1 -21 1q-21 0 -35 -9t-32 -34l-113 -162h-115v17h8q31 -2 54 30l75 108q15 21 29.5 30.5t40.5 15.5q-76 7 -111 35.5t-35 83.5q0 69 57 106q40 24 120 24h230v-17h-16q-37 -1 -47 -19.5t-10 -84.5v-208q0 -66 10 -84.5t47 -19.5h16v-17h-227v17h18
q38 2 46.5 18.5t10.5 85.5zM301 231v184q-36 7 -55 7q-52 0 -83 -28t-31 -75q0 -44 32 -69t87 -25q22 0 50 6z" />
    <glyph glyph-name="uni0450" unicode="&#x450;" horiz-adv-x="444" 
d="M415 164l16 -7q-65 -167 -212 -167q-86 0 -136.5 60.5t-50.5 163.5q0 129 74 194q58 52 135 52q81 0 128 -57q33 -42 43 -126h-308q3 -80 27 -132q44 -86 129 -86q48 0 83.5 24t71.5 81zM106 309h204q-10 65 -31 90t-67 25q-90 0 -106 -115zM347 507h-40l-154 97
q-29 18 -29 43q0 31 34 31q19 0 42 -23z" />
    <glyph glyph-name="afii10071" unicode="&#x451;" horiz-adv-x="444" 
d="M394 185l18 -8q-25 -76 -49 -109q-53 -75 -139 -75q-79 0 -131.5 66.5t-52.5 165.5q0 100 54 166t136 66q74 0 118 -50t46 -136h-280q2 -88 41 -142.5t98 -54.5q86 0 141 111zM115 310h176q-2 50 -24 77t-60 27t-62 -27.5t-30 -76.5zM146 626q21 0 36 -15t15 -35
q0 -21 -15 -36t-37 -15q-21 0 -36 15t-15 36t15 35.5t37 14.5zM299 626q21 0 36 -15t15 -35q0 -21 -15 -36t-37 -15q-21 0 -36 15t-15 36t15 35.5t37 14.5z" />
    <glyph glyph-name="afii10099" unicode="&#x452;" horiz-adv-x="483" 
d="M162 668v-131h155v-29h-155v-130q37 42 70.5 59.5t76.5 17.5q76 0 112 -65t36 -205q0 -163 -47.5 -257.5t-129.5 -94.5q-37 0 -63 20t-26 49q0 19 10.5 30t28.5 11q19 0 30.5 -12.5t10.5 -30.5l-1 -17q-1 -11 8 -19t22 -8q25 0 42 29q30 52 30 253q0 101 -7.5 149.5
t-26.5 76.5q-25 36 -66 36q-55 0 -110 -61v-218q0 -66 10 -84.5t47 -19.5h14v-17h-224v17h17q37 1 47 19.5t10 84.5v387h-97v29h97q-1 27 -4 35q-8 20 -32 20q-13 0 -31 -7l-7 14q79 32 153 69z" />
    <glyph glyph-name="afii10100" unicode="&#x453;" horiz-adv-x="410" 
d="M177 411v-291q0 -65 10 -83.5t47 -19.5h16v-17h-226v17h17q38 2 47 18.5t10 84.5v210q-1 69 -10 85t-47 18h-17v17h348l16 -139h-17q-8 53 -34 76.5t-77 23.5h-83zM297 633l-112 -137l-13 10l42 127h83z" />
    <glyph glyph-name="afii10101" unicode="&#x454;" horiz-adv-x="429" 
d="M389 450l7 -151h-16q-26 131 -140 131q-127 0 -133 -175h188v-36h-188q1 -78 33 -123q41 -59 114 -59q44 0 78.5 18.5t70.5 60.5l17 -13q-42 -60 -84 -85t-100 -25q-94 0 -157.5 67t-63.5 166q0 101 61 166t156 65q41 0 96 -18q18 -5 29 -5q12 0 20 16h12z" />
    <glyph glyph-name="afii10102" unicode="&#x455;" horiz-adv-x="389" 
d="M81 -3h-17v162h17q27 -130 123 -130q29 0 48 17t19 43q0 48 -72 89l-39 22q-45 24 -64 41q-44 38 -44 90q0 55 38 90.5t96 35.5q29 0 68 -11q19 -5 24 -5q8 0 14 12h18v-142h-17q-20 113 -109 113q-28 0 -46.5 -16.5t-18.5 -41.5q0 -23 16.5 -42t56.5 -40l50 -26
q104 -54 104 -138q0 -56 -39.5 -91.5t-101.5 -35.5q-36 0 -91 15q-12 3 -17 3q-13 0 -16 -14z" />
    <glyph glyph-name="afii10103" unicode="&#x456;" horiz-adv-x="278" 
d="M181 463v-342q0 -66 10 -84.5t47 -19.5h16v-17h-226v17h17q38 2 47 18.5t10 85.5v198q0 42 -7 55.5t-29 13.5q-6 0 -20 -4l-11 -3l-7 14q90 36 153 68zM136 652q21 0 36 -15t15 -35q0 -21 -15 -36t-36 -15q-22 0 -37 15t-15 36t15 35.5t37 14.5z" />
    <glyph glyph-name="afii10104" unicode="&#x457;" horiz-adv-x="278" 
d="M181 463v-342q0 -66 10 -84.5t47 -19.5h16v-17h-226v17h17q38 2 47 18.5t10 85.5v198q0 42 -7 55.5t-29 13.5q-6 0 -20 -4l-11 -3l-7 14q90 36 153 68zM63 626q21 0 36 -15t15 -35q0 -21 -15 -36t-37 -15q-21 0 -36 15t-15 36t15 35.5t37 14.5zM215 626q21 0 36 -15
t15 -35q0 -21 -15 -36t-37 -15q-21 0 -36 15t-15 36t15 35.5t37 14.5z" />
    <glyph glyph-name="afii10105" unicode="&#x458;" horiz-adv-x="278" 
d="M193 463v-397q0 -64 -4 -91.5t-17 -52.5q-20 -37 -57.5 -58t-83.5 -21q-35 0 -57.5 14t-22.5 36q0 16 12 27.5t29 11.5q22 0 53 -28q19 -19 34 -19q20 0 27.5 25t7.5 90v319q0 42 -7 55.5t-29 13.5q-8 0 -20 -4l-11 -3l-7 14q90 36 153 68zM147 652q21 0 36 -15t15 -35
q0 -21 -15 -36t-36 -15q-22 0 -37 15t-15 36t15 35.5t37 14.5z" />
    <glyph glyph-name="afii10106" unicode="&#x459;" horiz-adv-x="727" 
d="M427 330v-74q47 4 70 4q85 0 136.5 -35t51.5 -93q0 -61 -50 -96.5t-137 -35.5h-224v17h17q38 2 47 18.5t10 85.5v290h-134q1 -67 1 -94q0 -177 -30 -252.5t-101 -75.5q-29 0 -45.5 12.5t-16.5 34.5q0 17 12.5 29t31.5 12q10 0 30 -10q15 -9 26 -9q60 0 60 269
q0 64 -13.5 85t-54.5 21h-12v17h398v-17h-16q-37 -1 -47 -19t-10 -84zM427 228v-188q32 -7 55 -7q52 0 83 25t31 68q0 49 -34.5 76.5t-96.5 27.5q-20 0 -38 -2z" />
    <glyph glyph-name="afii10107" unicode="&#x45a;" horiz-adv-x="723" 
d="M374 254v76q-1 68 -9.5 84.5t-46.5 18.5h-18v17h226v-17h-16q-37 -1 -47 -19.5t-10 -83.5v-74q45 4 69 4q85 0 137 -35t52 -93q0 -61 -50.5 -96.5t-136.5 -35.5h-224v17h17q38 2 47 18.5t10 85.5v97h-215v-97q0 -66 10 -84t47 -20h16v-17h-226v17h17q38 2 47 18.5
t10 85.5v209q-1 68 -10 84.5t-47 18.5h-17v17h226v-17h-16q-37 -1 -47 -19.5t-10 -83.5v-76h215zM453 228v-188q36 -7 54 -7q53 0 84 25t31 68q0 49 -34 76.5t-96 27.5q-22 0 -39 -2z" />
    <glyph glyph-name="afii10108" unicode="&#x45b;" horiz-adv-x="500" 
d="M160 537h155v-29h-155v-136q48 49 80.5 67t71.5 18q29 0 54.5 -15.5t37.5 -40.5q20 -40 20 -119v-161q0 -66 9.5 -84.5t46.5 -19.5h10v-17h-212v17h11q36 1 46 19.5t10 84.5v161q0 49 -9 73q-6 19 -24 32t-38 13q-46 0 -114 -63v-216q0 -66 10 -84.5t47 -19.5h14v-17
h-224v17h17q37 1 47 19.5t10 84.5v387h-97v29h97v6q-1 27 -9 38t-27 11q-10 0 -31 -7l-7 14q79 32 153 69v-131z" />
    <glyph glyph-name="afii10109" unicode="&#x45c;" horiz-adv-x="486" 
d="M159 216v-95q0 -66 10 -84t47 -20h16v-17h-226v17h17q38 2 46.5 18.5t10.5 85.5v209q-2 69 -10.5 85t-46.5 18h-17v17h226v-17h-16q-37 -1 -47 -19.5t-10 -83.5v-98l171 153q16 15 16 24q0 24 -31 24h-12v17h191v-17q-58 -4 -99 -41l-165 -142l202 -195q40 -38 70 -38h7
v-17h-206v17h9q18 0 23.5 2.5t5.5 9.5q0 9 -16 25l-162 162h-4zM362 633l-112 -137l-13 10l42 127h83z" />
    <glyph glyph-name="uni045D" unicode="&#x45d;" horiz-adv-x="535" 
d="M296 450h226v-17h-16q-37 -1 -47 -19.5t-10 -84.5v-208q0 -66 10 -84.5t47 -19.5h16v-17h-226v17h17q38 2 47 18.5t10 85.5v211l-201 -265q2 -28 14.5 -39t40.5 -11h16v-17h-226v17h17q38 2 47 18.5t10 85.5v208q-1 69 -10 85.5t-47 18.5h-17v17h226v-17h-16
q-37 -1 -47 -19.5t-10 -84.5v-214l201 268q-3 51 -55 50h-17v17zM354 507h-40l-154 97q-29 17 -29 43q0 31 34 31q18 0 42 -23z" />
    <glyph glyph-name="afii10110" unicode="&#x45e;" horiz-adv-x="500" 
d="M236 16l-106 274q-41 103 -52 120.5t-36 21.5l-15 1v17h196v-17h-8q-39 1 -39 -31q0 -12 19 -62l84 -221l81 217q19 52 19 69q0 30 -38 28h-5v17h143v-17l-10 -1q-23 -5 -34 -20t-31 -69l-122 -320q-41 -108 -74 -139q-39 -40 -91 -40q-28 0 -46.5 15t-18.5 37
q0 19 15 33t36 14q14 0 39 -10q16 -8 23 -8q35 0 71 91zM374 625q16 0 26 -10.5t10 -27.5q0 -40 -38.5 -66t-96.5 -26q-60 0 -99.5 26t-39.5 66q0 17 10 27.5t26 10.5q14 0 23 -10t9 -25q0 -9 -3 -18t-3 -14q0 -17 22 -28.5t54 -11.5q30 0 52 10t22 24q0 5 -3 17
q-4 15 -4 21q0 15 9.5 25t23.5 10z" />
    <glyph glyph-name="afii10193" unicode="&#x45f;" horiz-adv-x="535" 
d="M4 0v17h17q38 2 47 18t10 85v209q-1 69 -10 85.5t-47 18.5h-17v17h226v-17h-16q-37 -1 -47 -19.5t-10 -84.5v-289h220l2 -1v290q-1 69 -10 85.5t-47 18.5h-18v17h227v-17h-16q-37 -1 -47 -19.5t-10 -84.5v-209q0 -66 10 -84t47 -19h16v-17h-163q-87 -1 -91 -148h-18
q-5 146 -92 148h-163z" />
    <glyph glyph-name="uni0462" unicode="&#x462;" horiz-adv-x="671" 
d="M205 536h-98q-37 -1 -54.5 -14t-27.5 -50h-18l6 106h190v3q-2 34 -17.5 45.5t-64.5 16.5v19h280v-19q-54 -1 -72 -14t-21 -51h201l6 -106h-19q-10 36 -27 49.5t-54 14.5h-108v-156q114 0 187 -20q74 -19 114.5 -64.5t40.5 -109.5q0 -47 -22 -87t-61 -63q-64 -36 -168 -36
h-277v19q56 6 69.5 20.5t14.5 69.5v427zM307 339v-268q0 -21 7 -27.5t31 -6.5q92 0 132 31q55 44 55 120q0 107 -101 138q-27 9 -46.5 11t-77.5 2z" />
    <glyph glyph-name="uni0463" unicode="&#x463;" horiz-adv-x="543" 
d="M161 411h-87q-27 0 -37.5 -5t-15.5 -21h-15l4 65h151v114q0 34 -8.5 47.5t-30.5 13.5q-20 0 -34 -2h-6v16q94 23 159 44l4 -2v-231h162l4 -65h-15q-5 16 -15.5 21t-37.5 5h-98v-155q48 4 71 4q84 0 135.5 -35t51.5 -93q0 -61 -50.5 -96.5t-137.5 -35.5h-233v15
q51 2 64 16.5t15 70.5v309zM245 228v-188q36 -7 54 -7q53 0 84 25t31 68q0 49 -34 76.5t-95 27.5q-21 0 -40 -2z" />
    </font>
</defs>
</svg>
