<?xml version="1.0" standalone="no"?>
<!DOCTYPE svg PUBLIC "-//W3C//DTD SVG 1.1//EN" "http://www.w3.org/Graphics/SVG/1.1/DTD/svg11.dtd" >
<svg xmlns="http://www.w3.org/2000/svg" xmlns:xlink="http://www.w3.org/1999/xlink" version="1.1">
<metadata>
Created by FontForge 20170731 at Tue Aug 11 17:08:06 2015
 By ,,,
Copyright 2014 by (URW)++ Design &#38; Development GmbH
</metadata>
<defs>
<font id="NimbusRomNo9L-RegIta" horiz-adv-x="500" >
  <font-face 
    font-family="NimbusRomNo9L"
    font-weight="400"
    font-style="italic"
    font-stretch="normal"
    units-per-em="1000"
    panose-1="0 0 5 0 0 0 0 0 0 0"
    ascent="693"
    descent="-307"
    x-height="434"
    cap-height="662"
    bbox="-165 -299 1085 951"
    underline-thickness="50"
    underline-position="-200"
    slope="-15.5"
    unicode-range="U+0020-FB04"
  />
<missing-glyph horiz-adv-x="250" 
 />
    <glyph glyph-name="ff" unicode="ff" horiz-adv-x="566" 
d="M439 450l1 3q7 31 23 77q25 76 73 118t107 42q40 0 65 -18t25 -46q0 -20 -14 -34t-35 -14q-19 0 -32 11t-13 27q0 6 3 18q4 8 4 14q0 11 -15 11q-36 0 -60 -47q-16 -32 -40 -134l-5 -18l-2 -10h109l-9 -38h-109l-68 -292q-37 -156 -73 -224q-28 -53 -59.5 -76.5
t-75.5 -23.5q-34 0 -57 17.5t-23 43.5q0 20 13.5 33t33.5 13q18 0 29 -10t11 -25q0 -10 -6 -21q-4 -8 -4 -11q0 -4 10 -4q27 0 43.5 26.5t33.5 94.5l107 459h-197l-68 -292q-14 -61 -36.5 -129.5t-36.5 -94.5q-28 -53 -60 -76.5t-75 -23.5q-34 0 -57 17.5t-23 43.5
q0 19 14 32.5t34 13.5q17 0 28.5 -10t11.5 -25q0 -11 -7 -21q-4 -6 -4 -11q0 -4 10 -4q27 0 44 27t33 94l107 459h-91l8 38h92l1 3q29 116 67 163q59 74 136 74q40 0 65 -18t25 -46q0 -20 -14 -34t-35 -14q-19 0 -32 11t-13 27q0 6 3 18q4 8 4 14q0 11 -15 11q-35 0 -60 -47
q-16 -33 -40 -134l-5 -18l-2 -10h197z" />
    <glyph glyph-name="fi" unicode="fi" 
d="M57 450h96l7 28q49 212 223 212q49 0 77.5 -17.5t28.5 -47.5q0 -21 -13.5 -34.5t-34.5 -13.5q-18 0 -31 11t-13 26q0 4 3 12q3 6 3 10q0 23 -31 23q-60 0 -90 -59q-12 -23 -17 -39.5t-20 -81.5l-7 -29h114q82 2 121 6l15 1q14 0 14 -16q0 -18 -17 -75l-75 -276
q-4 -16 -4 -27q0 -12 9 -12q24 0 67 76l26 -17q-44 -66 -61 -83q-37 -34 -76 -34q-24 0 -38 15t-14 40q0 22 7 44l72 263q1 5 1 9q0 5 3 17l1 15q0 10 -7.5 13t-32.5 3h-134l-68 -291q-37 -158 -73 -225q-28 -53 -60 -76.5t-75 -23.5q-34 0 -57 17.5t-23 43.5q0 19 14 32.5
t34 13.5q17 0 28.5 -10t11.5 -25q0 -11 -7 -21q-4 -6 -4 -11q0 -4 10 -4q26 0 43.5 27.5t33.5 93.5l107 459h-96z" />
    <glyph glyph-name="fl" unicode="fl" 
d="M225 450h105l-9 -38h-105l-68 -291q-37 -158 -73 -225q-28 -53 -60 -76.5t-75 -23.5q-34 0 -57 17.5t-23 43.5q0 19 14 32.5t34 13.5q17 0 28.5 -10t11.5 -25q0 -11 -7 -21q-4 -6 -4 -11q0 -4 10 -4q26 0 43.5 27.5t33.5 93.5l107 459h-96l9 38h96l2 9q28 118 86 174.5
t150 56.5q26 0 65 -8q26 -6 36 -6q15 0 32 4q13 3 16 3q13 0 13 -16q0 -8 -12 -60l-4 -15l-137 -502q-5 -17 -5 -24q0 -15 8 -15q26 0 70 76l25 -17q-37 -57 -61 -83q-36 -34 -76 -34q-25 0 -38.5 15t-13.5 41q0 22 7 43l132 485q-16 12 -16 30q0 12 7 23q4 7 4 12
q0 17 -54 17q-102 0 -134 -139z" />
    <glyph glyph-name="ffi" unicode="ffi" horiz-adv-x="778" 
d="M398 450l7 28q20 82 55 132q60 80 168 80q48 0 77 -17.5t29 -47.5q0 -21 -13.5 -34.5t-34.5 -13.5q-18 0 -31 11t-13 26q0 4 3 12q3 6 3 10q1 10 -8 16.5t-23 6.5q-59 0 -90 -59q-17 -32 -37 -121l-7 -29h107q81 2 122 6l14 1q14 0 14 -17q0 -8 -4 -23q-6 -28 -12 -51
l-75 -276q-5 -17 -5 -27q0 -12 8 -12q26 0 69 76l26 -17q-45 -66 -62 -83q-34 -34 -75 -34q-25 0 -39 14.5t-14 40.5q0 16 8 44l71 263l2 9q4 24 4 31q0 11 -7.5 14t-32.5 3h-128l-68 -291q-15 -65 -36.5 -131.5t-36.5 -93.5q-28 -53 -59.5 -76.5t-75.5 -23.5
q-34 0 -57 17.5t-23 43.5q0 19 14 32.5t34 13.5q18 0 29 -10t11 -26q0 -12 -7 -20q-4 -6 -4 -11q0 -4 10 -4q27 0 44 27t33 94l107 459h-169l-68 -291q-37 -158 -73 -225q-28 -53 -60 -76.5t-75 -23.5q-34 0 -57 17.5t-23 43.5q0 19 14 32.5t34 13.5q17 0 28.5 -10t11.5 -25
q0 -11 -7 -21q-4 -6 -4 -11q0 -4 10 -4q26 0 43.5 27.5t33.5 93.5l107 459h-91l8 38h92l1 3q29 116 67 163q59 74 136 74q40 0 65 -18t25 -46q0 -20 -14 -34t-35 -14q-19 0 -32 11t-13 27q0 6 3 18q4 8 4 14q0 11 -15 11q-35 0 -60 -47q-16 -33 -40 -134l-5 -18l-2 -10h169z
" />
    <glyph glyph-name=".notdef" horiz-adv-x="250" 
 />
    <glyph glyph-name=".null" horiz-adv-x="0" 
 />
    <glyph glyph-name="nonmarkingreturn" horiz-adv-x="333" 
 />
    <glyph glyph-name="space" unicode=" " horiz-adv-x="250" 
 />
    <glyph glyph-name="exclam" unicode="!" horiz-adv-x="333" 
d="M169 179l-17 5q45 220 69 374q10 64 26 91t44 27q41 0 41 -54q0 -38 -38 -122q-54 -125 -125 -321zM123 95q23 0 39.5 -16t16.5 -38t-16.5 -37t-39.5 -15t-37.5 15.5t-14.5 39.5q0 20 16 35.5t36 15.5z" />
    <glyph glyph-name="quotedbl" unicode="&#x22;" horiz-adv-x="420" 
d="M367 427h-22q14 175 22 206q4 17 20 29.5t35 12.5q13 0 22.5 -8.5t9.5 -20.5q0 -24 -87 -219zM185 427h-21q12 157 21 206q4 17 20.5 29.5t35.5 12.5q13 0 22.5 -8.5t9.5 -20.5q0 -25 -88 -219z" />
    <glyph glyph-name="numbersign" unicode="#" 
d="M482 271l-11 -55h-106l-78 -216h-63l79 216h-132l-78 -216h-63l79 216h-96l11 55h106l54 144h-98l11 55h106l79 215h62l-79 -215h132l79 215h62l-79 -215h97l-10 -55h-107l-53 -144h96zM377 415h-132l-53 -144h132z" />
    <glyph glyph-name="dollar" unicode="$" 
d="M509 621l-32 -116l-15 2q1 56 -17.5 86.5t-64.5 48.5l-63 -240q86 -69 112 -107.5t26 -96.5q0 -55 -26.5 -99.5t-73.5 -68.5q-52 -26 -148 -30l-24 -90h-35l25 92q-95 19 -151 66l31 125l16 3q6 -80 30 -114.5t82 -48.5l78 301q-66 48 -93 81q-39 52 -39 101q0 87 80 132
q32 18 57 23t88 6l19 64h34l-18 -69q75 -18 122 -51zM286 426l60 224q-46 0 -69 -8q-33 -12 -51.5 -38t-18.5 -61q0 -34 16.5 -58.5t62.5 -58.5zM290 310l-76 -284q164 12 164 143q0 40 -16.5 67t-65.5 69z" />
    <glyph glyph-name="percent" unicode="%" horiz-adv-x="833" 
d="M667 685l-385 -698h-48l385 698h48zM653 305q-31 0 -57 -34q-28 -35 -50 -101t-22 -115q0 -29 13.5 -46.5t36.5 -17.5q34 0 64 46q28 45 45.5 101.5t17.5 100.5q0 30 -13 48t-35 18zM648 325q50 0 83 -39t33 -98q0 -83 -57 -150t-128 -67q-51 0 -84 38t-33 97
q0 83 58 151t128 68zM311 658q-31 0 -60 -36q-28 -34 -48.5 -98.5t-20.5 -115.5q0 -31 13.5 -48t37.5 -17q33 0 61 44q30 46 48 102t18 103q0 30 -13.5 48t-35.5 18zM307 679q50 0 82.5 -38.5t32.5 -99.5q0 -83 -56.5 -149.5t-128.5 -66.5q-51 0 -84.5 38.5t-33.5 98.5
q0 85 60 151t128 66z" />
    <glyph glyph-name="ampersand" unicode="&#x26;" horiz-adv-x="778" 
d="M523 355h188v-17q-37 -5 -55 -18q-15 -13 -41 -51q-23 -34 -100 -142q31 -52 60 -73.5t65 -21.5q31 0 71 30l11 -11q-59 -69 -130 -69q-40 0 -72.5 18.5t-67.5 61.5q-79 -51 -116 -65.5t-85 -14.5q-85 0 -135.5 43.5t-50.5 116.5q0 81 71 142q47 39 185 99q-1 7 -2 18
t-1 14q-5 37 -5 54q0 91 45 148.5t115 57.5q45 0 75 -27.5t30 -68.5q0 -53 -53 -101q-37 -34 -120 -75q38 -157 91 -241q47 57 63 85.5t16 54.5q0 17 -10.5 24t-41.5 10v19zM324 350q-75 -29 -119.5 -78t-44.5 -104q0 -56 38 -94.5t93 -38.5q74 0 141 56q-54 69 -108 259z
M401 434q64 40 85.5 70.5t21.5 79.5q0 59 -45 59q-35 0 -51.5 -30.5t-16.5 -97.5q0 -33 6 -81z" />
    <glyph glyph-name="quotesingle" unicode="'" horiz-adv-x="214" 
d="M172 427h-21q12 158 21 206q4 17 20.5 29.5t34.5 12.5q13 0 22.5 -8.5t9.5 -20.5q0 -28 -87 -219z" />
    <glyph glyph-name="parenleft" unicode="(" horiz-adv-x="333" 
d="M195 -177l-18 -7q-51 92 -67 142q-37 111 -37 231q0 107 35 197q32 80 79 141.5t145 150.5l13 -15q-49 -52 -76.5 -94t-52.5 -102q-72 -180 -72 -373q0 -76 11 -134.5t40 -136.5z" />
    <glyph glyph-name="parenright" unicode=")" horiz-adv-x="333" 
d="M156 672l18 6q49 -84 67 -141q37 -113 37 -232q0 -106 -35 -196q-32 -80 -79 -141.5t-145 -151.5l-13 16q50 52 77.5 94t51.5 102q72 180 72 373q0 76 -11 134.5t-40 136.5z" />
    <glyph glyph-name="asterisk" unicode="*" 
d="M332 507v-27q32 21 45 32.5t40 40.5q26 28 32.5 32.5t19.5 4.5q17 0 27.5 -11t10.5 -27q0 -19 -12.5 -29t-44.5 -15q-36 -6 -56 -14t-52 -29l37 -19q25 -12 67 -20q34 -5 48 -15t14 -28q0 -17 -11 -28t-27 -11q-21 0 -46 32q-39 46 -84 72l-7 4q1 -67 20 -119
q9 -23 9 -34q0 -18 -11 -29t-28 -11q-16 0 -26 11t-10 28q0 11 10 41q19 49 19 82q0 4 -3 31q-4 -4 -15 -10q-23 -14 -36.5 -26t-35.5 -40q-27 -31 -51 -31q-15 0 -25.5 11t-10.5 26q0 18 13.5 28t45.5 16q56 9 109 41l-12 8q-40 22 -95 32q-35 6 -48.5 16t-13.5 31
q0 15 10 25t25 10q22 0 48 -31q42 -46 93 -75q0 52 -19 113q-9 26 -9 39q0 40 35 40q17 0 27 -11t10 -29q0 -16 -11 -50q-15 -47 -15 -78z" />
    <glyph glyph-name="plus" unicode="+" horiz-adv-x="675" 
d="M336 337l-2 223h54l2 -223h222v-54h-222l2 -223h-53l-2 223h-223v54h222z" />
    <glyph glyph-name="comma" unicode="," horiz-adv-x="250" 
d="M21 -131l-9 17q75 52 75 90q0 13 -21 33q-25 22 -25 46q0 21 14.5 34t37.5 13q25 0 42 -21t17 -52q0 -88 -131 -160z" />
    <glyph glyph-name="hyphen" unicode="-" horiz-adv-x="333" 
d="M289 259l-13 -64h-223l14 64h222z" />
    <glyph glyph-name="period" unicode="." horiz-adv-x="250" 
d="M97 102q23 0 40.5 -17.5t17.5 -40.5t-17 -39t-41 -16q-22 0 -38.5 16.5t-16.5 39.5t16.5 40t38.5 17z" />
    <glyph glyph-name="slash" unicode="/" horiz-adv-x="278" 
d="M326 675h74l-377 -693h-74z" />
    <glyph glyph-name="zero" unicode="0" 
d="M357 685q75 0 118 -69.5t43 -191.5q0 -109 -50.5 -219t-125.5 -166q-64 -46 -129 -46q-74 0 -119.5 63t-45.5 166q0 115 44 223t116 174t149 66zM351 657q-68 0 -121 -96q-38 -70 -69.5 -194t-31.5 -206q0 -66 23.5 -103t65.5 -37q68 0 124 102q43 76 69 187.5t26 215.5
q0 62 -22.5 96.5t-63.5 34.5z" />
    <glyph glyph-name="one" unicode="1" 
d="M63 0v14q60 5 82 16t31 39l135 499q7 25 7 34q0 15 -10.5 24.5t-25.5 7.5h-3l-58 -2v15q21 3 22 4q60 12 91 18l83 16q5 0 5 -7q0 -4 -6 -29l-140 -526q-5 -16 -6 -23q-12 -37 -12 -52q0 -33 71 -33h17v-15h-283z" />
    <glyph glyph-name="two" unicode="2" 
d="M417 141l18 -7l-50 -134h-360v17l211 227q101 110 135 189q9 21 9 54q0 53 -36.5 88.5t-91.5 35.5q-89 0 -141 -95l-22 7q22 55 45 84.5t62 50.5q49 27 105 27q70 0 118 -50t48 -123q0 -50 -30.5 -98t-118.5 -137l-193 -195v-5h193q43 1 62.5 14t36.5 50z" />
    <glyph glyph-name="three" unicode="3" 
d="M188 575l-16 5q24 49 68 77.5t97 28.5q61 0 102 -37t41 -93q0 -52 -32.5 -83t-123.5 -66v-3q98 -46 98 -154q0 -67 -34.5 -126t-94.5 -93q-64 -38 -151 -38q-55 0 -84.5 15.5t-29.5 44.5q0 39 44 39q25 0 65 -28q45 -32 73 -32q31 0 62 19.5t48 49.5q21 39 21 95
q0 125 -96 159q-29 11 -93 11l-1 16q121 21 177 60q64 45 64 108q0 42 -25 67.5t-66 25.5q-62 0 -113 -68z" />
    <glyph glyph-name="four" unicode="4" 
d="M470 244l-14 -66h-101l-45 -178h-80l48 180h-266l20 68l418 437h42l-119 -441h97zM291 244l95 326h-5l-305 -322v-4h215z" />
    <glyph glyph-name="five" unicode="5" 
d="M249 603l-39 -89q62 -15 95 -30.5t62 -41.5q69 -63 69 -163q0 -119 -88 -202.5t-212 -83.5q-51 0 -79.5 15.5t-28.5 42.5q0 18 11.5 29t29.5 11q22 0 56 -26q41 -29 70 -29q68 0 119.5 62.5t51.5 145.5q0 41 -15 77t-40 55q-28 22 -62 34.5t-107 28.5v15l103 221h260
l-23 -72h-233z" />
    <glyph glyph-name="six" unicode="6" 
d="M533 696l1 -17q-89 -11 -180.5 -79.5t-143.5 -165.5l4 -2q47 21 90 21q76 0 125 -51t49 -130q0 -114 -73.5 -196.5t-175.5 -82.5q-86 0 -137 59t-51 158q0 108 54 209.5t149 171.5q65 48 126.5 70.5t162.5 34.5zM271 416q-68 0 -108 -66q-20 -34 -32.5 -89t-12.5 -106
q0 -64 26.5 -100t73.5 -36q64 0 110 66q27 40 43.5 94.5t16.5 106.5q0 59 -32 94.5t-85 35.5z" />
    <glyph glyph-name="seven" unicode="7" 
d="M564 665l-387 -673h-71l367 606l-2 3h-225q-45 -1 -72.5 -15.5t-62.5 -57.5l-14 9l81 138h380z" />
    <glyph glyph-name="eight" unicode="8" 
d="M325 387q66 -67 92.5 -114.5t26.5 -99.5q0 -77 -61.5 -128.5t-154.5 -51.5q-128 0 -180 87q-24 42 -24 85q0 67 50.5 118t145.5 82q-52 56 -71 92t-19 77q0 68 50 109.5t131 41.5q79 0 129 -40.5t50 -103.5q0 -54 -37.5 -89t-127.5 -65zM242 349q-71 -28 -110 -78
t-39 -112q0 -63 38.5 -103.5t99.5 -40.5q59 0 98 39.5t39 100.5q0 44 -20.5 75.5t-105.5 118.5zM307 405q65 31 89.5 60t24.5 76q0 54 -30.5 87.5t-79.5 33.5q-48 0 -75 -30t-27 -83q0 -33 18.5 -60.5t79.5 -83.5z" />
    <glyph glyph-name="nine" unicode="9" 
d="M48 -17v18q61 14 105 36.5t97 69.5q46 42 81.5 88t47.5 81l-4 2q-72 -46 -131 -46q-67 0 -110 52t-43 132q0 106 74 187.5t169 81.5q83 0 134 -61.5t51 -162.5q0 -103 -48 -198t-135 -163q-63 -50 -124 -75t-164 -42zM341 659q-53 0 -90 -39q-32 -32 -51.5 -87
t-19.5 -111q0 -68 27 -105.5t76 -37.5q64 0 106 44q22 22 38 81t16 120q0 64 -27 99.5t-75 35.5z" />
    <glyph glyph-name="colon" unicode=":" horiz-adv-x="333" 
d="M121 102q23 0 39.5 -17.5t16.5 -41.5q0 -23 -16 -38.5t-41 -15.5q-22 0 -38.5 16.5t-16.5 38.5q0 24 16.5 41t39.5 17zM218 448q24 0 41 -17t17 -41q0 -23 -16.5 -39t-41.5 -16q-22 0 -38.5 16.5t-16.5 38.5q0 25 16 41.5t39 16.5z" />
    <glyph glyph-name="semicolon" unicode=";" horiz-adv-x="333" 
d="M52 -131l-9 17q75 52 75 90q0 13 -21 33q-25 22 -25 46q0 21 14.5 34t37.5 13q25 0 42 -21t17 -52q0 -88 -131 -160zM219 448q23 0 40 -17t17 -41q0 -23 -16.5 -39t-41.5 -16q-23 0 -39 16.5t-16 39.5q0 24 16 40.5t40 16.5z" />
    <glyph glyph-name="less" unicode="&#x3c;" horiz-adv-x="675" 
d="M601 54l-496 223l-1 58l493 224v-58l-428 -195l432 -195v-57z" />
    <glyph glyph-name="equal" unicode="=" horiz-adv-x="675" 
d="M613 438v-54h-498v54h498zM615 236v-54h-498v54h498z" />
    <glyph glyph-name="greater" unicode="&#x3e;" horiz-adv-x="675" 
d="M128 54l-1 57l428 195l-431 195l-1 58l497 -224v-58z" />
    <glyph glyph-name="question" unicode="?" 
d="M231 176l-17 2q12 76 30 111.5t81 107.5q49 54 68 90.5t19 76.5q0 42 -21.5 64.5t-61.5 22.5q-32 0 -51 -13t-19 -35q0 -11 8 -28q8 -16 8 -26q0 -15 -11.5 -25t-28.5 -10q-40 0 -40 49t39.5 79.5t101.5 30.5q68 0 109.5 -36t41.5 -96q0 -46 -24 -78.5t-110 -103.5
q-54 -44 -79.5 -77.5t-35.5 -75.5zM200 92q22 0 38 -15.5t16 -36.5t-15.5 -36.5t-37.5 -15.5q-23 0 -38.5 15t-15.5 37t15.5 37t37.5 15z" />
    <glyph glyph-name="at" unicode="@" horiz-adv-x="920" 
d="M609 402l10 47h76l-68 -317q-3 -12 -3 -25q0 -54 41 -54q44 0 75 39q30 37 48 92.5t18 111.5q0 140 -94 240t-225 100q-62 0 -118 -25t-95 -70q-49 -56 -76.5 -136.5t-27.5 -169.5q0 -163 96 -267t245 -104q55 0 101 13t110 46l13 -36q-76 -41 -126.5 -56.5t-108.5 -15.5
q-171 0 -288.5 124t-117.5 303q0 182 114.5 307.5t280.5 125.5q152 0 256.5 -107t104.5 -261q0 -120 -59 -208t-140 -88q-39 0 -66.5 25t-32.5 66q-62 -90 -135 -90q-42 0 -70.5 41t-28.5 102q0 67 23.5 133.5t64.5 115.5q52 63 124 63q29 0 44.5 -13t34.5 -52zM546 412
q-20 2 -46.5 -15.5t-49.5 -48.5q-54 -71 -54 -177q0 -49 18 -77.5t48 -28.5q47 0 86 80t43 187q3 75 -45 80z" />
    <glyph glyph-name="A" unicode="A" horiz-adv-x="611" 
d="M584 16v-16h-250v16q49 5 64 14.5t15 36.5q0 14 -3 29l-21 133h-223l-57 -114q-20 -41 -20 -62q0 -20 10.5 -26t50.5 -11v-16h-190v16q31 6 50.5 29.5t78.5 124.5l290 508h26l101 -575q10 -56 22.5 -69.5t55.5 -17.5zM187 266h197l-48 264z" />
    <glyph glyph-name="B" unicode="B" horiz-adv-x="611" 
d="M4 0v16q43 8 55.5 19.5t25.5 55.5l121 449q11 39 11 64q0 22 -15.5 30t-63.5 12v16h261q100 0 152.5 -38.5t52.5 -111.5q0 -61 -43 -99q-24 -21 -51.5 -32.5t-81.5 -24.5q73 -32 101 -65.5t28 -90.5q0 -89 -74 -144.5t-193 -55.5h-286zM250 336q-13 -56 -31 -122
q-34 -118 -34 -141q0 -43 66 -43q92 0 144 46.5t52 128.5q0 42 -18 73.5t-49 44.5q-34 13 -130 13zM324 604l-64 -236q125 -1 175 27q66 37 66 125q0 58 -29 85t-90 27q-30 0 -41.5 -5.5t-16.5 -22.5z" />
    <glyph glyph-name="C" unicode="C" horiz-adv-x="667" 
d="M668 472l-18 3q-17 163 -157 163q-103 0 -178 -77q-58 -61 -91.5 -146.5t-33.5 -174.5q0 -101 47 -156.5t132 -55.5q63 0 113.5 26t118.5 93l18 -14q-68 -80 -132.5 -115.5t-142.5 -35.5q-118 0 -193 75t-75 193q0 110 56.5 208.5t151 157.5t200.5 59q49 0 119 -17
q29 -7 41 -7q28 0 38 22h22z" />
    <glyph glyph-name="D" unicode="D" horiz-adv-x="722" 
d="M137 646v16h282q137 0 217.5 -74.5t80.5 -201.5q0 -88 -40.5 -166.5t-112.5 -131.5q-120 -88 -304 -88h-257v16q43 8 55.5 19.5t25.5 55.5l121 449q10 40 10 64q0 21 -15.5 29t-62.5 13zM323 603l-119 -439q-21 -78 -21 -96q0 -20 15.5 -29t50.5 -9q157 0 247 91
q50 52 79 129.5t29 160.5q0 127 -79 184q-49 37 -141 37q-30 0 -43.5 -6.5t-17.5 -22.5z" />
    <glyph glyph-name="E" unicode="E" horiz-adv-x="611" 
d="M649 662l-30 -155l-21 2q1 17 1 45q0 46 -37.5 60.5t-157.5 14.5q-43 0 -56 -4.5t-18 -21.5l-65 -237q72 2 81 2q69 3 89.5 17.5t48.5 79.5l19 -5l-67 -235l-20 5q6 28 6 51q0 27 -11 36q-12 10 -61 12l-46 1l-48 3q-26 -102 -31 -117q-35 -128 -35 -149q0 -34 80 -34
q125 0 183 28q33 15 57.5 38.5t59.5 72.5l17 -8l-62 -164h-514v16q43 7 55.5 19t25.5 56l121 449q11 40 11 64q0 21 -15.5 29.5t-63.5 12.5v16h504z" />
    <glyph glyph-name="F" unicode="F" horiz-adv-x="611" 
d="M660 662l-31 -155l-21 2v9l1 11q1 9 1 25q0 43 -35 59t-130 16h-35q-36 1 -50 -4.5t-19 -22.5l-65 -236q50 1 72.5 1t49 4.5t35 8t22.5 17t20 25t19 38.5l19 -5l-75 -237l-17 5q7 37 7 60q0 30 -23 41q-11 6 -55 6t-83 3l-60 -227q-9 -30 -9 -44q0 -23 16.5 -33t61.5 -13
v-16h-256v16q43 6 55.5 17.5t26.5 57.5l121 448q10 42 10 66q0 20 -14 29q-13 8 -64 12v16h505z" />
    <glyph glyph-name="G" unicode="G" horiz-adv-x="722" 
d="M723 671l-48 -200l-18 3q-7 59 -29 93q-50 74 -153 74q-105 0 -175 -75q-58 -62 -92 -152.5t-34 -181.5q0 -102 53.5 -157t153.5 -55q72 0 106 34q15 16 37 93q27 95 27 125q0 17 -15 23.5t-65 11.5v16h270v-16q-50 -4 -68 -17t-30 -56l-48 -189q-112 -63 -239 -63
q-136 0 -215 79q-37 37 -58 88t-21 103q0 109 56.5 207.5t150.5 157t198 58.5q61 0 136 -24q29 -10 44 -10q37 0 61 34z" />
    <glyph glyph-name="H" unicode="H" horiz-adv-x="722" 
d="M783 662v-16q-44 -8 -57 -19.5t-26 -55.5l-129 -488q-3 -12 -3 -23q0 -22 15 -30.5t65 -13.5v-16h-277v16q49 5 69.5 20t32.5 55l63 239h-289l-64 -247q-3 -10 -3 -22q0 -22 13 -30t59 -15l1 -16h-250v16q42 8 55 20t26 55l121 448q11 41 11 62q0 23 -15.5 31.5
t-63.5 13.5v16h277v-16q-46 -4 -68.5 -20.5t-33.5 -54.5l-53 -198h289l45 166q11 37 11 63q0 22 -13.5 30.5t-58.5 13.5v16h251z" />
    <glyph glyph-name="I" unicode="I" horiz-adv-x="333" 
d="M6 0v16q43 7 55.5 19t25.5 56l121 448q11 41 11 62q0 22 -13.5 30.5t-58.5 14.5v16h250l1 -16q-44 -8 -57 -19.5t-26 -55.5l-120 -449q-11 -38 -11 -63q0 -22 12.5 -30t56.5 -13l1 -16h-248z" />
    <glyph glyph-name="J" unicode="J" horiz-adv-x="444" 
d="M497 662l1 -16q-44 -7 -57 -18.5t-26 -56.5l-101 -376q-30 -111 -67 -155q-49 -58 -129 -58q-53 0 -86 25t-33 65q0 24 12.5 39t32.5 15q23 0 37 -15.5t13 -42.5q-1 -32 6.5 -43.5t28.5 -11.5q19 0 30.5 12.5t18.5 42.5l129 471q12 45 12 65q0 21 -15 29t-64 13v16h257z
" />
    <glyph glyph-name="K" unicode="K" horiz-adv-x="667" 
d="M738 662v-16q-37 -8 -76 -37l-302 -229l180 -307q21 -35 36 -44t63 -13v-16h-279v16q6 1 16 2.5t12 1.5q47 3 47 25q0 30 -39 97l-124 211l-61 -231q-5 -14 -6 -22q-8 -24 -8 -38q0 -25 12.5 -33t60.5 -13l1 -16h-252v16q44 8 56.5 19t25.5 56l121 448q11 41 11 63
t-15.5 30.5t-63.5 13.5v16h277v-16q-45 -4 -68 -20.5t-34 -54.5l-52 -197l153 108q67 47 106 85t39 56q0 9 -6 13q-10 5 -28 7q-10 0 -28 3v16h225z" />
    <glyph glyph-name="L" unicode="L" horiz-adv-x="556" 
d="M415 662v-16q-46 -4 -68.5 -20.5t-33.5 -54.5l-120 -450q-10 -33 -10 -50q0 -35 89 -35q116 0 171 44q23 19 37.5 40t36.5 67l21 -6l-58 -181h-476v16q43 7 55.5 19t25.5 56l121 448q11 41 11 62q0 23 -15.5 31.5t-63.5 13.5v16h277z" />
    <glyph glyph-name="M" unicode="M" horiz-adv-x="833" 
d="M889 662l1 -16q-45 -8 -57.5 -18.5t-25.5 -56.5l-120 -449q-11 -40 -11 -61q0 -25 13 -32.5t66 -12.5v-16h-277v16q50 5 70 20.5t31 55.5l127 476l-377 -568h-17l-68 554l-115 -439q-9 -36 -9 -53q0 -22 16.5 -32.5t56.5 -13.5v-16h-201v16q40 5 58 29t40 103l104 377
q7 27 12 42q10 30 10 41q0 34 -76 38v16h184l60 -500l336 500h169z" />
    <glyph glyph-name="N" unicode="N" horiz-adv-x="667" 
d="M742 662l1 -16q-48 -11 -62.5 -32t-41.5 -119l-142 -510h-18l-239 557l-111 -427q-9 -33 -9 -54q0 -22 16 -32t56 -13v-16h-201v16q43 6 59 29t44 121l117 423q-14 30 -33 42t-55 15v16h163l216 -506l100 385q0 1 2 9q8 29 8 43q0 29 -14 39t-57 14v16h201z" />
    <glyph glyph-name="O" unicode="O" horiz-adv-x="722" 
d="M486 675q103 0 169 -73t61 -181q-4 -84 -41.5 -164.5t-95 -140.5t-133 -97t-152.5 -37q-98 0 -161 69t-63 177q0 88 41.5 175t117.5 157q124 115 257 115zM477 641q-109 0 -192 -120q-45 -66 -76.5 -163t-31.5 -169q0 -84 34.5 -129t98.5 -45q106 0 189 120q48 71 79 169
t31 180q0 73 -35.5 115t-96.5 42z" />
    <glyph glyph-name="P" unicode="P" horiz-adv-x="611" 
d="M154 646v16h251q105 0 160.5 -39.5t55.5 -113.5q0 -93 -79 -151q-66 -49 -195 -49q-59 0 -92 8l-52 -195q-12 -47 -12 -57q0 -27 10.5 -34.5t58.5 -14.5l1 -16h-249v16q43 6 55.5 17.5t26.5 57.5l116 431q17 61 17 81t-14.5 29t-58.5 14zM333 603l-70 -251q30 -5 53 -5
q88 0 133 26q67 39 67 136q0 71 -38 99q-34 24 -99 24q-38 0 -46 -29z" />
    <glyph glyph-name="Q" unicode="Q" horiz-adv-x="722" 
d="M294 -16l-54 -58l26 1q31 1 112 -21q80 -22 125 -22q55 0 92 16.5t79 60.5l15 -11q-35 -47 -63 -68q-39 -31 -87.5 -49t-90.5 -18q-62 0 -155 27q-66 18 -94 18q-60 0 -116 -31l-10 15q58 41 83 61.5t95 82.5q-58 13 -94 41q-87 67 -87 199q0 88 41.5 174.5t117.5 157.5
q124 115 253 115q102 0 168 -67.5t66 -171.5q0 -120 -68.5 -231.5t-180.5 -173.5q-42 -24 -78 -33.5t-95 -13.5zM477 641q-109 0 -192 -120q-45 -66 -76.5 -163t-31.5 -169q0 -82 34.5 -127t97.5 -45q108 0 191 120q47 69 78 167t31 180q0 73 -35.5 115t-96.5 42z" />
    <glyph glyph-name="R" unicode="R" horiz-adv-x="611" 
d="M587 16v-16h-150l-128 329l-66 5l-54 -212q-12 -43 -12 -58q0 -26 11 -33.5t58 -14.5l1 -16h-248v16q43 7 55.5 18.5t25.5 56.5l121 449q12 46 12 63q0 20 -14 29q-12 7 -59 14v16h251q103 0 158 -38t55 -109q0 -68 -51 -113q-27 -24 -58 -37.5t-89 -26.5l96 -249
q15 -40 33 -55.5t52 -17.5zM319 604l-64 -233q30 -5 52 -5q190 0 190 150q0 116 -126 116q-25 0 -36 -6t-16 -22z" />
    <glyph glyph-name="S" unicode="S" 
d="M483 475l-19 3q-3 92 -33 126q-34 37 -90 37q-52 0 -81.5 -27.5t-29.5 -74.5q0 -38 16.5 -63t85.5 -94q70 -70 93 -109.5t23 -89.5q0 -86 -58 -143.5t-145 -57.5q-42 0 -106 23q-39 13 -52 13q-29 0 -39 -33h-18l32 226l21 -2q-2 -8 -2 -21q0 -73 43 -121.5t107 -48.5
q56 0 92.5 38t36.5 96q0 33 -12.5 58t-49.5 62q-1 1 -6.5 7t-15.5 17t-17 19q-36 38 -40 42q-47 50 -62.5 79.5t-15.5 71.5q0 73 50 120t129 47q50 0 86 -14q29 -11 46 -11t26.5 5t19.5 21h23z" />
    <glyph glyph-name="T" unicode="T" horiz-adv-x="556" 
d="M660 662l-44 -165l-17 2q3 25 3 45q0 43 -25.5 63t-80.5 20h-56l-136 -505q-12 -44 -12 -58q0 -29 13 -36t79 -12v-16h-294v16q50 4 72.5 19.5t33.5 55.5l141 536q-81 1 -121 -8t-65.5 -34t-53.5 -83l-18 4l41 156h540z" />
    <glyph glyph-name="U" unicode="U" horiz-adv-x="722" 
d="M781 662v-16q-27 -6 -38 -10t-23.5 -22t-19.5 -41t-23 -78l-82 -289q-63 -224 -259 -224q-97 0 -160 47.5t-63 120.5q0 61 41 214l52 195q7 24 7 45q0 23 -14 30.5t-65 11.5v16h276l1 -16q-51 -5 -70.5 -22t-35.5 -70q0 -1 -1 -4.5t-2.5 -8.5t-1.5 -6q-96 -334 -96 -391
q0 -53 39.5 -86.5t103.5 -33.5q106 0 165 95q31 50 54 140q10 40 13 49q72 266 72 291q0 24 -18 34q-13 9 -54 13v16h202z" />
    <glyph glyph-name="V" unicode="V" horiz-adv-x="611" 
d="M704 662v-16q-34 -1 -57 -41l-372 -623h-19l-91 527q-17 95 -28 113.5t-54 23.5v16h244l1 -16q-48 -6 -63 -16t-15 -35q0 -11 1 -16l71 -449l206 361q51 91 51 120q0 27 -64 35v16h189z" />
    <glyph glyph-name="W" unicode="W" horiz-adv-x="833" 
d="M923 662v-16q-29 -9 -42 -21.5t-33 -51.5l-302 -591h-20l-56 460h-5l-220 -460h-20l-67 524q-15 111 -30 124q-11 11 -52 16v16h239v-16q-46 -6 -59.5 -16t-13.5 -39q0 -10 1 -15l48 -412l172 353l-10 70q-5 37 -19 47t-58 12v16h241l1 -16q-41 -5 -54 -15.5t-14 -43.5
v-15l45 -408l186 373q21 44 21 68q0 22 -12.5 29t-54.5 12v16h188z" />
    <glyph glyph-name="X" unicode="X" horiz-adv-x="611" 
d="M671 662v-16q-34 -11 -61 -31.5t-65 -64.5l-170 -197l106 -262q19 -45 36 -57t70 -18v-16h-276v16q50 4 63 11t13 29q0 21 -11 49l-70 168l-151 -175q-21 -22 -21 -46q0 -20 15 -28t51 -8v-16h-217v16q37 8 69 35q27 21 96 103q38 44 56 65q8 10 83 98l-110 267
q-15 35 -32.5 46.5t-60.5 15.5l-1 16h268v-16q-41 -5 -56 -13.5t-15 -27.5t15 -57l62 -149l145 169q20 23 20 41t-12 25t-50 12v16h211z" />
    <glyph glyph-name="Y" unicode="Y" horiz-adv-x="556" 
d="M99 646v16h242l1 -16q-46 -4 -59.5 -11t-13.5 -25q0 -23 38 -146q21 -71 32 -112q15 18 39 46q150 176 150 216q0 15 -10 20q-12 6 -61 12v16h192v-16q-22 -10 -34 -20.5t-37 -41.5l-219 -274l-29 -102q0 -2 -1 -5t-2 -7.5t-2 -7.5q-31 -104 -31 -131q0 -21 13 -28
q14 -8 41 -10q13 0 37 -3v-16h-293v16q50 4 71.5 19t34.5 56l60 215l-81 273q-14 42 -24.5 51.5t-53.5 15.5z" />
    <glyph glyph-name="Z" unicode="Z" horiz-adv-x="556" 
d="M612 662v-14l-475 -611h141q118 1 165.5 26.5t86.5 110.5l19 -3l-53 -171h-490v14l480 612h-157q-100 -3 -140 -25t-71 -92l-19 5l45 148h468z" />
    <glyph glyph-name="bracketleft" unicode="[" horiz-adv-x="389" 
d="M406 645h-63q-23 -1 -33 -8.5t-16 -27.5l-186 -687q-5 -16 -5 -23q0 -27 49 -27h57l-8 -27h-191l228 827h176z" />
    <glyph glyph-name="backslash" unicode="\" horiz-adv-x="278" 
d="M-33 675h73l299 -693h-72z" />
    <glyph glyph-name="bracketright" unicode="]" horiz-adv-x="389" 
d="M8 -128h63q23 1 33 8t16 28l186 687q4 16 4 23q0 27 -48 27h-57l8 27h191l-229 -827h-175z" />
    <glyph glyph-name="asciicircum" unicode="^" horiz-adv-x="422" 
d="M94 308h-53l171 351h52l178 -351h-54l-150 297z" />
    <glyph glyph-name="underscore" unicode="_" 
d="M500 -125h-500v50h500v-50z" />
    <glyph glyph-name="grave" unicode="`" horiz-adv-x="333" 
d="M299 499l-143 107q-19 16 -19 33q0 15 10 24.5t25 9.5q21 0 40 -23l119 -151h-32z" />
    <glyph glyph-name="a" unicode="a" 
d="M478 112l12 -11q-58 -69 -84.5 -90t-57.5 -21q-40 0 -40 41q0 27 25 117q-69 -94 -110.5 -126.5t-95.5 -32.5q-48 0 -75 29.5t-27 81.5q0 78 44.5 159.5t113.5 134.5t135 53q68 0 81 -58l11 48l3 3l62 7l7 -3q-1 -4 -6 -21q-94 -329 -94 -368q0 -13 14 -13q13 0 53 41
l6.5 6.5l10 10zM324 425q-65 5 -130 -88q-34 -49 -59 -115.5t-25 -108.5q0 -35 15.5 -54.5t43.5 -19.5q47 0 88 44q53 57 88 137.5t35 143.5q0 26 -15.5 43t-40.5 18z" />
    <glyph glyph-name="b" unicode="b" 
d="M118 652v17q82 10 156 24l5 -6q-52 -191 -109 -393q55 84 99.5 118.5t97.5 34.5q51 0 84 -34t33 -86q0 -78 -48.5 -157t-124.5 -130t-151 -51q-43 0 -89 18.5t-46 35.5v4l142 508l2 6q2 9 6 20q9 33 9 44q0 17 -10.5 21.5t-55.5 5.5zM328 397q-73 0 -140 -116
q-33 -57 -54.5 -123.5t-21.5 -111.5q0 -34 46 -34q69 0 126 59q46 47 80 118.5t34 120.5q0 41 -18.5 64t-51.5 23z" />
    <glyph glyph-name="c" unicode="c" horiz-adv-x="444" 
d="M369 107l16 -10q-46 -58 -90.5 -83t-102.5 -25q-70 0 -108.5 39.5t-38.5 110.5q0 119 90.5 213.5t205.5 94.5q46 0 76 -23.5t30 -58.5q0 -20 -14 -33.5t-34 -13.5q-40 0 -40 38q0 13 9 30q6 12 6 19q0 21 -38 21q-63 0 -110 -49q-43 -45 -68.5 -109t-25.5 -129
q0 -54 24 -84t68 -30q37 0 70 19t75 63z" />
    <glyph glyph-name="d" unicode="d" 
d="M479 113l12 -11q-82 -115 -149 -115q-19 0 -30.5 12.5t-11.5 32.5q0 26 15 90q-53 -75 -93 -104t-91 -29q-50 0 -78 30t-28 84q0 74 47 155t117.5 135t134.5 54q30 0 44.5 -13.5t20.5 -45.5l46 167q16 56 16 70q0 17 -10 21.5t-53 5.5v17q81 8 156 24l5 -6
q-71 -267 -104 -376q-68 -221 -68 -250q0 -8 5.5 -14t12.5 -6q13 0 27 12t57 60zM328 424q-48 3 -95 -47q-51 -53 -85.5 -131.5t-34.5 -140.5q0 -31 16 -49t43 -18q45 0 85 42q51 54 83.5 134t32.5 153q0 54 -45 57z" />
    <glyph glyph-name="e" unicode="e" horiz-adv-x="444" 
d="M371 111l13 -13q-46 -51 -101.5 -80t-109.5 -29q-59 0 -96 38t-37 99q0 115 99 218t209 103q37 0 58.5 -18t21.5 -50q0 -65 -73.5 -117.5t-187.5 -68.5l-28 -4q-11 -45 -11 -63q0 -41 25.5 -66t68.5 -25q33 0 63.5 15.5t85.5 60.5zM164 256l-18 -45q66 17 101 32.5
t63 42.5q51 48 51 100q0 17 -9.5 27.5t-25.5 10.5q-38 0 -87 -50.5t-75 -117.5z" />
    <glyph glyph-name="f" unicode="f" horiz-adv-x="278" 
d="M53 402l7 32h94q41 129 82 184q54 69 126 69q37 0 62 -18.5t25 -46.5q0 -16 -13 -28.5t-30 -12.5t-27 11t-10 29q0 11 6 21q4 7 4 10q0 13 -22 13q-42 0 -72.5 -55.5t-52.5 -175.5h109l-6 -32h-111l-75 -325q-68 -287 -206 -287q-33 0 -56 18t-23 43q0 18 10.5 30.5
t26.5 12.5q17 0 28.5 -11.5t11.5 -27.5q0 -8 -5 -17q-4 -7 -4 -10q0 -17 20 -17q64 0 100 165l92 426h-91z" />
    <glyph glyph-name="g" unicode="g" 
d="M481 411l-1 -40h-50q8 -32 8 -56q0 -59 -59.5 -110.5t-128.5 -51.5q-18 0 -32 3q-3 1 -7 1q-10 0 -23.5 -15.5t-13.5 -26.5q0 -25 70 -42q145 -39 145 -133q0 -67 -59 -108t-154 -41q-78 0 -124 31t-46 83q0 36 22 60.5t98 73.5q-27 21 -27 40q0 18 16.5 36t61.5 49
q-43 20 -61 45t-18 64q0 72 60 123t145 51q56 0 100 -28q11 -8 16 -8h62zM183 17l-29 9q-4 2 -5 2q-6 0 -30.5 -19t-34.5 -32q-22 -26 -22 -62q0 -48 33.5 -75t94.5 -27q59 0 98.5 27.5t39.5 68.5q0 35 -31.5 58.5t-113.5 49.5zM302 425q-50 0 -87.5 -52.5t-37.5 -123.5
q0 -35 16 -55t44 -20q54 0 89 64q32 56 32 116q0 71 -56 71z" />
    <glyph glyph-name="h" unicode="h" 
d="M479 119l13 -13q-46 -66 -78 -90.5t-70 -24.5q-21 0 -33 11t-12 31q0 19 21 94l58 209q7 30 7 34q1 10 -8 17.5t-20 7.5q-27 0 -73 -41.5t-86 -101.5q-31 -47 -48 -91t-48 -161h-76l141 519q10 37 10 38q15 43 15 68q0 11 -12 18.5t-29 6.5l-26 -1v16q92 12 159 28l5 -6
l-126 -453q73 111 129.5 162t105.5 51q29 0 47.5 -18.5t18.5 -48.5q0 -41 -51 -196q-34 -106 -34 -127q0 -18 16 -18q13 0 27.5 14t56.5 66z" />
    <glyph glyph-name="i" unicode="i" horiz-adv-x="278" 
d="M238 116l13 -12q-43 -64 -75.5 -89.5t-67.5 -25.5q-46 0 -46 57q0 30 24 111l50 179q9 36 9 45q1 15 -11 19.5t-53 5.5v16q41 3 163 25l3 -2l-92 -326q-1 -4 -7 -22q-10 -32 -10 -45q0 -6 5 -10.5t11 -4.5q14 0 42 28q13 13 42 51zM235 663q20 0 35 -16.5t15 -39.5
q0 -20 -15 -35.5t-36 -15.5q-22 0 -35 14.5t-13 37.5q0 24 13.5 39.5t35.5 15.5z" />
    <glyph glyph-name="j" unicode="j" horiz-adv-x="278" 
d="M248 445l-109 -417q-31 -121 -78 -179.5t-113 -58.5q-35 0 -57.5 17.5t-22.5 44.5q0 19 11.5 31t29.5 12q17 0 29 -11t12 -27q0 -10 -8 -21q-5 -6 -5 -11q0 -12 18 -12q30 0 51.5 39.5t48.5 144.5l75 296q17 68 17 82q0 16 -7 23q-11 11 -33 9l-7 -1h-28v16q51 3 173 25z
M230 663q20 0 35 -16.5t15 -38.5q0 -21 -15 -36.5t-36 -15.5q-22 0 -35 14.5t-13 38.5q0 23 13.5 38.5t35.5 15.5z" />
    <glyph glyph-name="k" unicode="k" horiz-adv-x="444" 
d="M434 111l16 -12q-35 -63 -59 -86.5t-55 -23.5q-22 0 -39.5 18.5t-39.5 64.5q-36 73 -60 143l-43 -32l-50 -183h-76l133 490q1 5 4.5 18.5t6.5 23.5q20 68 23 92q-1 25 -51 25h-17v16q79 9 158 28l5 -6l-125 -463q33 26 44 34q146 111 146 142q0 10 -11.5 13.5t-44.5 4.5
v16h186v-16q-36 -2 -76.5 -29.5t-153.5 -126.5q25 -59 37 -90q29 -73 47 -101.5t34 -28.5q14 0 24 11t37 58z" />
    <glyph glyph-name="l" unicode="l" horiz-adv-x="278" 
d="M246 125l14 -9q-50 -74 -82.5 -100.5t-72.5 -26.5q-49 0 -49 56q0 12 4 27l144 535q4 12 4 19q0 23 -52 23h-17v16q77 9 159 28l4 -6l-157 -587v-2q-1 -1 -3 -8q-8 -29 -8 -39q0 -19 15 -19q17 0 33 15.5t64 77.5z" />
    <glyph glyph-name="m" unicode="m" horiz-adv-x="722" 
d="M706 119l16 -13l-6 -7q-77 -108 -147 -108q-40 0 -40 46q0 12 14 67l61 233q7 27 7 36t-6 15t-14 6q-22 0 -57.5 -31t-73.5 -83q-38 -53 -60.5 -108t-53.5 -172h-77q20 70 27 93q73 251 73 276t-20 25q-26 0 -68 -39.5t-85 -103.5q-27 -39 -45 -84.5t-56 -166.5h-76
q20 73 41 145q62 216 62 233q0 11 -9 15q-10 6 -56 7v16q40 7 162 31l3 -2l-61 -212q138 214 229 214q26 0 41.5 -16.5t15.5 -43.5q0 -29 -42 -155q54 84 90 126.5t73 65.5q34 23 65 23q25 0 41.5 -18t16.5 -45q0 -17 -3 -29l-71 -255q-11 -39 -11 -45q0 -16 13 -16
q15 0 26 10t61 70z" />
    <glyph glyph-name="n" unicode="n" 
d="M479 119l14 -14q-53 -70 -81 -92t-62 -22q-25 0 -36 13t-11 42q0 12 17 75l46 168q15 55 15 77q0 29 -24 29q-58 0 -151 -144q-34 -52 -50.5 -91.5t-53.5 -159.5h-76l100 355q2 6 2 17q0 15 -13 21t-51 7v16q101 18 164 31l3 -2l-69 -221q79 121 132.5 172t102.5 51
q29 0 47.5 -17t18.5 -44q0 -22 -10 -59l-59 -209q-15 -56 -15 -63q0 -16 16 -16q13 0 27.5 14t56.5 66z" />
    <glyph glyph-name="o" unicode="o" 
d="M331 447q64 0 104 -39t40 -102q0 -57 -29.5 -118t-79.5 -111q-91 -88 -192 -88q-69 0 -108.5 37.5t-39.5 103.5q0 80 50.5 159.5t129.5 123.5q62 34 125 34zM319 426q-66 0 -127 -88q-81 -117 -81 -238q0 -40 21.5 -65t56.5 -25q66 0 120 79q35 50 58 118.5t23 124.5
q0 43 -19.5 68.5t-51.5 25.5z" />
    <glyph glyph-name="p" unicode="p" 
d="M66 409l-2 16l156 22q6 2 6 -4q0 -1 -2 -9l-30 -102q45 62 85 88.5t89 26.5q54 0 85 -33.5t31 -91.5q0 -121 -97.5 -227t-209.5 -106q-33 0 -67 17q-39 -141 -39 -168q0 -16 14.5 -23t50.5 -8v-15h-208v16q33 2 46.5 13.5t21.5 46.5q19 79 61 227q74 264 74 286
q0 12 -12.5 21t-26.5 8h-3zM331 403q-38 2 -77.5 -31t-60.5 -85q-23 -57 -45.5 -136.5t-22.5 -105.5q0 -16 13.5 -26.5t34.5 -10.5q80 0 145 91q34 48 54.5 108t20.5 112q0 81 -62 84z" />
    <glyph glyph-name="q" unicode="q" 
d="M393 -194v-18h-245v16q50 4 68 14t28 40l92 298q-68 -98 -111.5 -132.5t-98.5 -34.5q-47 0 -74.5 31.5t-27.5 84.5q0 75 46.5 155.5t117 133.5t136.5 53q31 0 48 -13.5t30 -48.5l15 47h74l-171 -585q-2 -10 -2 -12q0 -29 58 -29h17zM327 425q-45 0 -95 -50
q-50 -51 -85.5 -125.5t-35.5 -129.5q0 -36 15 -56.5t41 -20.5q38 0 78 34q52 43 96.5 133.5t44.5 153.5q0 25 -17.5 43t-41.5 18z" />
    <glyph glyph-name="r" unicode="r" horiz-adv-x="389" 
d="M133 0h-77l85 296q16 60 16 84q0 28 -35 28q-6 0 -34 -5v17q70 12 157 27l3 -2l-56 -220l15 37q12 30 40.5 70.5t59.5 71.5q40 43 77 43q21 0 34 -14t13 -38q0 -50 -47 -50q-26 0 -36 22q-7 14 -17 14q-26 0 -80 -88q-35 -58 -56 -110.5t-62 -182.5z" />
    <glyph glyph-name="s" unicode="s" horiz-adv-x="389" 
d="M28 148h16q11 -72 35.5 -105t66.5 -33q34 0 55 22t21 57q0 43 -56 115q-63 82 -63 131q0 50 33.5 81t88.5 31q27 0 59 -10q25 -7 36 -7q20 0 30 18h15l-22 -141h-16q-13 117 -93 117q-26 0 -41.5 -15t-15.5 -40q0 -39 54 -106q68 -84 68 -141q0 -58 -41.5 -95.5
t-105.5 -37.5q-22 0 -56 10q-36 9 -50 9t-24 -21h-16z" />
    <glyph glyph-name="t" unicode="t" horiz-adv-x="278" 
d="M311 434l-5 -32h-86l-91 -338q-2 -4 -2 -6q0 -19 15 -19q12 0 29 16.5t54 63.5l13 -7q-48 -71 -79 -97t-66 -26q-20 0 -34 11t-14 27q0 6 24 96l75 279h-75v6q0 8 6.5 13.5t25.5 12.5q25 6 66 39t70 72q7 9 12 9h3h2q6 0 6 -10q0 -3 -1 -6l-29 -104h81z" />
    <glyph glyph-name="u" unicode="u" 
d="M474 119l15 -9q-53 -75 -79.5 -97t-61.5 -22q-49 0 -49 48q0 33 48 200q-89 -147 -139.5 -198.5t-104.5 -51.5t-54 55q0 25 27 125l38 144q15 53 15 68q0 13 -10 19q-10 5 -51 6v14q74 9 153 27l3 -2l-96 -368l-1 -9q-1 -11 5 -18t16 -7q51 0 144 148q36 55 52.5 91.5
t61.5 155.5h75l-82 -303q-21 -74 -21 -80q0 -16 11 -16q13 0 29 15t56 65z" />
    <glyph glyph-name="v" unicode="v" horiz-adv-x="444" 
d="M38 409v13q72 10 112 21q11 4 21 4q7 0 10.5 -13t17.5 -93q16 -86 25 -270q73 71 122.5 148t49.5 119q0 13 -18 30q-24 21 -24 44q0 16 10.5 25.5t27.5 9.5q23 0 39.5 -17.5t16.5 -41.5q0 -45 -42.5 -121t-115.5 -161q-107 -124 -130 -124q-9 0 -9 22q0 1 1 14v10
q0 24 -5 108.5t-9 114.5q-11 101 -24 130t-46 29q-19 0 -30 -1z" />
    <glyph glyph-name="w" unicode="w" horiz-adv-x="667" 
d="M31 409v14q5 1 11 1.5t9.5 1.5t5.5 1q68 10 70 14q21 7 30 7t12.5 -11.5t11.5 -60.5q21 -133 24 -248l198 308q6 10 12 10q8 0 9 -14l29 -357q101 125 135.5 178t34.5 85q0 17 -22 38q-21 18 -21 36q0 35 39 35q23 0 38 -15t15 -38q0 -99 -218 -357q-4 -6 -10 -12
q-35 -43 -45 -43q-6 0 -7.5 5t-3.5 25l-27 324l-92 -159q-31 -54 -56 -99q-50 -96 -65 -96q-5 0 -7.5 3.5t-4 13t-2.5 30.5l-3 90q-5 146 -25 244q-7 30 -15 38.5t-31 8.5h-9z" />
    <glyph glyph-name="x" unicode="x" horiz-adv-x="444" 
d="M409 113l14 -9q-45 -68 -70 -91.5t-54 -23.5q-25 0 -37.5 14.5t-21.5 53.5l-30 121q-43 -58 -92 -119q-38 -46 -54.5 -58t-40.5 -12q-23 0 -36.5 11t-13.5 31q0 16 10 26t25 10q13 0 32 -10q16 -9 26 -9q18 0 53 48l84 119l-29 125q-10 46 -18 58t-27 12q-10 0 -57 -11
l-4 15l12 4q86 29 118 29q20 0 31 -18.5t21 -70.5l11 -56q54 82 87.5 113.5t66.5 31.5q19 0 30.5 -10t11.5 -27t-9.5 -27t-25.5 -10q-13 0 -28 9q-16 8 -25 8q-29 0 -100 -122q0 -23 35 -165q2 -8 2 -10l2 -6q10 -42 31 -42q16 0 47 40q11 15 23 28z" />
    <glyph glyph-name="y" unicode="y" horiz-adv-x="444" 
d="M24 406v17q6 1 13.5 2t12 2t6.5 1q97 18 100 18q8 0 9 1h4q11 0 43 -94.5t43 -161.5l19 -118q126 206 126 263q0 19 -26 34q-29 18 -29 39q0 17 11 27.5t29 10.5q23 0 39.5 -16.5t16.5 -39.5q0 -70 -99 -247q-85 -152 -173.5 -252.5t-137.5 -100.5q-23 0 -37 12.5
t-14 31.5q0 17 11.5 28.5t28.5 11.5t38 -17q15 -11 23 -11q19 0 47 31q20 20 64 79q22 29 22 51q0 31 -28 151t-50 180q-14 41 -31.5 56t-48.5 15q-15 0 -32 -4z" />
    <glyph glyph-name="z" unicode="z" horiz-adv-x="389" 
d="M85 313l-16 4l32 117h288v-11l-299 -357h145q60 -1 77 9t39 57h18l-44 -132h-296q-14 -6 -22 -13l-9 9l317 377h-148q-34 1 -50 -10.5t-32 -49.5z" />
    <glyph glyph-name="braceleft" unicode="{" horiz-adv-x="400" 
d="M420 697l-3 -12q-47 -12 -70.5 -39t-39.5 -86l-44 -171q-17 -63 -40.5 -90t-72.5 -40q56 -26 56 -65q0 -25 -37 -172q-27 -105 -27 -123q0 -28 12.5 -43.5t41.5 -23.5l-2 -11q-70 1 -99 19.5t-29 60.5q0 33 31 144q33 119 33 155q0 22 -12 35t-41 24q49 13 70 36t35 79
l47 181q23 81 64 111.5t127 30.5z" />
    <glyph glyph-name="bar" unicode="|" horiz-adv-x="275" 
d="M119 -155v831h66v-831h-66z" />
    <glyph glyph-name="braceright" unicode="}" horiz-adv-x="400" 
d="M228 685l3 12q70 -2 98.5 -20t28.5 -60q0 -36 -31 -145q-33 -114 -33 -155q0 -22 12 -34.5t42 -23.5q-49 -14 -70.5 -37.5t-35.5 -78.5l-47 -181q-23 -80 -64 -110.5t-126 -30.5l3 11q47 12 70.5 39t38.5 86l44 171q17 63 40.5 90.5t73.5 40.5q-57 23 -57 64q0 30 42 192
q22 81 22 102q0 54 -54 68z" />
    <glyph glyph-name="asciitilde" unicode="~" horiz-adv-x="541" 
d="M461 303l55 -32q-36 -49 -62 -67t-60 -18t-60 9t-93 45q-28 14 -59 14q-23 0 -38.5 -11t-34.5 -40l-55 32q35 48 61.5 66.5t60.5 18.5q33 0 59 -9t94 -45q26 -14 59 -14q23 0 38.5 11t34.5 40z" />
    <glyph glyph-name="uni00A0" unicode="&#xa0;" horiz-adv-x="250" 
 />
    <glyph glyph-name="exclamdown" unicode="&#xa1;" horiz-adv-x="389" 
d="M238 289l17 -4q-48 -231 -69 -375q-10 -64 -26 -91t-44 -27q-41 0 -41 53q0 42 38 123q56 129 125 321zM284 479q23 0 37.5 -15.5t14.5 -39.5q0 -20 -16 -35.5t-36 -15.5q-23 0 -39.5 16t-16.5 38t16.5 37t39.5 15z" />
    <glyph glyph-name="cent" unicode="&#xa2;" 
d="M382 568l-33 -122q47 -4 72 -22q36 -26 36 -63q0 -19 -12.5 -31t-32.5 -12q-43 0 -43 43q0 10 7 25q5 10 5 17q0 22 -37 23l-108 -397q11 -4 26 -4q38 0 69.5 18.5t69.5 63.5l17 -10q-41 -57 -83.5 -82.5t-97.5 -25.5q-6 0 -11 1l-37 -135h-31l37 138q-36 8 -59 24
q-63 46 -63 147q0 71 35.5 135t97.5 106q46 31 113 41l33 122h30zM209 42l103 381q-38 -11 -62 -31t-47 -60q-43 -75 -43 -164q0 -87 49 -126z" />
    <glyph glyph-name="sterling" unicode="&#xa3;" 
d="M398 323h-128q-18 -82 -29 -115t-43 -103q101 -38 163 -38q41 0 80 27l10 7l11 -9q-39 -98 -143 -98q-37 0 -67 13t-80 51q-29 -37 -49.5 -50.5t-46.5 -13.5q-30 0 -48.5 18t-18.5 48t26.5 49t68.5 19q15 0 57 -12l23 207h-114l8 43h112q14 87 33.5 137t56.5 99
q57 77 143 77q42 0 68.5 -21.5t26.5 -55.5q0 -41 -40 -41q-17 0 -24 9t-12 35q-4 25 -13 35t-28 10q-43 0 -67 -55.5t-54 -228.5h125zM147 74q-35 26 -62 26q-23 0 -38 -13t-15 -33q0 -16 12.5 -27t31.5 -11q22 0 42 16t29 42z" />
    <glyph glyph-name="currency" unicode="&#xa4;" 
d="M4 104l99 98q-43 60 -43 130q0 69 40 125l-100 100l50 48l99 -97q61 40 128 40q70 0 127 -40l99 97l49 -48l-97 -100q41 -59 41 -129q0 -65 -38 -126l98 -98l-48 -50l-101 99q-57 -41 -126 -41q-68 0 -129 41l-97 -99zM280 483q-63 0 -107 -43.5t-44 -106.5
q0 -65 44 -110.5t107 -45.5q62 0 104.5 44t42.5 108q0 63 -43.5 108.5t-103.5 45.5z" />
    <glyph glyph-name="yen" unicode="&#xa5;" 
d="M474 185h-183l-8 -28q-22 -69 -22 -98q0 -19 11 -29q7 -6 17 -7.5t66 -6.5v-16h-289l4 16q48 4 72.5 20.5t37.5 54.5l26 94h-167l12 41h166l23 80l-3 10h-166l12 41h142l-66 222q-14 41 -27 51t-63 16v16h242v-16q-48 -5 -61.5 -11t-13.5 -25t41 -156q13 -41 30 -102
q25 30 29 34q162 189 162 228q0 15 -10 20q-11 6 -61 12v16h192v-16q-24 -10 -36.5 -21t-37.5 -41l-181 -227h153l-12 -41h-172l-6 -8l-24 -82h183z" />
    <glyph glyph-name="brokenbar" unicode="&#xa6;" horiz-adv-x="275" 
d="M105 -153v330h66v-330h-66zM105 315v329h66v-329h-66z" />
    <glyph glyph-name="section" unicode="&#xa7;" 
d="M250 404l2 3q-39 47 -54 78t-15 65q0 55 41.5 90t107.5 35q58 0 95 -28.5t37 -72.5q0 -25 -14 -40t-38 -15q-21 0 -34.5 13t-13.5 33t22 38q13 12 13 19q0 14 -17.5 23t-43.5 9q-43 0 -68 -22.5t-25 -61.5q0 -42 27 -73l126 -152q43 -53 43 -118q0 -57 -32.5 -91.5
t-86.5 -34.5q-19 0 -33 7l-2 -3q41 -51 53 -75.5t12 -55.5q0 -59 -45 -98.5t-112 -39.5q-59 0 -99 32t-40 78q0 26 15 41t41 15q48 0 48 -44q0 -28 -27 -46q-15 -10 -15 -18q0 -14 22 -25.5t51 -11.5q45 0 73.5 25.5t28.5 65.5t-51 99l-78 88q-74 83 -74 156q0 52 31.5 88
t75.5 36q25 0 53 -11zM214 394q-28 0 -47.5 -19t-19.5 -48q0 -54 62.5 -129.5t107.5 -75.5q27 0 46 21.5t19 50.5q0 26 -12.5 52.5t-46.5 70.5q-59 77 -109 77z" />
    <glyph glyph-name="dieresis" unicode="&#xa8;" horiz-adv-x="333" 
d="M164 614q19 0 34 -15.5t15 -34.5q0 -20 -14.5 -34.5t-34.5 -14.5q-21 0 -35.5 14.5t-14.5 36.5q0 20 14.5 34t35.5 14zM367 614q19 0 34 -15.5t15 -34.5q0 -20 -14.5 -34.5t-34.5 -14.5q-21 0 -35.5 14.5t-14.5 36.5q0 20 14.5 34t35.5 14z" />
    <glyph glyph-name="copyright" unicode="&#xa9;" horiz-adv-x="760" 
d="M405 675q147 0 247 -102.5t100 -252.5q0 -141 -99 -239.5t-240 -98.5q-146 0 -247.5 101.5t-101.5 247.5q0 143 99.5 243.5t241.5 100.5zM406 632q-117 0 -201.5 -88.5t-84.5 -212.5q0 -125 86.5 -215.5t205.5 -90.5q115 0 199.5 88t84.5 208q0 128 -85 219.5t-205 91.5z
M558 524l10 -128h-18q-37 108 -142 108q-68 0 -107.5 -47t-39.5 -129q0 -91 40.5 -140.5t115.5 -49.5q86 0 144 74l17 -8q-36 -49 -78 -71t-101 -22q-91 0 -153 59t-62 145q0 90 65.5 149.5t163.5 59.5q30 0 86 -17q11 -4 18 -4q8 0 12.5 4t9.5 17h19z" />
    <glyph glyph-name="ordfeminine" unicode="&#xaa;" horiz-adv-x="276" 
d="M312 682l53 2q-50 -187 -52 -205q-3 -13 -3 -16q-1 -3 -1 -8q0 -6 4 -6q8 0 45 40l7 -10q-37 -42 -53.5 -54.5t-36.5 -12.5q-32 0 -32 26q0 20 17 62q-38 -52 -64 -70t-63 -18t-58.5 19t-21.5 53q0 70 61.5 135.5t127.5 65.5q52 0 61 -35l7 30zM262 667q-39 5 -87 -59
t-48 -120q0 -17 9 -29.5t21 -12.5q38 0 77 57q48 69 48 125q0 37 -20 39z" />
    <glyph glyph-name="guillemotleft" unicode="&#xab;" 
d="M65 219v9l36 28q68 53 84 68q97 85 105 85q7 0 7 -8q0 -19 -52 -74q-21 -23 -40 -39q-23 -23 -65 -68l21 -41q64 -116 64 -135q0 -7 -7 -7q-17 0 -62 69q-4 6 -22 28q-46 52 -69 85zM229 219v9l36 28q63 48 84 68q98 85 105 85t7 -8q0 -19 -52 -74q-21 -23 -40 -39
q-23 -23 -65 -68q5 -9 21 -41q64 -116 64 -135q0 -7 -7 -7q-18 0 -62 69q-9 14 -22 28q-47 52 -69 85z" />
    <glyph glyph-name="logicalnot" unicode="&#xac;" horiz-adv-x="675" 
d="M34 388h504v-270h-66v206h-438v64z" />
    <glyph glyph-name="uni00AD" unicode="&#xad;" horiz-adv-x="333" 
d="M289 259l-13 -64h-223l14 64h222z" />
    <glyph glyph-name="registered" unicode="&#xae;" horiz-adv-x="760" 
d="M247 503v15h177q54 0 85.5 -25t31.5 -68q0 -73 -79 -103l58 -79q42 -58 77 -86v-9h-64q-14 1 -28.5 17.5t-41.5 63.5q-35 56 -53 83h-48l1 -100q1 -36 8 -41q7 -4 41 -8v-15h-162v15q37 4 44 11q4 5 4 38l-2 242q-1 38 -8 41q-10 5 -41 8zM360 499l2 -169h43q68 0 68 89
q0 80 -71 80h-42zM407 675q147 0 247 -102.5t100 -252.5q0 -141 -99 -239.5t-240 -98.5q-146 0 -247.5 101.5t-101.5 247.5q0 143 99.5 243.5t241.5 100.5zM408 632q-117 0 -201.5 -88.5t-84.5 -212.5q0 -125 86.5 -215.5t205.5 -90.5q115 0 199.5 88t84.5 208
q0 128 -85 219.5t-205 91.5z" />
    <glyph glyph-name="macron" unicode="&#xaf;" horiz-adv-x="333" 
d="M146 709h307l-13 -43h-306z" />
    <glyph glyph-name="degree" unicode="&#xb0;" horiz-adv-x="400" 
d="M282 685q61 0 103.5 -42.5t42.5 -103.5t-41.5 -102.5t-103.5 -41.5q-60 0 -102.5 42.5t-42.5 103.5t41.5 102.5t102.5 41.5zM282 651q-43 0 -73.5 -32.5t-30.5 -77.5t31 -78.5t74 -33.5q44 0 74.5 32t30.5 78t-31.5 79t-74.5 33z" />
    <glyph glyph-name="plusminus" unicode="&#xb1;" horiz-adv-x="675" 
d="M113 60v54h497l1 -54h-498zM332 400l-2 223h54l2 -223h222v-54h-222l2 -162h-54l-1 162h-223v54h222z" />
    <glyph glyph-name="twosuperior" unicode="&#xb2;" horiz-adv-x="300" 
d="M301 363l11 -8l-33 -80h-234v18l134 132q92 90 92 140q0 28 -23 48t-56 20q-28 0 -48 -12t-43 -41l-13 8q17 42 42 64q41 33 94 33q47 0 80 -30t33 -73q0 -27 -17 -51t-82 -86l-114 -111l2 -5h109q29 1 42 7.5t24 26.5z" />
    <glyph glyph-name="threesuperior" unicode="&#xb3;" horiz-adv-x="300" 
d="M160 617l-11 7q16 29 44.5 45.5t62.5 16.5q41 0 68.5 -22.5t27.5 -55.5q0 -29 -21.5 -48t-79.5 -40l4 -2q28 -14 38 -25q22 -23 22 -63q0 -70 -52 -114t-134 -44q-74 0 -74 39q0 13 8.5 21t21.5 8t39 -18q26 -19 43 -19q37 0 61 26.5t24 66.5q0 47 -27.5 73.5t-75.5 26.5
h-13v9q148 28 148 95q0 23 -14.5 38t-36.5 15q-20 0 -35 -7t-38 -29z" />
    <glyph glyph-name="acute" unicode="&#xb4;" horiz-adv-x="333" 
d="M192 501l163 162q9 10 25 10t26.5 -10.5t10.5 -25.5q0 -18 -17 -29l-173 -107h-35z" />
    <glyph glyph-name="mu" unicode="&#xb5;" 
d="M510 434l-94 -341q-7 -27 -7 -37q0 -26 25 -26q23 0 58 27l-3 -9q-35 -33 -58.5 -45.5t-53.5 -12.5q-55 0 -55 56q0 16 5 35q-81 -91 -161 -91q-35 0 -61 18q-24 15 -38 59q-5 -37 -5 -91q-2 -188 -79 -188q-33 0 -33 42q0 45 44 123q29 65 38 102l103 379h89l-80 -288
q-4 -14 -4 -34q0 -30 18 -48t48 -18q68 0 127 71l88 317h89z" />
    <glyph glyph-name="paragraph" unicode="&#xb6;" horiz-adv-x="523" 
d="M296 640l8 -820h-66l-4 453q-47 1 -73 8.5t-52 24.5q-71 51 -71 174q0 96 49 139t158 43h263v-19q-58 -5 -72 -20t-15 -70l7 -733h-66l-8 820h-58zM234 295l-4 345q-48 -4 -75 -22q-41 -31 -41 -134q0 -126 52 -166q25 -19 68 -23z" />
    <glyph glyph-name="periodcentered" unicode="&#xb7;" horiz-adv-x="250" 
d="M138 315q24 0 41 -17.5t17 -41.5q0 -22 -17 -38t-41 -16q-23 0 -39 16.5t-16 39.5t16.5 40t38.5 17z" />
    <glyph glyph-name="cedilla" unicode="&#xb8;" horiz-adv-x="333" 
d="M37 -97l60 97h38l-44 -67q15 3 26 3q38 0 60.5 -19t22.5 -51q0 -38 -34 -62t-86 -24q-39 0 -94 21l17 30q41 -15 68 -15q54 0 54 41q0 19 -13.5 32t-33.5 13q-14 0 -32 -7z" />
    <glyph glyph-name="onesuperior" unicode="&#xb9;" horiz-adv-x="300" 
d="M263 291l1 -16h-184l-1 16q36 4 48.5 9t16.5 17l79 288q4 16 4 21q0 19 -19 19h-4l-34 -1l-1 19q50 7 71 12q49 9 54 9l4 1h3q5 0 5 -5q0 -7 -3 -16l-75 -278q-16 -62 -16 -72q0 -13 10.5 -17.5t40.5 -5.5z" />
    <glyph glyph-name="ordmasculine" unicode="&#xba;" horiz-adv-x="310" 
d="M293 685q43 0 71 -24t28 -62q0 -70 -62.5 -128.5t-136.5 -58.5q-45 0 -72 23t-27 62q0 73 61 130.5t138 57.5zM286 663q-41 3 -79.5 -56t-38.5 -124q0 -21 10.5 -34t28.5 -13q29 0 50 23q27 28 44 71.5t17 84.5q0 47 -32 48z" />
    <glyph glyph-name="guillemotright" unicode="&#xbb;" 
d="M464 227v-9l-36 -28q-61 -48 -84 -68q-97 -85 -105 -85q-7 0 -7 8q0 18 52 74q21 23 40 39q23 23 65 68q-10 19 -21 41q-64 118 -64 135q0 7 7 7q15 0 62 -69q10 -13 22 -28q45 -51 69 -85zM299 227l1 -9q-24 -18 -36 -28q-68 -53 -84 -68q-98 -85 -105 -85t-7 8
q0 18 52 74q21 23 40 39q28 28 64 68l-8.5 17t-8 15.5t-4.5 8.5q-63 119 -63 135q0 7 7 7q15 0 62 -69q10 -13 22 -28q49 -56 68 -85z" />
    <glyph glyph-name="onequarter" unicode="&#xbc;" horiz-adv-x="750" 
d="M672 149l-7 -44h-59l-26 -105h-64l28 106h-170l11 43l263 263h37l-69 -263h56zM604 338l-183 -189h130zM241 291l1 -16h-183l-1 16q35 4 48 9t17 17l78 288q4 13 4 20q0 20 -19 20h-5l-32 -1l-1 19q9 1 70 12q52 10 61 10q5 0 5 -6q0 -3 -2 -15l-75 -278q-16 -58 -16 -72
q0 -13 10 -17.5t40 -5.5zM639 685l-430 -695h-52l431 695h51z" />
    <glyph glyph-name="onehalf" unicode="&#xbd;" horiz-adv-x="750" 
d="M616 685l-431 -695h-51l430 695h52zM241 291l1 -16h-183l-1 16q35 4 48 9t17 17l78 288q4 13 4 20q0 20 -19 20h-5l-32 -1l-1 19q9 1 70 12q52 10 61 10q5 0 5 -6q0 -3 -2 -15l-75 -278q-16 -58 -16 -72q0 -13 10 -17.5t40 -5.5zM690 88l11 -8l-29 -80h-235l-1 18
l129 132q89 91 89 138q0 29 -24 50t-58 21q-28 0 -47.5 -12t-41.5 -42l-14 9q17 42 41 64q39 34 92 34q47 0 82 -32t35 -75q0 -26 -16 -48.5t-79 -85.5l-110 -112l2 -5h109q29 1 42 7.5t23 26.5z" />
    <glyph glyph-name="threequarters" unicode="&#xbe;" horiz-adv-x="750" 
d="M689 149l-8 -44h-58l-26 -105h-64l28 106h-171l12 43l263 263h36l-68 -263h56zM620 338l-183 -189h131zM149 617l-11 7q33 62 105 62q41 0 70 -23t29 -57q0 -29 -21 -47.5t-77 -38.5l4 -2q30 -15 39 -25q25 -25 25 -68q0 -68 -50.5 -110.5t-130.5 -42.5q-76 0 -76 40
q0 12 8.5 20t20.5 8q13 0 40 -18q27 -19 44 -19q35 0 58.5 25.5t23.5 63.5q0 48 -29 76t-78 28h-13v9q144 26 144 93q0 23 -15.5 39t-38.5 16q-19 0 -33 -7.5t-38 -28.5zM640 685l-431 -695h-52l431 695h52z" />
    <glyph glyph-name="questiondown" unicode="&#xbf;" 
d="M298 289l17 -2q-12 -75 -30 -110.5t-81 -108.5q-49 -54 -68 -90.5t-19 -76.5q0 -42 21 -64.5t61 -22.5q33 0 52 13t19 35q0 11 -8 28q-8 15 -8 25q0 16 11 26t29 10q40 0 40 -49t-39.5 -79.5t-101.5 -30.5q-69 0 -110 36t-41 96q0 47 24 79.5t110 102.5q54 44 79.5 77.5
t35.5 76.5zM328 477q23 0 38.5 -15t15.5 -37t-15.5 -37t-37.5 -15t-38 15.5t-16 36.5t15.5 36.5t37.5 15.5z" />
    <glyph glyph-name="Agrave" unicode="&#xc0;" horiz-adv-x="611" 
d="M584 16v-16h-250v16q49 5 64 14.5t15 36.5q0 14 -3 29l-21 133h-223l-57 -114q-20 -41 -20 -62q0 -20 10.5 -26t50.5 -11v-16h-190v16q31 6 50.5 29.5t78.5 124.5l290 508h26l101 -575q10 -56 22.5 -69.5t55.5 -17.5zM187 266h197l-48 264zM440 714l-143 107
q-19 15 -19 33q0 14 10 24t25 10q21 0 40 -23l119 -151h-32z" />
    <glyph glyph-name="Aacute" unicode="&#xc1;" horiz-adv-x="611" 
d="M584 16v-16h-250v16q49 5 64 14.5t15 36.5q0 14 -3 29l-21 133h-223l-57 -114q-20 -41 -20 -62q0 -20 10.5 -26t50.5 -11v-16h-190v16q31 6 50.5 29.5t78.5 124.5l290 508h26l101 -575q10 -56 22.5 -69.5t55.5 -17.5zM187 266h197l-48 264zM329 716l162 162q10 10 25 10
q16 0 26.5 -10.5t10.5 -25.5q0 -18 -17 -28l-172 -108h-35z" />
    <glyph glyph-name="Acircumflex" unicode="&#xc2;" horiz-adv-x="611" 
d="M584 16v-16h-250v16q49 5 64 14.5t15 36.5q0 14 -3 29l-21 133h-223l-57 -114q-20 -41 -20 -62q0 -20 10.5 -26t50.5 -11v-16h-190v16q31 6 50.5 29.5t78.5 124.5l290 508h26l101 -575q10 -56 22.5 -69.5t55.5 -17.5zM187 266h197l-48 264zM451 885l91 -171h-37l-84 105
l-138 -105h-40l158 171h50z" />
    <glyph glyph-name="Atilde" unicode="&#xc3;" horiz-adv-x="611" 
d="M584 16v-16h-250v16q49 5 64 14.5t15 36.5q0 14 -3 29l-21 133h-223l-57 -114q-20 -41 -20 -62q0 -20 10.5 -26t50.5 -11v-16h-190v16q31 6 50.5 29.5t78.5 124.5l290 508h26l101 -575q10 -56 22.5 -69.5t55.5 -17.5zM187 266h197l-48 264zM549 848h29q-22 -106 -95 -106
q-20 0 -59 16q-75 29 -96 29q-38 0 -51 -48h-30q15 59 38 83.5t63 24.5q34 0 87 -25q42 -19 63 -19t32.5 10t18.5 35z" />
    <glyph glyph-name="Adieresis" unicode="&#xc4;" horiz-adv-x="611" 
d="M584 16v-16h-250v16q49 5 64 14.5t15 36.5q0 14 -3 29l-21 133h-223l-57 -114q-20 -41 -20 -62q0 -20 10.5 -26t50.5 -11v-16h-190v16q31 6 50.5 29.5t78.5 124.5l290 508h26l101 -575q10 -56 22.5 -69.5t55.5 -17.5zM187 266h197l-48 264zM298 829q19 0 34 -15.5
t15 -34.5q0 -20 -14.5 -34.5t-34.5 -14.5q-21 0 -35.5 14.5t-14.5 36.5q0 20 14.5 34t35.5 14zM501 829q19 0 34 -15.5t15 -34.5q0 -20 -14.5 -34.5t-34.5 -14.5q-21 0 -35.5 14.5t-14.5 36.5q0 20 14.5 34t35.5 14z" />
    <glyph glyph-name="Aring" unicode="&#xc5;" horiz-adv-x="611" 
d="M584 16v-16h-250v16q49 5 64 14.5t15 36.5q0 14 -3 29l-21 133h-223l-57 -114q-20 -41 -20 -62q0 -20 10.5 -26t50.5 -11v-16h-190v16q31 6 50.5 29.5t78.5 124.5l290 508h26l101 -575q10 -56 22.5 -69.5t55.5 -17.5zM187 266h197l-48 264zM397 917q42 0 72.5 -30
t30.5 -72q0 -41 -29.5 -70.5t-71.5 -29.5q-43 0 -72.5 30t-29.5 73q0 41 29.5 70t70.5 29zM397 883q-26 0 -45.5 -19.5t-19.5 -46.5q0 -29 19 -48.5t47 -19.5q29 0 48 19t19 47q0 29 -19.5 48.5t-48.5 19.5z" />
    <glyph glyph-name="AE" unicode="&#xc6;" horiz-adv-x="889" 
d="M846 171l19 -5l-64 -166h-505v16q46 4 59 12t22 37l48 172h-193q-5 -6 -10 -12.5t-9.5 -11.5t-5.5 -7q-100 -120 -100 -159q0 -14 13 -20.5t53 -10.5v-16h-190v16q18 4 33 18t51 59l370 472q23 29 27.5 36.5t4.5 17.5q0 13 -9 18q-8 5 -56 10v15h524l-32 -155l-17 2v35
q0 55 -35 70t-160 15q-36 0 -47 -6.5t-18 -31.5l-59 -225l69 1.5t48 4.5t34.5 9t22.5 18t20 26.5t19 39.5l18 -4l-68 -236l-17 4q6 36 6 52q0 32 -23.5 42t-97.5 10h-40l-7 -24q-63 -233 -63 -246q0 -30 52 -30h31q114 1 171 28.5t111 109.5zM260 275h176l93 347z" />
    <glyph glyph-name="Ccedilla" unicode="&#xc7;" horiz-adv-x="667" 
d="M292 -12l-35 -41q20 2 25 2q39 0 61.5 -14.5t22.5 -39.5q0 -30 -33.5 -48.5t-87.5 -18.5q-38 0 -93 17l17 23q39 -13 69 -13q53 0 53 32q0 15 -13.5 25t-33.5 10q-14 0 -32 -5l-9 6l56 71q-84 24 -133.5 93t-49.5 162q0 110 56.5 209t151 158t200.5 59q49 0 119 -17
q29 -7 41 -7q28 0 38 22h22l-36 -201l-18 3q-17 163 -157 163q-103 0 -178 -78q-59 -61 -92 -146t-33 -174q0 -101 47 -157t132 -56q63 0 113.5 26t118.5 94l18 -14q-55 -65 -100 -95q-85 -57 -159 -57q-13 0 -68 7z" />
    <glyph glyph-name="Egrave" unicode="&#xc8;" horiz-adv-x="611" 
d="M649 662l-30 -155l-21 2q1 17 1 45q0 46 -37.5 60.5t-157.5 14.5q-43 0 -56 -4.5t-18 -21.5l-65 -237q72 2 81 2q69 3 89.5 17.5t48.5 79.5l19 -5l-67 -235l-20 5q6 28 6 51q0 27 -11 36q-12 10 -61 12l-46 1l-48 3q-26 -102 -31 -117q-35 -128 -35 -149q0 -34 80 -34
q125 0 183 28q33 15 57.5 38.5t59.5 72.5l17 -8l-62 -164h-514v16q43 7 55.5 19t25.5 56l121 449q11 40 11 64q0 21 -15.5 29.5t-63.5 12.5v16h504zM455 714l-143 107q-19 15 -19 33q0 14 10 24t25 10q21 0 40 -23l119 -151h-32z" />
    <glyph glyph-name="Eacute" unicode="&#xc9;" horiz-adv-x="611" 
d="M649 662l-30 -155l-21 2q1 17 1 45q0 46 -37.5 60.5t-157.5 14.5q-43 0 -56 -4.5t-18 -21.5l-65 -237q72 2 81 2q69 3 89.5 17.5t48.5 79.5l19 -5l-67 -235l-20 5q6 28 6 51q0 27 -11 36q-12 10 -61 12l-46 1l-48 3q-26 -102 -31 -117q-35 -128 -35 -149q0 -34 80 -34
q125 0 183 28q33 15 57.5 38.5t59.5 72.5l17 -8l-62 -164h-514v16q43 7 55.5 19t25.5 56l121 449q11 40 11 64q0 21 -15.5 29.5t-63.5 12.5v16h504zM350 716l163 162q9 10 25 10t26.5 -10.5t10.5 -25.5q0 -18 -17 -28l-172 -108h-36z" />
    <glyph glyph-name="Ecircumflex" unicode="&#xca;" horiz-adv-x="611" 
d="M649 662l-30 -155l-21 2q1 17 1 45q0 46 -37.5 60.5t-157.5 14.5q-43 0 -56 -4.5t-18 -21.5l-65 -237q72 2 81 2q69 3 89.5 17.5t48.5 79.5l19 -5l-67 -235l-20 5q6 28 6 51q0 27 -11 36q-12 10 -61 12l-46 1l-48 3q-26 -102 -31 -117q-35 -128 -35 -149q0 -34 80 -34
q125 0 183 28q33 15 57.5 38.5t59.5 72.5l17 -8l-62 -164h-514v16q43 7 55.5 19t25.5 56l121 449q11 40 11 64q0 21 -15.5 29.5t-63.5 12.5v16h504zM481 885l91 -171h-36l-85 105l-138 -105h-39l158 171h49z" />
    <glyph glyph-name="Edieresis" unicode="&#xcb;" horiz-adv-x="611" 
d="M649 662l-30 -155l-21 2q1 17 1 45q0 46 -37.5 60.5t-157.5 14.5q-43 0 -56 -4.5t-18 -21.5l-65 -237q72 2 81 2q69 3 89.5 17.5t48.5 79.5l19 -5l-67 -235l-20 5q6 28 6 51q0 27 -11 36q-12 10 -61 12l-46 1l-48 3q-26 -102 -31 -117q-35 -128 -35 -149q0 -34 80 -34
q125 0 183 28q33 15 57.5 38.5t59.5 72.5l17 -8l-62 -164h-514v16q43 7 55.5 19t25.5 56l121 449q11 40 11 64q0 21 -15.5 29.5t-63.5 12.5v16h504zM326 829q19 0 34 -15.5t15 -34.5q0 -20 -14.5 -34.5t-34.5 -14.5q-21 0 -35.5 14.5t-14.5 36.5q0 20 14.5 34t35.5 14z
M528 829q19 0 34 -15.5t15 -34.5q0 -20 -14.5 -34.5t-34.5 -14.5q-21 0 -35.5 14.5t-14.5 36.5q0 20 14.5 34t35.5 14z" />
    <glyph glyph-name="Igrave" unicode="&#xcc;" horiz-adv-x="333" 
d="M6 0v16q43 7 55.5 19t25.5 56l121 448q11 41 11 62q0 22 -13.5 30.5t-58.5 14.5v16h250l1 -16q-44 -8 -57 -19.5t-26 -55.5l-120 -449q-11 -38 -11 -63q0 -22 12.5 -30t56.5 -13l1 -16h-248zM334 714l-143 107q-20 16 -20 33q0 14 10 24t25 10q21 0 40 -23l119 -151h-31z
" />
    <glyph glyph-name="Iacute" unicode="&#xcd;" horiz-adv-x="333" 
d="M6 0v16q43 7 55.5 19t25.5 56l121 448q11 41 11 62q0 22 -13.5 30.5t-58.5 14.5v16h250l1 -16q-44 -8 -57 -19.5t-26 -55.5l-120 -449q-11 -38 -11 -63q0 -22 12.5 -30t56.5 -13l1 -16h-248zM205 716l163 162q9 10 25 10t26.5 -10.5t10.5 -25.5q0 -18 -17 -28l-173 -108
h-35z" />
    <glyph glyph-name="Icircumflex" unicode="&#xce;" horiz-adv-x="333" 
d="M6 0v16q43 7 55.5 19t25.5 56l121 448q11 41 11 62q0 22 -13.5 30.5t-58.5 14.5v16h250l1 -16q-44 -8 -57 -19.5t-26 -55.5l-120 -449q-11 -38 -11 -63q0 -22 12.5 -30t56.5 -13l1 -16h-248zM348 885l90 -171h-36l-84 105l-138 -105h-40l158 171h50z" />
    <glyph glyph-name="Idieresis" unicode="&#xcf;" horiz-adv-x="333" 
d="M6 0v16q43 7 55.5 19t25.5 56l121 448q11 41 11 62q0 22 -13.5 30.5t-58.5 14.5v16h250l1 -16q-44 -8 -57 -19.5t-26 -55.5l-120 -449q-11 -38 -11 -63q0 -22 12.5 -30t56.5 -13l1 -16h-248zM196 829q19 0 34 -15.5t15 -34.5q0 -20 -14.5 -34.5t-34.5 -14.5
q-21 0 -35.5 14.5t-14.5 36.5q0 20 14.5 34t35.5 14zM399 829q19 0 34 -15.5t15 -34.5q0 -20 -14.5 -34.5t-34.5 -14.5q-21 0 -35.5 14.5t-14.5 36.5q0 20 14.5 34t35.5 14z" />
    <glyph glyph-name="Eth" unicode="&#xd0;" horiz-adv-x="722" 
d="M57 330l12 43h91l45 167q10 40 10 64q0 21 -15 29.5t-63 12.5v16h282q137 0 217.5 -74.5t80.5 -201.5q0 -88 -40.5 -166.5t-112.5 -131.5q-120 -88 -304 -88h-257v16q43 8 55.5 19.5t25.5 55.5l64 239h-91zM416 373l-11 -43h-156l-45 -166q-21 -77 -21 -96
q0 -20 15.5 -29t50.5 -9q157 0 247 91q50 52 79 129.5t29 160.5q0 127 -79 184q-49 37 -137 37q-33 0 -46.5 -6t-18.5 -23l-62 -230h155z" />
    <glyph glyph-name="Ntilde" unicode="&#xd1;" horiz-adv-x="667" 
d="M742 662l1 -16q-48 -11 -62.5 -32t-41.5 -119l-142 -510h-18l-239 557l-111 -427q-9 -33 -9 -54q0 -22 16 -32t56 -13v-16h-201v16q43 6 59 29t44 121l117 423q-14 30 -33 42t-55 15v16h163l216 -506l100 385q0 1 2 9q8 29 8 43q0 29 -14 39t-57 14v16h201zM599 848h28
q-20 -106 -95 -106q-18 0 -59 16q-71 29 -96 29q-38 0 -51 -48h-29q14 58 37 83t63 25q34 0 87 -25q42 -19 63 -19t32.5 10t19.5 35z" />
    <glyph glyph-name="Ograve" unicode="&#xd2;" horiz-adv-x="722" 
d="M486 675q103 0 169 -73t61 -181q-4 -84 -41.5 -164.5t-95 -140.5t-133 -97t-152.5 -37q-98 0 -161 69t-63 177q0 88 41.5 175t117.5 157q124 115 257 115zM477 641q-109 0 -192 -120q-45 -66 -76.5 -163t-31.5 -169q0 -84 34.5 -129t98.5 -45q106 0 189 120q48 71 79 169
t31 180q0 73 -35.5 115t-96.5 42zM530 714l-143 107q-19 15 -19 33q0 14 10 24t25 10q21 0 40 -23l119 -151h-32z" />
    <glyph glyph-name="Oacute" unicode="&#xd3;" horiz-adv-x="722" 
d="M486 675q103 0 169 -73t61 -181q-4 -84 -41.5 -164.5t-95 -140.5t-133 -97t-152.5 -37q-98 0 -161 69t-63 177q0 88 41.5 175t117.5 157q124 115 257 115zM477 641q-109 0 -192 -120q-45 -66 -76.5 -163t-31.5 -169q0 -84 34.5 -129t98.5 -45q106 0 189 120q48 71 79 169
t31 180q0 73 -35.5 115t-96.5 42zM399 716l162 162q10 10 25 10q16 0 26.5 -10.5t10.5 -25.5q0 -18 -17 -28l-172 -108h-35z" />
    <glyph glyph-name="Ocircumflex" unicode="&#xd4;" horiz-adv-x="722" 
d="M486 675q103 0 169 -73t61 -181q-4 -84 -41.5 -164.5t-95 -140.5t-133 -97t-152.5 -37q-98 0 -161 69t-63 177q0 88 41.5 175t117.5 157q124 115 257 115zM477 641q-109 0 -192 -120q-45 -66 -76.5 -163t-31.5 -169q0 -84 34.5 -129t98.5 -45q106 0 189 120q48 71 79 169
t31 180q0 73 -35.5 115t-96.5 42zM543 885l90 -171h-36l-84 105l-138 -105h-40l158 171h50z" />
    <glyph glyph-name="Otilde" unicode="&#xd5;" horiz-adv-x="722" 
d="M486 675q103 0 169 -73t61 -181q-4 -84 -41.5 -164.5t-95 -140.5t-133 -97t-152.5 -37q-98 0 -161 69t-63 177q0 88 41.5 175t117.5 157q124 115 257 115zM477 641q-109 0 -192 -120q-45 -66 -76.5 -163t-31.5 -169q0 -84 34.5 -129t98.5 -45q106 0 189 120q48 71 79 169
t31 180q0 73 -35.5 115t-96.5 42zM628 848h28q-20 -106 -95 -106q-18 0 -59 16q-71 29 -96 29q-38 0 -51 -48h-30q15 59 38 83.5t63 24.5q34 0 87 -25q42 -19 63 -19t32.5 10t19.5 35z" />
    <glyph glyph-name="Odieresis" unicode="&#xd6;" horiz-adv-x="722" 
d="M486 675q103 0 169 -73t61 -181q-4 -84 -41.5 -164.5t-95 -140.5t-133 -97t-152.5 -37q-98 0 -161 69t-63 177q0 88 41.5 175t117.5 157q124 115 257 115zM477 641q-109 0 -192 -120q-45 -66 -76.5 -163t-31.5 -169q0 -84 34.5 -129t98.5 -45q106 0 189 120q48 71 79 169
t31 180q0 73 -35.5 115t-96.5 42zM383 829q19 0 34 -15.5t15 -34.5q0 -20 -14.5 -34.5t-34.5 -14.5q-21 0 -35.5 14.5t-14.5 36.5q0 20 14.5 34t35.5 14zM586 829q19 0 34 -15.5t15 -34.5q0 -20 -14.5 -34.5t-34.5 -14.5q-21 0 -35.5 14.5t-14.5 36.5q0 20 14.5 34t35.5 14z
" />
    <glyph glyph-name="multiply" unicode="&#xd7;" horiz-adv-x="675" 
d="M326 310l-201 199l39 39l201 -200l197 200l40 -39l-198 -199l202 -200l-39 -39l-202 200l-197 -200l-39 39z" />
    <glyph glyph-name="Oslash" unicode="&#xd8;" horiz-adv-x="722" 
d="M683 732l-64 -97q42 -33 61 -65q36 -61 36 -136q0 -112 -60.5 -217.5t-158 -170t-201.5 -64.5q-40 0 -95 21l-74 -109h-45l86 128q-30 22 -48 45q-50 64 -50 162q0 88 42 174.5t118 156.5q124 115 250 115q54 0 106 -22l52 79h45zM203 75l356 540q-36 27 -83 27
q-107 0 -191 -120q-47 -69 -77.5 -165.5t-30.5 -174.5q0 -56 26 -107zM584 582l-355 -537q33 -30 81 -30q107 0 189 119q47 69 78.5 167.5t31.5 177.5q0 57 -25 103z" />
    <glyph glyph-name="Ugrave" unicode="&#xd9;" horiz-adv-x="722" 
d="M781 662v-16q-27 -6 -38 -10t-23.5 -22t-19.5 -41t-23 -78l-82 -289q-63 -224 -259 -224q-97 0 -160 47.5t-63 120.5q0 61 41 214l52 195q7 24 7 45q0 23 -14 30.5t-65 11.5v16h276l1 -16q-51 -5 -70.5 -22t-35.5 -70q0 -1 -1 -4.5t-2.5 -8.5t-1.5 -6q-96 -334 -96 -391
q0 -53 39.5 -86.5t103.5 -33.5q106 0 165 95q31 50 54 140q10 40 13 49q72 266 72 291q0 24 -18 34q-13 9 -54 13v16h202zM522 714l-143 107q-19 15 -19 33q0 14 10 24t25 10q21 0 40 -23l119 -151h-32z" />
    <glyph glyph-name="Uacute" unicode="&#xda;" horiz-adv-x="722" 
d="M781 662v-16q-27 -6 -38 -10t-23.5 -22t-19.5 -41t-23 -78l-82 -289q-63 -224 -259 -224q-97 0 -160 47.5t-63 120.5q0 61 41 214l52 195q7 24 7 45q0 23 -14 30.5t-65 11.5v16h276l1 -16q-51 -5 -70.5 -22t-35.5 -70q0 -1 -1 -4.5t-2.5 -8.5t-1.5 -6q-96 -334 -96 -391
q0 -53 39.5 -86.5t103.5 -33.5q106 0 165 95q31 50 54 140q10 40 13 49q72 266 72 291q0 24 -18 34q-13 9 -54 13v16h202zM468 716l163 162q10 10 25 10q16 0 26.5 -10.5t10.5 -25.5q0 -18 -17 -28l-173 -108h-35z" />
    <glyph glyph-name="Ucircumflex" unicode="&#xdb;" horiz-adv-x="722" 
d="M781 662v-16q-27 -6 -38 -10t-23.5 -22t-19.5 -41t-23 -78l-82 -289q-63 -224 -259 -224q-97 0 -160 47.5t-63 120.5q0 61 41 214l52 195q7 24 7 45q0 23 -14 30.5t-65 11.5v16h276l1 -16q-51 -5 -70.5 -22t-35.5 -70q0 -1 -1 -4.5t-2.5 -8.5t-1.5 -6q-96 -334 -96 -391
q0 -53 39.5 -86.5t103.5 -33.5q106 0 165 95q31 50 54 140q10 40 13 49q72 266 72 291q0 24 -18 34q-13 9 -54 13v16h202zM547 885l91 -171h-37l-84 105l-138 -105h-39l157 171h50z" />
    <glyph glyph-name="Udieresis" unicode="&#xdc;" horiz-adv-x="722" 
d="M781 662v-16q-27 -6 -38 -10t-23.5 -22t-19.5 -41t-23 -78l-82 -289q-63 -224 -259 -224q-97 0 -160 47.5t-63 120.5q0 61 41 214l52 195q7 24 7 45q0 23 -14 30.5t-65 11.5v16h276l1 -16q-51 -5 -70.5 -22t-35.5 -70q0 -1 -1 -4.5t-2.5 -8.5t-1.5 -6q-96 -334 -96 -391
q0 -53 39.5 -86.5t103.5 -33.5q106 0 165 95q31 50 54 140q10 40 13 49q72 266 72 291q0 24 -18 34q-13 9 -54 13v16h202zM411 829q19 0 34 -15.5t15 -34.5q0 -20 -14.5 -34.5t-34.5 -14.5q-21 0 -35.5 14.5t-14.5 35.5t14.5 35t35.5 14zM614 829q19 0 34 -15.5t15 -34.5
q0 -20 -14.5 -34.5t-34.5 -14.5q-21 0 -35.5 14.5t-14.5 35.5t14.5 35t35.5 14z" />
    <glyph glyph-name="Yacute" unicode="&#xdd;" horiz-adv-x="556" 
d="M99 646v16h242l1 -16q-46 -4 -59.5 -11t-13.5 -25q0 -23 38 -146q21 -71 32 -112q15 18 39 46q150 176 150 216q0 15 -10 20q-12 6 -61 12v16h192v-16q-22 -10 -34 -20.5t-37 -41.5l-219 -274l-29 -102q0 -2 -1 -5t-2 -7.5t-2 -7.5q-31 -104 -31 -131q0 -21 13 -28
q14 -8 41 -10q13 0 37 -3v-16h-293v16q50 4 71.5 19t34.5 56l60 215l-81 273q-14 42 -24.5 51.5t-53.5 15.5zM364 716l163 162q10 10 25 10q16 0 26.5 -10.5t10.5 -25.5q0 -18 -17 -28l-172 -108h-36z" />
    <glyph glyph-name="Thorn" unicode="&#xde;" horiz-adv-x="611" 
d="M154 646v16h241v-16q-30 -4 -42.5 -12.5t-19.5 -30.5l-20 -78h57q105 0 160.5 -39.5t55.5 -113.5q0 -93 -79 -151q-64 -49 -198 -49q-54 0 -90 10l-16 -60q-12 -43 -12 -57q0 -27 10.5 -34.5t58.5 -14.5l1 -16h-249v16q43 6 55.5 17.5t26.5 57.5l116 431q17 64 17 81
q0 20 -14.5 29t-58.5 14zM298 465l-70 -251q30 -5 53 -5q89 0 134 26q67 38 67 136q0 71 -39 100q-36 24 -98 24q-39 0 -47 -30z" />
    <glyph glyph-name="germandbls" unicode="&#xdf;" 
d="M344 389v-3q42 -5 66 -21q27 -18 43 -49.5t16 -66.5q0 -53 -23.5 -109t-63.5 -96q-55 -57 -131 -57q-37 0 -59 18.5t-22 47.5q0 22 12.5 35t32.5 13q18 0 28.5 -11t10.5 -29q0 -14 -8 -27q-5 -8 -5 -12q0 -13 18 -13q41 0 72 55q22 38 36 95.5t14 107.5q0 53 -19.5 79
t-62.5 29q-16 1 -21 4t-5 11q0 13 18 13q56 0 95 44q44 49 44 140q0 79 -62 79q-89 0 -149 -222l-116 -432q-29 -105 -79 -163.5t-111 -58.5q-35 0 -56.5 17.5t-21.5 45.5q0 43 40 43q17 0 28.5 -10t11.5 -26q0 -14 -8 -28q-4 -5 -4 -9q0 -9 17 -9q38 0 62 39.5t48 142.5
l76 323q45 195 107.5 282.5t157.5 87.5q63 0 101.5 -36t38.5 -95q0 -57 -37 -95.5t-121 -70.5z" />
    <glyph glyph-name="agrave" unicode="&#xe0;" 
d="M478 112l12 -11q-58 -69 -84.5 -90t-57.5 -21q-40 0 -40 41q0 27 25 117q-69 -94 -110.5 -126.5t-95.5 -32.5q-48 0 -75 29.5t-27 81.5q0 78 44.5 159.5t113.5 134.5t135 53q68 0 81 -58l11 48l3 3l62 7l7 -3q-1 -4 -6 -21q-94 -329 -94 -368q0 -13 14 -13q13 0 53 41
l6.5 6.5l10 10zM324 425q-65 5 -130 -88q-34 -49 -59 -115.5t-25 -108.5q0 -35 15.5 -54.5t43.5 -19.5q47 0 88 44q53 57 88 137.5t35 143.5q0 26 -15.5 43t-40.5 18zM380 499l-142 107q-18 15 -18 33q0 14 10 24t26 10q20 0 39 -23l116 -151h-31z" />
    <glyph glyph-name="aacute" unicode="&#xe1;" 
d="M478 112l12 -11q-58 -69 -84.5 -90t-57.5 -21q-40 0 -40 41q0 27 25 117q-69 -94 -110.5 -126.5t-95.5 -32.5q-48 0 -75 29.5t-27 81.5q0 78 44.5 159.5t113.5 134.5t135 53q68 0 81 -58l11 48l3 3l62 7l7 -3q-1 -4 -6 -21q-94 -329 -94 -368q0 -13 14 -13q13 0 53 41
l6.5 6.5l10 10zM324 425q-65 5 -130 -88q-34 -49 -59 -115.5t-25 -108.5q0 -35 15.5 -54.5t43.5 -19.5q47 0 88 44q53 57 88 137.5t35 143.5q0 26 -15.5 43t-40.5 18zM293 501l166 162q10 10 25 10q16 0 26.5 -10t10.5 -26q0 -18 -18 -29l-174 -107h-36z" />
    <glyph glyph-name="acircumflex" unicode="&#xe2;" 
d="M478 112l12 -11q-58 -69 -84.5 -90t-57.5 -21q-40 0 -40 41q0 27 25 117q-69 -94 -110.5 -126.5t-95.5 -32.5q-48 0 -75 29.5t-27 81.5q0 78 44.5 159.5t113.5 134.5t135 53q68 0 81 -58l11 48l3 3l62 7l7 -3q-1 -4 -6 -21q-94 -329 -94 -368q0 -13 14 -13q13 0 53 41
l6.5 6.5l10 10zM324 425q-65 5 -130 -88q-34 -49 -59 -115.5t-25 -108.5q0 -35 15.5 -54.5t43.5 -19.5q47 0 88 44q53 57 88 137.5t35 143.5q0 26 -15.5 43t-40.5 18zM398 670l88 -171h-36l-83 105l-139 -105h-40l161 171h49z" />
    <glyph glyph-name="atilde" unicode="&#xe3;" 
d="M478 112l12 -11q-58 -69 -84.5 -90t-57.5 -21q-40 0 -40 41q0 27 25 117q-69 -94 -110.5 -126.5t-95.5 -32.5q-48 0 -75 29.5t-27 81.5q0 78 44.5 159.5t113.5 134.5t135 53q68 0 81 -58l11 48l3 3l62 7l7 -3q-1 -4 -6 -21q-94 -329 -94 -368q0 -13 14 -13q13 0 53 41
l6.5 6.5l10 10zM324 425q-65 5 -130 -88q-34 -49 -59 -115.5t-25 -108.5q0 -35 15.5 -54.5t43.5 -19.5q47 0 88 44q53 57 88 137.5t35 143.5q0 26 -15.5 43t-40.5 18zM502 633h28q-23 -106 -97 -106q-19 0 -58 16q-71 29 -96 29q-37 0 -52 -48h-29q16 59 39 83.5t63 24.5
q31 0 87 -25q42 -19 63 -19q20 0 31.5 10t20.5 35z" />
    <glyph glyph-name="adieresis" unicode="&#xe4;" 
d="M478 112l12 -11q-58 -69 -84.5 -90t-57.5 -21q-40 0 -40 41q0 27 25 117q-69 -94 -110.5 -126.5t-95.5 -32.5q-48 0 -75 29.5t-27 81.5q0 78 44.5 159.5t113.5 134.5t135 53q68 0 81 -58l11 48l3 3l62 7l7 -3q-1 -4 -6 -21q-94 -329 -94 -368q0 -13 14 -13q13 0 53 41
l6.5 6.5l10 10zM324 425q-65 5 -130 -88q-34 -49 -59 -115.5t-25 -108.5q0 -35 15.5 -54.5t43.5 -19.5q47 0 88 44q53 57 88 137.5t35 143.5q0 26 -15.5 43t-40.5 18zM256 614q19 0 33.5 -15t14.5 -34q0 -21 -14.5 -35.5t-35.5 -14.5t-35 14.5t-14 35.5q0 20 15 34.5
t36 14.5zM459 614q19 0 33.5 -15t14.5 -34q0 -21 -14.5 -35.5t-35.5 -14.5t-35 14.5t-14 35.5q0 20 15 34.5t36 14.5z" />
    <glyph glyph-name="aring" unicode="&#xe5;" 
d="M478 112l12 -11q-58 -69 -84.5 -90t-57.5 -21q-40 0 -40 41q0 27 25 117q-69 -94 -110.5 -126.5t-95.5 -32.5q-48 0 -75 29.5t-27 81.5q0 78 44.5 159.5t113.5 134.5t135 53q68 0 81 -58l11 48l3 3l62 7l7 -3q-1 -4 -6 -21q-94 -329 -94 -368q0 -13 14 -13q13 0 53 41
l6.5 6.5l10 10zM324 425q-65 5 -130 -88q-34 -49 -59 -115.5t-25 -108.5q0 -35 15.5 -54.5t43.5 -19.5q47 0 88 44q53 57 88 137.5t35 143.5q0 26 -15.5 43t-40.5 18zM355 717q42 0 72 -29.5t30 -71.5q0 -41 -30 -71t-72 -30q-43 0 -72 29t-29 72q0 41 30 71t71 30zM354 683
q-26 0 -46 -20t-20 -47q0 -28 19 -47.5t46 -19.5q29 0 49 19.5t20 47.5t-20 47.5t-48 19.5z" />
    <glyph glyph-name="ae" unicode="&#xe6;" horiz-adv-x="667" 
d="M603 115l10 -13q-44 -52 -97.5 -82.5t-101.5 -30.5q-47 0 -77 34t-30 87q0 18 6 43q-65 -94 -107 -129t-91 -35q-38 0 -61.5 26.5t-23.5 68.5q0 77 45 163t113 143t129 57q26 0 40 -10t27 -37l19 43l72 2l-23 -62q68 64 124 64q38 0 60 -19t22 -51q0 -59 -65 -101
q-53 -35 -196 -75q-9 -36 -9 -63q0 -101 70 -101q62 0 145 78zM318 427q-39 2 -85 -48.5t-79 -128.5t-37 -150q-3 -60 34 -60q43 0 81 41q56 60 94 145.5t38 149.5q0 23 -12.5 36.5t-33.5 14.5zM403 226q68 17 105.5 38.5t61.5 56.5q21 31 21 65q0 36 -35 36q-36 0 -67 -33
q-27 -29 -44.5 -62t-41.5 -101z" />
    <glyph glyph-name="ccedilla" unicode="&#xe7;" horiz-adv-x="444" 
d="M183 -11l-38 -56q16 3 27 3q37 0 59.5 -18.5t22.5 -49.5q0 -38 -34.5 -63t-87.5 -25q-39 0 -94 21l17 30q41 -15 69 -15q55 0 55 42q0 19 -13.5 31.5t-33.5 12.5q-14 0 -32 -7l-9 8l57 91q-103 26 -103 145t90.5 213.5t205.5 94.5q46 0 76 -23.5t30 -58.5
q0 -20 -14 -33.5t-34 -13.5q-40 0 -40 38q0 13 9 30q6 15 6 19q0 21 -38 21q-63 0 -110 -49q-43 -45 -68.5 -109t-25.5 -129q0 -54 24 -84t68 -30q37 0 70 19t75 63l16 -10q-44 -58 -92 -83.5t-110 -24.5z" />
    <glyph glyph-name="egrave" unicode="&#xe8;" horiz-adv-x="444" 
d="M371 111l13 -13q-46 -51 -101.5 -80t-109.5 -29q-59 0 -96 38t-37 99q0 115 99 218t209 103q37 0 58.5 -18t21.5 -50q0 -65 -73.5 -117.5t-187.5 -68.5l-28 -4q-11 -45 -11 -63q0 -41 25.5 -66t68.5 -25q33 0 63.5 15.5t85.5 60.5zM164 256l-18 -45q66 17 101 32.5
t63 42.5q51 48 51 100q0 17 -9.5 27.5t-25.5 10.5q-38 0 -87 -50.5t-75 -117.5zM352 499l-141 107q-19 15 -19 32q0 15 10 25t26 10q20 0 39 -23l116 -151h-31z" />
    <glyph glyph-name="eacute" unicode="&#xe9;" horiz-adv-x="444" 
d="M371 111l13 -13q-46 -51 -101.5 -80t-109.5 -29q-59 0 -96 38t-37 99q0 115 99 218t209 103q37 0 58.5 -18t21.5 -50q0 -65 -73.5 -117.5t-187.5 -68.5l-28 -4q-11 -45 -11 -63q0 -41 25.5 -66t68.5 -25q33 0 63.5 15.5t85.5 60.5zM164 256l-18 -45q66 17 101 32.5
t63 42.5q51 48 51 100q0 17 -9.5 27.5t-25.5 10.5q-38 0 -87 -50.5t-75 -117.5zM251 501l165 162q10 10 25 10q16 0 26.5 -10t10.5 -26q0 -18 -17 -29l-175 -107h-35z" />
    <glyph glyph-name="ecircumflex" unicode="&#xea;" horiz-adv-x="444" 
d="M371 111l13 -13q-46 -51 -101.5 -80t-109.5 -29q-59 0 -96 38t-37 99q0 115 99 218t209 103q37 0 58.5 -18t21.5 -50q0 -65 -73.5 -117.5t-187.5 -68.5l-28 -4q-11 -45 -11 -63q0 -41 25.5 -66t68.5 -25q33 0 63.5 15.5t85.5 60.5zM164 256l-18 -45q66 17 101 32.5
t63 42.5q51 48 51 100q0 17 -9.5 27.5t-25.5 10.5q-38 0 -87 -50.5t-75 -117.5zM371 670l88 -171h-37l-82 105l-140 -105h-39l160 171h50z" />
    <glyph glyph-name="edieresis" unicode="&#xeb;" horiz-adv-x="444" 
d="M371 111l13 -13q-46 -51 -101.5 -80t-109.5 -29q-59 0 -96 38t-37 99q0 115 99 218t209 103q37 0 58.5 -18t21.5 -50q0 -65 -73.5 -117.5t-187.5 -68.5l-28 -4q-11 -45 -11 -63q0 -41 25.5 -66t68.5 -25q33 0 63.5 15.5t85.5 60.5zM164 256l-18 -45q66 17 101 32.5
t63 42.5q51 48 51 100q0 17 -9.5 27.5t-25.5 10.5q-38 0 -87 -50.5t-75 -117.5zM218 614q19 0 33.5 -15t14.5 -34q0 -21 -14.5 -35.5t-35.5 -14.5t-35 14.5t-14 35.5q0 20 15 34.5t36 14.5zM421 614q19 0 33.5 -15t14.5 -34q0 -21 -14.5 -35.5t-35.5 -14.5t-35 14.5
t-14 35.5q0 20 15 34.5t36 14.5z" />
    <glyph glyph-name="igrave" unicode="&#xec;" horiz-adv-x="278" 
d="M238 116l13 -12q-43 -64 -75.5 -89.5t-67.5 -25.5q-46 0 -46 57q0 30 24 111l50 179q9 36 9 45q1 15 -11 19.5t-53 5.5v16q41 3 163 25l3 -2l-92 -326q-1 -4 -7 -22q-10 -32 -10 -45q0 -6 5 -10.5t11 -4.5q14 0 42 28q13 13 42 51zM273 499l-142 107q-19 15 -19 33
q0 14 10.5 24t25.5 10q21 0 40 -23l116 -151h-31z" />
    <glyph glyph-name="iacute" unicode="&#xed;" horiz-adv-x="278" 
d="M238 116l13 -12q-43 -64 -75.5 -89.5t-67.5 -25.5q-46 0 -46 57q0 30 24 111l50 179q9 36 9 45q1 15 -11 19.5t-53 5.5v16q41 3 163 25l3 -2l-92 -326q-1 -4 -7 -22q-10 -32 -10 -45q0 -6 5 -10.5t11 -4.5q14 0 42 28q13 13 42 51zM151 501l165 162q10 10 25 10
q16 0 26.5 -10t10.5 -26q0 -18 -17 -29l-175 -107h-35z" />
    <glyph glyph-name="icircumflex" unicode="&#xee;" horiz-adv-x="278" 
d="M237 116l14 -12q-44 -64 -76 -89.5t-68 -25.5q-46 0 -46 57q0 28 24 111l50 179q9 28 9 45q0 15 -11.5 19.5t-51.5 5.5v16q40 3 162 25l3 -2l-92 -326v-2q-5 -15 -7 -20q-10 -32 -10 -45q0 -6 5 -10.5t11 -4.5q14 0 42 28q14 12 42 51zM260 670l88 -171h-36l-83 105
l-139 -105h-40l161 171h49z" />
    <glyph glyph-name="idieresis" unicode="&#xef;" horiz-adv-x="278" 
d="M123 614q19 0 33.5 -15t14.5 -34q0 -20 -14.5 -35t-35.5 -15t-35 14.5t-14 35.5q0 20 15 34.5t36 14.5zM326 614q19 0 33.5 -15t14.5 -34q0 -20 -14.5 -35t-35.5 -15t-35 14.5t-14 35.5q0 20 15 34.5t36 14.5zM238 116l13 -12q-43 -64 -75.5 -89.5t-67.5 -25.5
q-46 0 -46 57q0 30 24 111l50 179q9 36 9 45q1 15 -11 19.5t-53 5.5v16q41 3 163 25l3 -2l-92 -326q-1 -4 -7 -22q-10 -32 -10 -45q0 -6 5 -10.5t11 -4.5q14 0 42 28q13 13 42 51z" />
    <glyph glyph-name="eth" unicode="&#xf0;" 
d="M335 575l-119 -52l-34 30l126 54q-48 45 -104 68l35 18q64 -14 124 -62l100 43l33 -28l-103 -46q46 -55 65.5 -108.5t19.5 -124.5q0 -151 -90 -264.5t-210 -113.5q-69 0 -108.5 37.5t-39.5 102.5q0 115 92.5 216.5t197.5 101.5q58 0 84 -50l2 2q-13 99 -71 176zM323 426
q-66 0 -127 -88q-37 -53 -59 -117.5t-22 -120.5q0 -40 21.5 -65t56.5 -25q66 0 120 79q35 49 58 118t23 125q0 43 -19.5 68.5t-51.5 25.5z" />
    <glyph glyph-name="ntilde" unicode="&#xf1;" 
d="M479 119l14 -14q-53 -70 -81 -92t-62 -22q-25 0 -36 13t-11 42q0 12 17 75l46 168q15 55 15 77q0 29 -24 29q-58 0 -151 -144q-34 -52 -50.5 -91.5t-53.5 -159.5h-76l100 355q2 6 2 17q0 15 -13 21t-51 7v16q101 18 164 31l3 -2l-69 -221q79 121 132.5 172t102.5 51
q29 0 47.5 -17t18.5 -44q0 -22 -10 -59l-59 -209q-15 -56 -15 -63q0 -16 16 -16q13 0 27.5 14t56.5 66zM471 633h29q-23 -106 -97 -106q-20 0 -59 16q-71 29 -96 29q-36 0 -52 -48h-29q16 58 39.5 83t63.5 25q32 0 86 -25q42 -19 63 -19t32 9.5t20 35.5z" />
    <glyph glyph-name="ograve" unicode="&#xf2;" 
d="M331 447q64 0 104 -39t40 -102q0 -57 -29.5 -118t-79.5 -111q-91 -88 -192 -88q-69 0 -108.5 37.5t-39.5 103.5q0 80 50.5 159.5t129.5 123.5q62 34 125 34zM319 426q-66 0 -127 -88q-81 -117 -81 -238q0 -40 21.5 -65t56.5 -25q66 0 120 79q35 50 58 118.5t23 124.5
q0 43 -19.5 68.5t-51.5 25.5zM370 499l-141 107q-19 15 -19 33q0 14 10.5 24t25.5 10q22 0 39 -23l117 -151h-32z" />
    <glyph glyph-name="oacute" unicode="&#xf3;" 
d="M331 447q64 0 104 -39t40 -102q0 -57 -29.5 -118t-80.5 -111q-90 -88 -191 -88q-69 0 -108.5 37.5t-39.5 103.5q0 80 50.5 159.5t129.5 123.5q62 34 125 34zM319 426q-67 0 -127 -88q-81 -117 -81 -238q0 -40 21.5 -65t56.5 -25q66 0 120 79q35 50 58 118.5t23 124.5
q0 43 -19.5 68.5t-51.5 25.5zM269 501l166 162q9 10 25 10t26.5 -10.5t10.5 -25.5q0 -18 -18 -29l-174 -107h-36z" />
    <glyph glyph-name="ocircumflex" unicode="&#xf4;" 
d="M331 447q64 0 104 -39t40 -102q0 -57 -29.5 -118t-79.5 -111q-91 -88 -192 -88q-69 0 -108.5 37.5t-39.5 103.5q0 80 50.5 159.5t129.5 123.5q62 34 125 34zM319 426q-66 0 -127 -88q-81 -117 -81 -238q0 -40 21.5 -65t56.5 -25q66 0 120 79q35 50 58 118.5t23 124.5
q0 43 -19.5 68.5t-51.5 25.5zM378 670l88 -171h-36l-83 105l-140 -105h-39l160 171h50z" />
    <glyph glyph-name="otilde" unicode="&#xf5;" 
d="M331 447q64 0 104 -39t40 -102q0 -57 -29.5 -118t-79.5 -111q-91 -88 -192 -88q-69 0 -108.5 37.5t-39.5 103.5q0 80 50.5 159.5t129.5 123.5q62 34 125 34zM319 426q-66 0 -127 -88q-81 -117 -81 -238q0 -40 21.5 -65t56.5 -25q66 0 120 79q35 50 58 118.5t23 124.5
q0 43 -19.5 68.5t-51.5 25.5zM477 633h29q-23 -106 -97 -106q-20 0 -59 16q-71 29 -96 29q-38 0 -51 -48h-30q16 58 39.5 83t63.5 25q32 0 86 -25q42 -19 63 -19t32 9.5t20 35.5z" />
    <glyph glyph-name="odieresis" unicode="&#xf6;" 
d="M331 447q64 0 104 -39t40 -102q0 -57 -29.5 -118t-79.5 -111q-91 -88 -192 -88q-69 0 -108.5 37.5t-39.5 103.5q0 80 50.5 159.5t129.5 123.5q62 34 125 34zM319 426q-66 0 -127 -88q-37 -53 -59 -117.5t-22 -120.5q0 -40 21.5 -65t56.5 -25q66 0 120 79q35 49 58 118
t23 125q0 43 -19.5 68.5t-51.5 25.5zM247 614q19 0 33.5 -15t14.5 -34q0 -21 -14.5 -35.5t-35.5 -14.5t-35 14.5t-14 35.5q0 20 15 34.5t36 14.5zM450 614q19 0 33.5 -15t14.5 -34q0 -21 -14.5 -35.5t-35.5 -14.5t-35 14.5t-14 35.5q0 20 15 34.5t36 14.5z" />
    <glyph glyph-name="divide" unicode="&#xf7;" horiz-adv-x="675" 
d="M611 283h-498v54h498v-54zM363 148q21 0 36 -15.5t15 -35.5t-15 -34t-36 -14q-19 0 -33.5 14.5t-14.5 34.5t14.5 35t33.5 15zM359 571q21 0 36 -15.5t15 -36.5q0 -19 -15 -33t-35 -14t-34.5 14.5t-14.5 34.5t14.5 35t33.5 15z" />
    <glyph glyph-name="oslash" unicode="&#xf8;" 
d="M436 562l-60 -121q56 -16 78 -57q21 -36 21 -80q0 -58 -32 -121.5t-85 -113.5q-88 -80 -182 -80q-14 0 -20 2l-63 -128h-36l66 133q-39 13 -60 35q-36 39 -36 99q0 117 95.5 217t206.5 100q10 0 16 -1l56 116h35zM140 29l193 395q-8 2 -10 2q-53 0 -97 -46
q-50 -54 -82 -132.5t-32 -149.5q0 -40 28 -69zM363 412l-196 -398q11 -4 22 -4q66 0 121 78q35 50 57.5 118.5t22.5 123.5q0 52 -27 82z" />
    <glyph glyph-name="ugrave" unicode="&#xf9;" 
d="M474 119l15 -9q-53 -75 -79.5 -97t-61.5 -22q-49 0 -49 48q0 33 48 200q-89 -147 -139.5 -198.5t-104.5 -51.5t-54 55q0 25 27 125l38 144q15 53 15 68q0 13 -10 19q-10 5 -51 6v14q74 9 153 27l3 -2l-96 -368l-1 -9q-1 -11 5 -18t16 -7q51 0 144 148q36 55 52.5 91.5
t61.5 155.5h75l-82 -303q-21 -74 -21 -80q0 -16 11 -16q13 0 29 15t56 65zM379 499l-141 107q-19 14 -19 33q0 14 10 24t26 10q20 0 39 -23l116 -151h-31z" />
    <glyph glyph-name="uacute" unicode="&#xfa;" 
d="M474 119l15 -9q-53 -75 -79.5 -97t-61.5 -22q-49 0 -49 48q0 32 48 200q-89 -147 -139.5 -198.5t-104.5 -51.5t-54 55q0 26 27 125l38 144q15 58 15 68q0 13 -10 19q-10 5 -51 6v14q74 9 153 27l3 -2l-96 -368l-1 -9q0 -25 21 -25q51 0 144 148q36 55 52.5 91.5
t61.5 155.5h75l-83 -303q-20 -74 -20 -80q0 -16 11 -16q13 0 29 15t56 65zM285 501l166 162q9 10 25 10t26.5 -10.5t10.5 -25.5q0 -18 -18 -29l-174 -107h-36z" />
    <glyph glyph-name="ucircumflex" unicode="&#xfb;" 
d="M474 119l15 -9q-53 -75 -79.5 -97t-61.5 -22q-49 0 -49 48q0 33 48 200q-89 -147 -139.5 -198.5t-104.5 -51.5t-54 55q0 25 27 125l38 144q15 53 15 68q0 13 -10 19q-10 5 -51 6v14q74 9 153 27l3 -2l-96 -368l-1 -9q-1 -11 5 -18t16 -7q51 0 144 148q36 55 52.5 91.5
t61.5 155.5h75l-82 -303q-21 -74 -21 -80q0 -16 11 -16q13 0 29 15t56 65zM372 670l88 -171h-36l-82 105l-140 -105h-40l161 171h49z" />
    <glyph glyph-name="udieresis" unicode="&#xfc;" 
d="M474 119l15 -9q-53 -75 -79.5 -97t-61.5 -22q-49 0 -49 48q0 32 48 200q-89 -147 -139.5 -198.5t-104.5 -51.5t-54 55q0 26 27 125l38 144q15 58 15 68q0 13 -10 19q-10 5 -51 6v14q74 9 153 27l3 -2l-96 -368l-1 -9q0 -25 21 -25q51 0 144 148q36 55 52.5 91.5
t61.5 155.5h75l-83 -303q-20 -74 -20 -80q0 -16 11 -16q13 0 29 15t56 65zM245 614q19 0 33.5 -15t14.5 -34q0 -20 -15 -35t-35 -15q-21 0 -35 14.5t-14 35.5q0 20 15 34.5t36 14.5zM448 614q19 0 33.5 -15t14.5 -34q0 -20 -15 -35t-35 -15q-21 0 -35 14.5t-14 35.5
q0 20 15 34.5t36 14.5z" />
    <glyph glyph-name="yacute" unicode="&#xfd;" horiz-adv-x="444" 
d="M24 406v17q6 1 13.5 2t12 2t6.5 1q97 18 100 18q8 0 9 1h4q11 0 43 -94.5t43 -161.5l19 -118q126 206 126 263q0 19 -26 34q-29 18 -29 39q0 17 11 27.5t29 10.5q23 0 39.5 -16.5t16.5 -39.5q0 -70 -99 -247q-85 -152 -173.5 -252.5t-137.5 -100.5q-23 0 -37 12.5
t-14 31.5q0 17 11.5 28.5t28.5 11.5t38 -17q15 -11 23 -11q19 0 47 31q20 20 64 79q22 29 22 51q0 31 -28 151t-50 180q-14 41 -31.5 56t-48.5 15q-15 0 -32 -4zM249 501l165 162q12 10 25 10q16 0 26.5 -10t10.5 -26q0 -18 -18 -29l-174 -107h-35z" />
    <glyph glyph-name="thorn" unicode="&#xfe;" 
d="M137 -193v-15h-208v16q33 1 46.5 13t21.5 47q78 288 120 440q49 174 70 253q1 7 6 20q9 35 9 44q0 17 -10.5 21.5t-54.5 5.5v17q81 10 154 24l5 -6q-9 -33 -10 -39q-73 -276 -85 -308l2 -2q70 109 166 109q55 0 85.5 -33.5t30.5 -92.5q0 -79 -45.5 -156.5t-117 -126.5
t-144.5 -49q-33 0 -67 17q-39 -140 -39 -168q0 -16 14.5 -23t50.5 -8zM332 403q-41 0 -79 -32t-59 -84q-23 -57 -45.5 -136.5t-22.5 -105.5q0 -16 13.5 -26.5t35.5 -10.5q79 0 144 91q34 48 54.5 108t20.5 112q0 84 -62 84z" />
    <glyph glyph-name="ydieresis" unicode="&#xff;" horiz-adv-x="444" 
d="M24 406v17q6 1 13.5 2t12 2t6.5 1q97 18 100 18q8 0 9 1h4q11 0 43 -94.5t43 -161.5l19 -118q126 206 126 263q0 19 -26 34q-29 18 -29 39q0 17 11 27.5t29 10.5q23 0 39.5 -16.5t16.5 -39.5q0 -70 -99 -247q-85 -152 -173.5 -252.5t-137.5 -100.5q-23 0 -37 12.5
t-14 31.5q0 17 11.5 28.5t28.5 11.5t38 -17q15 -11 23 -11q19 0 47 31q20 20 64 79q22 29 22 51q0 31 -28 151t-50 180q-14 41 -31.5 56t-48.5 15q-15 0 -32 -4zM180 614q19 0 33.5 -15t14.5 -34q0 -20 -15 -35t-35 -15q-21 0 -35 14.5t-14 35.5q0 20 15 34.5t36 14.5z
M382 614q19 0 33.5 -15t14.5 -34q0 -20 -15 -35t-35 -15q-21 0 -35 14.5t-14 35.5q0 20 15 34.5t36 14.5z" />
    <glyph glyph-name="Amacron" unicode="&#x100;" horiz-adv-x="611" 
d="M584 16v-16h-250v16q49 5 64 14.5t15 36.5q0 14 -3 29l-21 133h-223l-57 -114q-20 -41 -20 -62q0 -20 10.5 -26t50.5 -11v-16h-190v16q31 6 50.5 29.5t78.5 124.5l290 508h26l101 -575q10 -56 22.5 -69.5t55.5 -17.5zM187 266h197l-48 264zM562 806l-11 -52h-305l11 52
h305z" />
    <glyph glyph-name="amacron" unicode="&#x101;" 
d="M478 112l12 -11q-58 -69 -84.5 -90t-57.5 -21q-40 0 -40 41q0 27 25 117q-69 -94 -110.5 -126.5t-95.5 -32.5q-48 0 -75 29.5t-27 81.5q0 78 44.5 159.5t113.5 134.5t135 53q68 0 81 -58l11 48l3 3l62 7l7 -3q-1 -4 -6 -21q-94 -329 -94 -368q0 -13 14 -13q13 0 53 41
l6.5 6.5l10 10zM324 425q-65 5 -130 -88q-34 -49 -59 -115.5t-25 -108.5q0 -35 15.5 -54.5t43.5 -19.5q47 0 88 44q53 57 88 137.5t35 143.5q0 26 -15.5 43t-40.5 18zM513 591l-11 -52h-306l12 52h305z" />
    <glyph glyph-name="Abreve" unicode="&#x102;" horiz-adv-x="611" 
d="M584 16v-16h-250v16q49 5 64 14.5t15 36.5q0 14 -3 29l-21 133h-223l-57 -114q-20 -41 -20 -62q0 -20 10.5 -26t50.5 -11v-16h-190v16q31 6 50.5 29.5t78.5 124.5l290 508h26l101 -575q10 -56 22.5 -69.5t55.5 -17.5zM187 266h197l-48 264zM539 874h29q-15 -76 -60 -118
t-111 -42q-69 0 -104 45q-29 35 -30 115h30q4 -47 32.5 -73.5t77.5 -26.5q97 0 136 100z" />
    <glyph glyph-name="abreve" unicode="&#x103;" 
d="M478 112l12 -11q-58 -69 -84.5 -90t-57.5 -21q-40 0 -40 41q0 27 25 117q-69 -94 -110.5 -126.5t-95.5 -32.5q-48 0 -75 29.5t-27 81.5q0 78 44.5 160t113.5 134.5t135 52.5q68 0 81 -58l11 48l3 3l62 7l7 -3q-1 -4 -6 -21q-94 -329 -94 -368q0 -13 14 -13q13 0 53 41
l6.5 6.5l10 10zM324 425q-65 5 -130 -88q-34 -49 -59 -115.5t-25 -108.5q0 -35 15.5 -54.5t43.5 -19.5q47 0 88 44q53 57 88 137.5t35 143.5q0 26 -15.5 43t-40.5 18zM491 659h30q-17 -76 -63 -118t-112 -42q-68 0 -103 45q-27 35 -27 115h29q3 -48 31.5 -74t78.5 -26
q46 0 81.5 26.5t54.5 73.5z" />
    <glyph glyph-name="Aogonek" unicode="&#x104;" horiz-adv-x="611" 
d="M389 229h-223l-57 -114q-20 -41 -20 -62q0 -20 10.5 -26t50.5 -11v-16h-190v16q31 6 50.5 29.5t78.5 124.5l290 508h26l101 -575q10 -56 22.5 -69.5t55.5 -17.5v-16q-17 -16 -17 -49q0 -27 16.5 -42.5t44.5 -15.5q46 0 84 32l18 -18q-52 -78 -127 -78q-40 0 -68.5 29
t-28.5 69q0 35 28 73h-200v16q49 5 64 14.5t15 36.5q0 14 -3 29zM187 266h197l-48 264z" />
    <glyph glyph-name="aogonek" unicode="&#x105;" 
d="M478 112l12 -11q-70 -85 -106 -104q-18 -11 -25 -21.5t-7 -28.5q0 -25 16 -39.5t44 -14.5q45 0 84 32l17 -18q-54 -78 -127 -78q-40 0 -68 28t-28 67q0 38 28 76q-10 10 -10 31q0 27 25 117q-69 -94 -110.5 -126.5t-95.5 -32.5q-48 0 -75 29.5t-27 81.5q0 78 44.5 159.5
t113.5 134.5t135 53q68 0 81 -58l11 48l3 3l62 7l7 -3q-1 -4 -6 -21q-94 -329 -94 -368q0 -13 14 -13q13 0 53 41l6.5 6.5l10 10zM324 425q-65 5 -130 -88q-34 -49 -59 -115.5t-25 -108.5q0 -35 15.5 -54.5t43.5 -19.5q47 0 88 44q53 57 88 137.5t35 143.5q0 26 -15.5 43
t-40.5 18z" />
    <glyph glyph-name="Cacute" unicode="&#x106;" horiz-adv-x="667" 
d="M668 472l-18 3q-17 163 -157 163q-103 0 -178 -77q-58 -61 -91.5 -146.5t-33.5 -174.5q0 -101 47 -156.5t132 -55.5q63 0 113.5 26t118.5 93l18 -14q-68 -80 -132.5 -115.5t-142.5 -35.5q-118 0 -193 75t-75 193q0 110 56.5 208.5t151 157.5t200.5 59q49 0 119 -17
q29 -7 41 -7q28 0 38 22h22zM428 716l162 162q10 10 25 10q16 0 26.5 -10.5t10.5 -25.5q0 -18 -17 -28l-172 -108h-35z" />
    <glyph glyph-name="cacute" unicode="&#x107;" horiz-adv-x="444" 
d="M369 107l16 -10q-46 -58 -90.5 -83t-102.5 -25q-70 0 -108.5 39.5t-38.5 110.5q0 119 90.5 213.5t205.5 94.5q46 0 76 -23.5t30 -58.5q0 -20 -14 -33.5t-34 -13.5q-40 0 -40 38q0 13 9 30q6 12 6 19q0 21 -38 21q-63 0 -110 -49q-43 -45 -68.5 -109t-25.5 -129
q0 -54 24 -84t68 -30q37 0 70 19t75 63zM256 501l165 162q10 10 25 10q16 0 26.5 -10t10.5 -26q0 -18 -18 -29l-174 -107h-35z" />
    <glyph glyph-name="Ccircumflex" unicode="&#x108;" horiz-adv-x="667" 
d="M689 472l-18 3q-17 163 -157 163q-103 0 -178 -77q-58 -61 -91.5 -146.5t-33.5 -174.5q0 -101 47 -156.5t132 -55.5q63 0 113.5 26t118.5 93l18 -14q-68 -80 -132.5 -115.5t-142.5 -35.5q-118 0 -193 75t-75 193q0 110 56.5 208.5t151 157.5t200.5 59q49 0 119 -17
q29 -7 41 -7q28 0 38 22h22zM578 885l91 -171h-37l-84 105l-138 -105h-39l157 171h50z" />
    <glyph glyph-name="ccircumflex" unicode="&#x109;" horiz-adv-x="444" 
d="M369 107l16 -10q-46 -58 -90.5 -83t-102.5 -25q-70 0 -108.5 39.5t-38.5 110.5q0 119 90.5 213.5t205.5 94.5q46 0 76 -23.5t30 -58.5q0 -20 -14 -33.5t-34 -13.5q-40 0 -40 38q0 13 9 30q6 12 6 19q0 21 -38 21q-63 0 -110 -49q-43 -45 -68.5 -109t-25.5 -129
q0 -54 24 -84t68 -30q37 0 70 19t75 63zM382 670l88 -171h-37l-82 105l-140 -105h-39l160 171h50z" />
    <glyph glyph-name="Cdotaccent" unicode="&#x10a;" horiz-adv-x="667" 
d="M605 162l12 -8q-50 -78 -117 -120.5t-139 -42.5q-112 0 -185 77.5t-73 196.5q0 88 46.5 175t129.5 153q105 84 227 84q55 0 119 -18q19 -6 29 -6q26 0 43 20h16l-48 -209h-17q5 28 5 46q0 61 -37.5 98.5t-99.5 37.5q-76 0 -148 -58.5t-116 -153t-44 -195.5
q0 -90 54 -147.5t138 -57.5q112 0 205 128zM531 842q23 0 40 -17t17 -40q0 -24 -16.5 -40.5t-40.5 -16.5t-40.5 17t-16.5 41q0 23 16.5 39.5t40.5 16.5z" />
    <glyph glyph-name="cdotaccent" unicode="&#x10b;" horiz-adv-x="444" 
d="M369 107l16 -10q-46 -58 -90.5 -83t-102.5 -25q-70 0 -108.5 39.5t-38.5 110.5q0 119 90.5 213.5t205.5 94.5q46 0 76 -23.5t30 -58.5q0 -20 -14 -33.5t-34 -13.5q-40 0 -40 38q0 13 9 30q6 12 6 19q0 21 -38 21q-63 0 -110 -49q-43 -45 -68.5 -109t-25.5 -129
q0 -54 24 -84t68 -30q37 0 70 19t75 63zM355 614q19 0 33.5 -15t14.5 -34q0 -20 -15 -35t-35 -15q-21 0 -35 14.5t-14 35.5q0 20 15 34.5t36 14.5z" />
    <glyph glyph-name="Ccaron" unicode="&#x10c;" horiz-adv-x="667" 
d="M668 472l-18 3q-17 163 -157 163q-103 0 -178 -77q-58 -61 -91.5 -146.5t-33.5 -174.5q0 -101 47 -156.5t132 -55.5q63 0 113.5 26t118.5 93l18 -14q-68 -80 -132.5 -115.5t-142.5 -35.5q-118 0 -193 75t-75 193q0 110 56.5 208.5t151 157.5t200.5 59q49 0 119 -17
q29 -7 41 -7q28 0 38 22h22zM693 885l-164 -171h-46l-99 171h37l93 -106l143 106h36z" />
    <glyph glyph-name="ccaron" unicode="&#x10d;" horiz-adv-x="444" 
d="M369 107l16 -10q-46 -58 -90.5 -83t-102.5 -25q-70 0 -108.5 39.5t-38.5 110.5q0 119 90.5 213.5t205.5 94.5q46 0 76 -23.5t30 -58.5q0 -20 -14 -33.5t-34 -13.5q-40 0 -40 38q0 13 9 30q6 12 6 19q0 21 -38 21q-63 0 -110 -49q-43 -45 -68.5 -109t-25.5 -129
q0 -54 24 -84t68 -30q37 0 70 19t75 63zM512 670l-166 -171h-47l-96 171h38l90 -106l145 106h36z" />
    <glyph glyph-name="Dcaron" unicode="&#x10e;" horiz-adv-x="722" 
d="M137 646v16h282q137 0 217.5 -74.5t80.5 -201.5q0 -88 -40.5 -166.5t-112.5 -131.5q-120 -88 -304 -88h-257v16q43 8 55.5 19.5t25.5 55.5l121 449q10 40 10 64q0 21 -15.5 29t-62.5 13zM323 603l-119 -439q-21 -78 -21 -96q0 -20 15.5 -29t50.5 -9q157 0 247 91
q50 52 79 129.5t29 160.5q0 127 -79 184q-49 37 -141 37q-30 0 -43.5 -6.5t-17.5 -22.5zM603 885l-164 -171h-47l-99 171h38l92 -106l143 106h37z" />
    <glyph glyph-name="dcaron" unicode="&#x10f;" horiz-adv-x="544" 
d="M562 442l-9 17q77 51 77 90q0 14 -20 33q-25 22 -25 45q0 21 14.5 34.5t37.5 13.5q25 0 41.5 -20.5t16.5 -50.5q0 -89 -133 -162zM479 113l12 -11q-82 -115 -149 -115q-19 0 -30.5 12.5t-11.5 32.5q0 26 15 90q-53 -75 -93 -104t-91 -29q-50 0 -78 30t-28 84q0 74 47 155
t117.5 135t134.5 54q30 0 44.5 -13.5t20.5 -45.5l46 167q16 56 16 70q0 17 -10 21.5t-53 5.5v17q81 8 156 24l5 -6q-71 -267 -104 -376q-68 -221 -68 -250q0 -8 5.5 -14t12.5 -6q13 0 27 12t57 60zM328 424q-48 3 -95 -47q-51 -53 -85.5 -131.5t-34.5 -140.5q0 -31 16 -49
t43 -18q45 0 85 42q51 54 83.5 134t32.5 153q0 54 -45 57z" />
    <glyph glyph-name="Dcroat" unicode="&#x110;" horiz-adv-x="722" 
d="M57 330l12 43h91l45 167q10 40 10 64q0 21 -15 29.5t-63 12.5v16h282q137 0 217.5 -74.5t80.5 -201.5q0 -88 -40.5 -166.5t-112.5 -131.5q-120 -88 -304 -88h-257v16q43 8 55.5 19.5t25.5 55.5l64 239h-91zM416 373l-11 -43h-156l-45 -166q-21 -77 -21 -96
q0 -20 15.5 -29t50.5 -9q157 0 247 91q50 52 79 129.5t29 160.5q0 127 -79 184q-49 37 -137 37q-33 0 -46.5 -6t-18.5 -23l-62 -230h155z" />
    <glyph glyph-name="dcroat" unicode="&#x111;" 
d="M429 551h-168l8 36h170q7 27 7 38q0 17 -10 21.5t-53 5.5v17q77 7 156 23l5 -5l-27 -100h57l-8 -36h-58l-8 -29q-29 -108 -60 -212q-68 -216 -68 -249q0 -8 5.5 -14t12.5 -6q13 0 27 12t57 60l12 -11q-82 -115 -149 -115q-19 0 -30.5 12.5t-11.5 32.5q0 26 15 90
q-53 -75 -93 -104t-91 -29q-50 0 -78 30t-28 84q0 74 46.5 155.5t117 135t135.5 53.5q30 0 44.5 -13.5t20.5 -45.5zM323 424q-48 3 -95 -47q-51 -53 -85.5 -131.5t-34.5 -140.5q0 -31 16 -49t43 -18q45 0 85 42q51 54 83.5 134t32.5 153q0 54 -45 57z" />
    <glyph glyph-name="Emacron" unicode="&#x112;" horiz-adv-x="611" 
d="M649 662l-30 -155l-21 2q1 17 1 45q0 46 -37.5 60.5t-157.5 14.5q-43 0 -56 -4.5t-18 -21.5l-65 -237q72 2 81 2q69 3 89.5 17.5t48.5 79.5l19 -5l-67 -235l-20 5q6 28 6 51q0 27 -11 36q-12 10 -61 12l-46 1l-48 3q-26 -102 -31 -117q-35 -128 -35 -149q0 -34 80 -34
q125 0 183 28q33 15 57.5 38.5t59.5 72.5l17 -8l-62 -164h-514v16q43 7 55.5 19t25.5 56l121 449q11 40 11 64q0 21 -15.5 29.5t-63.5 12.5v16h504zM594 806l-11 -52h-305l11 52h305z" />
    <glyph glyph-name="emacron" unicode="&#x113;" horiz-adv-x="444" 
d="M371 111l13 -13q-46 -51 -101.5 -80t-109.5 -29q-59 0 -96 38t-37 99q0 115 99 218t209 103q37 0 58.5 -18t21.5 -50q0 -65 -73.5 -117.5t-187.5 -68.5l-28 -4q-11 -45 -11 -63q0 -41 25.5 -66t68.5 -25q33 0 63.5 15.5t85.5 60.5zM164 256l-18 -45q66 17 101 32.5
t63 42.5q51 48 51 100q0 17 -9.5 27.5t-25.5 10.5q-38 0 -87 -50.5t-75 -117.5zM485 591l-11 -52h-305l11 52h305z" />
    <glyph glyph-name="Ebreve" unicode="&#x114;" horiz-adv-x="611" 
d="M649 662l-30 -155l-21 2q1 17 1 45q0 46 -37.5 60.5t-157.5 14.5q-43 0 -56 -4.5t-18 -21.5l-65 -237q72 2 81 2q69 3 89.5 17.5t48.5 79.5l19 -5l-67 -235l-20 5q6 28 6 51q0 27 -11 36q-12 10 -61 12l-46 1l-48 3q-26 -102 -31 -117q-35 -128 -35 -149q0 -34 80 -34
q125 0 183 28q33 15 57.5 38.5t59.5 72.5l17 -8l-62 -164h-514v16q43 7 55.5 19t25.5 56l121 449q11 40 11 64q0 21 -15.5 29.5t-63.5 12.5v16h504zM580 874h29q-16 -76 -60.5 -118t-110.5 -42q-70 0 -104 45q-29 35 -30 115h29q5 -47 33.5 -73.5t77.5 -26.5q97 0 136 100z
" />
    <glyph glyph-name="ebreve" unicode="&#x115;" horiz-adv-x="444" 
d="M371 111l13 -13q-46 -51 -101.5 -80t-109.5 -29q-59 0 -96 38t-37 99q0 115 99 218t209 103q37 0 58.5 -18t21.5 -50q0 -65 -73.5 -117.5t-187.5 -68.5l-28 -4q-11 -45 -11 -63q0 -41 25.5 -66t68.5 -25q33 0 63.5 15.5t85.5 60.5zM164 256l-18 -45q66 17 101 32.5
t63 42.5q51 48 51 100q0 17 -9.5 27.5t-25.5 10.5q-38 0 -87 -50.5t-75 -117.5zM464 659h29q-17 -76 -62.5 -118t-111.5 -42q-69 0 -104 45q-27 35 -27 115h29q3 -47 31.5 -73.5t77.5 -26.5q97 0 138 100z" />
    <glyph glyph-name="Edotaccent" unicode="&#x116;" horiz-adv-x="611" 
d="M649 662l-30 -155l-21 2q1 17 1 45q0 46 -37.5 60.5t-157.5 14.5q-43 0 -56 -4.5t-18 -21.5l-65 -237q72 2 81 2q69 3 89.5 17.5t48.5 79.5l19 -5l-67 -235l-20 5q6 28 6 51q0 27 -11 36q-12 10 -61 12l-46 1l-48 3q-26 -102 -31 -117q-35 -128 -35 -149q0 -34 80 -34
q125 0 183 28q33 15 57.5 38.5t59.5 72.5l17 -8l-62 -164h-514v16q43 7 55.5 19t25.5 56l121 449q11 40 11 64q0 21 -15.5 29.5t-63.5 12.5v16h504zM446 829q19 0 34 -15.5t15 -34.5q0 -20 -14.5 -34.5t-34.5 -14.5q-21 0 -35.5 14.5t-14.5 36.5q0 20 14.5 34t35.5 14z" />
    <glyph glyph-name="edotaccent" unicode="&#x117;" horiz-adv-x="444" 
d="M371 111l13 -13q-46 -51 -101.5 -80t-109.5 -29q-59 0 -96 38t-37 99q0 115 99 218t209 103q37 0 58.5 -18t21.5 -50q0 -65 -73.5 -117.5t-187.5 -68.5l-28 -4q-11 -45 -11 -63q0 -41 25.5 -66t68.5 -25q33 0 63.5 15.5t85.5 60.5zM164 256l-18 -45q66 17 101 32.5
t63 42.5q51 48 51 100q0 17 -9.5 27.5t-25.5 10.5q-38 0 -87 -50.5t-75 -117.5zM329 614q19 0 33.5 -15t14.5 -34q0 -21 -14.5 -35.5t-35.5 -14.5t-35 14.5t-14 35.5q0 20 15 34.5t36 14.5z" />
    <glyph glyph-name="Eogonek" unicode="&#x118;" horiz-adv-x="611" 
d="M587 164l-62 -164q-13 -34 -13 -56q0 -23 17 -37t44 -14q44 0 83 32l17 -18q-53 -78 -126 -78q-40 0 -68.5 29t-28.5 70q0 36 28 72h-467v16q43 7 55.5 19t25.5 56l121 449q11 40 11 64q0 21 -15.5 29.5t-63.5 12.5v16h504l-30 -155l-21 2q1 17 1 45q0 46 -37.5 60.5
t-157.5 14.5q-43 0 -56 -4.5t-18 -21.5l-65 -237q72 2 81 2q69 3 89.5 17.5t48.5 79.5l19 -5l-67 -235l-20 5q6 28 6 51q0 27 -11 36q-12 10 -61 12l-46 1l-48 3q-26 -102 -31 -117q-35 -128 -35 -149q0 -34 80 -34q125 0 183 28q33 15 57.5 38.5t59.5 72.5z" />
    <glyph glyph-name="eogonek" unicode="&#x119;" horiz-adv-x="444" 
d="M371 111l13 -13l-17 -17q-41 -45 -56 -73.5t-15 -61.5q0 -24 16.5 -38.5t43.5 -14.5q45 0 84 32l17 -18q-54 -78 -127 -78q-40 0 -68 28t-28 66q0 48 40 91q-53 -25 -100 -25q-60 0 -97 38t-37 99q0 115 99 218t209 103q37 0 58.5 -18t21.5 -50q0 -65 -73.5 -117.5
t-187.5 -68.5l-28 -4q-11 -45 -11 -63q0 -41 25.5 -66t68.5 -25q33 0 63.5 15.5t85.5 60.5zM164 256l-18 -45q66 17 101 32.5t63 42.5q51 48 51 100q0 17 -9.5 27.5t-25.5 10.5q-38 0 -87 -50.5t-75 -117.5z" />
    <glyph glyph-name="Ecaron" unicode="&#x11a;" horiz-adv-x="611" 
d="M649 662l-30 -155l-21 2q1 17 1 45q0 46 -37.5 60.5t-157.5 14.5q-43 0 -56 -4.5t-18 -21.5l-65 -237q72 2 81 2q69 3 89.5 17.5t48.5 79.5l19 -5l-67 -235l-20 5q6 28 6 51q0 27 -11 36q-12 10 -61 12l-46 1l-48 3q-26 -102 -31 -117q-35 -128 -35 -149q0 -34 80 -34
q125 0 183 28q33 15 57.5 38.5t59.5 72.5l17 -8l-62 -164h-514v16q43 7 55.5 19t25.5 56l121 449q11 40 11 64q0 21 -15.5 29.5t-63.5 12.5v16h504zM617 885l-163 -171h-47l-99 171h38l92 -106l143 106h36z" />
    <glyph glyph-name="ecaron" unicode="&#x11b;" horiz-adv-x="444" 
d="M371 111l13 -13q-46 -51 -101.5 -80t-109.5 -29q-59 0 -96 38t-37 99q0 115 99 218t209 103q37 0 58.5 -18t21.5 -50q0 -65 -73.5 -117.5t-187.5 -68.5l-28 -4q-11 -45 -11 -63q0 -41 25.5 -66t68.5 -25q33 0 63.5 15.5t85.5 60.5zM164 256l-18 -45q66 17 101 32.5
t63 42.5q51 48 51 100q0 17 -9.5 27.5t-25.5 10.5q-38 0 -87 -50.5t-75 -117.5zM513 670l-167 -171h-46l-96 171h37l91 -106l145 106h36z" />
    <glyph glyph-name="Gcircumflex" unicode="&#x11c;" horiz-adv-x="722" 
d="M734 671l-48 -200l-18 3q-7 59 -29 93q-50 74 -153 74q-105 0 -175 -75q-58 -62 -92 -152.5t-34 -181.5q0 -102 53.5 -157t153.5 -55q72 0 106 34q15 16 37 93q27 95 27 125q0 17 -15 23.5t-65 11.5v16h270v-16q-50 -4 -68 -17t-30 -56l-48 -189q-112 -63 -239 -63
q-136 0 -215 79q-37 37 -58 88t-21 103q0 109 56.5 207.5t150.5 157t198 58.5q61 0 136 -24q29 -10 44 -10q37 0 61 34zM563 885l91 -171h-36l-85 105l-138 -105h-39l158 171h49z" />
    <glyph glyph-name="gcircumflex" unicode="&#x11d;" 
d="M481 411l-1 -40h-50q8 -32 8 -56q0 -59 -59.5 -110.5t-128.5 -51.5q-18 0 -32 3q-3 1 -7 1q-10 0 -23.5 -15.5t-13.5 -26.5q0 -25 70 -42q145 -39 145 -133q0 -67 -59 -108t-154 -41q-78 0 -124 31t-46 83q0 36 22 60.5t98 73.5q-27 21 -27 40q0 18 16.5 36t61.5 49
q-43 20 -61 45t-18 64q0 72 60 123t145 51q56 0 100 -28q11 -8 16 -8h62zM183 17l-29 9q-4 2 -5 2q-6 0 -30.5 -19t-34.5 -32q-22 -26 -22 -62q0 -48 33.5 -75t94.5 -27q59 0 98.5 27.5t39.5 68.5q0 35 -31.5 58.5t-113.5 49.5zM302 425q-50 0 -87.5 -52.5t-37.5 -123.5
q0 -35 16 -55t44 -20q54 0 89 64q32 56 32 116q0 71 -56 71zM374 670l87 -171h-36l-82 105l-140 -105h-40l161 171h50z" />
    <glyph glyph-name="Gbreve" unicode="&#x11e;" horiz-adv-x="722" 
d="M723 671l-48 -200l-18 3q-7 59 -29 93q-50 74 -153 74q-105 0 -175 -75q-58 -62 -92 -152.5t-34 -181.5q0 -102 53.5 -157t153.5 -55q72 0 106 34q15 16 37 93q27 95 27 125q0 17 -15 23.5t-65 11.5v16h270v-16q-50 -4 -68 -17t-30 -56l-48 -189q-112 -63 -239 -63
q-136 0 -215 79q-37 37 -58 88t-21 103q0 109 56.5 207.5t150.5 157t198 58.5q61 0 136 -24q29 -10 44 -10q37 0 61 34zM636 874h29q-16 -76 -61 -118t-111 -42q-68 0 -104 45q-28 36 -29 115h29q4 -47 33 -73.5t78 -26.5q97 0 136 100z" />
    <glyph glyph-name="gbreve" unicode="&#x11f;" 
d="M481 411l-1 -40h-50q8 -32 8 -56q0 -59 -59.5 -110.5t-128.5 -51.5q-18 0 -32 3q-3 1 -7 1q-10 0 -23.5 -15.5t-13.5 -26.5q0 -25 70 -42q145 -39 145 -133q0 -67 -59 -108t-154 -41q-78 0 -124 31t-46 83q0 36 22 60.5t98 73.5q-27 21 -27 40q0 18 16.5 36t61.5 49
q-43 20 -61 45t-18 64q0 72 60 123t145 51q56 0 100 -28q11 -8 16 -8h62zM183 17l-29 9q-4 2 -5 2q-6 0 -30.5 -19t-34.5 -32q-22 -26 -22 -62q0 -48 33.5 -75t94.5 -27q59 0 98.5 27.5t39.5 68.5q0 35 -31.5 58.5t-113.5 49.5zM302 425q-50 0 -87.5 -52.5t-37.5 -123.5
q0 -35 16 -55t44 -20q54 0 89 64q32 56 32 116q0 71 -56 71zM471 659h30q-13 -57 -39 -91q-54 -69 -136 -69q-68 0 -103 45q-27 35 -28 115h30q3 -48 31.5 -74t77.5 -26q46 0 82 26.5t55 73.5z" />
    <glyph glyph-name="Gdotaccent" unicode="&#x120;" horiz-adv-x="722" 
d="M714 671l-45 -205h-19q8 41 8 53q0 55 -41 89t-106 34q-138 0 -221 -152q-32 -59 -51 -134.5t-19 -140.5q0 -89 45 -141q44 -49 113 -49q44 0 90 21l53 192q7 26 7 41q0 28 -25 37q-18 5 -54 5h-9l5 18h271l-5 -18q-43 -2 -62.5 -20t-32.5 -68l-56 -200
q-106 -44 -183 -44q-115 0 -186.5 73t-71.5 191q0 169 116.5 295.5t272.5 126.5q58 0 128 -27q13 -5 19 -5q23 0 43 28h16zM525 842q23 0 40 -17t17 -40q0 -24 -16.5 -40.5t-39.5 -16.5q-24 0 -41 17t-17 41q0 23 16.5 39.5t40.5 16.5z" />
    <glyph glyph-name="gdotaccent" unicode="&#x121;" 
d="M497 412l-17 -55h-66q8 -28 8 -43q0 -50 -34 -92t-88 -59q-23 -8 -62 -8q-69 -23 -69 -52q0 -9 16 -15.5t63 -17.5q52 -10 73 -18t41 -24q34 -28 34 -68q0 -60 -58 -98t-150 -38q-80 0 -125 24q-22 12 -35.5 32t-13.5 41q0 27 19 48t87 68q-21 18 -21 40q0 23 19 41.5
t66 42.5q-89 33 -89 114q0 71 68 121q61 45 125 45q42 0 89 -29h120zM287 409q-43 0 -76.5 -47.5t-33.5 -107.5q0 -34 15.5 -54t42.5 -20q37 0 63 32q17 22 30.5 62t13.5 69q0 66 -55 66zM143 23q-66 -42 -66 -95q0 -33 34 -54t89 -21q56 0 95 22.5t39 54.5q0 31 -40 51
q-33 15 -106 30q-21 4 -45 12zM316 616q20 0 34.5 -15t14.5 -35t-15 -35t-35 -15q-21 0 -35.5 14.5t-14.5 35.5t15 35.5t36 14.5z" />
    <glyph glyph-name="Gcommaaccent" unicode="&#x122;" horiz-adv-x="722" 
d="M723 671l-48 -200l-18 3q-7 59 -29 93q-50 74 -153 74q-105 0 -175 -75q-58 -62 -92 -152.5t-34 -181.5q0 -102 53.5 -157t153.5 -55q72 0 106 34q15 16 37 93q27 95 27 125q0 17 -15 23.5t-65 11.5v16h270v-16q-50 -4 -68 -17t-30 -56l-48 -189q-112 -63 -239 -63
q-136 0 -215 79q-37 37 -58 88t-21 103q0 109 56.5 207.5t150.5 157t198 58.5q61 0 136 -24q29 -10 44 -10q37 0 61 34zM239 -274l-9 17q75 52 75 90q0 15 -21 33q-25 22 -25 46q0 20 14.5 33.5t36.5 13.5q25 0 42 -21t17 -52q0 -88 -130 -160z" />
    <glyph glyph-name="gcommaaccent" unicode="&#x123;" 
d="M481 411l-1 -40h-50q8 -32 8 -56q0 -59 -59.5 -110.5t-128.5 -51.5q-18 0 -32 3q-3 1 -7 1q-10 0 -23.5 -15.5t-13.5 -26.5q0 -25 70 -42q145 -39 145 -133q0 -67 -59 -108t-154 -41q-78 0 -124 31t-46 83q0 36 22 60.5t98 73.5q-27 21 -27 40q0 18 16.5 36t61.5 49
q-43 20 -61 45t-18 64q0 72 60 123t145 51q56 0 100 -28q11 -8 16 -8h62zM183 17l-29 9q-4 2 -5 2q-6 0 -30.5 -19t-34.5 -32q-22 -26 -22 -62q0 -48 33.5 -75t94.5 -27q59 0 98.5 27.5t39.5 68.5q0 35 -31.5 58.5t-113.5 49.5zM302 425q-50 0 -87.5 -52.5t-37.5 -123.5
q0 -35 16 -55t44 -20q54 0 89 64q32 56 32 116q0 71 -56 71zM409 716l9 -17q-77 -51 -77 -90q0 -13 20 -33q25 -22 25 -45q0 -21 -14.5 -34.5t-37.5 -13.5q-25 0 -41.5 20t-16.5 51q0 89 133 162z" />
    <glyph glyph-name="Hcircumflex" unicode="&#x124;" horiz-adv-x="722" 
d="M568 885l91 -171h-37l-84 105l-138 -105h-39l157 171h50zM796 662v-16q-44 -8 -57 -19.5t-26 -55.5l-129 -488q-3 -12 -3 -23q0 -22 15 -30.5t65 -13.5v-16h-277v16q49 5 69.5 20t32.5 55l63 239h-289l-64 -247q-3 -10 -3 -22q0 -22 13 -30t59 -15l1 -16h-250v16
q42 8 55 20t26 55l121 448q11 41 11 62q0 23 -15.5 31.5t-63.5 13.5v16h277v-16q-46 -4 -68.5 -20.5t-33.5 -54.5l-53 -198h289l45 166q11 37 11 63q0 22 -13.5 30.5t-58.5 13.5v16h251z" />
    <glyph glyph-name="hcircumflex" unicode="&#x125;" 
d="M328 893l88 -172h-36l-83 106l-139 -106h-40l161 172h49zM479 119l13 -13q-46 -66 -78 -90.5t-70 -24.5q-21 0 -33 11t-12 31q0 19 21 94l58 209q7 30 7 34q1 10 -8 17.5t-20 7.5q-27 0 -73 -41.5t-86 -101.5q-31 -47 -48 -91t-48 -161h-76l141 519q10 37 10 38
q15 43 15 68q0 11 -12 18.5t-29 6.5l-26 -1v16q92 12 159 28l5 -6l-126 -453q73 111 129.5 162t105.5 51q29 0 47.5 -18.5t18.5 -48.5q0 -41 -51 -196q-34 -106 -34 -127q0 -18 16 -18q13 0 27.5 14t56.5 66z" />
    <glyph glyph-name="Hbar" unicode="&#x126;" horiz-adv-x="722" 
d="M222 498h-88l10 33h88l8 31q7 26 7 41q0 23 -16 32t-56 9l5 18h272l-5 -18q-55 1 -76 -15.5t-35 -71.5l-8 -26h270l8 31q7 26 7 41q0 23 -16 32t-56 9l5 18h268l-5 -18q-52 0 -72.5 -17t-34.5 -70l-7 -26h89l-10 -33h-89l-112 -398q-7 -28 -7 -41q0 -26 25 -36
q17 -5 48 -5l-5 -18h-266l5 18q49 1 69.5 17.5t34.5 69.5l64 225h-269l-65 -230q-7 -26 -7 -41q0 -26 25 -36q15 -5 46 -5l-5 -18h-259l5 18q46 1 65.5 18t33.5 69zM319 498l-37 -131h269l37 131h-269z" />
    <glyph glyph-name="hbar" unicode="&#x127;" 
d="M243 522l-80 -288q73 111 129.5 162t105.5 51q29 0 47.5 -18.5t18.5 -48.5q0 -41 -51 -196q-34 -106 -34 -127q0 -18 16 -18q13 0 27.5 14t56.5 66l13 -13q-46 -66 -78 -90.5t-70 -24.5q-21 0 -33 11t-12 31q0 19 21 94l58 209q7 30 7 34q1 10 -8 17.5t-20 7.5
q-27 0 -73 -41.5t-86 -101.5q-31 -47 -48 -91t-48 -161h-76l142 522h-55l9 31h54l1 4q15 47 15 68q0 11 -12 18.5t-29 6.5l-26 -1v16q92 12 159 28l5 -6l-37 -134h123l-9 -31h-123z" />
    <glyph glyph-name="Itilde" unicode="&#x128;" horiz-adv-x="333" 
d="M6 0v16q43 7 55.5 19t25.5 56l121 448q11 41 11 62q0 22 -13.5 30.5t-58.5 14.5v16h250l1 -16q-44 -8 -57 -19.5t-26 -55.5l-120 -449q-11 -38 -11 -63q0 -22 12.5 -30t56.5 -13l1 -16h-248zM437 839h29q-22 -106 -96 -106q-19 0 -58 16q-75 29 -97 29q-36 0 -51 -48h-29
q15 59 37.5 83.5t62.5 24.5q32 0 88 -25q42 -19 62 -19q21 0 32.5 10t19.5 35z" />
    <glyph glyph-name="itilde" unicode="&#x129;" horiz-adv-x="278" 
d="M238 116l13 -12q-43 -64 -75.5 -89.5t-67.5 -25.5q-46 0 -46 57q0 28 23 111l50 179q8 29 10 45q1 15 -11 19.5t-53 5.5v16q40 3 162 25l3 -2l-91 -326q-2 -4 -4 -12t-3 -10q-10 -27 -10 -45q0 -6 5 -10.5t11 -4.5q14 0 42 28q13 13 42 51zM342 633h29q-23 -106 -97 -106
q-20 0 -59 16q-71 29 -96 29q-37 0 -52 -48h-29q16 59 39.5 83.5t63.5 24.5q32 0 86 -25q42 -19 63 -19q20 0 31.5 10t20.5 35z" />
    <glyph glyph-name="Imacron" unicode="&#x12a;" horiz-adv-x="333" 
d="M6 0v16q43 7 55.5 19t25.5 56l121 448q11 41 11 62q0 22 -13.5 30.5t-58.5 14.5v16h250l1 -16q-44 -8 -57 -19.5t-26 -55.5l-120 -449q-11 -38 -11 -63q0 -22 12.5 -30t56.5 -13l1 -16h-248zM454 806l-11 -52h-305l11 52h305z" />
    <glyph glyph-name="imacron" unicode="&#x12b;" horiz-adv-x="278" 
d="M238 116l13 -12q-43 -64 -75.5 -89.5t-67.5 -25.5q-46 0 -46 57q0 30 24 111l50 179q9 36 9 45q1 15 -11 19.5t-53 5.5v16q41 3 163 25l3 -2l-92 -326q-1 -4 -7 -22q-10 -32 -10 -45q0 -6 5 -10.5t11 -4.5q14 0 42 28q13 13 42 51zM369 591l-12 -52h-305l12 52h305z" />
    <glyph glyph-name="Ibreve" unicode="&#x12c;" horiz-adv-x="333" 
d="M6 0v16q43 7 55.5 19t25.5 56l121 448q11 41 11 62q0 22 -13.5 30.5t-58.5 14.5v16h250l1 -16q-44 -8 -57 -19.5t-26 -55.5l-120 -449q-11 -38 -11 -63q0 -22 12.5 -30t56.5 -13l1 -16h-248zM440 872h29q-11 -55 -37 -91q-52 -69 -135 -69q-69 0 -103 45q-29 35 -30 115
h30q4 -47 32.5 -73.5t77.5 -26.5q47 0 82.5 26t53.5 74z" />
    <glyph glyph-name="ibreve" unicode="&#x12d;" horiz-adv-x="278" 
d="M225 105l7 -21q-82 -99 -129 -99q-17 0 -29.5 11.5t-12.5 26.5t7 36l84 285q9 33 9 45q0 22 -27 22q-12 0 -33 -4l6 19q75 6 148 25l-113 -385q-3 -9 -3 -14t4.5 -9t9.5 -4q11 0 32 19t40 47zM138 659h17q3 -44 20 -64t52 -20q33 0 57 19t48 65h17q-36 -142 -127 -142
q-85 0 -85 107q0 18 1 35z" />
    <glyph glyph-name="Iogonek" unicode="&#x12e;" horiz-adv-x="333" 
d="M147 662h250l1 -16q-44 -8 -57 -19.5t-26 -55.5l-120 -449q-11 -38 -11 -63q0 -22 12.5 -30t56.5 -13l1 -16q-17 -20 -17 -48t16 -43.5t45 -15.5q45 0 84 32l17 -18q-52 -78 -126 -78q-40 0 -68.5 29t-28.5 69q0 35 27 73h-197v16q43 7 55.5 19t25.5 56l121 448
q11 41 11 62q0 22 -13.5 30.5t-58.5 14.5v16z" />
    <glyph glyph-name="iogonek" unicode="&#x12f;" horiz-adv-x="278" 
d="M238 116l13 -12q-42 -61 -78 -91q-27 -21 -34 -32t-7 -32q0 -26 16 -41t44 -15q45 0 84 32l17 -18q-54 -78 -127 -78q-40 0 -68 28t-28 69q0 33 23 65q-31 11 -31 55q0 30 24 111l50 179q9 36 9 45q1 15 -11 19.5t-53 5.5v16q41 3 163 25l3 -2l-92 -326q-1 -4 -7 -22
q-10 -32 -10 -45q0 -6 5 -10.5t11 -4.5q14 0 42 28q13 13 42 51zM235 663q20 0 35 -16.5t15 -39.5q0 -20 -15 -35.5t-36 -15.5q-22 0 -35 14.5t-13 37.5q0 24 13.5 39.5t35.5 15.5z" />
    <glyph glyph-name="Idotaccent" unicode="&#x130;" horiz-adv-x="333" 
d="M6 0v16q43 7 55.5 19t25.5 56l121 448q11 41 11 62q0 22 -13.5 30.5t-58.5 14.5v16h250l1 -16q-44 -8 -57 -19.5t-26 -55.5l-120 -449q-11 -38 -11 -63q0 -22 12.5 -30t56.5 -13l1 -16h-248zM307 829q19 0 34 -15.5t15 -34.5q0 -20 -14.5 -34.5t-34.5 -14.5
q-21 0 -35.5 14.5t-14.5 36.5q0 20 14.5 34t35.5 14z" />
    <glyph glyph-name="dotlessi" unicode="&#x131;" horiz-adv-x="278" 
d="M238 116l13 -12q-43 -64 -75.5 -89.5t-67.5 -25.5q-46 0 -46 57q0 30 24 111l50 179q9 36 9 45q1 15 -11 19.5t-53 5.5v16q41 3 163 25l3 -2l-92 -326q-1 -4 -7 -22q-10 -32 -10 -45q0 -6 5 -10.5t11 -4.5q14 0 42 28q13 13 42 51z" />
    <glyph glyph-name="IJ" unicode="&#x132;" horiz-adv-x="750" 
d="M271 18l-5 -18h-259l5 18q46 1 65.5 18.5t33.5 69.5l129 464q7 26 7 41q0 23 -16 32.5t-56 9.5l5 18h272l-5 -18q-55 1 -76 -16t-35 -72l-129 -464q-7 -26 -7 -41q0 -28 25 -37q15 -5 46 -5zM573 653l5 18h257l-5 -18q-37 -1 -56 -20.5t-31 -67.5l-104 -374
q-27 -95 -72 -140q-59 -62 -131 -62q-44 0 -74 26.5t-30 66.5q0 29 18.5 50t44.5 21q20 0 33.5 -13t13.5 -33q0 -18 -14 -32q-13 -14 -13 -25t8 -17.5t21 -6.5q24 0 44.5 24.5t32.5 67.5l125 452q7 28 7 42q0 30 -32 38q-13 3 -48 3z" />
    <glyph glyph-name="ij" unicode="&#x133;" 
d="M227 105l7 -21q-82 -99 -129 -99q-17 0 -29.5 11.5t-12.5 26.5t7 36l84 285q9 33 9 45q0 22 -27 22q-12 0 -33 -4l6 19q75 6 148 25l-113 -385q-3 -9 -3 -14t4.5 -9t9.5 -4q11 0 32 19t40 47zM246 622q20 0 35 -15t15 -36q0 -22 -15 -37t-37 -15q-21 0 -36 15t-15 37
q0 21 15.5 36t37.5 15zM329 405l6 17q68 5 145 21l-120 -406q-29 -100 -80 -155t-114 -55q-31 0 -51 13t-20 33q0 16 12 27.5t29 11.5q15 0 24 -8t9 -21q0 -26 -26 -26q9 -13 25 -13q34 0 60 33q22 27 46 112l108 364q6 22 6 29q0 25 -30 25q-4 0 -7.5 -0.5t-9.5 -1
t-12 -0.5zM469 622q20 0 35 -15t15 -36q0 -22 -15 -37t-37 -15q-21 0 -36 15t-15 37q0 21 15.5 36t37.5 15z" />
    <glyph glyph-name="Jcircumflex" unicode="&#x134;" horiz-adv-x="444" 
d="M505 662l1 -16q-44 -7 -57 -18.5t-26 -56.5l-101 -376q-30 -111 -67 -155q-49 -58 -129 -58q-53 0 -86 25t-33 65q0 24 12.5 39t32.5 15q23 0 37 -15.5t13 -42.5q-1 -32 6.5 -43.5t28.5 -11.5q19 0 30.5 12.5t18.5 42.5l129 471q12 45 12 65q0 21 -15 29t-64 13v16h257z
M442 893l91 -172h-37l-84 106l-138 -106h-39l157 172h50z" />
    <glyph glyph-name="jcircumflex" unicode="&#x135;" horiz-adv-x="278" 
d="M248 445l-109 -417q-31 -121 -78 -179.5t-113 -58.5q-35 0 -57.5 17.5t-22.5 44.5q0 19 11.5 31t29.5 12q17 0 29 -11t12 -27q0 -10 -8 -21q-5 -6 -5 -11q0 -12 18 -12q30 0 51.5 39.5t48.5 144.5l75 296q17 68 17 82q0 16 -7 23q-11 11 -33 9l-7 -1h-28v16q51 3 173 25z
M244 670l88 -171h-36l-83 105l-139 -105h-40l161 171h49z" />
    <glyph glyph-name="Kcommaaccent" unicode="&#x136;" horiz-adv-x="667" 
d="M738 662v-16q-37 -8 -76 -37l-302 -229l180 -307q21 -35 36 -44t63 -13v-16h-279v16q6 1 16 2.5t12 1.5q47 3 47 25q0 30 -39 97l-124 211l-61 -231q-5 -14 -6 -22q-8 -24 -8 -38q0 -25 12.5 -33t60.5 -13l1 -16h-252v16q44 8 56.5 19t25.5 56l121 448q11 41 11 63
t-15.5 30.5t-63.5 13.5v16h277v-16q-45 -4 -68 -20.5t-34 -54.5l-52 -197l153 108q67 47 106 85t39 56q0 9 -6 13q-10 5 -28 7q-10 0 -28 3v16h225zM226 -274l-9 17q75 51 75 90q0 13 -21 33q-25 22 -25 47q0 20 15 33t37 13q25 0 42 -21t17 -52q0 -87 -131 -160z" />
    <glyph glyph-name="kcommaaccent" unicode="&#x137;" horiz-adv-x="444" 
d="M434 111l16 -12q-35 -63 -59 -86.5t-55 -23.5q-22 0 -39.5 18.5t-39.5 64.5q-36 73 -60 143l-43 -32l-50 -183h-76l133 490q1 5 4.5 18.5t6.5 23.5q20 68 23 92q-1 25 -51 25h-17v16q79 9 158 28l5 -6l-125 -463q33 26 44 34q146 111 146 142q0 10 -11.5 13.5t-44.5 4.5
v16h186v-16q-36 -2 -76.5 -29.5t-153.5 -126.5q25 -59 37 -90q29 -73 47 -101.5t34 -28.5q14 0 24 11t37 58zM104 -274l-9 17q77 51 77 90q0 14 -20 33q-25 22 -25 45q0 21 14.5 34.5t37.5 13.5q25 0 41.5 -20.5t16.5 -50.5q0 -89 -133 -162z" />
    <glyph glyph-name="kgreenlandic" unicode="&#x138;" horiz-adv-x="444" 
d="M136 179l-53 -179h-68l102 365q6 23 6 30q0 8 -7 14t-17 6q-8 0 -28 -3l6 19q66 8 140 23l-70 -237l136 115q56 48 65.5 57.5t9.5 18.5q0 8 -8 11.5t-34 4.5l5 15h179l-4 -15q-43 -2 -98 -36t-143 -111l62 -176q21 -61 44 -61q14 0 35.5 23.5t40.5 61.5l14 -8
q-38 -66 -65 -94q-32 -35 -64 -35q-35 0 -53 52l-67 194z" />
    <glyph glyph-name="Lacute" unicode="&#x139;" horiz-adv-x="556" 
d="M415 662v-16q-46 -4 -68.5 -20.5t-33.5 -54.5l-120 -449q-10 -33 -10 -50q0 -20 22 -27.5t79 -7.5q119 0 166 23q34 17 57.5 45t49.5 83l20 -6l-57 -182h-516v16q42 8 55 20t26 56l121 448q11 40 11 62t-15.5 30.5t-63.5 13.5v16h277zM257 716l163 162q9 10 25 10
t26.5 -10.5t10.5 -25.5q0 -18 -17 -28l-173 -108h-35z" />
    <glyph glyph-name="lacute" unicode="&#x13a;" horiz-adv-x="278" 
d="M246 125l14 -9q-50 -74 -82.5 -100.5t-72.5 -26.5q-49 0 -49 56q0 12 4 27l144 535q4 12 4 19q0 23 -52 23h-17v16q77 9 159 28l4 -6l-157 -587v-2q-1 -1 -3 -8q-8 -29 -8 -39q0 -19 15 -19q17 0 33 15.5t64 77.5zM174 716l166 162q9 10 25 10t26.5 -10t10.5 -26
q0 -18 -18 -28l-174 -108h-36z" />
    <glyph glyph-name="Lcommaaccent" unicode="&#x13b;" horiz-adv-x="556" 
d="M415 662v-16q-46 -4 -68.5 -20.5t-33.5 -54.5l-120 -449q-10 -33 -10 -50q0 -20 22 -27.5t79 -7.5q119 0 166 23q34 17 57.5 45t49.5 83l20 -6l-57 -182h-516v16q42 8 55 20t26 56l121 448q11 40 11 62t-15.5 30.5t-63.5 13.5v16h277zM176 -274l-9 17q75 52 75 90
q0 15 -21 33q-25 22 -25 46q0 20 14.5 33.5t36.5 13.5q25 0 42 -21t17 -51q0 -88 -130 -161z" />
    <glyph glyph-name="lcommaaccent" unicode="&#x13c;" horiz-adv-x="278" 
d="M247 125l13 -9q-50 -74 -82.5 -100.5t-72.5 -26.5q-49 0 -49 56q0 9 5 27l144 535q3 12 3 19q0 23 -51 23h-17v16q79 9 158 28l5 -6l-158 -587v-2l-2 -8q-9 -24 -9 -39q0 -19 15 -19q17 0 32.5 15t65.5 78zM0 -274l-9 17q77 51 77 90q0 13 -20 33q-25 22 -25 45
q0 21 14.5 34.5t37.5 13.5q25 0 41.5 -20.5t16.5 -50.5q0 -89 -133 -162z" />
    <glyph glyph-name="Lcaron" unicode="&#x13d;" horiz-adv-x="611" 
d="M418 662v-16q-46 -4 -68.5 -20.5t-33.5 -54.5l-120 -449q-10 -33 -10 -50q0 -20 22 -27.5t79 -7.5q119 0 166 23q34 17 57.5 45t49.5 83l20 -6l-57 -182h-516v16q42 8 55 20t26 56l121 448q11 40 11 62t-15.5 30.5t-63.5 13.5v16h277zM442 442l-9 17q75 50 75 89
q0 16 -21 34q-25 22 -25 47q0 20 15 33t37 13q25 0 42 -21t17 -52q0 -87 -131 -160z" />
    <glyph glyph-name="lcaron" unicode="&#x13e;" horiz-adv-x="300" 
d="M313 442l-9 17q77 51 77 90q0 13 -20 33q-25 22 -25 45q0 21 15 34.5t38 13.5q25 0 41.5 -20.5t16.5 -50.5q0 -89 -134 -162zM245 125l14 -9q-50 -74 -82.5 -100.5t-72.5 -26.5q-49 0 -49 56q0 12 4 27l144 535q4 12 4 19q0 23 -52 23h-17v16q77 9 159 28l4 -6l-157 -587
v-2q-1 -1 -3 -8q-8 -29 -8 -39q0 -19 15 -19q17 0 33 15.5t64 77.5z" />
    <glyph glyph-name="Ldot" unicode="&#x13f;" horiz-adv-x="556" 
d="M415 662v-16q-46 -4 -68.5 -20.5t-33.5 -54.5l-120 -449q-10 -33 -10 -50q0 -20 22 -27.5t79 -7.5q119 0 166 23q34 17 57.5 45t49.5 83l20 -6l-57 -182h-516v16q42 8 55 20t26 56l121 448q11 40 11 62t-15.5 30.5t-63.5 13.5v16h277zM426 382q23 0 40 -17.5t17 -41.5
q0 -22 -17 -38t-40 -16t-39 16.5t-16 39.5q0 24 16 40.5t39 16.5z" />
    <glyph glyph-name="ldot" unicode="&#x140;" horiz-adv-x="323" 
d="M326 382q23 0 39.5 -17t16.5 -41q0 -22 -17.5 -38.5t-40.5 -16.5q-22 0 -38 16.5t-16 38.5q0 24 16.5 41t39.5 17zM246 125l14 -9q-50 -74 -82.5 -100.5t-72.5 -26.5q-49 0 -49 56q0 12 4 27l144 535q4 12 4 19q0 23 -52 23h-17v16q77 9 159 28l4 -6l-157 -587v-2
q-1 -1 -3 -8q-8 -29 -8 -39q0 -19 15 -19q17 0 33 15.5t64 77.5z" />
    <glyph glyph-name="Lslash" unicode="&#x141;" horiz-adv-x="556" 
d="M557 188l20 -6l-57 -182h-516v16q42 8 55 20t26 56l53 196l-99 -60l12 49l100 60l55 203q11 40 11 62t-15.5 30.5t-63.5 13.5v16h277v-16q-46 -4 -68.5 -20.5t-33.5 -54.5l-48 -177l144 86l-13 -50l-144 -84q-22 -82 -33 -125q-37 -135 -37 -150q0 -19 23 -26.5t81 -7.5
q117 0 164 23q34 17 57.5 45t49.5 83z" />
    <glyph glyph-name="lslash" unicode="&#x142;" horiz-adv-x="278" 
d="M230 416l99 50l-12 -46l-100 -51l-72 -269l-1 -2l-2 -8q-8 -29 -8 -39q0 -19 15 -19q16 0 31.5 14.5t65.5 78.5l14 -9q-50 -74 -82.5 -100.5t-72.5 -26.5q-49 0 -49 56q0 23 27 122l22 74q6 18 22 77l-73 -36l13 47l73 36q68 249 68 260q0 24 -51 24h-18v16q78 9 159 28
l5 -6z" />
    <glyph glyph-name="Nacute" unicode="&#x143;" horiz-adv-x="667" 
d="M742 662l1 -16q-48 -11 -62.5 -32t-41.5 -119l-142 -510h-18l-239 557l-111 -427q-9 -33 -9 -54q0 -22 16 -32t56 -13v-16h-201v16q43 6 59 29t44 121l117 423q-14 30 -33 42t-55 15v16h163l216 -506l100 385q0 1 2 9q8 29 8 43q0 29 -14 39t-57 14v16h201zM397 716
l163 162q9 10 25 10t26.5 -10.5t10.5 -25.5q0 -18 -17 -28l-172 -108h-36z" />
    <glyph glyph-name="nacute" unicode="&#x144;" 
d="M479 119l14 -14q-53 -70 -81 -92t-62 -22q-25 0 -36 13t-11 42q0 12 17 75l46 168q15 55 15 77q0 29 -24 29q-58 0 -151 -144q-34 -52 -50.5 -91.5t-53.5 -159.5h-76l100 355q2 6 2 17q0 15 -13 21t-51 7v16q101 18 164 31l3 -2l-69 -221q79 121 132.5 172t102.5 51
q29 0 47.5 -17t18.5 -44q0 -22 -10 -59l-59 -209q-15 -56 -15 -63q0 -16 16 -16q13 0 27.5 14t56.5 66zM298 501l165 162q12 10 25 10q16 0 26.5 -10.5t10.5 -25.5q0 -18 -17 -29l-175 -107h-35z" />
    <glyph glyph-name="Ncommaaccent" unicode="&#x145;" horiz-adv-x="667" 
d="M742 662l1 -16q-48 -11 -62.5 -32t-41.5 -119l-142 -510h-18l-239 557l-111 -427q-9 -33 -9 -54q0 -22 16 -32t56 -13v-16h-201v16q43 6 59 29t44 121l117 423q-14 30 -33 42t-55 15v16h163l216 -506l100 385q0 1 2 9q8 29 8 43q0 29 -14 39t-57 14v16h201zM223 -274
l-10 17q76 51 76 90q0 15 -21 33q-26 22 -26 47q0 20 15 33t37 13q25 0 42 -21t17 -51q0 -88 -130 -161z" />
    <glyph glyph-name="ncommaaccent" unicode="&#x146;" 
d="M479 119l14 -14q-53 -70 -81 -92t-62 -22q-25 0 -36 13t-11 42q0 12 17 75l46 168q15 55 15 77q0 29 -24 29q-58 0 -151 -144q-34 -52 -50.5 -91.5t-53.5 -159.5h-76l100 355q2 6 2 17q0 15 -13 21t-51 7v16q101 18 164 31l3 -2l-69 -221q79 121 132.5 172t102.5 51
q29 0 47.5 -17t18.5 -44q0 -22 -10 -59l-59 -209q-15 -56 -15 -63q0 -16 16 -16q13 0 27.5 14t56.5 66zM116 -274l-9 17q77 51 77 90q0 13 -20 33q-25 22 -25 46q0 20 15 33.5t37 13.5q25 0 41.5 -20.5t16.5 -50.5q0 -88 -133 -162z" />
    <glyph glyph-name="Ncaron" unicode="&#x147;" horiz-adv-x="667" 
d="M742 662l1 -16q-48 -11 -62.5 -32t-41.5 -119l-142 -510h-18l-239 557l-111 -427q-9 -33 -9 -54q0 -22 16 -32t56 -13v-16h-201v16q43 6 59 29t44 121l117 423q-14 30 -33 42t-55 15v16h163l216 -506l100 385q0 1 2 9q8 29 8 43q0 29 -14 39t-57 14v16h201zM630 885
l-163 -171h-47l-99 171h38l92 -106l143 106h36z" />
    <glyph glyph-name="ncaron" unicode="&#x148;" 
d="M479 119l14 -14q-53 -70 -81 -92t-62 -22q-25 0 -36 13t-11 42q0 12 17 75l46 168q15 55 15 77q0 29 -24 29q-58 0 -151 -144q-34 -52 -50.5 -91.5t-53.5 -159.5h-76l100 355q2 6 2 17q0 15 -13 21t-51 7v16q101 18 164 31l3 -2l-69 -221q79 121 132.5 172t102.5 51
q29 0 47.5 -17t18.5 -44q0 -22 -10 -59l-59 -209q-15 -56 -15 -63q0 -16 16 -16q13 0 27.5 14t56.5 66zM516 670l-166 -171h-47l-96 171h37l91 -106l145 106h36z" />
    <glyph glyph-name="napostrophe" unicode="&#x149;" horiz-adv-x="577" 
d="M122 496l-18 21q72 31 72 67q0 12 -18 29q-12 11 -12 26q0 18 13.5 32t31.5 14q19 0 32.5 -15.5t13.5 -36.5q0 -40 -31 -76.5t-84 -60.5zM556 119l14 -14q-53 -70 -81 -92t-62 -22q-25 0 -36 13t-11 42q0 12 17 75l46 168q15 55 15 77q0 29 -24 29q-58 0 -151 -144
q-34 -52 -50.5 -91.5t-53.5 -159.5h-76l100 355q2 6 2 17q0 15 -13 21t-51 7v16q101 18 164 31l3 -2l-69 -221q79 121 132.5 172t102.5 51q29 0 47.5 -17t18.5 -44q0 -22 -10 -59l-59 -209q-15 -56 -15 -63q0 -16 16 -16q13 0 27.5 14t56.5 66z" />
    <glyph glyph-name="Eng" unicode="&#x14a;" horiz-adv-x="696" 
d="M324 662l-66 -221q82 129 141.5 176.5t139.5 47.5q67 0 102 -29t35 -85q0 -18 -5 -40l-124 -483q-35 -132 -78 -183q-47 -55 -118 -55q-47 0 -73 16.5t-26 46.5q0 20 13 34t32 14t31 -12.5t12 -31.5q0 -11 -7 -21q-5 -7 -5 -11q0 -12 18 -12q31 0 50.5 37.5t46.5 146.5
l122 480q10 36 10 68q0 68 -72 68q-117 0 -219 -184q-42 -77 -114 -338l-25 -91h-96l151 572q2 5 2 16q0 16 -13 22t-52 7v16q110 20 164 31z" />
    <glyph glyph-name="eng" unicode="&#x14b;" horiz-adv-x="482" 
d="M224 445l-69 -221q79 121 132.5 172t102.5 51q29 0 47.5 -17t18.5 -44q0 -21 -10 -59l-81 -299q-36 -131 -81 -183q-48 -55 -109 -55q-36 0 -58.5 17t-22.5 45q0 19 11.5 31t29.5 12q17 0 29 -10.5t12 -26.5q0 -11 -8 -22q-5 -7 -5 -12q0 -11 18 -11q31 0 51 37.5
t49 146.5l79 296q14 54 14 73q0 29 -24 29q-58 0 -151 -144q-34 -52 -50.5 -91.5t-53.5 -159.5h-76l100 355q2 6 2 17q0 15 -13 21t-51 7v16q101 18 164 31z" />
    <glyph glyph-name="Omacron" unicode="&#x14c;" horiz-adv-x="722" 
d="M486 675q103 0 169 -73t61 -181q-4 -84 -41.5 -164.5t-95 -140.5t-133 -97t-152.5 -37q-98 0 -161 69t-63 177q0 88 41.5 175t117.5 157q124 115 257 115zM477 641q-109 0 -192 -120q-45 -66 -76.5 -163t-31.5 -169q0 -84 34.5 -129t98.5 -45q106 0 189 120q48 71 79 169
t31 180q0 73 -35.5 115t-96.5 42zM658 806l-10 -52h-306l11 52h305z" />
    <glyph glyph-name="omacron" unicode="&#x14d;" 
d="M331 447q64 0 104 -39t40 -102q0 -57 -29.5 -118t-79.5 -111q-91 -88 -192 -88q-69 0 -108.5 37.5t-39.5 103.5q0 80 50.5 159.5t129.5 123.5q62 34 125 34zM319 426q-66 0 -127 -88q-81 -117 -81 -238q0 -40 21.5 -65t56.5 -25q66 0 120 79q35 50 58 118.5t23 124.5
q0 43 -19.5 68.5t-51.5 25.5zM495 591l-12 -52h-305l12 52h305z" />
    <glyph glyph-name="Obreve" unicode="&#x14e;" horiz-adv-x="722" 
d="M486 675q103 0 169 -73t61 -181q-4 -84 -41.5 -164.5t-95 -140.5t-133 -97t-152.5 -37q-98 0 -161 69t-63 177q0 88 41.5 175t117.5 157q124 115 257 115zM477 641q-109 0 -192 -120q-45 -66 -76.5 -163t-31.5 -169q0 -84 34.5 -129t98.5 -45q106 0 189 120q48 71 79 169
t31 180q0 73 -35.5 115t-96.5 42zM658 872h29q-11 -55 -37 -91q-52 -69 -135 -69q-69 0 -103 45q-29 35 -30 115h29q4 -47 33 -73.5t78 -26.5q97 0 136 100z" />
    <glyph glyph-name="obreve" unicode="&#x14f;" 
d="M331 447q64 0 104 -39t40 -102q0 -57 -29.5 -118t-79.5 -111q-91 -88 -192 -88q-69 0 -108.5 37.5t-39.5 103.5q0 80 50.5 159.5t129.5 123.5q62 34 125 34zM319 426q-66 0 -127 -88q-81 -117 -81 -238q0 -40 21.5 -65t56.5 -25q66 0 120 79q35 50 58 118.5t23 124.5
q0 43 -19.5 68.5t-51.5 25.5zM498 659h29q-17 -76 -62.5 -118t-111.5 -42q-69 0 -104 45q-27 37 -27 115h29q3 -47 31.5 -73.5t77.5 -26.5q97 0 138 100z" />
    <glyph glyph-name="Ohungarumlaut" unicode="&#x150;" horiz-adv-x="722" 
d="M486 675q103 0 169 -73t61 -181q-4 -84 -41.5 -164.5t-95 -140.5t-133 -97t-152.5 -37q-98 0 -161 69t-63 177q0 88 41.5 175t117.5 157q124 115 257 115zM477 641q-109 0 -192 -120q-45 -66 -76.5 -163t-31.5 -169q0 -84 34.5 -129t98.5 -45q106 0 189 120q48 71 79 169
t31 180q0 73 -35.5 115t-96.5 42zM355 716l163 162q9 10 25 10t26.5 -10.5t10.5 -25.5q0 -18 -17 -28l-172 -108h-36zM527 716l163 162q10 10 25 10q16 0 26.5 -10.5t10.5 -25.5q0 -18 -17 -28l-172 -108h-36z" />
    <glyph glyph-name="ohungarumlaut" unicode="&#x151;" 
d="M331 447q64 0 104 -39t40 -102q0 -57 -29.5 -118t-79.5 -111q-91 -88 -192 -88q-69 0 -108.5 37.5t-39.5 103.5q0 80 50.5 159.5t129.5 123.5q62 34 125 34zM319 426q-66 0 -127 -88q-81 -117 -81 -238q0 -40 21.5 -65t56.5 -25q66 0 120 79q35 50 58 118.5t23 124.5
q0 43 -19.5 68.5t-51.5 25.5zM237 501l165 162q12 10 25 10q16 0 26.5 -10t10.5 -26q0 -18 -18 -29l-174 -107h-35zM409 501l166 162q9 10 24 10q16 0 26.5 -10.5t10.5 -25.5q0 -18 -17 -29l-175 -107h-35z" />
    <glyph glyph-name="OE" unicode="&#x152;" horiz-adv-x="944" 
d="M981 662l-30 -152h-16q1 76 -20.5 96.5t-102.5 22.5h-98q-29 -1 -37 -32l-63 -231q120 -1 152 13.5t60 83.5l19 -4l-65 -234l-20 2l3 27l2 16q-1 35 -19 46.5t-77 13.5l-63 3l-51 -193l-2 -7l-2 -8q-11 -40 -11 -54q0 -22 16 -30t60 -8q111 0 169 28.5t118 112.5l17 -6
l-65 -168h-351q-42 0 -111 -4q-83 -4 -104 -4q-100 0 -166 68.5t-66 171.5q0 115 55 218t146.5 164t194.5 61l154 -13h374zM472 202l71 272q20 74 20 89q0 35 -29.5 57.5t-75.5 22.5q-72 0 -134 -51q-68 -58 -112.5 -166t-44.5 -216q0 -186 147 -186q68 0 101 39
q31 39 57 139z" />
    <glyph glyph-name="oe" unicode="&#x153;" horiz-adv-x="667" 
d="M614 106l11 -11q-110 -107 -201 -107q-69 0 -105 69q-39 -38 -70 -53t-70 -15q-64 0 -105 41.5t-41 105.5q0 109 91 210t189 101q41 0 70.5 -21.5t42.5 -59.5q53 47 87 64t76 17q38 0 59.5 -18t21.5 -50q0 -61 -71 -111q-31 -21 -79.5 -40t-80.5 -22t-37 -18
q-11 -31 -11 -74q0 -37 21 -60t54 -23q29 0 58.5 15t89.5 60zM303 424q-41 0 -74 -36q-49 -52 -80.5 -133t-31.5 -155q0 -43 18 -67t50 -24q47 0 88 58q29 41 55 125q34 111 34 165q0 31 -16 49t-43 18zM411 218q66 20 89.5 31t47.5 32q55 49 55 102q0 39 -35 39
q-34 0 -71 -40q-30 -31 -48 -65.5t-38 -98.5z" />
    <glyph glyph-name="Racute" unicode="&#x154;" horiz-adv-x="611" 
d="M587 16v-16h-150l-128 329l-66 5l-54 -212q-12 -43 -12 -58q0 -26 11 -33.5t58 -14.5l1 -16h-248v16q43 7 55.5 18.5t25.5 56.5l121 449q12 46 12 63q0 20 -14 29q-12 7 -59 14v16h251q103 0 158 -38t55 -109q0 -68 -51 -113q-27 -24 -58 -37.5t-89 -26.5l96 -249
q15 -40 33 -55.5t52 -17.5zM319 604l-64 -233q30 -5 52 -5q190 0 190 150q0 116 -126 116q-25 0 -36 -6t-16 -22zM347 716l162 162q10 10 25 10q16 0 27 -10.5t11 -25.5q0 -18 -17 -28l-173 -108h-35z" />
    <glyph glyph-name="racute" unicode="&#x155;" horiz-adv-x="389" 
d="M133 0h-77l85 296q16 60 16 84q0 28 -35 28q-6 0 -34 -5v17q70 12 157 27l3 -2l-56 -220l15 37q12 30 40.5 70.5t59.5 71.5q40 43 77 43q21 0 34 -14t13 -38q0 -50 -47 -50q-26 0 -36 22q-7 14 -17 14q-26 0 -80 -88q-35 -58 -56 -110.5t-62 -182.5zM269 501l166 162
q10 10 25 10q16 0 26.5 -10t10.5 -26q0 -18 -18 -29l-174 -107h-36z" />
    <glyph glyph-name="Rcommaaccent" unicode="&#x156;" horiz-adv-x="611" 
d="M587 16v-16h-150l-128 329l-66 5l-54 -212q-12 -43 -12 -58q0 -26 11 -33.5t58 -14.5l1 -16h-248v16q43 7 55.5 18.5t25.5 56.5l121 449q12 46 12 63q0 20 -14 29q-12 7 -59 14v16h251q103 0 158 -38t55 -109q0 -68 -51 -113q-27 -24 -58 -37.5t-89 -26.5l96 -249
q15 -40 33 -55.5t52 -17.5zM319 604l-64 -233q30 -5 52 -5q190 0 190 150q0 116 -126 116q-25 0 -36 -6t-16 -22zM225 -274l-10 17q76 52 76 90q0 13 -21 33q-26 22 -26 46q0 20 15 33.5t37 13.5q25 0 42 -21t17 -52q0 -87 -130 -160z" />
    <glyph glyph-name="rcommaaccent" unicode="&#x157;" horiz-adv-x="389" 
d="M133 0h-77l85 296q16 58 16 84q0 28 -35 28q-8 0 -34 -5v17q70 12 157 27l3 -2l-56 -220l15 37q12 30 40.5 70.5t59.5 71.5q40 43 77 43q21 0 34 -14t13 -38q0 -50 -47 -50q-27 0 -36 22q-7 14 -17 14q-25 0 -80 -88q-35 -58 -56 -110.5t-62 -182.5zM8 -274l-9 17
q77 51 77 90q0 13 -20 33q-25 22 -25 45q0 21 14.5 34.5t37.5 13.5q25 0 41.5 -20.5t16.5 -50.5q0 -89 -133 -162z" />
    <glyph glyph-name="Rcaron" unicode="&#x158;" horiz-adv-x="611" 
d="M587 16v-16h-150l-128 329l-66 5l-54 -212q-12 -43 -12 -58q0 -26 11 -33.5t58 -14.5l1 -16h-248v16q43 7 55.5 18.5t25.5 56.5l121 449q12 46 12 63q0 20 -14 29q-12 7 -59 14v16h251q103 0 158 -38t55 -109q0 -68 -51 -113q-27 -24 -58 -37.5t-89 -26.5l96 -249
q15 -40 33 -55.5t52 -17.5zM319 604l-64 -233q30 -5 52 -5q190 0 190 150q0 116 -126 116q-25 0 -36 -6t-16 -22zM571 885l-164 -171h-46l-99 171h37l93 -106l143 106h36z" />
    <glyph glyph-name="rcaron" unicode="&#x159;" horiz-adv-x="389" 
d="M133 0h-77l85 296q16 60 16 84q0 28 -35 28q-6 0 -34 -5v17q70 12 157 27l3 -2l-56 -220l15 37q12 30 40.5 70.5t59.5 71.5q40 43 77 43q21 0 34 -14t13 -38q0 -50 -47 -50q-26 0 -36 22q-7 14 -17 14q-26 0 -80 -88q-35 -58 -56 -110.5t-62 -182.5zM476 670l-166 -171
h-47l-96 171h37l91 -106l145 106h36z" />
    <glyph glyph-name="Sacute" unicode="&#x15a;" 
d="M483 475l-19 3q-3 92 -33 126q-34 37 -90 37q-52 0 -81.5 -27.5t-29.5 -74.5q0 -38 16.5 -63t85.5 -94q70 -70 93 -109.5t23 -89.5q0 -86 -58 -143.5t-145 -57.5q-42 0 -106 23q-39 13 -52 13q-29 0 -39 -33h-18l32 226l21 -2q-2 -8 -2 -21q0 -73 43 -121.5t107 -48.5
q56 0 92.5 38t36.5 96q0 33 -12.5 58t-49.5 62q-1 1 -6.5 7t-15.5 17t-17 19q-36 38 -40 42q-47 50 -62.5 79.5t-15.5 71.5q0 73 50 120t129 47q50 0 86 -14q29 -11 46 -11t26.5 5t19.5 21h23zM300 716l162 162q10 10 25 10q16 0 27 -10.5t11 -25.5q0 -17 -17 -28l-173 -108
h-35z" />
    <glyph glyph-name="sacute" unicode="&#x15b;" horiz-adv-x="389" 
d="M28 148h16q11 -72 35.5 -105t66.5 -33q34 0 55 22t21 57q0 43 -56 115q-63 82 -63 131q0 50 33.5 81t88.5 31q27 0 59 -10q25 -7 36 -7q20 0 30 18h15l-22 -141h-16q-13 117 -93 117q-26 0 -41.5 -15t-15.5 -40q0 -39 54 -106q68 -84 68 -141q0 -58 -41.5 -95.5
t-105.5 -37.5q-22 0 -56 10q-36 9 -50 9t-24 -21h-16zM205 501l165 162q12 10 25 10q16 0 26.5 -10.5t10.5 -25.5q0 -18 -17 -29l-175 -107h-35z" />
    <glyph glyph-name="Scircumflex" unicode="&#x15c;" 
d="M495 475l-19 3q-3 92 -33 126q-34 37 -90 37q-52 0 -81.5 -27.5t-29.5 -74.5q0 -38 16.5 -63t85.5 -94q70 -70 93 -109.5t23 -89.5q0 -86 -58 -143.5t-145 -57.5q-42 0 -106 23q-39 13 -52 13q-29 0 -39 -33h-18l32 226l21 -2q-2 -8 -2 -21q0 -73 43 -121.5t107 -48.5
q56 0 92.5 38t36.5 96q0 33 -12.5 58t-49.5 62q-1 1 -6.5 7t-15.5 17t-17 19q-36 38 -40 42q-47 50 -62.5 79.5t-15.5 71.5q0 73 50 120t129 47q50 0 86 -14q29 -11 46 -11t26.5 5t19.5 21h23zM435 885l90 -171h-36l-84 105l-138 -105h-40l158 171h50z" />
    <glyph glyph-name="scircumflex" unicode="&#x15d;" horiz-adv-x="389" 
d="M28 148h16q11 -72 35.5 -105t66.5 -33q34 0 55 22t21 57q0 43 -56 115q-63 82 -63 131q0 50 33.5 81t88.5 31q27 0 59 -10q25 -7 36 -7q20 0 30 18h15l-22 -141h-16q-13 117 -93 117q-26 0 -41.5 -15t-15.5 -40q0 -39 54 -106q68 -84 68 -141q0 -58 -41.5 -95.5
t-105.5 -37.5q-22 0 -56 10q-36 9 -50 9t-24 -21h-16zM325 670l88 -171h-37l-82 105l-140 -105h-39l160 171h50z" />
    <glyph glyph-name="Scedilla" unicode="&#x15e;" 
d="M208 -15l-34 -52q15 3 26 3q38 0 60.5 -19t22.5 -51q0 -38 -34 -62t-86 -24q-39 0 -94 21l17 30q41 -15 68 -15q54 0 54 41q0 19 -13.5 32t-33.5 13q-14 0 -32 -7l-9 8l55 90q-17 5 -36 12q-39 13 -52 13q-29 0 -39 -33h-18l32 226l21 -2q-2 -8 -2 -21q0 -73 43 -121.5
t107 -48.5q56 0 92.5 38t36.5 96q0 33 -12.5 58t-49.5 62q-1 1 -6.5 7t-15.5 17t-17 19q-36 38 -40 42q-47 50 -62.5 79.5t-15.5 71.5q0 73 50 120t129 47q50 0 86 -14q29 -11 46 -11t26.5 5t19.5 21h23l-38 -201l-19 3q-3 92 -33 126q-34 37 -90 37q-52 0 -81.5 -27.5
t-29.5 -74.5q0 -38 16.5 -63t85.5 -94q70 -70 93 -109.5t23 -89.5q0 -86 -58 -143.5t-145 -57.5q-11 0 -37 3z" />
    <glyph glyph-name="scedilla" unicode="&#x15f;" horiz-adv-x="389" 
d="M133 -10l-39 -57q17 3 27 3q37 0 59.5 -18.5t22.5 -49.5q0 -38 -34.5 -63t-87.5 -25q-39 0 -94 21l17 30q42 -15 69 -15q55 0 55 42q0 19 -13.5 31.5t-33.5 12.5q-14 0 -32 -7l-9 8l60 95l-13 3q-26 7 -40 7q-13 0 -24 -21h-16l21 161h17q11 -72 35.5 -105t66.5 -33
q34 0 55 22t21 57q0 42 -56 115q-63 82 -63 131q0 50 33.5 81t88.5 31q26 0 59 -10q25 -7 36 -7q20 0 30 18h14l-21 -141h-16q-15 117 -93 117q-26 0 -41.5 -15t-15.5 -40q0 -39 54 -106q68 -84 68 -141q0 -59 -41.5 -96t-107.5 -37q-9 0 -18 1z" />
    <glyph glyph-name="Scaron" unicode="&#x160;" 
d="M483 475l-19 3q-3 92 -33 126q-34 37 -90 37q-52 0 -81.5 -27.5t-29.5 -74.5q0 -38 16.5 -63t85.5 -94q70 -70 93 -109.5t23 -89.5q0 -86 -58 -143.5t-145 -57.5q-42 0 -106 23q-39 13 -52 13q-29 0 -39 -33h-18l32 226l21 -2q-2 -8 -2 -21q0 -73 43 -121.5t107 -48.5
q56 0 92.5 38t36.5 96q0 33 -12.5 58t-49.5 62q-1 1 -6.5 7t-15.5 17t-17 19q-36 38 -40 42q-47 50 -62.5 79.5t-15.5 71.5q0 73 50 120t129 47q50 0 86 -14q29 -11 46 -11t26.5 5t19.5 21h23zM532 885l-164 -171h-47l-99 171h38l92 -106l143 106h37z" />
    <glyph glyph-name="scaron" unicode="&#x161;" horiz-adv-x="389" 
d="M28 148h16q11 -72 35.5 -105t66.5 -33q34 0 55 22t21 57q0 43 -56 115q-63 82 -63 131q0 50 33.5 81t88.5 31q27 0 59 -10q25 -7 36 -7q20 0 30 18h15l-22 -141h-16q-13 117 -93 117q-26 0 -41.5 -15t-15.5 -40q0 -39 54 -106q68 -84 68 -141q0 -58 -41.5 -95.5
t-105.5 -37.5q-22 0 -56 10q-36 9 -50 9t-24 -21h-16zM456 670l-167 -171h-47l-96 171h38l90 -106l145 106h37z" />
    <glyph glyph-name="Tcommaaccent" unicode="&#x162;" horiz-adv-x="556" 
d="M649 662l-44 -165l-17 2q3 25 3 45q0 43 -25.5 63t-80.5 20h-56l-136 -505q-12 -44 -12 -58q0 -29 13 -36t79 -12v-16h-294v16q50 4 72.5 19.5t33.5 55.5l141 536q-81 1 -121 -8t-65.5 -34t-53.5 -83l-18 4l41 156h540zM124 -274l-9 17q75 51 75 90q0 15 -21 33
q-25 22 -25 46q0 20 14.5 33.5t36.5 13.5q25 0 42 -21t17 -52q0 -88 -130 -160z" />
    <glyph glyph-name="tcommaaccent" unicode="&#x163;" horiz-adv-x="278" 
d="M0 -274l-9 17q77 51 77 90q0 13 -20 33q-25 22 -25 45q0 21 14.5 34.5t37.5 13.5q25 0 41.5 -20.5t16.5 -50.5q0 -89 -133 -162zM311 434l-6 -32h-85l-92 -338q-1 -5 -1 -6q0 -19 15 -19q12 0 28.5 16t54.5 64l13 -7q-49 -71 -79.5 -97t-65.5 -26q-20 0 -34 11t-14 27
q0 11 22 87l2 9l75 279h-75v6q0 8 6.5 13.5t25.5 12.5q25 6 66 39t70 72q7 9 12 9h3h2q6 0 6 -10q0 -3 -1 -6l-29 -104h81z" />
    <glyph glyph-name="Tcaron" unicode="&#x164;" horiz-adv-x="556" 
d="M649 662l-44 -165l-17 2q3 25 3 45q0 43 -25.5 63t-80.5 20h-56l-136 -505q-12 -44 -12 -58q0 -29 13 -36t79 -12v-16h-294v16q50 4 72.5 19.5t33.5 55.5l141 536q-81 1 -121 -8t-65.5 -34t-53.5 -83l-18 4l41 156h540zM577 885l-164 -171h-46l-99 171h37l93 -106
l143 106h36z" />
    <glyph glyph-name="tcaron" unicode="&#x165;" horiz-adv-x="300" 
d="M320 472l-9 17q77 49 77 90q0 13 -20 32q-25 24 -25 46q0 21 14.5 34.5t37.5 13.5q25 0 41.5 -20.5t16.5 -50.5q0 -89 -133 -162zM310 434l-5 -32h-86l-91 -338q-2 -4 -2 -6q0 -19 15 -19q12 0 29 16.5t54 63.5l13 -7q-48 -71 -79 -97t-66 -26q-20 0 -34 11t-14 27
q0 6 24 96l75 279h-75v6q0 8 6.5 13.5t25.5 12.5q25 6 66 39t70 72q8 9 12 9h3h2q6 0 6 -10q0 -3 -1 -6l-29 -104h81z" />
    <glyph glyph-name="Tbar" unicode="&#x166;" horiz-adv-x="556" 
d="M361 333l-57 -211q-12 -43 -12 -58q0 -29 13.5 -36t78.5 -12v-16h-294v16q50 4 72.5 19.5t33.5 55.5l64 242h-109l7 35h111l68 259q-81 1 -121 -8t-65.5 -34t-53.5 -83l-18 4l41 156h540l-44 -165l-17 2q3 25 3 45q0 43 -25.5 63t-80.5 20h-56l-70 -259h93l-7 -35h-95z
" />
    <glyph glyph-name="tbar" unicode="&#x167;" horiz-adv-x="278" 
d="M196 305h103l-8 -35h-104l-56 -206q-1 -3 -1 -6q0 -19 15 -19q12 0 28.5 16t54.5 64l13 -7q-49 -71 -79.5 -97t-66.5 -26q-20 0 -34 11t-14 27t18 75q1 4 2.5 7.5t2.5 7.5t2 6l39 147h-83l8 35h85l26 97h-75q-1 3 -1 6q0 8 6.5 13.5t25.5 12.5q26 7 66 39.5t70 71.5
q8 9 13 9h2h2q6 0 6 -10q0 -4 -1 -6l-29 -104h81l-5 -32h-85z" />
    <glyph glyph-name="Utilde" unicode="&#x168;" horiz-adv-x="722" 
d="M781 662v-16q-27 -6 -38 -10t-23.5 -22t-19.5 -41t-23 -78l-82 -289q-63 -224 -259 -224q-97 0 -160 47.5t-63 120.5q0 61 41 214l52 195q7 24 7 45q0 23 -14 30.5t-65 11.5v16h276l1 -16q-51 -5 -70.5 -22t-35.5 -70q0 -1 -1 -4.5t-2.5 -8.5t-1.5 -6q-96 -334 -96 -391
q0 -53 39.5 -86.5t103.5 -33.5q106 0 165 95q31 50 54 140q10 40 13 49q72 266 72 291q0 24 -18 34q-13 9 -54 13v16h202zM656 844h29q-22 -105 -95 -105q-18 0 -59 15q-71 29 -96 29q-37 0 -52 -47h-29q15 58 38 82.5t63 24.5q32 0 87 -24q42 -19 63 -19q20 0 31.5 9.5
t19.5 34.5z" />
    <glyph glyph-name="utilde" unicode="&#x169;" 
d="M482 436l-97 -330q-3 -10 -6 -24q-5 -20 -5 -23q-2 -8 -2 -10q0 -5 4 -8.5t8 -3.5q19 0 64 52l9 -13q-71 -89 -128 -89q-16 0 -26.5 10.5t-10.5 25.5q0 18 8 46l39 133q-74 -111 -123 -158q-61 -58 -106 -58q-24 0 -38 18.5t-14 49.5q0 15 5 35l79 269q4 11 4 20
q0 16 -16 16q-12 0 -20.5 -7.5t-48.5 -52.5l-11 11q44 52 65 71q33 30 68 30q18 0 29 -10.5t11 -27.5q0 -15 -6 -39l-76 -257q-8 -27 -8 -39q0 -28 31 -28q42 0 117 101q46 62 63 97t39 109l25 84h74zM465 633h28q-20 -106 -95 -106q-19 0 -58 16q-72 29 -97 29
q-36 0 -51 -48h-29q15 59 37.5 83.5t62.5 24.5q32 0 88 -25q42 -19 62 -19q21 0 32.5 10t19.5 35z" />
    <glyph glyph-name="Umacron" unicode="&#x16a;" horiz-adv-x="722" 
d="M781 662v-16q-27 -6 -38 -10t-23.5 -22t-19.5 -41t-23 -78l-82 -289q-63 -224 -259 -224q-97 0 -160 47.5t-63 120.5q0 61 41 214l52 195q7 24 7 45q0 23 -14 30.5t-65 11.5v16h276l1 -16q-51 -5 -70.5 -22t-35.5 -70q0 -1 -1 -4.5t-2.5 -8.5t-1.5 -6q-96 -334 -96 -391
q0 -53 39.5 -86.5t103.5 -33.5q106 0 165 95q31 50 54 140q10 40 13 49q72 266 72 291q0 24 -18 34q-13 9 -54 13v16h202zM658 806l-11 -52h-305l11 52h305z" />
    <glyph glyph-name="umacron" unicode="&#x16b;" 
d="M474 119l15 -9q-53 -75 -79.5 -97t-61.5 -22q-49 0 -49 48q0 33 48 200q-89 -147 -139.5 -198.5t-104.5 -51.5t-54 55q0 25 27 125l38 144q15 53 15 68q0 13 -10 19q-10 5 -51 6v14q74 9 153 27l3 -2l-96 -368l-1 -9q-1 -11 5 -18t16 -7q51 0 144 148q36 55 52.5 91.5
t61.5 155.5h75l-82 -303q-21 -74 -21 -80q0 -16 11 -16q13 0 29 15t56 65zM483 591l-12 -52h-305l12 52h305z" />
    <glyph glyph-name="Ubreve" unicode="&#x16c;" horiz-adv-x="722" 
d="M781 662v-16q-27 -6 -38 -10t-23.5 -22t-19.5 -41t-23 -78l-82 -289q-63 -224 -259 -224q-97 0 -160 47.5t-63 120.5q0 61 41 214l52 195q7 24 7 45q0 23 -14 30.5t-65 11.5v16h276l1 -16q-51 -5 -70.5 -22t-35.5 -70q0 -1 -1 -4.5t-2.5 -8.5t-1.5 -6q-96 -334 -96 -391
q0 -53 39.5 -86.5t103.5 -33.5q106 0 165 95q31 50 54 140q10 40 13 49q72 266 72 291q0 24 -18 34q-13 9 -54 13v16h202zM652 876h29q-11 -55 -37 -91q-52 -69 -135 -69q-69 0 -103 45q-29 35 -30 115h30q3 -47 32 -73.5t78 -26.5q46 0 82 26.5t54 73.5z" />
    <glyph glyph-name="ubreve" unicode="&#x16d;" 
d="M482 436l-97 -330q-3 -10 -6 -24q-5 -20 -5 -23q-2 -8 -2 -10q0 -5 4 -8.5t8 -3.5q19 0 64 52l9 -13q-71 -89 -128 -89q-16 0 -26.5 10.5t-10.5 25.5q0 18 8 46l39 133q-74 -111 -123 -158q-61 -58 -106 -58q-24 0 -38 18.5t-14 49.5q0 15 5 35l79 269q4 11 4 20
q0 16 -16 16q-12 0 -20.5 -7.5t-48.5 -52.5l-11 11q44 52 65 71q33 30 68 30q18 0 29 -10.5t11 -27.5q0 -15 -6 -39l-76 -257q-8 -27 -8 -39q0 -28 31 -28q42 0 117 101q46 62 63 97t39 109l25 84h74zM233 659h16q4 -46 22.5 -65t59.5 -19q40 0 65 18.5t51 65.5h17
q-20 -76 -52 -109t-87 -33q-94 0 -94 108q0 18 2 34z" />
    <glyph glyph-name="Uring" unicode="&#x16e;" horiz-adv-x="722" 
d="M781 662v-16q-27 -6 -38 -10t-23.5 -22t-19.5 -41t-23 -78l-82 -289q-63 -224 -259 -224q-97 0 -160 47.5t-63 120.5q0 61 41 214l52 195q7 24 7 45q0 23 -14 30.5t-65 11.5v16h276l1 -16q-51 -5 -70.5 -22t-35.5 -70q0 -1 -1 -4.5t-2.5 -8.5t-1.5 -6q-96 -334 -96 -391
q0 -53 39.5 -86.5t103.5 -33.5q106 0 165 95q31 50 54 140q10 40 13 49q72 266 72 291q0 24 -18 34q-13 9 -54 13v16h202zM498 932q42 0 72.5 -30t30.5 -72q0 -41 -29.5 -70.5t-71.5 -29.5q-43 0 -72.5 30t-29.5 73q0 41 29.5 70t70.5 29zM498 898q-26 0 -45.5 -19.5
t-19.5 -46.5q0 -29 19 -48.5t47 -19.5q29 0 48.5 19t19.5 47t-20 48t-49 20z" />
    <glyph glyph-name="uring" unicode="&#x16f;" 
d="M474 119l15 -9q-53 -75 -79.5 -97t-61.5 -22q-49 0 -49 48q0 33 48 200q-89 -147 -139.5 -198.5t-104.5 -51.5t-54 55q0 25 27 125l38 144q15 53 15 68q0 13 -10 19q-10 5 -51 6v14q74 9 153 27l3 -2l-96 -368l-1 -9q-1 -11 5 -18t16 -7q51 0 144 148q36 55 52.5 91.5
t61.5 155.5h75l-82 -303q-21 -74 -21 -80q0 -16 11 -16q13 0 29 15t56 65zM339 717q42 0 72 -29.5t30 -71.5q0 -41 -30 -71t-72 -30q-43 0 -72 29t-29 72q0 41 30 71t71 30zM339 683q-27 0 -47 -20t-20 -47q0 -28 19 -47.5t47 -19.5q29 0 49 19.5t20 47.5t-20 47.5t-48 19.5
z" />
    <glyph glyph-name="Uhungarumlaut" unicode="&#x170;" horiz-adv-x="722" 
d="M781 662v-16q-27 -6 -38 -10t-23.5 -22t-19.5 -41t-23 -78l-82 -289q-63 -224 -259 -224q-97 0 -160 47.5t-63 120.5q0 61 41 214l52 195q7 24 7 45q0 23 -14 30.5t-65 11.5v16h276l1 -16q-51 -5 -70.5 -22t-35.5 -70q0 -1 -1 -4.5t-2.5 -8.5t-1.5 -6q-96 -334 -96 -391
q0 -53 39.5 -86.5t103.5 -33.5q106 0 165 95q31 50 54 140q10 40 13 49q72 266 72 291q0 24 -18 34q-13 9 -54 13v16h202zM378 716l162 162q10 10 26 10q15 0 26 -10.5t11 -25.5q0 -18 -17 -28l-173 -108h-35zM550 716l163 162q9 10 25 10t26.5 -10.5t10.5 -25.5
q0 -18 -17 -28l-172 -108h-36z" />
    <glyph glyph-name="uhungarumlaut" unicode="&#x171;" 
d="M474 119l15 -9q-53 -75 -79.5 -97t-61.5 -22q-49 0 -49 48q0 33 48 200q-89 -147 -139.5 -198.5t-104.5 -51.5t-54 55q0 25 27 125l38 144q15 53 15 68q0 13 -10 19q-10 5 -51 6v14q74 9 153 27l3 -2l-96 -368l-1 -9q-1 -11 5 -18t16 -7q51 0 144 148q36 55 52.5 91.5
t61.5 155.5h75l-82 -303q-21 -74 -21 -80q0 -16 11 -16q13 0 29 15t56 65zM201 501l165 162q12 10 25 10q16 0 26.5 -10t10.5 -26q0 -18 -17 -29l-175 -107h-35zM373 501l166 162q9 10 25 10t26.5 -10.5t10.5 -25.5q0 -18 -18 -29l-174 -107h-36z" />
    <glyph glyph-name="Uogonek" unicode="&#x172;" horiz-adv-x="722" 
d="M579 662h202v-16q-27 -6 -38 -10t-23.5 -22t-19.5 -41t-23 -78l-82 -289q-20 -68 -60 -135q-29 -50 -38.5 -74.5t-9.5 -47.5q0 -25 16.5 -40.5t44.5 -15.5q45 0 83 32l18 -18q-53 -78 -127 -78q-40 0 -68.5 28.5t-28.5 67.5q0 44 35 85q-56 -28 -125 -28q-96 0 -159 47.5
t-63 120.5q0 61 41 214l52 195q7 24 7 45q0 23 -14 30.5t-65 11.5v16h276l1 -16q-51 -5 -70.5 -22t-35.5 -70q0 -1 -1 -4.5t-2.5 -8.5t-1.5 -6q-96 -334 -96 -391q0 -53 39.5 -86.5t103.5 -33.5q106 0 165 95q31 50 54 140q10 40 13 49q72 266 72 291q0 24 -18 34
q-13 9 -54 13v16z" />
    <glyph glyph-name="uogonek" unicode="&#x173;" 
d="M474 119l15 -9q-38 -54 -57.5 -75.5t-40.5 -33.5q-25 -13 -32.5 -23t-7.5 -30q0 -25 16 -40t44 -15q45 0 84 32l17 -18q-54 -78 -127 -78q-40 0 -68 28t-28 67q0 37 27 75q-17 14 -17 40q0 32 48 200q-89 -147 -139.5 -198.5t-104.5 -51.5t-54 55q0 25 27 125l38 144
q15 53 15 68q0 13 -10 19q-10 5 -51 6v14q74 9 153 27l3 -2l-96 -368l-1 -9q-1 -11 5 -18t16 -7q51 0 144 148q36 55 52.5 91.5t61.5 155.5h75l-82 -303q-21 -74 -21 -80q0 -16 11 -16q13 0 29 15t56 65z" />
    <glyph glyph-name="Wcircumflex" unicode="&#x174;" horiz-adv-x="833" 
d="M968 662v-16q-29 -9 -42 -21.5t-33 -51.5l-302 -591h-20l-56 460h-5l-220 -460h-20l-67 524q-15 111 -30 124q-11 11 -52 16v16h239v-16q-46 -6 -59.5 -16t-13.5 -39q0 -10 1 -15l48 -412l172 353l-10 70q-5 37 -19 47t-58 12v16h241l1 -16q-41 -5 -54 -15.5t-14 -43.5
v-15l45 -408l186 373q21 44 21 68q0 22 -12.5 29t-54.5 12v16h188zM610 885l91 -171h-36l-84 105l-138 -105h-40l158 171h49z" />
    <glyph glyph-name="wcircumflex" unicode="&#x175;" horiz-adv-x="667" 
d="M31 409v14q5 1 11 1.5t9.5 1.5t5.5 1q68 10 70 14q21 7 30 7t12.5 -11.5t11.5 -60.5q21 -133 24 -248l198 308q6 10 12 10q8 0 9 -14l29 -357q101 125 135.5 178t34.5 85q0 17 -22 38q-21 18 -21 36q0 35 39 35q23 0 38 -15t15 -38q0 -99 -218 -357q-4 -6 -10 -12
q-35 -43 -45 -43q-6 0 -7.5 5t-3.5 25l-27 324l-92 -159q-31 -54 -56 -99q-50 -96 -65 -96q-5 0 -7.5 3.5t-4 13t-2.5 30.5l-3 90q-5 146 -25 244q-7 30 -15 38.5t-31 8.5h-9zM467 670l88 -171h-37l-82 105l-140 -105h-39l160 171h50z" />
    <glyph glyph-name="Ycircumflex" unicode="&#x176;" horiz-adv-x="556" 
d="M117 646v16h242l1 -16q-46 -4 -59.5 -11t-13.5 -25q0 -23 38 -146q21 -71 32 -112q15 18 39 46q150 176 150 216q0 15 -10 20q-12 6 -61 12v16h192v-16q-22 -10 -34 -20.5t-37 -41.5l-219 -274l-29 -102q0 -2 -1 -5t-2 -7.5t-2 -7.5q-31 -104 -31 -131q0 -21 13 -28
q14 -8 41 -10q13 0 37 -3v-16h-293v16q50 4 71.5 19t34.5 56l60 215l-81 273q-14 42 -24.5 51.5t-53.5 15.5zM483 885l91 -171h-37l-84 105l-138 -105h-39l157 171h50z" />
    <glyph glyph-name="ycircumflex" unicode="&#x177;" horiz-adv-x="444" 
d="M24 406v17q6 1 13.5 2t12 2t6.5 1q97 18 100 18q8 0 9 1h4q11 0 43 -94.5t43 -161.5l19 -118q126 206 126 263q0 19 -26 34q-29 18 -29 39q0 17 11 27.5t29 10.5q23 0 39.5 -16.5t16.5 -39.5q0 -70 -99 -247q-85 -152 -173.5 -252.5t-137.5 -100.5q-23 0 -37 12.5
t-14 31.5q0 17 11.5 28.5t28.5 11.5t38 -17q15 -11 23 -11q19 0 47 31q20 20 64 79q22 29 22 51q0 31 -28 151t-50 180q-14 41 -31.5 56t-48.5 15q-15 0 -32 -4zM325 670l88 -171h-37l-82 105l-140 -105h-39l160 171h50z" />
    <glyph glyph-name="Ydieresis" unicode="&#x178;" horiz-adv-x="556" 
d="M99 646v16h242l1 -16q-46 -4 -59.5 -11t-13.5 -25q0 -23 38 -146q21 -71 32 -112q15 18 39 46q150 176 150 216q0 15 -10 20q-12 6 -61 12v16h192v-16q-22 -10 -34 -20.5t-37 -41.5l-219 -274l-29 -102q0 -2 -1 -5t-2 -7.5t-2 -7.5q-31 -104 -31 -131q0 -21 13 -28
q14 -8 41 -10q13 0 37 -3v-16h-293v16q50 4 71.5 19t34.5 56l60 215l-81 273q-14 42 -24.5 51.5t-53.5 15.5zM303 829q19 0 34 -15.5t15 -34.5q0 -20 -14.5 -34.5t-34.5 -14.5q-21 0 -35.5 14.5t-14.5 36.5q0 20 14.5 34t35.5 14zM506 829q19 0 34 -15.5t15 -34.5
q0 -20 -14.5 -34.5t-34.5 -14.5q-21 0 -35.5 14.5t-14.5 36.5q0 20 14.5 34t35.5 14z" />
    <glyph glyph-name="Zacute" unicode="&#x179;" horiz-adv-x="556" 
d="M621 662v-14l-484 -611h163q119 1 166.5 26.5t85.5 110.5l19 -3l-53 -171h-512v14l480 612h-173q-101 -3 -140.5 -25t-70.5 -92l-20 5l46 148h493zM310 716l163 162q9 10 25 10t26.5 -10.5t10.5 -25.5q0 -18 -17 -28l-173 -108h-35z" />
    <glyph glyph-name="zacute" unicode="&#x17a;" horiz-adv-x="389" 
d="M99 313l-16 4l32 117h288v-11l-297 -349q43 -10 66 -25.5t56 -58.5q25 -32 38 -41.5t33 -9.5q27 0 27 15q0 6 -5 16q-9 16 -9 29q0 14 9.5 23t24.5 9q16 0 26 -10t10 -26q0 -31 -29 -54t-67 -23q-43 0 -113 45q-70 42 -105 42q-25 0 -47 -18l-9 9l317 377h-148
q-34 1 -50 -10.5t-32 -49.5zM229 501l166 162q9 10 24 10q16 0 26.5 -10.5t10.5 -25.5q0 -18 -17 -29l-175 -107h-35z" />
    <glyph glyph-name="Zdotaccent" unicode="&#x17b;" horiz-adv-x="556" 
d="M621 662v-14l-484 -611h163q119 1 166.5 26.5t85.5 110.5l19 -3l-53 -171h-512v14l480 612h-173q-101 -3 -140.5 -25t-70.5 -92l-20 5l46 148h493zM378 829q19 0 34 -15.5t15 -34.5q0 -20 -14.5 -34.5t-34.5 -14.5q-21 0 -35.5 14.5t-14.5 36.5q0 20 14.5 34t35.5 14z
" />
    <glyph glyph-name="zdotaccent" unicode="&#x17c;" horiz-adv-x="389" 
d="M99 313l-16 4l32 117h288v-11l-297 -349q43 -10 66 -25.5t56 -58.5q25 -32 38 -41.5t33 -9.5q27 0 27 15q0 6 -5 16q-9 16 -9 29q0 14 9.5 23t24.5 9q16 0 26 -10t10 -26q0 -31 -29 -54t-67 -23q-43 0 -113 45q-70 42 -105 42q-25 0 -47 -18l-9 9l317 377h-148
q-34 1 -50 -10.5t-32 -49.5zM275 614q19 0 33.5 -15t14.5 -34q0 -21 -14.5 -35.5t-35.5 -14.5t-35 14.5t-14 35.5q0 20 15 34.5t36 14.5z" />
    <glyph glyph-name="Zcaron" unicode="&#x17d;" horiz-adv-x="556" 
d="M621 662v-14l-484 -611h163q119 1 166.5 26.5t85.5 110.5l19 -3l-53 -171h-512v14l480 612h-173q-101 -3 -140.5 -25t-70.5 -92l-20 5l46 148h493zM560 885l-164 -171h-47l-99 171h38l92 -106l143 106h37z" />
    <glyph glyph-name="zcaron" unicode="&#x17e;" horiz-adv-x="389" 
d="M99 313l-16 4l32 117h288v-11l-297 -349q43 -10 66 -25.5t56 -58.5q25 -32 38 -41.5t33 -9.5q27 0 27 15q0 6 -5 16q-9 16 -9 29q0 14 9.5 23t24.5 9q16 0 26 -10t10 -26q0 -31 -29 -54t-67 -23q-43 0 -113 45q-70 42 -105 42q-25 0 -47 -18l-9 9l317 377h-148
q-34 1 -50 -10.5t-32 -49.5zM460 670l-167 -171h-47l-96 171h38l90 -106l145 106h37z" />
    <glyph glyph-name="longs" unicode="&#x17f;" horiz-adv-x="278" 
d="M53 402l7 32h94q41 129 82 184q54 69 126 69q37 0 62 -18.5t25 -46.5q0 -16 -13 -28.5t-30 -12.5t-27 11t-10 29q0 11 6 21q4 7 4 10q0 13 -22 13q-33 0 -58 -33q-24 -33 -44 -99q-9 -27 -107 -456q-31 -139 -84 -213t-121 -74q-33 0 -56 18t-23 43q0 18 10.5 30.5
t26.5 12.5q17 0 28.5 -11.5t11.5 -27.5q0 -8 -5 -17q-4 -7 -4 -10q0 -17 20 -17q64 0 100 165l92 426h-91z" />
    <glyph glyph-name="florin" unicode="&#x192;" 
d="M114 426h120l8 27q30 114 71 163q62 74 139 74q38 0 62.5 -17.5t24.5 -45.5q0 -20 -14.5 -34.5t-35.5 -14.5q-18 0 -31 10.5t-13 26.5q0 10 5 19q5 10 5 15q0 10 -16 10q-35 0 -61 -47q-17 -34 -45 -134l-5 -18l-9 -34h123l-10 -38h-123l-66 -251q-15 -61 -39 -129
t-39 -96q-29 -53 -62 -76.5t-77 -23.5q-34 0 -55.5 16.5t-21.5 42.5q0 20 14 34t35 14q17 0 27.5 -9.5t10.5 -24.5q0 -12 -7 -20q-6 -8 -6 -13q0 -4 11 -4q27 0 45.5 27.5t35.5 93.5l110 419h-121z" />
    <glyph glyph-name="Aringacute" unicode="&#x1fa;" horiz-adv-x="611" 
d="M564 16v-16h-246v16q48 5 63 15t15 38q0 8 -2 26l-20 131h-220l-57 -113q-20 -40 -20 -62q0 -19 10.5 -25t48.5 -10v-16h-187v16q30 6 50 29.5t79 122.5l290 500h26l94 -566q10 -55 22 -68.5t54 -17.5zM175 262h194l-44 260zM388 826q42 0 71.5 -21t29.5 -50
q0 -28 -30 -48.5t-70 -20.5q-43 0 -71.5 20.5t-28.5 50.5q0 28 29 48.5t70 20.5zM388 802q-26 0 -45.5 -13.5t-19.5 -32.5t19 -32.5t46 -13.5q28 0 47.5 13t19.5 32q0 20 -19.5 33.5t-47.5 13.5zM307 832l162 112q8 7 24 7t26.5 -7t10.5 -18q0 -12 -17 -20l-171 -74h-35z
" />
    <glyph glyph-name="aringacute" unicode="&#x1fb;" 
d="M464 110l12 -10q-56 -68 -82.5 -89t-56.5 -21q-40 0 -40 41q0 25 23 115q-66 -93 -107 -125t-94 -32q-48 0 -75 29.5t-27 81.5q0 77 43.5 157.5t110.5 132t132 51.5q67 0 80 -58l11 48l3 3l61 7l7 -3q-1 -4 -6 -21q-89 -327 -89 -363q0 -13 14 -13q12 0 52 41zM309 419
q-64 5 -127 -87q-33 -47 -57 -112.5t-24 -107.5q0 -34 15.5 -54t42.5 -20q48 0 87 44q51 56 85 134.5t34 141.5q0 26 -15.5 43t-40.5 18zM352 707q42 0 71.5 -29.5t29.5 -70.5t-29.5 -70t-70.5 -29q-43 0 -71.5 29t-28.5 71q0 40 29.5 69.5t69.5 29.5zM352 673
q-26 0 -45.5 -19.5t-19.5 -45.5q0 -28 18.5 -47t46.5 -19q29 0 48 18.5t19 46.5t-19.5 47t-47.5 19zM319 735l162 160q9 10 24 10q16 0 26.5 -10t10.5 -26q0 -17 -17 -28l-171 -106h-35z" />
    <glyph glyph-name="AEacute" unicode="&#x1fc;" horiz-adv-x="889" 
d="M826 169l18 -5l-64 -164h-498v16q45 4 58 12t22 36l49 170h-190q-18 -23 -25 -30q-100 -120 -100 -157q0 -15 12 -20.5t52 -10.5v-16h-187v16q18 5 33.5 18.5t50.5 57.5l369 465q23 29 27.5 36.5t4.5 16.5q0 14 -9 18q-8 5 -55 10v15h517l-33 -153l-17 2q1 13 1 36
q0 37 -14.5 53t-53 22.5t-123.5 6.5q-36 0 -47 -6.5t-18 -30.5l-61 -222q54 0 80 2t49.5 6t36 16.5t22 27t23.5 45.5l18 -4l-69 -232l-17 4q6 35 6 52q0 31 -22.5 40.5t-95.5 9.5h-40l-7 -24q-64 -226 -64 -242q0 -29 51 -29h30q112 0 169 27.5t111 108.5zM249 271h173
l95 342zM585 688l162 160q10 10 25 10t25.5 -10.5t10.5 -25.5q0 -18 -17 -28l-171 -106h-35z" />
    <glyph glyph-name="aeacute" unicode="&#x1fd;" horiz-adv-x="667" 
d="M588 113l10 -12q-42 -51 -95 -81.5t-100 -30.5t-77 34.5t-30 87.5q0 20 6 40q-64 -94 -105.5 -128t-89.5 -34q-37 0 -60.5 26.5t-23.5 67.5q0 77 43.5 161.5t110 140.5t126.5 56q26 0 40 -10t26 -37l19 43l71 2l-22 -62q67 64 122 64q37 0 59 -19t22 -51q0 -57 -63 -99
q-48 -32 -193 -74q-8 -34 -8 -60q0 -102 70 -102q32 0 64.5 17.5t77.5 59.5zM305 421q-39 2 -84 -47.5t-77 -126.5t-35 -148q-3 -60 34 -60q42 0 80 41q54 58 90.5 142t36.5 148q0 22 -12.5 36t-32.5 15zM390 223q67 17 104 38t60 56q20 31 20 63q0 36 -35 36q-34 0 -66 -32
q-26 -29 -43.5 -62t-39.5 -99zM376 494l162 160q10 10 25 10t25.5 -10.5t10.5 -25.5q0 -18 -17 -28l-171 -106h-35z" />
    <glyph glyph-name="Oslashacute" unicode="&#x1fe;" horiz-adv-x="722" 
d="M669 722l-64 -96q41 -32 60 -64q34 -57 34 -131q0 -83 -36 -165.5t-94 -144.5t-134.5 -100.5t-153.5 -38.5q-41 0 -94 21l-74 -108h-44l86 127q-95 69 -95 200q0 88 42 174.5t118 156.5q126 113 249 113q52 0 104 -22l52 78h44zM190 74l356 533q-34 26 -82 26
q-107 0 -189 -119q-47 -68 -78.5 -164t-31.5 -174q0 -55 25 -102zM570 574l-355 -530q32 -29 80 -29q106 0 187 117q48 69 80 167.5t32 175.5q0 57 -24 99zM435 703l162 160q10 10 25 10t25.5 -10.5t10.5 -25.5q0 -18 -17 -28l-171 -106h-35z" />
    <glyph glyph-name="oslashacute" unicode="&#x1ff;" 
d="M428 554l-58 -119q31 -9 47.5 -21t30.5 -35q21 -36 21 -81q0 -57 -31 -119t-83 -111q-87 -79 -179 -79q-8 0 -20 2l-61 -126h-35l64 131q-39 13 -59 34q-37 39 -37 100q0 115 93 213t201 98q11 0 17 -1l55 114h34zM140 29l188 389l-10 2q-54 0 -95 -46
q-50 -53 -80.5 -129.5t-30.5 -147.5q0 -40 28 -68zM357 406l-190 -392q11 -4 22 -4q65 0 119 77q34 49 55.5 115.5t21.5 122.5q0 50 -28 81zM229 494l162 160q10 10 25 10t25.5 -10.5t10.5 -25.5q0 -18 -17 -28l-171 -106h-35z" />
    <glyph glyph-name="Scommaaccent" unicode="&#x218;" 
d="M503 677h30l-40 -201h-33q3 26 3 37q0 71 -40 101q-31 25 -76 25q-47 0 -80.5 -31.5t-33.5 -75.5q0 -25 11 -44.5t46 -54.5l79 -81q53 -56 72.5 -93t19.5 -83q0 -44 -20.5 -85t-55.5 -68q-54 -41 -135 -41q-67 0 -122 20l-8 3l-9 2q-17 6 -22 6q-21 0 -31 -28h-31l33 230
h33q-1 -30 -1 -41q0 -73 37.5 -112t107.5 -39q57 0 93 33.5t36 86.5q0 56 -68 128l-99 103q-61 64 -61 130q0 74 57.5 125t140.5 51q45 0 101 -17q25 -7 37 -7q14 0 29 21zM119 -299l-11 23q36 17 59 40.5t23 45.5q0 11 -18 23q-31 20 -31 47q0 23 15.5 37.5t39.5 14.5
q26 0 42.5 -18t16.5 -47q0 -59 -52 -114q-27 -28 -84 -52z" />
    <glyph glyph-name="scommaaccent" unicode="&#x219;" horiz-adv-x="389" 
d="M336 450h33l-24 -144h-31q2 13 2 28q0 43 -21 66.5t-59 23.5q-25 0 -40 -14t-15 -37q0 -33 33 -79l35 -46q35 -47 47 -72.5t12 -53.5q0 -55 -43 -92t-106 -37q-45 0 -90 19q-8 4 -15 4q-8 0 -11 -4.5t-6 -18.5h-30l21 165h30v-21q0 -51 25.5 -79.5t71.5 -28.5
q31 0 51 19.5t20 51.5q0 19 -7.5 35t-30.5 47l-40 53q-29 38 -39 61.5t-10 50.5q0 46 36.5 77t92.5 31q37 0 73 -12q15 -5 21 -5q9 0 14 12zM42 -299l-11 23q36 17 59 40.5t23 45.5q0 11 -18 23q-31 20 -31 47q0 23 15.5 37.5t39.5 14.5q26 0 42.5 -18t16.5 -47
q0 -59 -52 -114q-27 -28 -84 -52z" />
    <glyph glyph-name="uni021A" unicode="&#x21a;" horiz-adv-x="556" 
d="M649 662l-44 -165l-17 2q3 25 3 45q0 43 -25.5 63t-80.5 20h-56l-136 -505q-12 -44 -12 -58q0 -29 13 -36t79 -12v-16h-294v16q50 4 72.5 19.5t33.5 55.5l141 536q-81 1 -121 -8t-65.5 -34t-53.5 -83l-18 4l41 156h540zM124 -274l-9 17q75 51 75 90q0 15 -21 33
q-25 22 -25 46q0 20 14.5 33.5t36.5 13.5q25 0 42 -21t17 -52q0 -88 -130 -160z" />
    <glyph glyph-name="uni021B" unicode="&#x21b;" horiz-adv-x="278" 
d="M0 -274l-9 17q77 51 77 90q0 13 -20 33q-25 22 -25 45q0 21 14.5 34.5t37.5 13.5q25 0 41.5 -20.5t16.5 -50.5q0 -89 -133 -162zM311 434l-6 -32h-85l-92 -338q-1 -5 -1 -6q0 -19 15 -19q12 0 28.5 16t54.5 64l13 -7q-49 -71 -79.5 -97t-65.5 -26q-20 0 -34 11t-14 27
q0 11 22 87l2 9l75 279h-75v6q0 8 6.5 13.5t25.5 12.5q25 6 66 39t70 72q7 9 12 9h3h2q6 0 6 -10q0 -3 -1 -6l-29 -104h81z" />
    <glyph glyph-name="circumflex" unicode="&#x2c6;" horiz-adv-x="333" 
d="M309 670l91 -171h-36l-85 105l-137 -105h-40l158 171h49z" />
    <glyph glyph-name="caron" unicode="&#x2c7;" horiz-adv-x="333" 
d="M440 670l-163 -171h-47l-99 171h38l92 -106l143 106h36z" />
    <glyph glyph-name="uni02C9" unicode="&#x2c9;" horiz-adv-x="333" 
d="M146 709h307l-13 -43h-306z" />
    <glyph glyph-name="breve" unicode="&#x2d8;" horiz-adv-x="333" 
d="M403 659h29q-11 -55 -37 -91q-52 -69 -135 -69q-70 0 -103 45q-29 35 -30 115h29q4 -47 33 -73.5t78 -26.5q47 0 82.5 26t53.5 74z" />
    <glyph glyph-name="dotaccent" unicode="&#x2d9;" horiz-adv-x="333" 
d="M263 614q19 0 34 -15.5t15 -34.5q0 -20 -14.5 -34.5t-34.5 -14.5q-21 0 -35.5 14.5t-14.5 36.5q0 20 14.5 34t35.5 14z" />
    <glyph glyph-name="ring" unicode="&#x2da;" horiz-adv-x="333" 
d="M273 717q42 0 72.5 -30t30.5 -72q0 -41 -29.5 -70.5t-71.5 -29.5q-43 0 -72.5 30t-29.5 73q0 41 29.5 70t70.5 29zM273 683q-27 0 -46.5 -19.5t-19.5 -46.5q0 -28 19.5 -48t47.5 -20q29 0 48.5 19t19.5 47t-20.5 48t-48.5 20z" />
    <glyph glyph-name="ogonek" unicode="&#x2db;" horiz-adv-x="333" 
d="M235 -75l17 -18q-52 -78 -126 -78q-40 0 -68.5 28.5t-28.5 68.5q0 62 70 115h24q-32 -52 -32 -96q0 -23 17 -37.5t44 -14.5q45 0 83 32z" />
    <glyph glyph-name="tilde" unicode="&#x2dc;" horiz-adv-x="333" 
d="M407 633h29q-22 -106 -95 -106q-20 0 -59 16q-71 29 -97 29q-36 0 -51 -48h-29q15 59 38 83.5t63 24.5q31 0 87 -25q42 -19 63 -19q20 0 31.5 10t19.5 35z" />
    <glyph glyph-name="hungarumlaut" unicode="&#x2dd;" horiz-adv-x="333" 
d="M124 501l163 162q9 10 25 10t26.5 -10.5t10.5 -25.5q0 -18 -17 -29l-173 -107h-35zM296 501l163 162q9 10 25 10t26.5 -10.5t10.5 -25.5q0 -18 -17 -29l-172 -107h-36z" />
    <glyph glyph-name="tonos" unicode="&#x384;" horiz-adv-x="333" 
d="M216 482l6 56q8 79 21 106.5t44 27.5q29 0 29 -32q0 -31 -36 -111l-22 -47h-42z" />
    <glyph glyph-name="dieresistonos" unicode="&#x385;" horiz-adv-x="333" 
d="M240 557l3 39q5 56 14.5 75t34.5 19q24 0 24 -23t-26 -77l-16 -33h-34zM179 569q18 0 31.5 -13.5t13.5 -32.5q0 -18 -12.5 -30.5t-31.5 -12.5t-32.5 13.5t-13.5 32.5q0 18 13 30.5t32 12.5zM333 569q18 0 31.5 -13.5t13.5 -32.5q0 -18 -12.5 -30.5t-31.5 -12.5
t-32.5 13.5t-13.5 32.5q0 18 13 30.5t32 12.5z" />
    <glyph glyph-name="Alphatonos" unicode="&#x386;" horiz-adv-x="611" 
d="M180 450l6 65q10 92 25.5 124.5t51.5 32.5q34 0 34 -37q0 -39 -43 -130l-25 -55h-49zM371 208h-179l-96 -138q-10 -15 -10 -25q0 -27 45 -27h19l-4 -18h-198l5 18h11q26 -1 44 12.5t53 60.5l406 571h17l-23 -558q-1 -29 -1 -34q0 -30 13.5 -41t50.5 -11h23l-5 -18h-264
l4 18h23q35 0 47 14t14 59zM372 244l10 236l-165 -236h155z" />
    <glyph glyph-name="uni0387" unicode="&#x387;" horiz-adv-x="250" 
d="M138 315q24 0 41 -17.5t17 -41.5q0 -22 -17 -38t-41 -16q-23 0 -39 16.5t-16 39.5t16.5 40t38.5 17z" />
    <glyph glyph-name="Epsilontonos" unicode="&#x388;" horiz-adv-x="679" 
d="M88 450l6 65q9 91 25.5 124t51.5 33q34 0 34 -37q0 -38 -43 -130l-25 -55h-49zM346 331l-64 -239q-5 -18 -5 -27q0 -18 17.5 -23t81.5 -5q105 0 178 53q45 32 76 98h16l-60 -188h-495l5 18q44 2 63 19.5t32 67.5l122 458q6 21 6 40q0 23 -17.5 32.5t-61.5 8.5l4 18h481
l-43 -158h-17q5 21 5 36q0 47 -32.5 66.5t-108.5 19.5h-104l-70 -259h67q59 -2 87.5 20t45.5 80h17l-64 -241h-17q9 40 9 57q0 48 -76 48h-78z" />
    <glyph glyph-name="Etatonos" unicode="&#x389;" horiz-adv-x="792" 
d="M79 450l7 65q9 92 25 124.5t52 32.5q33 0 33 -37q0 -40 -42 -130l-26 -55h-49zM339 330l-62 -230q-6 -23 -6 -41q0 -26 26 -36q15 -5 46 -5l-5 -18h-259l5 18q46 1 65.5 18.5t32.5 68.5l122 458q6 21 6 39q0 27 -26 37q-15 5 -46 5l5 18h272l-5 -18q-55 0 -75.5 -16
t-34.5 -71l-51 -190h269l52 196q6 21 6 40q0 23 -16 32t-56 9l5 18h268l-5 -18q-52 0 -72 -16.5t-34 -70.5l-122 -457q-6 -23 -6 -40q0 -27 26 -37q15 -5 47 -5l-5 -18h-266l5 18q50 1 70 18t33 69l60 225h-269z" />
    <glyph glyph-name="Iotatonos" unicode="&#x38a;" horiz-adv-x="402" 
d="M67 450l7 65q9 92 25 124.5t52 32.5q33 0 33 -37q0 -40 -42 -130l-26 -55h-49zM331 18l-5 -18h-259l5 18q46 1 65.5 18.5t32.5 68.5l122 458q6 21 6 39q0 27 -26 37q-15 5 -46 5l5 18h272l-5 -18q-55 0 -75.5 -16t-34.5 -71l-123 -457q-6 -23 -6 -41q0 -26 26 -36
q15 -5 46 -5z" />
    <glyph glyph-name="Omicrontonos" unicode="&#x38c;" horiz-adv-x="722" 
d="M85 450l6 65q10 93 25.5 125t51.5 32q34 0 34 -37q0 -39 -43 -130l-25 -55h-49zM505 672q100 0 161.5 -65.5t61.5 -171.5q0 -90 -44 -186t-118 -169q-93 -90 -219 -90q-103 0 -164 63.5t-61 170.5q0 85 37 172t102 157q52 56 116.5 87.5t127.5 31.5zM499 635
q-82 0 -144 -83q-55 -74 -92 -181t-37 -191q0 -71 34.5 -113.5t92.5 -42.5q50 0 98.5 37.5t84.5 103.5q41 76 65 160.5t24 151.5q0 74 -33.5 116t-92.5 42z" />
    <glyph glyph-name="Upsilontonos" unicode="&#x38e;" horiz-adv-x="660" 
d="M71 450l6 65q10 93 25.5 125t51.5 32q34 0 34 -37q0 -39 -43 -130l-25 -55h-49zM495 311l-56 -211q-6 -22 -6 -40q0 -31 33 -39q12 -3 51 -3l-6 -18h-288l5 18q57 -1 78.5 15.5t35.5 71.5l58 216l-78 250q-13 40 -33 57t-54 16h-21l5 18h283l-4 -18h-21q-64 0 -64 -39
q0 -9 7 -34l64 -214l150 214q22 30 22 45q0 28 -53 28h-16l6 18h222l-5 -18q-75 0 -152 -107z" />
    <glyph glyph-name="Omegatonos" unicode="&#x38f;" horiz-adv-x="726" 
d="M84 450l6 65q9 91 25.5 124t51.5 33q34 0 34 -37q0 -39 -43 -130l-25 -55h-49zM671 163l23 -6l-68 -157h-227l19 70q45 39 72.5 72t53.5 81q77 141 77 280q0 62 -33.5 98.5t-90.5 36.5t-106 -38t-77 -103q-25 -59 -40.5 -133t-15.5 -132q0 -56 12.5 -93t41.5 -69l-19 -70
h-226l16 156l20 7q-3 -32 -3 -39q0 -26 13.5 -37t45.5 -11h119q-120 92 -120 237q0 154 121 267q96 92 232 92q100 0 157 -57t57 -157q0 -144 -128 -277q-53 -54 -142 -105h111q41 2 64.5 21.5t40.5 65.5z" />
    <glyph glyph-name="iotadieresistonos" unicode="&#x390;" horiz-adv-x="278" 
d="M210 100l12 -14q-80 -96 -128 -96q-42 0 -42 32q0 13 5 36l76 282q7 27 7 41q0 24 -27 24q-12 0 -33 -4l5 19q74 6 147 24l-101 -379q-2 -10 -2 -13q0 -5 4.5 -8.5t10.5 -3.5q11 0 29.5 17t36.5 43zM201 557l3 39q4 55 14.5 74.5t34.5 19.5t24 -23t-26 -77l-16 -33h-34z
M130 569q18 0 31.5 -13.5t13.5 -32.5q0 -18 -12.5 -30.5t-31.5 -12.5t-32.5 13.5t-13.5 32.5q0 18 13 30.5t32 12.5zM305 569q18 0 31.5 -13.5t13.5 -32.5q0 -18 -12.5 -30.5t-31.5 -12.5t-32.5 13.5t-13.5 32.5q0 18 13 30.5t32 12.5z" />
    <glyph glyph-name="Alpha" unicode="&#x391;" horiz-adv-x="611" 
d="M371 208h-179l-96 -138q-10 -15 -10 -25q0 -27 45 -27h19l-4 -18h-198l5 18h11q26 -1 44 12.5t53 60.5l406 571h17l-23 -558q-1 -29 -1 -34q0 -30 13.5 -41t50.5 -11h23l-5 -18h-264l4 18h23q35 0 47 14t14 59zM372 244l10 236l-165 -236h155z" />
    <glyph glyph-name="Beta" unicode="&#x392;" horiz-adv-x="611" 
d="M170 662h227q99 0 146 -37q24 -18 38.5 -48t14.5 -60q0 -34 -17.5 -68.5t-46.5 -56.5q-33 -26 -100 -43q111 -39 111 -141q0 -50 -25.5 -94.5t-69.5 -71.5q-40 -25 -90 -33.5t-161 -8.5h-192l5 18q50 1 70 18t33 69l123 457q6 22 6 40q0 27 -26 37q-17 5 -51 5zM345 621
l-68 -254q19 -1 49 -1q78 0 126 44t48 115q0 47 -31.5 73.5t-87.5 26.5q-16 0 -36 -4zM268 332l-77 -286q37 -8 62 -8q83 0 135 49.5t52 129.5q0 60 -36 88.5t-112 28.5q-4 0 -24 -2z" />
    <glyph glyph-name="Gamma" unicode="&#x393;" horiz-adv-x="569" 
d="M350 626l-141 -526q-6 -25 -6 -39q0 -23 15.5 -32.5t56.5 -10.5l-5 -18h-259l5 18q46 1 65.5 18.5t32.5 68.5l122 458q6 19 6 37q0 25 -15 34t-57 10l5 18h461l-46 -174h-17q8 47 8 69q0 43 -29 60q-14 9 -55 9h-147z" />
    <glyph glyph-name="uni0394" unicode="&#x394;" horiz-adv-x="587" 
d="M460 0h-512l505 662h19zM364 41l12 449l-290 -385q-22 -31 -22 -44q0 -20 41 -20h259z" />
    <glyph glyph-name="Epsilon" unicode="&#x395;" horiz-adv-x="611" 
d="M265 331l-64 -239q-5 -18 -5 -27q0 -18 17.5 -23t81.5 -5q105 0 178 53q47 33 76 98h16l-60 -188h-495l5 18q44 1 63 19t32 68l122 458q6 21 6 40q0 23 -17.5 32.5t-61.5 8.5l4 18h481l-43 -158h-17q5 21 5 36q0 47 -32.5 66.5t-108.5 19.5h-104l-70 -259h67q59 -2 88 20
t45 80h17l-64 -241h-17q9 40 9 57q0 48 -76 48h-78z" />
    <glyph glyph-name="Zeta" unicode="&#x396;" horiz-adv-x="556" 
d="M149 39h108q131 -1 188.5 29t82.5 110h21l-55 -178h-503l475 624h-130q-118 1 -163.5 -22t-68.5 -96h-25l52 156h493z" />
    <glyph glyph-name="Eta" unicode="&#x397;" horiz-adv-x="722" 
d="M257 330l-62 -230q-6 -23 -6 -41q0 -26 26 -36q15 -5 46 -5l-5 -18h-259l5 18q46 1 65.5 18.5t32.5 68.5l122 458q6 21 6 39q0 27 -26 37q-15 5 -46 5l5 18h272l-5 -18q-55 0 -75.5 -16t-34.5 -71l-51 -190h269l52 196q6 21 6 40q0 23 -16 32t-56 9l5 18h268l-5 -18
q-52 0 -72 -16.5t-34 -70.5l-122 -457q-6 -23 -6 -40q0 -27 26 -37q15 -5 47 -5l-5 -18h-266l5 18q50 1 70 18t33 69l60 225h-269z" />
    <glyph glyph-name="Theta" unicode="&#x398;" horiz-adv-x="722" 
d="M546 457l-56 -217h-17q4 17 4 35q0 22 -16 30.5t-56 8.5h-32q-53 -1 -73 -14.5t-36 -59.5h-17l56 217h17q-3 -18 -3 -32q0 -22 16.5 -31.5t54.5 -9.5h34q50 0 70.5 14t36.5 59h17zM486 677q110 0 182 -58t72 -173q0 -88 -35.5 -178.5t-96.5 -155.5q-120 -129 -306 -129
q-123 0 -190 61t-67 173q0 87 35 177t94 153q58 62 140 96t172 34zM480 644q-129 0 -213 -106q-50 -63 -84 -168.5t-34 -196.5q0 -96 58 -131q41 -26 100 -26q151 0 233 136q44 71 70 160t26 166q0 103 -61 141q-40 25 -95 25z" />
    <glyph glyph-name="Iota" unicode="&#x399;" horiz-adv-x="333" 
d="M250 18l-5 -18h-259l5 18q46 1 65.5 18.5t32.5 68.5l122 458q6 21 6 39q0 27 -26 37q-15 5 -46 5l5 18h272l-5 -18q-55 0 -75.5 -16t-34.5 -71l-123 -457q-6 -23 -6 -41q0 -26 26 -36q15 -5 46 -5z" />
    <glyph glyph-name="Kappa" unicode="&#x39a;" horiz-adv-x="667" 
d="M268 349l-65 -249q-6 -23 -6 -40q0 -27 26 -37q13 -5 53 -5l-6 -18h-268l5 18q47 1 67 18t33 69l123 458q6 21 6 39q0 27 -26 37q-12 5 -50 5l5 18h267l-5 -18q-49 -1 -69 -18t-33 -69l-51 -191l279 234q21 17 21 26q0 10 -8.5 13t-41.5 5l5 18h201l-6 -18
q-52 -1 -108 -44l-264 -216l141 -254q38 -68 67 -90.5t76 -21.5l-6 -18h-269l6 18q61 4 61 34q0 19 -17 48z" />
    <glyph glyph-name="Lambda" unicode="&#x39b;" horiz-adv-x="604" 
d="M378 480l-286 -410q-10 -15 -10 -25q0 -27 45 -27h19l-4 -18h-198l5 18h11q26 -1 44 12.5t53 60.5l406 571h17l-23 -558q-1 -29 -1 -34q0 -30 13.5 -41t50.5 -11h23l-5 -18h-264l4 18h23q35 0 47 14t14 59z" />
    <glyph glyph-name="Mu" unicode="&#x39c;" horiz-adv-x="833" 
d="M391 152l346 510h165l-5 -18q-52 0 -72 -16.5t-34 -70.5l-122 -457q-6 -23 -6 -41q0 -26 26 -36q15 -5 48 -5l-5 -18h-267l5 18q48 1 68 18t34 69l122 434l-359 -539h-18l-61 562l-124 -462q-6 -22 -6 -41q0 -26 26 -36q13 -5 52 -5l-5 -18h-207l5 18q47 1 66.5 18
t32.5 69l133 496q2 8 2 10q0 12 -25 24q-12 5 -52 9l5 18h177z" />
    <glyph glyph-name="Nu" unicode="&#x39d;" horiz-adv-x="667" 
d="M259 540l-118 -440q-6 -22 -6 -40q0 -27 26 -37q13 -5 52 -5l-6 -18h-209l5 18q48 1 68 18t33 69l132 492q-17 26 -36.5 37t-50.5 11h-20l5 17h176l187 -483l103 383q6 22 6 40q0 27 -26 37q-15 5 -49 5l5 18h207l-5 -18q-48 -1 -67 -18t-33 -69l-151 -565h-15z" />
    <glyph glyph-name="Xi" unicode="&#x39e;" horiz-adv-x="639" 
d="M563 188l-50 -188h-499l50 188h16q-2 -32 -2 -33q0 -47 26.5 -69t84.5 -22h91h92q68 1 107.5 29t67.5 95h16zM672 662l-46 -172h-17q4 23 4 35q0 39 -23.5 53t-88.5 14h-162q-73 1 -108 -21t-55 -81h-17l46 172h467zM541 467l-64 -241h-17q7 26 7 43q0 25 -18 35.5
t-60 10.5h-81q-56 -1 -81 -19t-38 -70h-17l64 241h18q-5 -23 -5 -36q0 -19 13 -31q17 -16 76 -16h57q59 -2 87 16t42 67h17z" />
    <glyph glyph-name="Omicron" unicode="&#x39f;" horiz-adv-x="722" 
d="M471 672q100 0 161.5 -65.5t61.5 -172.5q0 -89 -44 -185t-118 -169q-91 -90 -219 -90q-103 0 -163.5 63.5t-60.5 171.5q0 84 37 171t102 157q52 56 116 87.5t127 31.5zM465 635q-38 0 -76.5 -22.5t-66.5 -60.5q-55 -75 -92 -181.5t-37 -191.5q0 -70 34.5 -112.5
t91.5 -42.5q51 0 99.5 37.5t83.5 103.5q41 76 65 160.5t24 151.5q0 74 -33.5 116t-92.5 42z" />
    <glyph glyph-name="Pi" unicode="&#x3a0;" horiz-adv-x="722" 
d="M799 662l-4 -18q-55 0 -76 -16t-35 -71l-122 -457q-6 -23 -6 -40q0 -27 26 -37q15 -5 45 -5l-5 -18h-259l5 18q46 1 65.5 18t32.5 69l117 438q7 22 7 40q0 42 -72 42h-95q-54 1 -75 -16t-35 -71l-118 -438q-6 -23 -6 -41q0 -26 26 -36q15 -5 46 -5l-5 -18h-259l5 18
q46 1 65.5 18.5t32.5 68.5l122 457q6 22 6 40q0 27 -26 37q-15 5 -46 5l5 18h638z" />
    <glyph glyph-name="Rho" unicode="&#x3a1;" horiz-adv-x="611" 
d="M293 324l-61 -224q-6 -23 -6 -40q0 -27 26 -37q12 -5 55 -5l-5 -18h-271l5 18q49 1 68.5 18t32.5 69l123 458q6 21 6 40q0 26 -26 36q-12 5 -50 5l5 18h223q96 0 151.5 -41t55.5 -111q0 -89 -68.5 -144t-177.5 -55q-35 0 -86 13zM371 619l-70 -264q32 -9 58 -9
q66 0 110 39q25 22 40.5 58t15.5 71q0 51 -28.5 80.5t-77.5 29.5q-19 0 -48 -5z" />
    <glyph glyph-name="Sigma" unicode="&#x3a3;" horiz-adv-x="594" 
d="M585 663l-29 -155h-32q2 32 2 43q0 43 -27.5 59t-101.5 16h-165l97 -265l-205 -207q-46 -46 -46 -59q0 -14 39 -14h187q88 0 125.5 18.5t74.5 80.5l28 -9l-100 -171h-518l318 315l-126 348h479z" />
    <glyph glyph-name="Tau" unicode="&#x3a4;" horiz-adv-x="556" 
d="M435 622l-140 -522q-6 -22 -6 -40q0 -27 26 -37q17 -5 55 -5h10l-5 -18h-290l4 18q56 0 77 16t35 71l138 517h-63q-149 5 -178 -134h-19l47 174h543l-46 -174h-17q7 36 7 63q0 71 -81 71h-97z" />
    <glyph glyph-name="Upsilon" unicode="&#x3a5;" horiz-adv-x="556" 
d="M372 311l-56 -211q-6 -22 -6 -40q0 -31 33 -39q13 -3 51 -3l-5 -18h-289l6 18q56 -1 77.5 15.5t35.5 71.5l58 216l-78 250q-23 76 -87 73h-21l6 18h282l-4 -18h-21q-64 0 -64 -39q0 -9 8 -34l63 -214l151 214q21 30 21 45q0 28 -52 28h-17l6 18h223l-6 -18
q-39 0 -75 -25.5t-76 -81.5z" />
    <glyph glyph-name="Phi" unicode="&#x3a6;" horiz-adv-x="761" 
d="M636 665h-12q-45 0 -67 -17.5t-31 -61.5q119 -3 177 -34q72 -41 72 -132q0 -73 -36 -143.5t-95 -114.5q-48 -36 -100 -51.5t-147 -22.5l-3 -13q-6 -23 -6 -35q0 -24 14.5 -33.5t50.5 -9.5h11l-7 -27h-278l7 27h11q45 1 66 17.5t33 60.5l3 13q-109 1 -166 34
q-80 45 -80 145q0 78 43.5 151.5t113.5 114.5q80 48 217 53q6 20 6 36q0 24 -14 33.5t-49 9.5h-12l7 27h278zM307 119l113 437q-107 -10 -169 -64q-42 -38 -69 -106t-27 -137q0 -43 14.5 -69t48.5 -42q36 -17 89 -19zM519 558l-113 -439q75 8 118.5 29.5t78.5 66.5
q30 39 49.5 97t19.5 109q0 63 -36.5 96t-116.5 41z" />
    <glyph glyph-name="Chi" unicode="&#x3a7;" horiz-adv-x="611" 
d="M306 266l-157 -192q-18 -22 -18 -33q0 -23 47 -23h21l-6 -18h-209l6 18q27 0 68.5 27.5t72.5 66.5l164 198l-69 249q-17 50 -35 67t-55 18h-18l6 18h268l-6 -18h-15q-55 0 -55 -37q0 -22 6 -42l43 -165l146 178q25 30 25 44q0 22 -33 22h-11l6 18h201l-5 -18
q-47 -2 -78.5 -21.5t-78.5 -76.5l-159 -191l63 -232q17 -63 34 -83.5t52 -21.5h13l-6 -18h-255l6 18h17q57 0 57 42q0 7 -4 27z" />
    <glyph glyph-name="Psi" unicode="&#x3a8;" horiz-adv-x="703" 
d="M820 646l-8 -21q-16 6 -27 6q-32 0 -52 -74l-22 -84q-28 -103 -103 -159t-202 -69l-38 -145q-6 -22 -6 -40q0 -27 26 -37q15 -5 45 -5l-5 -18h-255l5 18q46 1 65.5 18.5t32.5 68.5l38 140q-47 7 -76 20q-49 22 -79.5 65t-30.5 91q0 32 7 64l17 78q7 39 7 45q0 21 -21 21
q-12 0 -27 -7l-7 21q44 29 85 29q28 0 45.5 -21t17.5 -53q0 -24 -6 -51l-19 -84q-8 -37 -8 -76q0 -50 23 -76t79 -38l78 290q6 21 6 39q0 27 -26 37q-15 5 -46 5l4 18h268l-4 -18q-56 0 -76.5 -16t-34.5 -71l-76 -284q75 16 119 58.5t71 124.5l33 107q33 109 101 109
q29 0 82 -26z" />
    <glyph glyph-name="uni03A9" unicode="&#x3a9;" horiz-adv-x="723" 
d="M708 163l-75 -163h-270l20 78q50 20 84 47.5t65 70.5q43 63 69 141t26 147q0 77 -38.5 118.5t-110.5 41.5q-135 0 -226 -152q-69 -116 -69 -250q0 -68 32 -115q19 -29 63 -49l-21 -78h-270l9 163h30q2 -50 19 -66t69 -16h50q12 0 39 -3q-65 33 -94.5 79.5t-29.5 116.5
q0 145 101 263q55 66 136 103t170 37q111 0 180 -58q65 -54 65 -165q0 -138 -100 -255q-29 -34 -49.5 -50t-65.5 -39l-45 -23q-12 -6 -17 -9q33 3 49 3h52q48 2 71.5 17.5t51.5 64.5h30z" />
    <glyph glyph-name="Iotadieresis" unicode="&#x3aa;" horiz-adv-x="333" 
d="M250 18l-5 -18h-259l5 18q46 1 65.5 18.5t32.5 68.5l122 458q6 21 6 39q0 27 -26 37q-15 5 -46 5l5 18h272l-5 -18q-55 0 -75.5 -16t-34.5 -71l-123 -457q-6 -23 -6 -41q0 -26 26 -36q15 -5 46 -5zM215 830q23 0 40 -17t17 -40t-16.5 -39t-39.5 -16q-24 0 -41 17t-17 41
q0 23 16.5 38.5t40.5 15.5zM393 830q23 0 40 -17t17 -40t-16.5 -39t-39.5 -16q-24 0 -41 17t-17 41q0 23 16.5 38.5t40.5 15.5z" />
    <glyph glyph-name="Upsilondieresis" unicode="&#x3ab;" horiz-adv-x="556" 
d="M372 311l-56 -211q-6 -22 -6 -40q0 -31 33 -39q13 -3 51 -3l-5 -18h-289l6 18q56 -1 77.5 15.5t35.5 71.5l58 216l-78 250q-23 76 -87 73h-21l6 18h282l-4 -18h-21q-64 0 -64 -39q0 -9 8 -34l63 -214l151 214q21 30 21 45q0 28 -52 28h-17l6 18h223l-6 -18
q-39 0 -75 -25.5t-76 -81.5zM342 830q23 0 40 -17t17 -40t-16.5 -39t-39.5 -16q-24 0 -41 17t-17 41q0 23 16.5 38.5t40.5 15.5zM520 830q23 0 40 -17t17 -40t-16.5 -39t-39.5 -16q-24 0 -41 17t-17 41q0 23 16.5 38.5t40.5 15.5z" />
    <glyph glyph-name="alphatonos" unicode="&#x3ac;" horiz-adv-x="525" 
d="M495 134l13 -9q-37 -71 -66.5 -103t-58.5 -32q-18 0 -28.5 16.5t-10.5 45.5q0 17 4 53q-27 -38 -50 -61q-56 -54 -128 -54q-59 0 -95 46t-36 121q0 112 84 204q78 83 155 83q84 0 96 -97l31 87h86l-117 -292q-1 -10 -1 -23q0 -69 32 -69q41 0 90 84zM305 159l51 142
q-3 115 -69 115q-75 0 -127 -125q-40 -98 -40 -186q0 -91 60 -91q72 0 125 145zM312 482l6 56q8 80 21 107t44 27q29 0 29 -32t-36 -111l-22 -47h-42z" />
    <glyph glyph-name="epsilontonos" unicode="&#x3ad;" horiz-adv-x="394" 
d="M339 149l19 -10q-34 -77 -82 -113t-116 -36q-63 0 -104 33.5t-41 83.5q0 41 32 77.5t87 57.5q-47 35 -47 81q0 52 52.5 86.5t130.5 34.5q52 0 86 -23t34 -57q0 -21 -12.5 -34.5t-32.5 -13.5q-25 0 -36 22q-5 9 -6 35q-2 46 -50 46q-40 0 -68.5 -40t-28.5 -97q0 -12 5 -31
q50 18 86 18q58 0 58 -32q0 -33 -52 -33q-37 0 -98 25q-53 -39 -53 -108q0 -43 24.5 -70t64.5 -27q88 0 148 125zM247 482l5 56q8 79 21.5 106.5t44.5 27.5q29 0 29 -32q0 -31 -37 -111l-21 -47h-42z" />
    <glyph glyph-name="etatonos" unicode="&#x3ae;" horiz-adv-x="496" 
d="M322 -172h-80l126 455q15 52 15 71q0 29 -24 29q-23 0 -67 -43q-47 -44 -81 -97t-47 -102l-38 -141h-72l86 325q11 40 11 46q0 21 -17 21t-42 -27.5t-45 -67.5l-18 11q29 62 71 99t84 37q20 0 32 -12.5t12 -34.5q0 -15 -5 -37l-28 -102q67 97 116.5 141.5t92.5 44.5
q26 0 42.5 -16.5t16.5 -42.5t-10 -66zM297 482l6 56q8 80 21 107t44 27q29 0 29 -32t-36 -111l-22 -47h-42z" />
    <glyph glyph-name="iotatonos" unicode="&#x3af;" horiz-adv-x="278" 
d="M211 100l12 -14q-80 -96 -128 -96q-42 0 -42 32q0 13 5 36l76 282q7 27 7 41q0 24 -27 24q-12 0 -33 -4l5 19q74 6 147 24l-101 -379q-2 -10 -2 -13q0 -5 4.5 -8.5t10.5 -3.5q11 0 29.5 17t36.5 43zM188 482l6 56q8 80 21 107t44 27q29 0 29 -31t-36 -112l-22 -47h-42z
" />
    <glyph glyph-name="upsilondieresistonos" unicode="&#x3b0;" horiz-adv-x="459" 
d="M49 297l-15 8q68 139 143 139q20 0 33.5 -16t13.5 -40q0 -21 -7 -49l-40 -148q-18 -69 -18 -102t16 -53.5t42 -20.5q67 0 123 94q49 83 49 150q0 36 -32 83q-24 35 -24 56q0 19 13 32.5t31 13.5q25 0 41 -23.5t16 -60.5q0 -53 -16.5 -119.5t-42.5 -117.5
q-32 -62 -78.5 -97.5t-98.5 -35.5q-50 0 -83 31t-33 78q0 35 12 78l43 162q7 27 7 34q0 18 -14 18q-15 0 -39.5 -28.5t-41.5 -65.5zM294 557l3 39q4 55 14 74.5t34 19.5t24 -23t-26 -77l-16 -33h-33zM223 569q18 0 31.5 -13.5t13.5 -32.5q0 -18 -12.5 -30.5t-31.5 -12.5
t-32.5 13.5t-13.5 32.5q0 18 13 30.5t32 12.5zM397 569q18 0 31.5 -13.5t13.5 -32.5q0 -18 -12.5 -30.5t-31.5 -12.5t-32.5 13.5t-13.5 32.5q0 18 13 30.5t32 12.5z" />
    <glyph glyph-name="alpha" unicode="&#x3b1;" horiz-adv-x="525" 
d="M495 134l13 -9q-36 -70 -66 -102.5t-59 -32.5q-18 0 -28.5 16.5t-10.5 45.5q0 17 4 53q-44 -62 -85 -88.5t-93 -26.5q-59 0 -95 46t-36 120q0 114 84 204q78 83 155 83q84 0 96 -96l31 85h86l-117 -290q-1 -10 -1 -23q0 -69 32 -69q40 0 90 84zM305 159l51 142
q-3 114 -69 114q-75 0 -127 -124q-40 -99 -40 -186q0 -91 60 -91q72 0 125 145z" />
    <glyph glyph-name="beta" unicode="&#x3b2;" horiz-adv-x="498" 
d="M-22 -172l161 601q28 104 64 150q63 80 164 80q56 0 91.5 -30t35.5 -78q0 -43 -30.5 -83t-85.5 -68q73 -52 73 -156q0 -97 -74.5 -175.5t-165.5 -78.5q-57 0 -96 53l-58 -215h-79zM218 429l-95 -355q39 -59 82 -59q32 0 63 23.5t52 63.5q21 39 35 93.5t14 96.5
q0 54 -20 90q-30 -11 -51 -11t-34 8.5t-13 22.5t13 22.5t33 8.5q26 0 61 -18q62 65 62 146q0 34 -16.5 54t-44.5 20q-64 0 -100 -79q-17 -37 -41 -127z" />
    <glyph glyph-name="gamma" unicode="&#x3b3;" horiz-adv-x="394" 
d="M190 64l79 87q43 43 56 58t26 40q14 25 14 51q0 19 -11 44q-15 37 -15 52q0 20 14 34t34 14q23 0 37 -18t14 -46q0 -65 -51 -138q-20 -29 -39.5 -50t-88.5 -89q-47 -47 -74 -79q-27 -116 -45 -151q-26 -52 -58 -52q-15 0 -25 11t-10 28q0 31 26 85q12 26 58 89
q11 69 11 163q0 103 -16 151q-5 18 -15.5 30.5t-18.5 12.5q-28 0 -80 -94l-13 11q29 64 63.5 100t65.5 36q39 0 62.5 -49.5t23.5 -133.5q0 -87 -24 -197z" />
    <glyph glyph-name="delta" unicode="&#x3b4;" horiz-adv-x="465" 
d="M468 617l-18 -72q-47 36 -113.5 61.5t-113.5 25.5q-37 0 -37 -22q0 -9 6 -15t40 -28l147 -99q83 -55 83 -154q0 -129 -87 -225t-204 -96q-72 0 -115 43t-43 116q0 123 91 224q55 59 151 89l-65 51q-47 38 -47 78t28.5 61.5t79.5 21.5q110 0 217 -60zM287 447
q-51 -20 -80 -43.5t-54 -63.5q-56 -90 -56 -201q0 -118 88 -118q74 0 130 83q63 95 63 194q0 46 -21 80.5t-70 68.5z" />
    <glyph glyph-name="epsilon" unicode="&#x3b5;" horiz-adv-x="394" 
d="M339 149l19 -10q-34 -77 -82 -113t-116 -36q-63 0 -104 33.5t-41 83.5q0 41 32 77.5t87 57.5q-47 35 -47 81q0 52 52.5 86.5t130.5 34.5q52 0 86 -23t34 -57q0 -21 -12.5 -34.5t-32.5 -13.5q-25 0 -36 22q-5 9 -6 35q-2 46 -50 46q-40 0 -68.5 -40t-28.5 -97q0 -12 5 -31
q50 18 86 18q58 0 58 -32q0 -33 -52 -33q-37 0 -98 25q-53 -39 -53 -108q0 -43 24.5 -70t64.5 -27q88 0 148 125z" />
    <glyph glyph-name="zeta" unicode="&#x3b6;" horiz-adv-x="405" 
d="M282 723l7 -18q-65 -31 -65 -64q0 -39 52 -64q64 42 96.5 55t72.5 13q22 0 34.5 -9t12.5 -24q0 -29 -40 -47.5t-104 -18.5q-29 0 -59 6q-73 -78 -111 -156q-64 -133 -64 -247q0 -82 73 -82q19 0 41 3q21 3 38 3q30 0 47.5 -18.5t17.5 -50.5q0 -67 -77 -115
q-62 -41 -116 -41q-21 0 -34 10t-13 27t13 27.5t35 10.5q15 0 39 -8q15 -5 29 -5q30 0 53.5 20t23.5 46q0 27 -42 27q-10 0 -36 -3q-24 -3 -43 -3q-58 0 -92 39.5t-34 105.5q0 145 93 281q27 41 53 69t75 68q-86 33 -86 74q0 19 32 44.5t78 44.5z" />
    <glyph glyph-name="eta" unicode="&#x3b7;" horiz-adv-x="496" 
d="M322 -172h-80l126 455q15 52 15 71q0 29 -24 29q-23 0 -67 -43q-47 -44 -81 -97t-47 -102l-38 -141h-72l86 325q11 40 11 46q0 21 -17 21t-42 -27.5t-45 -67.5l-18 11q29 62 71 99t84 37q20 0 32 -12.5t12 -34.5q0 -15 -5 -37l-28 -102q67 97 116.5 141.5t92.5 44.5
q26 0 42.5 -16.5t16.5 -42.5t-10 -66z" />
    <glyph glyph-name="theta" unicode="&#x3b8;" horiz-adv-x="491" 
d="M354 659q56 0 90 -43t34 -114q0 -67 -23 -166.5t-57 -177.5q-34 -79 -87.5 -123.5t-114.5 -44.5q-59 0 -91.5 44t-32.5 126q0 51 19 137t47 163q35 92 92.5 145.5t123.5 53.5zM187 365h195q31 136 31 193q0 38 -17.5 60t-47.5 22q-48 0 -82 -58q-21 -35 -37 -79.5
t-42 -137.5zM377 339h-196q-45 -174 -45 -248q0 -37 18 -59.5t48 -22.5q62 0 105 102q29 65 70 228z" />
    <glyph glyph-name="iota" unicode="&#x3b9;" horiz-adv-x="278" 
d="M211 100l12 -14q-80 -96 -128 -96q-42 0 -42 32q0 13 5 36l76 282q7 27 7 41q0 24 -27 24q-12 0 -33 -4l5 19q74 6 147 24l-101 -379q-2 -10 -2 -13q0 -5 4.5 -8.5t10.5 -3.5q11 0 29.5 17t36.5 43z" />
    <glyph glyph-name="kappa" unicode="&#x3ba;" horiz-adv-x="480" 
d="M228 260l78 -161q28 -60 52 -60q14 0 34 23t37 60l15 -7q-31 -63 -57 -93q-29 -34 -63 -34q-35 0 -60 51l-94 198l-63 -237h-73l91 340q7 29 7 41q0 24 -27 24q-12 0 -33 -4l5 19q65 6 149 25l-55 -203l24 22q27 22 53 47q96 88 128.5 110.5t63.5 22.5q20 0 31.5 -10.5
t11.5 -28.5q0 -33 -29 -46q-16 -7 -60 -7q-35 -1 -51.5 -6.5t-43.5 -27.5q-25 -22 -71 -58z" />
    <glyph glyph-name="lambda" unicode="&#x3bb;" horiz-adv-x="433" 
d="M262 300l-223 -300h-84l319 420q6 42 6 73q0 33 -8.5 46t-41.5 31q-26 14 -26 42q0 22 14 35t39 13q30 0 46.5 -20t16.5 -56q0 -21 -4 -52l-36 -345q-5 -48 -5 -75q0 -55 35 -55q19 0 34.5 14.5t37.5 53.5l17 -10q-28 -60 -60 -92.5t-61 -32.5q-43 0 -43 67q0 14 11 107z
" />
    <glyph glyph-name="uni03BC" unicode="&#x3bc;" horiz-adv-x="502" 
d="M147 434h71l-86 -324q-7 -24 -7 -35q0 -30 32 -30q41 0 114 100q41 57 59.5 95.5t36.5 106.5l22 87h71l-87 -330q-11 -38 -11 -53t11 -15q20 0 63 48l10 -10q-28 -39 -62.5 -63t-61.5 -24q-16 0 -26.5 11t-10.5 27q0 19 7 43l35 131q-68 -106 -118 -155q-60 -57 -103 -57
q-23 0 -40 21q-3 -34 -3 -47q0 -2 2 -42q1 -11 1 -28q0 -69 -45 -69q-19 0 -31 12t-12 31q0 24 39 123q36 91 61 187z" />
    <glyph glyph-name="nu" unicode="&#x3bd;" horiz-adv-x="444" 
d="M251 189v-104q56 72 89 139t33 108q0 11 -4 17t-19 15q-23 12 -23 38q0 18 12.5 30t29.5 12q23 0 38.5 -19t15.5 -47q0 -62 -70 -186q-40 -69 -110 -156q-28 -35 -41 -52h-21q4 45 4 117q0 47 -7 122.5t-15 118.5q-10 49 -31 49q-16 0 -32.5 -26.5t-24.5 -64.5l-16 6
q10 62 38.5 100t64.5 38q56 0 77 -107q10 -58 12 -148z" />
    <glyph glyph-name="xi" unicode="&#x3be;" horiz-adv-x="428" 
d="M288 725l8 -15q-8 -5 -13 -7q-46 -26 -46 -48q0 -30 51 -61q92 46 162 46q57 0 57 -32q0 -23 -30 -36.5t-80 -13.5q-39 0 -101 16q-70 -62 -70 -138q0 -35 18 -59q80 34 135 34q23 0 38 -9t15 -23q0 -21 -23 -34t-61 -13q-49 0 -105 22q-60 -42 -94 -100t-34 -119
q0 -69 67 -69q23 0 61 4q27 3 45 3q30 0 47.5 -18.5t17.5 -50.5q0 -66 -76 -115q-63 -41 -116 -41q-21 0 -34 10t-13 27t13 27.5t35 10.5q15 0 39 -8q15 -5 28 -5q31 0 54 20.5t23 46.5q0 27 -40 27q-15 0 -44 -4q-33 -3 -51 -3q-58 0 -83 20q-47 38 -47 108
q0 71 48.5 135.5t132.5 105.5q-59 35 -59 83q0 35 28.5 71t78.5 63q-85 32 -85 66q0 17 29 38.5t74 37.5z" />
    <glyph glyph-name="omicron" unicode="&#x3bf;" 
d="M310 444q60 0 99 -46.5t39 -119.5q0 -61 -27 -119.5t-75 -101.5q-77 -68 -153 -68q-61 0 -99 46t-38 120q0 109 79 199t175 90zM301 419q-60 0 -106 -74q-30 -46 -48 -109.5t-18 -120.5q0 -47 19.5 -74t53.5 -27q63 0 110 86q26 49 42.5 109.5t16.5 109.5q0 44 -19.5 72
t-50.5 28z" />
    <glyph glyph-name="pi" unicode="&#x3c0;" horiz-adv-x="501" 
d="M573 434l-18 -70h-117q-14 -23 -21 -43.5t-23 -85.5l-29 -112q-10 -40 -10 -45q0 -11 9 -19.5t20 -8.5q8 0 49 14l-1 -20l-117 -46q-15 -5 -16 -5q-9 0 -16.5 16.5t-7.5 35.5q0 15 10 53l34 136q12 43 32 71.5t60 58.5h-201l-27 -83q-6 -18 -16 -53q-32 -112 -61 -169
q-34 -66 -85 -66q-35 0 -35 31q0 25 22 49q9 10 43 35q35 30 52.5 66t73.5 190q-51 1 -84 -8t-85 -37l-11 20l100 70q24 17 39 21t49 4h388z" />
    <glyph glyph-name="rho" unicode="&#x3c1;" horiz-adv-x="480" 
d="M-22 -172l107 398q17 66 34 100.5t44 59.5q63 58 142 58q62 0 100.5 -46t38.5 -120q0 -109 -74.5 -198.5t-166.5 -89.5q-28 0 -47 10t-43 37l-56 -209h-79zM178 278l-57 -213q31 -50 71 -50q74 0 120 95q22 45 36.5 107.5t14.5 111.5q0 43 -17.5 66.5t-48.5 23.5
q-38 0 -70 -37.5t-49 -103.5z" />
    <glyph glyph-name="uni03C2" unicode="&#x3c2;" horiz-adv-x="406" 
d="M345 444q34 0 54.5 -14.5t20.5 -37.5q0 -19 -13.5 -32.5t-33.5 -13.5q-17 0 -48 22q-35 25 -62 25q-62 0 -102 -84q-46 -97 -46 -177q0 -35 15.5 -50t52.5 -15q14 0 47 4q18 2 26 2q31 0 50 -19.5t19 -51.5q0 -54 -55.5 -106t-113.5 -52q-23 0 -37.5 10.5t-14.5 28.5
q0 17 13 28t33 11q10 0 35 -8q17 -7 32 -7q24 0 45.5 20.5t21.5 44.5q0 30 -44 30q-10 0 -43 -4q-7 -1 -26 -1q-127 0 -127 126q0 124 92.5 222.5t208.5 98.5z" />
    <glyph glyph-name="sigma" unicode="&#x3c3;" horiz-adv-x="493" 
d="M572 434l-19 -75l-24 1l-64 3l-57 3l-31 2q74 -27 74 -116q0 -98 -81 -181q-76 -78 -186 -78q-73 0 -117 39.5t-44 105.5q0 53 23.5 109t63.5 99q47 50 94.5 69t126.5 19h241zM345 364h-30q-105 0 -162 -79q-48 -67 -48 -151q0 -53 25 -83.5t68 -30.5q70 0 120.5 74.5
t50.5 177.5q0 49 -24 92z" />
    <glyph glyph-name="tau" unicode="&#x3c4;" horiz-adv-x="358" 
d="M444 434l-18 -70h-178q-22 -35 -37 -93l-38 -147q-11 -44 -11 -53q0 -22 20 -22q21 0 65 17l-5 -22l-123 -47q-8 -4 -13 -4q-9 -1 -17.5 15t-8.5 34q0 11 7 37l39 152q13 46 30.5 70.5t63.5 62.5h-41q-61 -1 -94.5 -11.5t-89.5 -45.5l-14 22l100 78q21 16 38.5 21.5
t49.5 5.5h275z" />
    <glyph glyph-name="upsilon" unicode="&#x3c5;" horiz-adv-x="459" 
d="M49 297l-15 8q68 139 143 139q20 0 33.5 -16t13.5 -40q0 -21 -7 -49l-40 -148q-18 -69 -18 -102t16 -53.5t42 -20.5q67 0 123 94q49 83 49 150q0 36 -32 83q-24 35 -24 56q0 19 13 32.5t31 13.5q25 0 41 -23.5t16 -60.5q0 -53 -16.5 -119.5t-42.5 -117.5
q-32 -62 -78.5 -97.5t-98.5 -35.5q-50 0 -83 31t-33 78q0 35 12 78l43 162q7 27 7 34q0 18 -14 18q-15 0 -39.5 -28.5t-41.5 -65.5z" />
    <glyph glyph-name="phi" unicode="&#x3c6;" horiz-adv-x="553" 
d="M281 446l-4 -17q-48 -14 -80 -49q-34 -37 -58 -109t-24 -137q0 -48 18 -75t59 -41l68 272q20 81 47 111q39 45 95 45q54 0 90.5 -42.5t36.5 -105.5q0 -58 -27.5 -119.5t-74.5 -106.5q-73 -69 -181 -81l-49 -192h-60l48 192q-74 9 -112 51t-38 114q0 64 26.5 125t72.5 102
q63 56 147 63zM322 295l-70 -277q76 13 121 58q34 34 56.5 94t22.5 118q0 45 -18.5 74.5t-46.5 29.5q-23 0 -40 -23q-10 -14 -25 -74z" />
    <glyph glyph-name="chi" unicode="&#x3c7;" horiz-adv-x="440" 
d="M447 434l-232 -326q4 -122 18.5 -172t45.5 -50q22 0 40 19t37 62l13 -7q-22 -66 -53 -105.5t-59 -39.5q-44 0 -58 99q-13 85 -14 155l-168 -241h-85l247 342q-5 88 -11.5 124t-19.5 50t-43 17q-43 7 -43 40q0 19 15 31t40 12q48 0 65.5 -45.5t24.5 -194.5l157 230h83z
" />
    <glyph glyph-name="psi" unicode="&#x3c8;" horiz-adv-x="621" 
d="M435 434l-111 -417q54 7 90.5 25.5t67.5 54.5q29 34 48 80.5t19 84.5q0 25 -6.5 39.5t-32.5 49.5q-18 22 -18 45q0 19 14 33.5t33 14.5q26 0 41.5 -27t15.5 -72q0 -55 -22.5 -124t-54.5 -115q-73 -102 -202 -113l-44 -165h-72l45 168q-36 4 -57 11.5t-43 25.5
q-48 41 -48 101q0 32 15 87l33 123q7 26 7 34q0 17 -14 17q-38 0 -88 -95l-15 8q30 58 54 84q47 52 95 52q19 0 31.5 -16.5t12.5 -39.5q0 -22 -8 -52l-38 -143q-14 -51 -14 -90q0 -73 83 -84l111 415h72z" />
    <glyph glyph-name="omega" unicode="&#x3c9;" horiz-adv-x="706" 
d="M232 440l15 -13q-25 -29 -58 -99q-55 -115 -55 -221q0 -43 16.5 -67.5t44.5 -24.5q29 0 64.5 27t68.5 75q-4 39 -4 62q0 74 20 118.5t53 44.5q32 0 32 -42q0 -62 -72 -182q21 -103 82 -103q60 0 114 78.5t54 165.5q0 32 -9 49t-42 47q-25 25 -25 47q0 17 13 29.5t30 12.5
q32 0 53.5 -34.5t21.5 -85.5q0 -84 -30.5 -162t-80.5 -125t-104 -47q-75 0 -98 99q-74 -99 -150 -99q-54 0 -89.5 46.5t-35.5 118.5q0 83 40 150.5t131 134.5z" />
    <glyph glyph-name="iotadieresis" unicode="&#x3ca;" horiz-adv-x="278" 
d="M211 100l12 -14q-80 -96 -128 -96q-42 0 -42 32q0 13 5 36l76 282q7 27 7 41q0 24 -27 24q-12 0 -33 -4l5 19q74 6 147 24l-101 -379q-2 -10 -2 -13q0 -5 4.5 -8.5t10.5 -3.5q11 0 29.5 17t36.5 43zM153 607q20 0 35 -15t15 -35t-14.5 -34t-34.5 -14q-21 0 -36 15t-15 35
t14.5 34t35.5 14zM294 607q20 0 35 -15t15 -35t-14.5 -34t-34.5 -14q-21 0 -36 15t-15 35t14.5 34t35.5 14z" />
    <glyph glyph-name="upsilondieresis" unicode="&#x3cb;" horiz-adv-x="459" 
d="M49 297l-15 8q68 139 143 139q20 0 33.5 -16t13.5 -40q0 -21 -7 -49l-40 -148q-18 -69 -18 -102t16 -53.5t42 -20.5q67 0 123 94q49 83 49 150q0 36 -32 83q-24 35 -24 56q0 19 13 32.5t31 13.5q25 0 41 -23.5t16 -60.5q0 -53 -16.5 -119.5t-42.5 -117.5
q-32 -62 -78.5 -97.5t-98.5 -35.5q-50 0 -83 31t-33 78q0 35 12 78l43 162q7 27 7 34q0 18 -14 18q-15 0 -39.5 -28.5t-41.5 -65.5zM245 607q20 0 35 -15t15 -35t-14.5 -34t-34.5 -14q-21 0 -36 15t-15 35t14.5 34t35.5 14zM399 607q20 0 35 -15t15 -35t-14.5 -34t-34.5 -14
q-21 0 -36 15t-15 35t14.5 34t35.5 14z" />
    <glyph glyph-name="omicrontonos" unicode="&#x3cc;" 
d="M310 444q60 0 99 -46.5t39 -119.5q0 -61 -27 -119.5t-75 -101.5q-77 -68 -153 -68q-61 0 -99 46t-38 120q0 109 79 199t175 90zM301 419q-60 0 -106 -74q-30 -46 -48 -109.5t-18 -120.5q0 -47 19.5 -74t53.5 -27q63 0 110 86q26 49 42.5 109.5t16.5 109.5q0 44 -19.5 72
t-50.5 28zM300 482l6 56q7 79 20.5 106.5t44.5 27.5q29 0 29 -32q0 -31 -36 -111l-22 -47h-42z" />
    <glyph glyph-name="upsilontonos" unicode="&#x3cd;" horiz-adv-x="459" 
d="M49 297l-15 8q68 139 143 139q20 0 33.5 -16t13.5 -40q0 -21 -7 -49l-40 -148q-18 -69 -18 -102t16 -53.5t42 -20.5q67 0 123 94q49 83 49 150q0 36 -32 83q-24 35 -24 56q0 19 13 32.5t31 13.5q25 0 41 -23.5t16 -60.5q0 -53 -16.5 -119.5t-42.5 -117.5
q-32 -62 -78.5 -97.5t-98.5 -35.5q-50 0 -83 31t-33 78q0 35 12 78l43 162q7 27 7 34q0 18 -14 18q-15 0 -39.5 -28.5t-41.5 -65.5zM269 482l6 56q8 79 21 106.5t44 27.5q29 0 29 -32q0 -31 -36 -111l-22 -47h-42z" />
    <glyph glyph-name="omegatonos" unicode="&#x3ce;" horiz-adv-x="698" 
d="M398 482l5 56q8 79 21.5 106.5t44.5 27.5q29 0 29 -32q0 -34 -37 -111l-21 -47h-42zM228 440l15 -13q-45 -52 -79 -149t-34 -171q0 -43 16.5 -67.5t44.5 -24.5q29 0 64.5 27t68.5 75q-4 39 -4 62q0 74 20 118.5t53 44.5q32 0 32 -42q0 -61 -72 -182q22 -103 82 -103
t114 78.5t54 165.5q0 32 -9 49t-42 47q-25 25 -25 47q0 17 13 29.5t30 12.5q32 0 53.5 -34.5t21.5 -85.5q0 -84 -30.5 -162t-80.5 -125t-104 -47q-75 0 -98 99q-72 -99 -150 -99q-54 0 -89.5 46.5t-35.5 118.5q0 83 40 150t131 135z" />
    <glyph glyph-name="theta1" unicode="&#x3d1;" horiz-adv-x="491" 
d="M517 342l-7 -24q-15 8 -34 8h-12q-33 -128 -75 -203q-36 -63 -86.5 -98t-104.5 -35t-86.5 30.5t-30.5 78.5q2 37 13 74l15 53q10 34 10 44q0 15 -11 15q-31 0 -82 -76l-15 10q32 53 69 83t71 30q21 0 33.5 -14t12.5 -39q0 -16 -5 -34l-26 -90q-14 -48 -14 -80
q0 -27 15 -43.5t39 -16.5q34 0 61.5 29.5t55.5 96.5q27 65 62 189q-105 5 -163.5 47t-58.5 114q0 70 53.5 118t131.5 48q69 0 106.5 -43t37.5 -123q0 -50 -22 -143q22 0 47 -6zM390 352q30 129 30 187q0 44 -18.5 68.5t-52.5 24.5q-49 0 -85 -45t-36 -106q0 -67 63 -103
q36 -21 99 -26z" />
    <glyph glyph-name="phi1" unicode="&#x3d5;" horiz-adv-x="518" 
d="M257 -15l-46 -170h-89l48 169q-62 4 -96.5 47.5t-34.5 119.5q0 122 80.5 217t191.5 105q9 39 15 97q5 54 18 77q23 39 65 39q43 0 43 -41q0 -16 -5.5 -31.5t-30.5 -69.5q-18 -40 -28 -71q70 -3 108 -47t38 -123q0 -117 -83 -212.5t-194 -105.5zM177 10l127 438
q-72 -16 -125.5 -106t-53.5 -196q0 -56 14.5 -93.5t37.5 -42.5zM382 449l-118 -439q77 19 130 105t53 193q0 127 -65 141z" />
    <glyph glyph-name="omega1" unicode="&#x3d6;" horiz-adv-x="706" 
d="M248 450h110q139 0 200 -20q54 -18 85 -63.5t31 -107.5q0 -85 -54 -169q-60 -97 -143 -97q-41 0 -64.5 22.5t-35.5 72.5q-57 -95 -130 -95q-47 0 -74.5 36t-27.5 98q0 76 28.5 143t77.5 107q25 21 67 41q-69 -2 -120 -12zM377 129q1 64 12 97q15 48 41 48q9 0 15 -8
t6 -20q0 -16 -20 -52q-7 -12 -13 -35.5t-6 -37.5q0 -29 18 -47.5t46 -18.5q54 0 89 60q42 69 42 139q0 84 -61 123.5t-189 40.5q-41 -28 -68 -70q-24 -36 -42 -97t-18 -107q0 -41 15.5 -63.5t44.5 -22.5q45 0 88 71z" />
    <glyph glyph-name="uni0400" unicode="&#x400;" horiz-adv-x="611" 
d="M649 662l-30 -155l-21 2q1 17 1 45q0 46 -37.5 60.5t-157.5 14.5q-43 0 -56 -4.5t-18 -21.5l-65 -237q72 2 81 2q69 3 89.5 17.5t48.5 79.5l19 -5l-67 -235l-20 5q6 28 6 51q0 27 -11 36q-12 10 -61 12l-46 1l-48 3q-26 -102 -31 -117q-35 -128 -35 -149q0 -34 80 -34
q125 0 183 28q33 15 57.5 38.5t59.5 72.5l17 -8l-62 -164h-514v16q43 7 55.5 19t25.5 56l121 449q11 40 11 64q0 21 -15.5 29.5t-63.5 12.5v16h504zM492 714l-143 107q-19 15 -19 33q0 14 10 24t25 10q21 0 40 -23l119 -151h-32z" />
    <glyph glyph-name="afii10023" unicode="&#x401;" horiz-adv-x="611" 
d="M266 331l-64 -239q-5 -19 -5 -27q0 -18 17 -23t81 -5q104 0 177 53q46 32 76 98h16l-61 -188h-494l5 18q44 1 63 19t32 68l122 458q6 21 6 40q0 24 -21 34q-14 7 -58 7l4 18h481l-42 -158h-18q5 21 5 36q0 47 -32 66.5t-108 19.5h-103l-70 -259h67q58 -2 86.5 20t44.5 80
h19l-66 -241h-17q9 42 9 58q0 47 -75 47h-77zM347 830q23 0 40 -17t17 -40t-16.5 -39t-39.5 -16q-24 0 -41 17t-17 41q0 23 16.5 38.5t40.5 15.5zM525 830q23 0 40 -17t17 -40t-16.5 -39t-39.5 -16q-24 0 -41 17t-17 41q0 23 16.5 38.5t40.5 15.5z" />
    <glyph glyph-name="afii10051" unicode="&#x402;" horiz-adv-x="797" 
d="M474 626l-68 -257q84 13 144 13q80 0 127 -44t47 -120q0 -101 -73 -171t-179 -70q-101 0 -101 68q0 27 14.5 43.5t38.5 16.5q20 0 32.5 -11t12.5 -28q0 -12 -10 -32q-1 -2 -1 -6q0 -20 28 -20q52 0 93 66t41 149q0 116 -105 116q-48 0 -119 -8l-89 -331h-185l5 18
q56 0 77 16t34 71l140 521h-37q-148 5 -179 -138h-19l47 174h544l-47 -174h-17q7 38 7 69q0 69 -79 69h-124z" />
    <glyph glyph-name="afii10052" unicode="&#x403;" horiz-adv-x="569" 
d="M346 626l-141 -526q-6 -25 -6 -39q0 -23 15.5 -32.5t56.5 -10.5l-5 -18h-259l5 18q46 1 65.5 18.5t32.5 68.5l122 458q6 19 6 37q0 25 -15 34t-57 10l5 18h461l-46 -174h-17q8 47 8 69q0 43 -29 60q-14 9 -55 9h-147zM371 716l163 162q9 10 25 10t26.5 -10.5t10.5 -25.5
q0 -18 -17 -28l-172 -108h-36z" />
    <glyph glyph-name="afii10053" unicode="&#x404;" horiz-adv-x="669" 
d="M664 671h17l-42 -197h-17q1 11 1 30q0 58 -37.5 93.5t-99.5 35.5q-64 0 -124 -39t-102 -107q-23 -36 -48 -114h177q50 -2 76.5 19.5t42.5 76.5h16l-65 -245h-16q10 39 10 62q0 31 -21 43q-14 8 -62 8h-167q-6 -38 -6 -68q0 -109 45 -169t128 -60q117 0 207 119l18 -13
q-40 -62 -76 -93q-77 -63 -177 -63q-113 0 -183.5 79.5t-70.5 208.5q0 159 118.5 276t280.5 117q49 0 101 -19q23 -8 36 -8q22 0 40 27z" />
    <glyph glyph-name="afii10054" unicode="&#x405;" 
d="M483 475l-19 3q-3 92 -33 126q-34 37 -90 37q-52 0 -81.5 -27.5t-29.5 -74.5q0 -38 16.5 -63t85.5 -94q70 -70 93 -109.5t23 -89.5q0 -86 -58 -143.5t-145 -57.5q-42 0 -106 23q-39 13 -52 13q-29 0 -39 -33h-18l32 226l21 -2q-2 -8 -2 -21q0 -73 43 -121.5t107 -48.5
q56 0 92.5 38t36.5 96q0 33 -12.5 58t-49.5 62q-1 1 -6.5 7t-15.5 17t-17 19q-36 38 -40 42q-47 50 -62.5 79.5t-15.5 71.5q0 73 50 120t129 47q50 0 86 -14q29 -11 46 -11t26.5 5t19.5 21h23z" />
    <glyph glyph-name="afii10055" unicode="&#x406;" horiz-adv-x="333" 
d="M250 18l-5 -18h-259l5 18q46 1 65.5 18.5t32.5 68.5l122 458q6 21 6 39q0 27 -26 37q-15 5 -46 5l5 18h272l-5 -18q-55 0 -75.5 -16t-34.5 -71l-123 -457q-6 -23 -6 -41q0 -26 26 -36q15 -5 46 -5z" />
    <glyph glyph-name="afii10056" unicode="&#x407;" horiz-adv-x="333" 
d="M250 18l-5 -18h-259l5 18q46 1 65.5 18.5t32.5 68.5l122 458q6 21 6 40q0 26 -26 36q-15 5 -46 5l5 18h272l-5 -18q-55 0 -75.5 -16t-34.5 -71l-123 -457q-6 -23 -6 -41q0 -26 26 -36q15 -5 46 -5zM215 830q23 0 40 -17t17 -40t-16.5 -39t-39.5 -16q-24 0 -41 17t-17 41
q0 23 16.5 38.5t40.5 15.5zM389 830q23 0 40 -17t17 -40t-16.5 -39t-39.5 -16q-24 0 -41 17t-17 41q0 23 16.5 38.5t40.5 15.5z" />
    <glyph glyph-name="afii10057" unicode="&#x408;" horiz-adv-x="444" 
d="M235 644l5 18h257l-5 -18q-37 -2 -55.5 -20.5t-30.5 -66.5l-99 -368q-23 -91 -69 -139q-59 -61 -130 -61q-46 0 -76 26.5t-30 65.5q0 29 18.5 49.5t44.5 20.5q20 0 33.5 -13.5t13.5 -32.5q0 -16 -14 -31q-13 -13 -13 -24t8.5 -17.5t21.5 -6.5q24 0 44 24.5t31 66.5
l119 446q6 21 6 40q0 23 -17.5 32.5t-62.5 8.5z" />
    <glyph glyph-name="afii10058" unicode="&#x409;" horiz-adv-x="927" 
d="M757 662l-5 -18q-56 0 -76 -15.5t-34 -69.5l-48 -177q33 3 48 3q107 0 169 -47.5t62 -129.5q0 -105 -99 -165q-74 -43 -208 -43h-245l5 18q46 1 65 18.5t33 68.5l139 521h-171q-57 -222 -95 -334.5t-83 -192.5q-62 -109 -151 -109q-34 0 -54 15.5t-20 42.5q0 22 14.5 35
t38.5 13q19 0 47 -17q18 -11 28 -11q23 0 47.5 33.5t56.5 106.5q32 76 74 219t42 176q0 41 -72 41h-9l4 18h497zM584 345l-79 -301q31 -6 59 -6q91 0 148 50t57 130q0 129 -149 129q-23 0 -36 -2z" />
    <glyph glyph-name="afii10059" unicode="&#x40a;" horiz-adv-x="921" 
d="M517 367l54 196q6 22 6 38q0 30 -27 38q-14 5 -47 5l7 18h271l-5 -18q-55 0 -75.5 -16t-34.5 -71l-51 -190q96 0 138 -10q68 -16 105.5 -56.5t37.5 -99.5q0 -46 -26 -88t-72 -70q-40 -24 -86.5 -33.5t-121.5 -9.5h-245l5 18q46 1 65 18.5t33 68.5l62 226h-271l-62 -231
q-6 -27 -6 -39q0 -28 26 -38q14 -4 46 -5l-5 -18h-259l5 18q46 2 65.5 19t32.5 68l122 458q6 18 6 38q0 24 -15.5 33t-56.5 10l5 18h272l-5 -18q-55 0 -75.5 -16t-34.5 -71l-51 -190h268zM605 332l-76 -288q34 -6 61 -6q88 0 145 48.5t57 122.5q0 73 -58 105q-33 18 -129 18
z" />
    <glyph glyph-name="afii10060" unicode="&#x40b;" horiz-adv-x="799" 
d="M450 626l-69 -258q65 4 101 4q106 0 153.5 -28t47.5 -91q0 -27 -14 -79l-21 -74q-5 -17 -5 -38q0 -24 15.5 -33.5t55.5 -10.5l-5 -18h-259l5 18q46 1 65.5 18.5t32.5 68.5l26 94q8 31 8 49q0 44 -26 63.5t-85 19.5q-56 0 -104 -4l-62 -227q-7 -25 -7 -38q0 -24 15 -33.5
t55 -10.5l-4 -18h-258l5 18q46 1 65.5 18.5t32.5 68.5l140 521h-60q-62 -1 -102 -30.5t-51 -83.5h-15l40 150h554l-40 -150h-15q4 27 4 42q0 40 -23 56t-82 16h-114z" />
    <glyph glyph-name="afii10061" unicode="&#x40c;" horiz-adv-x="664" 
d="M261 349l-66 -249q-5 -25 -5 -40q0 -24 21 -35q14 -7 58 -7l-6 -18h-268l5 18q47 1 67 18t33 69l123 458q6 21 6 39q0 25 -21 35q-14 7 -55 7l5 18h267l-5 -18q-49 -1 -69 -18t-33 -69l-51 -191l279 234q21 18 21 26q0 10 -11 14t-39 4l5 18h201l-6 -18q-52 -1 -108 -44
l-264 -216l141 -254q37 -67 66.5 -90t76.5 -22l-6 -18h-269l6 18q34 3 47.5 10.5t13.5 23.5q0 19 -17 48zM436 716l162 162q10 10 25 10q16 0 26.5 -10.5t10.5 -25.5q0 -18 -17 -28l-172 -108h-35z" />
    <glyph glyph-name="uni040D" unicode="&#x40d;" horiz-adv-x="722" 
d="M574 505l-384 -409q-5 -22 -5 -36q0 -29 26 -37q10 -4 46 -5l-5 -18h-259l5 18q46 1 65.5 18.5t32.5 68.5l122 458q6 18 6 37q0 25 -15.5 34t-56.5 10l5 18h272l-5 -18q-55 0 -75.5 -16t-34.5 -71l-104 -388l383 411q2 10 2 20q0 25 -15.5 34t-56.5 10l5 18h272l-5 -18
q-55 0 -76 -16.5t-34 -70.5l-123 -457q-6 -24 -6 -39q0 -23 15.5 -32.5t56.5 -10.5l-5 -18h-259l5 18q46 1 65 18t33 69zM507 714l-143 107q-20 16 -20 33q0 14 10 24t25 10q21 0 40 -23l119 -151h-31z" />
    <glyph glyph-name="afii10062" unicode="&#x40e;" horiz-adv-x="673" 
d="M591 799v7q0 23 12.5 36.5t33.5 13.5q19 0 30.5 -10t11.5 -26q0 -26 -25 -54q-48 -51 -141 -51q-59 0 -95 23t-36 62q0 25 15 40.5t39 15.5q18 0 29 -9.5t11 -25.5q0 -10 -12 -32q-5 -10 -5 -15q0 -12 18.5 -21.5t41.5 -9.5q29 0 51 12.5t22 28.5q0 3 -1 15zM151 662h282
l-6 -18h-21q-54 0 -54 -47q0 -8 2 -22l77 -330l185 292q47 74 47 88q0 19 -41 19h-29l5 18h209l-5 -18q-41 -2 -75.5 -35.5t-91.5 -124.5l-163 -264q-62 -99 -79.5 -125t-42.5 -57q-45 -57 -113 -57q-41 0 -69 22.5t-28 54.5q0 23 14.5 38t37.5 15q18 0 27 -6t37 -37
q14 -16 30 -16q27 0 85 97l-124 426q-11 38 -28 53t-53 16h-19z" />
    <glyph glyph-name="afii10145" unicode="&#x40f;" horiz-adv-x="722" 
d="M179 37h271l140 525q6 24 6 39q0 24 -15.5 33t-56.5 10l5 18h272l-5 -18q-56 0 -76.5 -16t-34.5 -71l-122 -458q-6 -23 -6 -38q0 -24 15 -33t56 -10l-5 -18h-161q-83 3 -121.5 -31t-75.5 -144h-18q17 64 17 103q0 48 -27 63q-15 9 -65 9h-173l5 18q46 1 65.5 18t32.5 68
l122 458q6 20 6 38q0 25 -15.5 34t-57.5 10l8 18h270l-5 -18q-55 0 -75.5 -16t-34.5 -71z" />
    <glyph glyph-name="afii10017" unicode="&#x410;" horiz-adv-x="611" 
d="M371 208h-179l-96 -138q-10 -15 -10 -25q0 -27 44 -27h20l-4 -18h-198l4 18h12q26 -1 44.5 13t52.5 60l406 571h17l-23 -558q-1 -26 -1 -33q0 -31 13.5 -42t49.5 -11h24l-5 -18h-264l4 18h23q35 0 47 14.5t14 58.5zM372 244l10 236l-165 -236h155z" />
    <glyph glyph-name="afii10018" unicode="&#x411;" horiz-adv-x="590" 
d="M598 662l-47 -174h-17q7 38 7 65q0 73 -79 73h-128l-66 -249q32 4 54 4q101 0 160 -46.5t59 -127.5q0 -92 -76 -149.5t-198 -57.5h-272l5 18q46 1 65 18t33 68l122 459q6 21 6 37q0 25 -15 34t-57 10l5 18h439zM257 337l-77 -287q39 -13 69 -13q87 0 137.5 46t50.5 125
q0 136 -131 136q-24 0 -49 -7z" />
    <glyph glyph-name="afii10019" unicode="&#x412;" horiz-adv-x="611" 
d="M170 662h227q99 0 146 -37q24 -18 38.5 -48t14.5 -60q0 -34 -17.5 -68.5t-46.5 -56.5q-33 -27 -100 -43q111 -41 111 -141q0 -50 -25.5 -94.5t-69.5 -71.5q-40 -25 -90 -33.5t-161 -8.5h-192l5 18q50 1 70 18t33 69l123 457q6 22 6 40q0 27 -26 37q-14 5 -51 5zM345 621
l-68 -254q33 -1 47 -1q80 0 128 43t48 115q0 48 -31 74.5t-88 26.5q-16 0 -36 -4zM268 332l-77 -286q37 -8 62 -8q83 0 134.5 50t51.5 129q0 117 -139 117q-6 0 -32 -2z" />
    <glyph glyph-name="afii10020" unicode="&#x413;" horiz-adv-x="569" 
d="M350 626l-141 -526q-6 -25 -6 -39q0 -23 15.5 -32.5t56.5 -10.5l-5 -18h-259l5 18q46 1 65.5 18.5t32.5 68.5l122 458q6 19 6 37q0 25 -15 34t-57 10l5 18h461l-46 -174h-17q8 47 8 69q0 43 -29 60q-14 9 -55 9h-147z" />
    <glyph glyph-name="afii10021" unicode="&#x414;" horiz-adv-x="636" 
d="M716 662l-5 -18q-55 0 -75 -15.5t-34 -68.5l-127 -475q-4 -12 -4 -24q0 -30 48 -30h53l-52 -187h-18q2 13 3 17q9 43 9 68q0 37 -17.5 54t-54.5 17h-336q-72 0 -104 -29.5t-66 -126.5h-18l50 187h24q38 0 59 10t52 44q51 57 84.5 128.5t62.5 182.5q38 147 38 201
q0 47 -67 47h-16l4 18h507zM523 626h-180q-12 -50 -43 -199q-62 -282 -195 -391h260z" />
    <glyph glyph-name="afii10022" unicode="&#x415;" horiz-adv-x="611" 
d="M266 331l-64 -239q-5 -19 -5 -27q0 -18 17 -23t81 -5q104 0 177 53q46 32 76 98h16l-61 -188h-494l5 18q44 1 63 19t32 68l122 458q6 21 6 40q0 24 -21 34q-14 7 -58 7l4 18h481l-42 -158h-18q5 21 5 36q0 47 -32 66.5t-108 19.5h-103l-70 -259h67q58 -2 86.5 20t44.5 80
h19l-66 -241h-17q9 42 9 58q0 47 -75 47h-77z" />
    <glyph glyph-name="afii10024" unicode="&#x416;" horiz-adv-x="916" 
d="M451 358l48 205q4 22 4 35q0 31 -27 41q-14 5 -46 5l4 18h272l-4 -18q-55 0 -75 -16t-33 -71l-46 -199h16q29 25 89 75q63 54 88 75q72 60 95.5 84t23.5 38t-33 14h-18l5 18h194l-5 -18q-32 -3 -67 -26t-120 -97q-101 -87 -179 -149l148 -292q33 -64 86 -62l-5 -18h-231
l4 18q21 0 34.5 8.5t13.5 21.5q0 9 -14 37l-114 240h-19l-52 -225q-5 -21 -5 -35q0 -25 18 -37q13 -9 55 -10l-4 -18h-259l4 18q46 1 65 18t30 69l52 220h-18l-247 -245l-16 -15q-17 -16 -17 -25q0 -11 7 -15.5t27 -6.5l-4 -18h-232l5 18q35 12 60.5 28.5t63.5 52.5l293 283
q-45 61 -93 139q-47 75 -69 97.5t-52 25.5l5 18h193l-5 -18h-17q-44 0 -44 -27q0 -37 43 -108.5t112 -150.5h12z" />
    <glyph glyph-name="afii10025" unicode="&#x417;" horiz-adv-x="495" 
d="M148 480h-17l39 186h16q0 -28 23 -28q10 0 61 17q28 10 72 10q74 0 119.5 -39.5t45.5 -103.5q0 -76 -63 -125q-36 -28 -110 -47q44 -13 68 -30q55 -41 55 -121q0 -90 -69 -149.5t-173 -59.5q-101 0 -164 66q-30 34 -54 96l24 9q52 -117 162 -117q74 0 122 47.5t48 120.5
q0 59 -38 92t-108 33q-14 0 -26 -1l12 37q15 -2 33 -2q80 0 130 39t50 102q0 50 -30 81t-79 31q-107 0 -149 -144z" />
    <glyph glyph-name="afii10026" unicode="&#x418;" horiz-adv-x="722" 
d="M574 505l-384 -409q-5 -22 -5 -36q0 -29 26 -37q10 -4 46 -5l-5 -18h-259l5 18q46 1 65.5 18.5t32.5 68.5l122 458q6 18 6 37q0 25 -15.5 34t-56.5 10l5 18h272l-5 -18q-55 0 -75.5 -16t-34.5 -71l-104 -388l383 411q2 10 2 20q0 25 -15.5 34t-56.5 10l5 18h272l-5 -18
q-55 0 -76 -16.5t-34 -70.5l-123 -457q-6 -24 -6 -39q0 -23 15.5 -32.5t56.5 -10.5l-5 -18h-259l5 18q46 1 65 18t33 69z" />
    <glyph glyph-name="afii10027" unicode="&#x419;" horiz-adv-x="722" 
d="M574 505l-384 -409q-5 -22 -5 -36q0 -29 26 -37q10 -4 46 -5l-5 -18h-259l5 18q46 1 65.5 18.5t32.5 68.5l122 458q6 18 6 37q0 25 -15.5 34t-56.5 10l5 18h272l-5 -18q-55 0 -75.5 -16t-34.5 -71l-104 -388l383 411q2 10 2 20q0 25 -15.5 34t-56.5 10l5 18h272l-5 -18
q-55 0 -76 -16.5t-34 -70.5l-123 -457q-6 -24 -6 -39q0 -23 15.5 -32.5t56.5 -10.5l-5 -18h-259l5 18q46 1 65 18t33 69zM568 799v7q0 23 12.5 36.5t33.5 13.5q19 0 30.5 -10t11.5 -26q0 -26 -25 -54q-48 -51 -141 -51q-59 0 -95 23t-36 61q0 25 15 41t39 16q18 0 29 -9.5
t11 -24.5q0 -11 -12 -33q-5 -10 -5 -15q0 -12 18.5 -21.5t41.5 -9.5q29 0 51 12.5t22 29.5q0 2 -1 14z" />
    <glyph glyph-name="afii10028" unicode="&#x41a;" horiz-adv-x="664" 
d="M261 349l-66 -249q-5 -25 -5 -40q0 -24 21 -35q14 -7 58 -7l-6 -18h-268l5 18q47 1 67 18t33 69l123 458q6 21 6 39q0 25 -21 35q-14 7 -55 7l5 18h267l-5 -18q-49 -1 -69 -18t-33 -69l-51 -191l279 234q21 18 21 26q0 10 -11 14t-39 4l5 18h201l-6 -18q-52 -1 -108 -44
l-264 -216l141 -254q37 -67 66.5 -90t76.5 -22l-6 -18h-269l6 18q34 3 47.5 10.5t13.5 23.5q0 19 -17 48z" />
    <glyph glyph-name="afii10029" unicode="&#x41b;" horiz-adv-x="677" 
d="M555 626h-172q-49 -194 -80 -291.5t-66 -173.5q-42 -91 -85 -131t-98 -40q-34 0 -54 15.5t-20 42.5q0 22 14.5 35t38.5 13q19 0 47 -17q18 -11 29 -11q55 0 127 201q34 95 63 201t29 132q0 42 -72 42h-9l4 18h497l-5 -18q-55 0 -75.5 -16t-35.5 -70l-122 -458
q-6 -24 -6 -38q0 -24 15.5 -33.5t55.5 -10.5l-5 -18h-258l5 18q46 1 65 18t33 69z" />
    <glyph glyph-name="afii10030" unicode="&#x41c;" horiz-adv-x="833" 
d="M391 152l346 510h165l-5 -18q-51 0 -71.5 -16.5t-34.5 -70.5l-122 -457q-6 -22 -6 -39q0 -24 15.5 -33t58.5 -10l-5 -18h-267l5 18q49 1 69.5 18t34.5 69l112 419l-351 -524h-18l-61 562l-124 -462q-6 -27 -6 -39q0 -26 21 -36q14 -7 57 -7l-5 -18h-207l5 18
q47 1 66.5 18t33.5 69l129 483q5 20 5 23q0 12 -25 24q-15 7 -52 9l5 18h177z" />
    <glyph glyph-name="afii10031" unicode="&#x41d;" horiz-adv-x="722" 
d="M257 330l-62 -230q-6 -23 -6 -41q0 -26 26 -36q15 -5 46 -5l-5 -18h-259l5 18q46 1 65.5 18.5t32.5 68.5l122 458q6 21 6 39q0 27 -26 37q-15 5 -46 5l5 18h272l-5 -18q-55 0 -75.5 -16t-34.5 -71l-51 -190h269l52 196q6 21 6 40q0 23 -16 32t-56 9l5 18h268l-5 -18
q-52 0 -72 -16.5t-34 -70.5l-122 -457q-6 -23 -6 -40q0 -27 26 -37q15 -5 47 -5l-5 -18h-266l5 18q50 1 70 18t33 69l60 225h-269z" />
    <glyph glyph-name="afii10032" unicode="&#x41e;" horiz-adv-x="722" 
d="M470 671q101 0 162.5 -65.5t61.5 -172.5q0 -87 -44 -183t-117 -169q-93 -91 -214 -91q-109 0 -169.5 64t-60.5 179q0 79 37.5 166t100.5 155q52 55 116 86t127 31zM464 633q-39 0 -77 -22t-67 -60q-53 -71 -90.5 -177.5t-37.5 -184.5q0 -77 34 -120.5t95 -43.5
q49 0 98 38t84 104q40 76 64 160t24 148q0 74 -33.5 116t-93.5 42z" />
    <glyph glyph-name="afii10033" unicode="&#x41f;" horiz-adv-x="722" 
d="M329 626l-141 -526q-6 -25 -6 -39q0 -30 26 -38q10 -4 46 -5l-5 -18h-259l5 18q46 1 65.5 18.5t32.5 68.5l122 458q6 19 6 37q0 25 -15 34t-57 10l5 18h643l-5 -18q-55 0 -75.5 -16t-34.5 -70l-123 -458q-6 -27 -6 -39q0 -23 15.5 -32.5t56.5 -10.5l-6 -18h-258l5 18
q46 1 65.5 18t32.5 69l140 521h-275z" />
    <glyph glyph-name="afii10034" unicode="&#x420;" horiz-adv-x="611" 
d="M269 324l-61 -224q-6 -19 -6 -38q0 -29 26 -39q15 -5 54 -5l-6 -18h-270l5 18q48 1 68 18t33 69l123 458q6 24 6 38q0 24 -16 33t-60 10l5 18h203q96 0 142 -23q40 -19 62.5 -53t22.5 -76q0 -88 -68 -143.5t-177 -55.5q-37 0 -86 13zM347 619l-71 -264q32 -9 58 -9
q71 0 118 48.5t47 121.5q0 49 -28.5 78.5t-75.5 29.5q-19 0 -48 -5z" />
    <glyph glyph-name="afii10035" unicode="&#x421;" horiz-adv-x="667" 
d="M668 472l-18 3q-17 163 -157 163q-103 0 -178 -77q-58 -61 -91.5 -146.5t-33.5 -174.5q0 -101 47 -156.5t132 -55.5q63 0 113.5 26t118.5 93l18 -14q-68 -80 -132.5 -115.5t-142.5 -35.5q-118 0 -193 75t-75 193q0 110 56.5 208.5t151 157.5t200.5 59q49 0 119 -17
q29 -7 41 -7q28 0 38 22h22z" />
    <glyph glyph-name="afii10036" unicode="&#x422;" horiz-adv-x="556" 
d="M437 626l-141 -526q-6 -26 -6 -40q0 -35 45 -41q8 -1 45 -1l-4 -18h-291l5 18q56 0 76.5 16t34.5 71l140 521h-64q-149 5 -179 -138h-19l47 174h544l-47 -174h-17q7 38 7 69q0 69 -86 69h-90z" />
    <glyph glyph-name="afii10037" unicode="&#x423;" horiz-adv-x="673" 
d="M143 662h282l-6 -18h-21q-54 0 -54 -47q0 -8 2 -22l77 -330l185 292q47 74 47 88q0 19 -41 19h-29l5 18h209l-5 -18q-41 -2 -75.5 -35.5t-91.5 -124.5l-163 -264q-62 -99 -79.5 -125t-42.5 -57q-45 -57 -113 -57q-41 0 -69 22.5t-28 54.5q0 23 14.5 38t37.5 15
q18 0 27 -6t37 -37q14 -16 30 -16q27 0 85 97l-124 426q-11 38 -28 53t-53 16h-19z" />
    <glyph glyph-name="afii10038" unicode="&#x424;" horiz-adv-x="804" 
d="M658 665h-12q-45 0 -67 -17.5t-31 -61.5q119 -3 177 -34q72 -41 72 -132q0 -73 -36 -143.5t-95 -114.5q-48 -36 -100 -51.5t-147 -22.5l-3 -13q-6 -23 -6 -35q0 -24 14.5 -33.5t50.5 -9.5h11l-7 -27h-278l7 27h11q45 1 66 17.5t33 60.5l3 13q-109 1 -166 34
q-80 45 -80 145q0 78 43.5 151.5t113.5 114.5q80 48 217 53q6 20 6 36q0 24 -14 33.5t-49 9.5h-12l7 27h278zM329 119l113 437q-107 -10 -169 -64q-42 -38 -69 -106t-27 -137q0 -43 14.5 -69t48.5 -42q36 -17 89 -19zM541 558l-113 -439q75 8 118.5 29.5t78.5 66.5
q30 39 49.5 97t19.5 109q0 63 -36.5 96t-116.5 41z" />
    <glyph glyph-name="afii10039" unicode="&#x425;" horiz-adv-x="611" 
d="M306 266l-157 -192q-18 -23 -18 -33q0 -23 47 -23h21l-6 -18h-209l6 18q27 0 68.5 27.5t72.5 66.5l164 198l-69 249q-17 50 -35 67t-55 18h-18l6 18h268l-6 -18h-15q-55 0 -55 -37q0 -12 6 -42l43 -165l148 178q23 28 23 44q0 22 -33 22h-11l6 18h201l-5 -18
q-47 -2 -78.5 -21.5t-78.5 -76.5l-159 -191l63 -232q17 -63 33.5 -83t51.5 -22h14l-6 -18h-255l6 18h17q27 0 42 11t15 31q0 7 -4 27z" />
    <glyph glyph-name="afii10040" unicode="&#x426;" horiz-adv-x="722" 
d="M527 662h272l-4 -18q-56 0 -76.5 -16t-34.5 -71l-123 -459q-7 -27 -7 -37q0 -30 31 -30h67l-53 -187h-18q13 52 13 88q0 43 -27 58q-17 10 -66 10h-508l5 18q46 1 65.5 18t32.5 67l122 459q6 20 6 38q0 25 -15.5 34t-56.5 10l6 18h271l-5 -18q-55 0 -75.5 -16t-34.5 -71
l-141 -521h275l141 526q6 27 6 38q0 25 -15.5 34t-56.5 10z" />
    <glyph glyph-name="afii10041" unicode="&#x427;" horiz-adv-x="689" 
d="M430 105l55 212q-94 -27 -175 -27q-70 0 -107 26t-37 75q0 17 7 46l34 126q6 23 6 37q0 25 -15.5 34t-56.5 10l5 18h271l-4 -18q-56 0 -76.5 -16t-34.5 -71l-38 -141q-2 -10 -2 -20q0 -65 98 -65q60 0 136 23l55 209q6 23 6 38q0 24 -15.5 33t-56.5 10l4 18h273l-5 -18
q-56 0 -76.5 -16t-34.5 -71l-122 -457q-6 -22 -6 -38q0 -24 15.5 -33.5t55.5 -10.5l-5 -18h-259l5 18q47 1 66.5 18.5t33.5 68.5z" />
    <glyph glyph-name="afii10042" unicode="&#x428;" horiz-adv-x="1043" 
d="M215 36h211l141 526q6 24 6 39q0 24 -15.5 33t-56.5 10l6 18h271l-5 -18q-56 0 -76.5 -16t-34.5 -71l-140 -521h211l141 526q6 24 6 39q0 24 -15.5 33t-56.5 10l5 18h272l-5 -18q-56 0 -76.5 -16t-34.5 -71l-122 -458q-6 -23 -6 -38q0 -24 15 -33t56 -10l-5 -18h-872
l5 18q46 1 65.5 18t32.5 68l122 458q6 20 6 38q0 25 -15.5 34t-56.5 10l6 18h271l-5 -18q-55 0 -75.5 -16t-34.5 -71z" />
    <glyph glyph-name="afii10043" unicode="&#x429;" horiz-adv-x="1043" 
d="M884 -156h-18q13 49 13 90q0 66 -72 66h-772l5 18q46 1 65.5 18t32.5 68l122 458q6 20 6 38q0 25 -15.5 34t-56.5 10l6 18h271l-5 -18q-55 0 -75.5 -16t-34.5 -71l-141 -521h211l141 526q6 24 6 39q0 24 -15.5 33t-56.5 10l6 18h271l-5 -18q-56 0 -76.5 -16t-34.5 -71
l-140 -521h211l140 526q7 27 7 39q0 24 -15.5 33t-56.5 10l5 18h272l-5 -18q-56 0 -76.5 -16t-34.5 -71l-125 -469q-5 -20 -5 -29q0 -16 9.5 -22t35.5 -6h53z" />
    <glyph glyph-name="afii10044" unicode="&#x42a;" horiz-adv-x="676" 
d="M518 662l-5 -18q-55 0 -75.5 -16t-34.5 -70l-47 -177q32 3 47 3q107 0 169 -47.5t62 -129.5q0 -105 -99 -165q-71 -42 -195 -42h-258l5 18q46 1 65.5 18t32.5 68l140 522h-64q-109 0 -153 -126h-16l42 162h384zM346 344l-80 -301q34 -6 61 -6q90 0 146.5 50t56.5 129
q0 130 -151 130q-7 0 -33 -2z" />
    <glyph glyph-name="afii10045" unicode="&#x42b;" horiz-adv-x="872" 
d="M316 557l-47 -176q33 3 48 3q107 0 169 -47.5t62 -129.5q0 -50 -26 -93.5t-73 -71.5q-72 -42 -195 -42h-258l5 18q46 1 65 18t33 68l122 458q6 22 6 38q0 25 -15.5 34t-56.5 10l5 18h272l-5 -18q-56 0 -76.5 -16t-34.5 -71zM259 343l-80 -300q34 -6 62 -6q90 0 146.5 50
t56.5 129q0 130 -151 130q-13 0 -34 -3zM787 18l-5 -18h-259l5 18q46 1 65.5 18.5t32.5 68.5l122 458q6 20 6 38q0 24 -15.5 33t-56.5 10l5 18h272l-5 -18q-55 0 -75.5 -16t-34.5 -71l-123 -457q-6 -24 -6 -39q0 -23 15.5 -32.5t56.5 -10.5z" />
    <glyph glyph-name="afii10046" unicode="&#x42c;" horiz-adv-x="590" 
d="M313 557l-47 -176q33 3 48 3q107 0 169 -47.5t62 -129.5q0 -50 -26 -93.5t-73 -71.5q-72 -42 -195 -42h-258l5 18q46 1 65 18t33 68l122 458q6 22 6 38q0 25 -15.5 34t-56.5 10l5 18h272l-5 -18q-56 0 -76.5 -16t-34.5 -71zM256 343l-80 -300q34 -6 62 -6q90 0 146.5 50
t56.5 129q0 130 -152 130q-12 0 -33 -3z" />
    <glyph glyph-name="afii10047" unicode="&#x42d;" horiz-adv-x="655" 
d="M169 473l45 196h16v-9q0 -11 6 -18t16 -7q11 0 32 7q75 28 133 28q97 0 156 -65t59 -172q0 -112 -55 -215t-145.5 -165.5t-188.5 -62.5q-89 0 -149 66q-35 40 -60 114l25 10q53 -140 170 -140q96 0 172 87q37 42 60 84.5t51 119.5h-107q-68 1 -104 -24.5t-46 -80.5h-16
l60 234h18q-7 -32 -7 -45q0 -29 16.5 -39.5t60.5 -10.5h135q13 53 13 99q0 81 -38 125.5t-107 44.5q-80 0 -140 -60q-32 -32 -63 -101h-18z" />
    <glyph glyph-name="afii10048" unicode="&#x42e;" horiz-adv-x="1032" 
d="M421 331h-146l-62 -231q-6 -23 -6 -40q0 -29 26 -37q10 -4 46 -5l-5 -18h-259l5 18q46 1 65.5 18.5t32.5 68.5l122 458q6 18 6 38q0 24 -15.5 33t-56.5 10l5 18h272l-5 -18q-55 0 -75.5 -16t-34.5 -71l-51 -190h147q48 134 147.5 216t213.5 82q96 0 157 -66t61 -170
q0 -71 -31.5 -150.5t-86.5 -149.5q-110 -139 -262 -139q-104 0 -164.5 64t-60.5 174q0 48 15 103zM782 628q-106 0 -185 -144q-39 -72 -63.5 -154t-24.5 -142q0 -83 38 -125q36 -39 87 -39q137 0 225 228q49 123 49 219q0 74 -33.5 115.5t-92.5 41.5z" />
    <glyph glyph-name="afii10049" unicode="&#x42f;" horiz-adv-x="657" 
d="M454 296h-40q-28 -3 -40 -10.5t-40 -39.5l-229 -246h-160l5 18q36 4 68 25t80 71l100 106q47 50 67 63.5t60 23.5q-69 9 -101 37q-42 39 -42 107q0 52 24.5 97t67.5 73q64 41 181 41h281l-5 -18q-56 0 -76.5 -16t-33.5 -70l-123 -458q-6 -24 -6 -38q0 -24 15.5 -33.5
t55.5 -10.5l-4 -18h-259l5 18q46 1 65.5 18.5t32.5 68.5zM465 337l76 285q-57 3 -72 3q-85 0 -134 -45.5t-49 -123.5q0 -60 31.5 -92t91.5 -32q22 0 56 5z" />
    <glyph glyph-name="afii10065" unicode="&#x430;" 
d="M442 103l13 -13q-71 -101 -129 -101q-20 0 -31.5 12.5t-11.5 33.5q0 11 10 50q5 17 9 34q-47 -64 -85 -92q-53 -38 -99 -38q-40 0 -64.5 31t-24.5 83q0 72 41.5 152.5t105 133.5t120.5 53q59 0 74 -68l14 53l76 10l-91 -342q0 -2 -1 -4t-2 -5.5t-2 -5.5q-6 -26 -6 -29
q0 -12 13 -12q27 0 71 64zM298 413q-56 0 -112 -83q-80 -117 -80 -211q0 -71 53 -71q65 0 129 100t64 201q0 29 -14.5 46.5t-39.5 17.5z" />
    <glyph glyph-name="afii10066" unicode="&#x431;" horiz-adv-x="503" 
d="M520 673h16q-19 -62 -53 -86t-109 -28q-86 -3 -137.5 -51t-99.5 -172q82 106 177 106q61 0 100 -46t39 -119q0 -62 -27 -120t-75 -100q-79 -68 -152 -68q-61 0 -97 45.5t-36 122.5q0 83 43.5 200t98.5 184q86 105 212 105q19 0 32 -1q10 -1 26 -1q20 0 29 6t13 23z
M306 417q-61 0 -111 -74q-60 -91 -60 -229q0 -47 19.5 -74.5t53.5 -27.5q64 0 109 86q26 49 42.5 109.5t16.5 109.5q0 44 -19.5 72t-50.5 28z" />
    <glyph glyph-name="afii10067" unicode="&#x432;" horiz-adv-x="434" 
d="M258 230q115 0 115 -92q0 -63 -54 -106t-133 -43q-72 0 -110 39.5t-38 114.5q0 119 84.5 209t195.5 90q49 0 79.5 -22.5t30.5 -59.5q0 -43 -44 -78q-31 -26 -126 -52zM139 228q119 24 173 69q44 38 44 75q0 20 -12.5 32t-33.5 12q-50 0 -98 -51q-40 -44 -73 -137z
M130 195q-10 -50 -10 -88q0 -93 66 -93q44 0 74 37t30 92q0 67 -69 67q-30 0 -91 -15z" />
    </font>
</defs>
</svg>
